<svg width="560" height="560" viewBox="0 0 560 560" fill="none" xmlns="http://www.w3.org/2000/svg">
<path d="M169 9H391C479.366 9 551 80.6344 551 169V391C551 479.366 479.366 551 391 551H169C80.6344 551 9 479.366 9 391V169C9 80.6344 80.6344 9 169 9Z" fill="#FCFCFC" stroke="#191970" stroke-width="18"/>
<circle cx="335.784" cy="280.938" r="85" fill="#A7E4FF" stroke="black" stroke-width="12"/>
<path d="M396.827 342.987L410.994 357.278L404.436 363.778L390.269 349.487L396.827 342.987Z" fill="#FFD68D" stroke="black" stroke-width="12"/>
<path fill-rule="evenodd" clip-rule="evenodd" d="M335.784 351.438C346.618 345.771 365.084 328.538 352.284 304.938C350.618 301.438 346.784 293.938 344.784 291.938C347.618 287.938 353.184 276.038 352.784 260.438C352.284 240.938 349.284 238.438 338.284 221.438C338.784 220.771 340.684 219.338 344.284 218.938C348.784 218.438 353.284 214.938 350.284 211.438C347.284 207.938 344.284 208.438 339.784 208.938C336.184 209.338 333.618 211.104 332.784 211.938C330.284 208.938 324.584 203.438 321.784 205.438C318.284 207.938 317.784 209.938 319.284 213.438C320.484 216.238 322.118 217.271 322.784 217.438C316.951 220.938 305.284 231.338 305.284 244.938C305.284 258.538 315.618 273.938 320.784 279.938L330.784 291.938C328.951 294.771 323.084 301.438 314.284 305.438C303.284 310.438 297.784 310.938 297.784 314.938C297.784 318.938 302.284 321.438 304.284 320.938C306.284 320.538 307.784 319.771 308.284 319.438L329.784 342.438C325.784 343.438 317.684 346.138 317.284 348.938C316.784 352.438 318.284 354.938 321.284 355.438C323.684 355.838 331.951 352.938 335.784 351.438ZM334.284 339.438L315.284 317.438L321.284 313.938L341.284 333.438C340.084 335.838 336.118 338.438 334.284 339.438ZM330.784 307.438C329.984 309.038 327.118 310.104 325.784 310.438L344.284 327.938C345.484 326.738 345.784 323.438 345.784 321.938L330.784 307.438ZM343.284 311.938L334.784 303.938L337.784 300.938C339.384 302.538 342.118 308.938 343.284 311.938ZM339.284 276.938C339.684 279.338 338.451 281.271 337.784 281.938C335.384 280.338 331.451 275.271 329.784 272.938L339.284 276.938ZM340.784 265.938C341.984 269.138 340.951 271.271 340.284 271.938L322.284 261.938C320.284 260.338 318.784 256.604 318.284 254.938L340.784 265.938ZM341.784 254.938V258.938L317.784 248.438C316.184 247.238 316.784 243.604 317.284 241.938L341.784 254.938ZM340.284 248.438L319.284 236.438C318.884 235.238 320.451 233.938 321.284 233.438L337.784 242.938C339.784 244.938 340.284 247.438 340.284 248.438ZM333.784 233.938L325.784 229.438L328.784 226.938C331.184 228.138 333.118 232.104 333.784 233.938Z" fill="black"/>
<path fill-rule="evenodd" clip-rule="evenodd" d="M496.498 423.31L467.769 452.438C466.778 453.108 464.401 454.447 462.816 454.447C460.834 454.447 458.853 454.447 456.376 451.936C454.395 449.927 410.64 404.896 389.01 382.632C388.35 382.13 387.029 380.523 387.029 378.112C387.029 375.099 387.029 374.094 389.01 372.086C390.595 370.478 409.815 351.328 419.226 341.953C419.721 341.451 421.504 340.447 424.675 340.447C427.845 340.447 429.628 342.121 430.123 342.958L496.498 410.755C497.489 411.927 499.371 414.773 498.975 416.782C498.48 419.293 498.975 419.795 496.498 423.31ZM462.32 440.385C441.846 419.627 400.898 378.012 400.898 377.61L424.179 354.508L485.601 417.284L462.32 440.385Z" fill="black"/>
<path d="M400.898 377.61C400.898 378.012 441.846 419.627 462.32 440.385L485.601 417.284L424.179 354.508L400.898 377.61Z" fill="#FFD68D"/>
<path fill-rule="evenodd" clip-rule="evenodd" d="M90.0291 426.947C89.6957 428.447 89.8291 431.847 93.0291 433.447C96.2291 435.047 98.3624 433.447 99.029 432.447L141.029 366.947C151.696 369.447 178.929 374.147 202.529 372.947C226.129 371.747 253.696 363.447 264.529 359.447C265.696 358.947 268.229 357.747 269.029 356.947C270.029 355.947 270.029 353.447 270.029 352.947C270.029 352.447 270.029 350.947 268.529 349.447C267.029 347.947 259.529 340.947 254.029 330.947C248.529 320.947 239.029 304.447 239.029 283.947C239.029 263.447 245.529 240.947 256.529 225.947C267.529 210.947 276.029 204.947 287.029 198.947C298.029 192.947 307.029 189.947 313.529 188.947C320.029 187.947 321.029 187.447 322.029 185.947C323.029 184.447 323.029 179.947 322.529 175.447C322.029 170.947 319.029 159.447 312.029 144.947C305.029 130.447 299.529 124.447 298.029 112.447C296.529 100.447 297.029 97.4467 297.029 95.4467C297.029 93.4467 296.029 90.9467 294.029 89.9467C292.029 88.9467 291.529 88.4467 287.529 89.9467C283.529 91.4467 241.029 111.447 186.529 123.447C132.029 135.447 99.529 170.947 90.529 180.947C81.529 190.947 70.529 216.947 70.029 242.947C69.529 268.947 75.529 297.947 85.029 312.947C92.629 324.947 117.862 351.947 129.529 363.947L90.0291 426.947ZM255.029 350.947C220.629 367.747 168.362 362.613 146.529 357.947L185.029 297.447L231.029 303.447C239.029 334.447 255.029 349.447 255.029 350.947ZM175.029 292.447L136.029 354.447C111.529 333.947 97.0291 313.947 88.5291 292.447C80.0291 270.947 82.0291 263.447 81.5291 244.447C81.0291 225.447 86.5291 211.947 92.5291 199.447C98.5291 186.947 113.529 170.947 128.529 160.947C143.529 150.947 188.529 131.947 219.029 125.947C243.429 121.147 272.862 108.613 284.529 102.947C287.029 113.613 293.429 137.047 299.029 145.447C304.629 153.847 309.362 170.613 311.029 177.947C304.196 179.447 287.029 184.847 273.029 194.447C259.029 204.047 247.196 220.113 243.029 226.947H230.529L258.529 182.447C269.862 179.28 292.829 172.847 294.029 172.447C295.529 171.947 298.529 169.447 296.529 164.947C294.929 161.347 291.196 161.447 289.529 161.947L257.029 171.447C253.362 162.447 245.629 143.547 244.029 139.947C242.029 135.447 241.529 133.947 236.029 134.947C231.629 135.747 231.862 140.613 232.529 142.947L247.529 178.947L220.529 221.947C207.529 204.447 181.129 168.947 179.529 166.947C177.529 164.447 175.529 163.947 171.529 166.447C168.329 168.447 169.862 172.28 171.029 173.947L214.029 231.447L181.529 282.947C159.529 260.613 114.929 215.347 112.529 212.947C109.529 209.947 106.529 210.447 104.029 213.447C102.029 215.847 103.529 219.113 104.529 220.447L175.029 292.447ZM223.029 237.947L192.029 287.447L229.529 291.947C225.929 271.547 233.029 247.447 237.029 237.947H223.029Z" fill="black"/>
<path d="M136.029 354.447L175.029 292.447L104.529 220.447C103.529 219.113 102.029 215.847 104.029 213.447C106.529 210.447 109.529 209.947 112.529 212.947C114.929 215.347 159.529 260.613 181.529 282.947L214.029 231.447L171.029 173.947C169.862 172.28 168.329 168.447 171.529 166.447C175.529 163.947 177.529 164.447 179.529 166.947C181.129 168.947 207.529 204.447 220.529 221.947L247.529 178.947L232.529 142.947C231.862 140.613 231.629 135.747 236.029 134.947C241.529 133.947 242.029 135.447 244.029 139.947C245.629 143.547 253.362 162.447 257.029 171.447L289.529 161.947C291.196 161.447 294.929 161.347 296.529 164.947C298.529 169.447 295.529 171.947 294.029 172.447C292.829 172.847 269.862 179.28 258.529 182.447L230.529 226.947H243.029C247.196 220.113 259.029 204.047 273.029 194.447C287.029 184.847 304.196 179.447 311.029 177.947C309.362 170.613 304.629 153.847 299.029 145.447C293.429 137.047 287.029 113.613 284.529 102.947C272.862 108.613 243.429 121.147 219.029 125.947C188.529 131.947 143.529 150.947 128.529 160.947C113.529 170.947 98.5291 186.947 92.5291 199.447C86.5291 211.947 81.0291 225.447 81.5291 244.447C82.0291 263.447 80.0291 270.947 88.5291 292.447C97.0291 313.947 111.529 333.947 136.029 354.447Z" fill="#00AA27"/>
<path d="M192.029 287.447L223.029 237.947H237.029C233.029 247.447 225.929 271.547 229.529 291.947L192.029 287.447Z" fill="#00AA27"/>
<path d="M146.529 357.947C168.362 362.613 220.629 367.747 255.029 350.947C255.029 349.447 239.029 334.447 231.029 303.447L185.029 297.447L146.529 357.947Z" fill="#00AA27"/>
</svg>
