<svg width="560" height="560" viewBox="0 0 560 560" fill="none" xmlns="http://www.w3.org/2000/svg">
<rect width="560" height="560" rx="169" fill="white"/>
<path d="M341.618 274.268H354.481C355.672 274.03 358.054 274.554 358.054 278.553C358.054 282.553 355.672 283.077 354.481 282.839H341.618C340.427 282.362 338.045 280.696 338.045 277.839C338.045 274.982 340.427 274.268 341.618 274.268Z" fill="black"/>
<path fill-rule="evenodd" clip-rule="evenodd" d="M62.2096 366.402C60.5422 368.544 58.2078 373.83 62.2096 377.829C66.2113 381.829 71.4994 379.496 73.6432 377.829L184.406 240.7L295.169 228.558C311.605 225.939 348.478 221.845 364.485 226.416C384.494 232.129 357.339 244.985 350.908 247.842C345.762 250.128 293.978 262.603 268.729 268.554C258.962 270.221 239.287 275.268 238.716 282.124C238.001 290.695 247.291 295.694 265.156 312.836C279.448 326.549 297.789 343.309 305.173 349.975H400.93L467.387 278.553C469.293 276.411 474.533 272.982 480.25 276.411C485.967 279.839 482.632 287.362 480.25 290.695L416.651 374.258H198.698L145.103 449.251C143.197 452.346 140.958 459.393 147.247 462.821C153.535 466.249 157.966 461.392 159.395 458.536L206.559 391.399H423.082L495.971 295.694C499.306 290.457 503.689 277.696 494.542 268.554C483.108 257.127 478.821 259.27 473.104 259.27C467.387 259.27 459.527 263.555 457.383 267.126C454.524 264.507 446.521 259.27 437.374 259.27C425.94 259.27 420.938 265.697 416.651 272.125C414.983 270.459 410.362 266.697 405.217 264.983L387.352 233.558C387.352 228.32 385.351 217.274 377.348 214.988L360.912 186.42V142.852C363.294 141.9 368.201 138.853 368.773 134.282V104.285C368.534 101.19 366.629 95 360.912 95H284.45C281.83 95.2381 276.589 97.4283 276.589 104.285V134.282C277.066 137.139 279.305 142.852 284.45 142.852V184.991L268.729 213.56L190.123 221.416C184.168 222.368 171.257 226.416 167.256 234.986C166.112 234.986 96.7485 322.597 62.2096 366.402ZM422.367 304.979C422.367 298.694 420.938 294.266 420.224 292.838L433.801 276.411C441.233 272.411 444.996 277.125 445.949 279.982L422.367 304.979ZM354.481 109.999H291.596V126.425C299.028 126.425 300.886 132.139 300.886 134.996V189.991L288.023 212.131C313.748 208.703 344 208.322 355.91 208.56L345.905 189.991V134.996C345.905 128.711 351.622 126.664 354.481 126.425V109.999ZM404.502 296.409L378.062 248.556C376.633 251.413 370.631 258.27 358.054 262.841C359.769 265.697 356.386 268.792 354.481 269.983H337.33L260.868 287.838L310.89 332.834H396.642C397.118 332.358 399.357 329.691 404.502 322.835C409.648 315.978 406.646 302.361 404.502 296.409Z" fill="black"/>
<path d="M291.596 109.999H354.481V126.425C351.622 126.664 345.905 128.711 345.905 134.996V189.991L355.91 208.56C344 208.322 313.748 208.703 288.023 212.131L300.886 189.991V134.996C300.886 132.139 299.028 126.425 291.596 126.425V109.999Z" fill="#96DFFF" fill-opacity="0.9"/>
<path fill-rule="evenodd" clip-rule="evenodd" d="M378.062 248.556L404.502 296.409C406.646 302.361 409.648 315.978 404.502 322.835C399.357 329.691 397.118 332.358 396.642 332.834H310.89L260.868 287.838L337.33 269.983H354.481C356.386 268.792 359.769 265.697 358.054 262.841C370.631 258.27 376.633 251.413 378.062 248.556ZM354.481 274.268H341.618C340.427 274.268 338.045 274.982 338.045 277.839C338.045 280.696 340.427 282.362 341.618 282.839H354.481C355.672 283.077 358.054 282.553 358.054 278.553C358.054 274.554 355.672 274.03 354.481 274.268Z" fill="#96DFFF" fill-opacity="0.9"/>
</svg>
