<svg width="560" height="744" viewBox="0 0 560 744" fill="none" xmlns="http://www.w3.org/2000/svg">
<rect width="560" height="560" rx="169" fill="white"/>
<path d="M341.618 274.268H354.481C355.672 274.03 358.054 274.554 358.054 278.553C358.054 282.553 355.672 283.077 354.481 282.839H341.618C340.427 282.362 338.045 280.696 338.045 277.839C338.045 274.982 340.427 274.268 341.618 274.268Z" fill="black"/>
<path fill-rule="evenodd" clip-rule="evenodd" d="M62.2096 366.402C60.5422 368.544 58.2078 373.83 62.2096 377.829C66.2113 381.829 71.4994 379.496 73.6432 377.829L184.406 240.7L295.169 228.558C311.605 225.939 348.478 221.845 364.485 226.416C384.494 232.129 357.339 244.985 350.908 247.842C345.762 250.128 293.978 262.603 268.729 268.554C258.962 270.221 239.287 275.268 238.716 282.124C238.001 290.695 247.291 295.694 265.156 312.836C279.448 326.549 297.789 343.309 305.173 349.975H400.93L467.387 278.553C469.293 276.411 474.533 272.982 480.25 276.411C485.967 279.839 482.632 287.362 480.25 290.695L416.651 374.258H198.698L145.103 449.251C143.197 452.346 140.958 459.393 147.247 462.821C153.535 466.249 157.966 461.392 159.395 458.536L206.559 391.399H423.082L495.971 295.694C499.306 290.457 503.689 277.696 494.542 268.554C483.108 257.127 478.821 259.27 473.104 259.27C467.387 259.27 459.527 263.555 457.383 267.126C454.524 264.507 446.521 259.27 437.374 259.27C425.94 259.27 420.938 265.697 416.651 272.125C414.983 270.459 410.362 266.697 405.217 264.983L387.352 233.558C387.352 228.32 385.351 217.274 377.348 214.988L360.912 186.42V142.852C363.294 141.9 368.201 138.853 368.773 134.282V104.285C368.534 101.19 366.629 95 360.912 95H284.45C281.83 95.2381 276.589 97.4283 276.589 104.285V134.282C277.066 137.139 279.305 142.852 284.45 142.852V184.991L268.729 213.56L190.123 221.416C184.168 222.368 171.257 226.416 167.256 234.986C166.112 234.986 96.7485 322.597 62.2096 366.402ZM422.367 304.979C422.367 298.694 420.938 294.266 420.224 292.838L433.801 276.411C441.233 272.411 444.996 277.125 445.949 279.982L422.367 304.979ZM354.481 109.999H291.596V126.425C299.028 126.425 300.886 132.139 300.886 134.996V189.991L288.023 212.131C313.748 208.703 344 208.322 355.91 208.56L345.905 189.991V134.996C345.905 128.711 351.622 126.664 354.481 126.425V109.999ZM404.502 296.409L378.062 248.556C376.633 251.413 370.631 258.27 358.054 262.841C359.769 265.697 356.386 268.792 354.481 269.983H337.33L260.868 287.838L310.89 332.834H396.642C397.118 332.358 399.357 329.691 404.502 322.835C409.648 315.978 406.646 302.361 404.502 296.409Z" fill="black"/>
<path d="M291.596 109.999H354.481V126.425C351.622 126.664 345.905 128.711 345.905 134.996V189.991L355.91 208.56C344 208.322 313.748 208.703 288.023 212.131L300.886 189.991V134.996C300.886 132.139 299.028 126.425 291.596 126.425V109.999Z" fill="#96DFFF" fill-opacity="0.9"/>
<path fill-rule="evenodd" clip-rule="evenodd" d="M378.062 248.556L404.502 296.409C406.646 302.361 409.648 315.978 404.502 322.835C399.357 329.691 397.118 332.358 396.642 332.834H310.89L260.868 287.838L337.33 269.983H354.481C356.386 268.792 359.769 265.697 358.054 262.841C370.631 258.27 376.633 251.413 378.062 248.556ZM354.481 274.268H341.618C340.427 274.268 338.045 274.982 338.045 277.839C338.045 280.696 340.427 282.362 341.618 282.839H354.481C355.672 283.077 358.054 282.553 358.054 278.553C358.054 274.554 355.672 274.03 354.481 274.268Z" fill="#96DFFF" fill-opacity="0.9"/>
<path d="M95.8217 741.34C95.8217 742.18 95.4017 742.6 94.5617 742.6H90.8717C90.0317 742.6 89.6117 742.18 89.6117 741.34V660.88C89.6117 660.04 90.0317 659.62 90.8717 659.62H94.5617C95.4017 659.62 95.8217 660.04 95.8217 660.88V741.34ZM71.7017 672.85C71.4017 678.01 70.3817 683.08 68.6417 688.06C66.9017 693.04 64.4717 697.81 61.3517 702.37C58.2917 706.87 54.5717 711.07 50.1917 714.97C45.8717 718.81 40.9517 722.2 35.4317 725.14C34.6517 725.56 34.0817 725.47 33.7217 724.87L31.7417 721.72C31.3217 721 31.4417 720.49 32.1017 720.19C37.2017 717.55 41.7017 714.55 45.6017 711.19C49.5617 707.77 52.9217 704.08 55.6817 700.12C58.5017 696.16 60.7217 691.99 62.3417 687.61C63.9617 683.23 64.9817 678.73 65.4017 674.11C65.5217 673.21 65.4017 672.61 65.0417 672.31C64.6817 671.95 64.0817 671.77 63.2417 671.77H34.6217C33.9017 671.77 33.5417 671.38 33.5417 670.6V667.45C33.5417 666.73 33.9017 666.37 34.6217 666.37H64.9517C67.7717 666.37 69.6317 666.91 70.5317 667.99C71.4317 669.01 71.8217 670.63 71.7017 672.85ZM113.95 663.22C113.95 662.86 114.1 662.59 114.4 662.41C114.7 662.23 115 662.14 115.3 662.14H162.91C164.35 662.14 165.49 662.29 166.33 662.59C167.23 662.89 167.92 663.34 168.4 663.94C168.88 664.48 169.21 665.2 169.39 666.1C169.63 667 169.75 668.08 169.75 669.34C169.87 674.02 169.57 678.79 168.85 683.65C168.19 688.51 167.26 693.76 166.06 699.4H180.91C181.21 699.4 181.51 699.52 181.81 699.76C182.11 699.94 182.26 700.21 182.26 700.57V703.63C182.26 703.93 182.11 704.2 181.81 704.44C181.51 704.68 181.21 704.8 180.91 704.8H145.54V740.71C145.54 741.07 145.42 741.37 145.18 741.61C145 741.91 144.73 742.06 144.37 742.06H140.5C140.2 742.06 139.93 741.91 139.69 741.61C139.45 741.37 139.33 741.07 139.33 740.71V704.8H104.41C104.05 704.8 103.72 704.68 103.42 704.44C103.18 704.2 103.06 703.93 103.06 703.63V700.57C103.06 700.21 103.18 699.94 103.42 699.76C103.72 699.52 104.05 699.4 104.41 699.4H159.94C160.54 697.06 161.11 694.51 161.65 691.75C162.19 688.99 162.61 686.23 162.91 683.47C163.27 680.71 163.51 678.1 163.63 675.64C163.75 673.18 163.75 671.11 163.63 669.43C163.51 668.59 163.33 668.08 163.09 667.9C162.91 667.66 162.4 667.54 161.56 667.54H115.3C115 667.54 114.7 667.45 114.4 667.27C114.1 667.03 113.95 666.76 113.95 666.46V663.22ZM209.749 665.38C210.469 665.38 210.859 665.44 210.919 665.56C211.039 665.68 210.979 666.1 210.739 666.82L185.629 739.36C185.389 739.96 185.209 740.29 185.089 740.35C184.969 740.47 184.579 740.53 183.919 740.53H180.139C179.419 740.53 178.999 740.47 178.879 740.35C178.819 740.23 178.909 739.84 179.149 739.18L204.259 666.73C204.499 666.07 204.679 665.68 204.799 665.56C204.979 665.44 205.459 665.38 206.239 665.38H209.749ZM237.289 665.47C237.289 669.43 237.109 673.24 236.749 676.9C236.449 680.5 235.939 683.98 235.219 687.34C235.819 689.74 236.749 692.29 238.009 694.99C239.269 697.63 240.739 700.27 242.419 702.91C244.159 705.55 246.079 708.13 248.179 710.65C250.339 713.11 252.619 715.33 255.019 717.31C255.319 717.55 255.469 717.85 255.469 718.21C255.529 718.57 255.469 718.87 255.289 719.11L253.039 721.9C252.499 722.56 251.869 722.56 251.149 721.9C249.469 720.46 247.729 718.75 245.929 716.77C244.189 714.73 242.479 712.6 240.799 710.38C239.179 708.16 237.649 705.88 236.209 703.54C234.769 701.2 233.539 698.95 232.519 696.79C230.599 702.25 228.079 707.29 224.959 711.91C221.839 716.47 218.119 720.73 213.799 724.69C213.199 725.17 212.689 725.2 212.269 724.78L209.569 721.99C209.389 721.81 209.299 721.57 209.299 721.27C209.359 720.97 209.539 720.67 209.839 720.37C213.499 716.89 216.679 713.23 219.379 709.39C222.079 705.55 224.269 701.41 225.949 696.97C227.689 692.53 228.949 687.7 229.729 682.48C230.569 677.26 230.989 671.53 230.989 665.29C230.989 664.87 231.079 664.57 231.259 664.39C231.499 664.15 231.769 664.03 232.069 664.03L236.299 664.21C236.959 664.21 237.289 664.63 237.289 665.47ZM275.899 741.34C275.899 742.18 275.479 742.6 274.639 742.6H270.949C270.109 742.6 269.689 742.18 269.689 741.34V660.88C269.689 660.04 270.109 659.62 270.949 659.62H274.639C275.479 659.62 275.899 660.04 275.899 660.88V741.34ZM330.388 683.65C330.388 686.65 329.848 689.41 328.768 691.93C327.688 694.39 326.188 696.52 324.268 698.32C322.408 700.12 320.158 701.53 317.518 702.55C314.938 703.57 312.088 704.08 308.968 704.08C305.968 704.08 303.178 703.6 300.598 702.64C298.018 701.62 295.768 700.21 293.848 698.41C291.988 696.61 290.518 694.45 289.438 691.93C288.418 689.41 287.908 686.65 287.908 683.65C287.908 680.47 288.418 677.62 289.438 675.1C290.518 672.52 291.988 670.36 293.848 668.62C295.768 666.82 298.018 665.47 300.598 664.57C303.178 663.61 305.968 663.13 308.968 663.13C311.848 663.13 314.578 663.61 317.158 664.57C319.738 665.47 321.988 666.79 323.908 668.53C325.888 670.27 327.448 672.43 328.588 675.01C329.788 677.53 330.388 680.41 330.388 683.65ZM324.088 683.56C324.088 681.16 323.668 679.06 322.828 677.26C322.048 675.4 320.968 673.87 319.588 672.67C318.208 671.41 316.588 670.48 314.728 669.88C312.928 669.22 311.008 668.89 308.968 668.89C306.868 668.89 304.918 669.22 303.118 669.88C301.318 670.48 299.758 671.41 298.438 672.67C297.118 673.87 296.068 675.4 295.288 677.26C294.568 679.06 294.208 681.16 294.208 683.56C294.208 685.84 294.568 687.88 295.288 689.68C296.008 691.48 296.998 693.04 298.258 694.36C299.578 695.68 301.138 696.7 302.938 697.42C304.738 698.08 306.748 698.41 308.968 698.41C311.008 698.41 312.928 698.08 314.728 697.42C316.588 696.7 318.208 695.68 319.588 694.36C320.968 693.04 322.048 691.48 322.828 689.68C323.668 687.88 324.088 685.84 324.088 683.56ZM349.738 706.24C349.738 707.08 349.318 707.5 348.478 707.5H344.788C343.948 707.5 343.528 707.08 343.528 706.24V660.88C343.528 660.04 343.948 659.62 344.788 659.62H348.478C349.318 659.62 349.738 660.04 349.738 660.88V674.56H362.158C362.518 674.56 362.818 674.68 363.058 674.92C363.358 675.1 363.508 675.37 363.508 675.73V678.7C363.508 679 363.358 679.27 363.058 679.51C362.818 679.75 362.518 679.87 362.158 679.87H349.738V690.67H362.158C362.518 690.67 362.818 690.79 363.058 691.03C363.358 691.21 363.508 691.48 363.508 691.84V694.81C363.508 695.11 363.358 695.38 363.058 695.62C362.818 695.86 362.518 695.98 362.158 695.98H349.738V706.24ZM297.268 713.62C297.268 713.26 297.418 712.99 297.718 712.81C298.018 712.63 298.318 712.54 298.618 712.54H342.898C345.718 712.54 347.548 713.08 348.388 714.16C349.288 715.18 349.738 716.92 349.738 719.38V741.7C349.738 742.54 349.318 742.96 348.478 742.96H344.788C343.948 742.96 343.528 742.54 343.528 741.7V719.83C343.528 718.99 343.378 718.48 343.078 718.3C342.838 718.06 342.298 717.94 341.458 717.94H298.618C298.318 717.94 298.018 717.85 297.718 717.67C297.418 717.43 297.268 717.16 297.268 716.86V713.62ZM433.051 693.64H444.481V660.88C444.481 660.04 444.901 659.62 445.741 659.62H449.161C450.001 659.62 450.421 660.04 450.421 660.88V741.34C450.421 742.18 450.001 742.6 449.161 742.6H445.741C444.901 742.6 444.481 742.18 444.481 741.34V699.04H433.051V737.92C433.051 738.76 432.631 739.18 431.791 739.18H428.371C427.531 739.18 427.111 738.76 427.111 737.92V662.41C427.111 661.57 427.531 661.15 428.371 661.15H431.791C432.631 661.15 433.051 661.57 433.051 662.41V693.64ZM422.791 714.79C422.911 715.63 422.521 716.14 421.621 716.32C417.421 717.34 412.591 718.09 407.131 718.57C401.671 718.99 396.091 719.14 390.391 719.02C387.691 718.96 385.831 718.33 384.811 717.13C383.851 715.93 383.371 714.07 383.371 711.55V673.48C383.371 670.96 383.851 669.28 384.811 668.44C385.771 667.6 387.571 667.18 390.211 667.18H414.871C415.651 667.18 416.041 667.54 416.041 668.26V671.5C416.041 672.22 415.651 672.58 414.871 672.58H391.381C390.541 672.58 390.031 672.7 389.851 672.94C389.671 673.12 389.581 673.66 389.581 674.56V711.1C389.581 712 389.731 712.6 390.031 712.9C390.331 713.2 390.901 713.38 391.741 713.44C396.961 713.62 401.911 713.53 406.591 713.17C411.271 712.81 415.951 712.12 420.631 711.1C421.591 710.92 422.161 711.25 422.341 712.09L422.791 714.79ZM524.44 741.34C524.44 742.18 524.02 742.6 523.18 742.6H519.49C518.65 742.6 518.23 742.18 518.23 741.34V709.66H499.15C498.31 711.52 497.32 713.26 496.18 714.88C495.04 716.5 493.69 717.91 492.13 719.11C490.63 720.25 488.92 721.15 487 721.81C485.08 722.47 482.95 722.8 480.61 722.8C476.65 722.8 473.29 721.93 470.53 720.19C467.83 718.45 465.64 716.2 463.96 713.44C462.34 710.62 461.17 707.5 460.45 704.08C459.73 700.66 459.37 697.27 459.37 693.91C459.37 690.37 459.73 686.89 460.45 683.47C461.17 679.99 462.34 676.87 463.96 674.11C465.64 671.35 467.83 669.13 470.53 667.45C473.29 665.77 476.65 664.93 480.61 664.93C482.95 664.93 485.05 665.26 486.91 665.92C488.83 666.52 490.54 667.39 492.04 668.53C493.6 669.67 494.95 671.02 496.09 672.58C497.23 674.14 498.22 675.85 499.06 677.71H518.23V660.88C518.23 660.04 518.65 659.62 519.49 659.62H523.18C524.02 659.62 524.44 660.04 524.44 660.88V741.34ZM495.82 693.82C495.82 691.12 495.52 688.39 494.92 685.63C494.38 682.87 493.51 680.38 492.31 678.16C491.11 675.94 489.55 674.14 487.63 672.76C485.71 671.38 483.37 670.69 480.61 670.69C477.73 670.69 475.33 671.38 473.41 672.76C471.55 674.14 470.05 675.94 468.91 678.16C467.77 680.38 466.96 682.87 466.48 685.63C466 688.39 465.76 691.12 465.76 693.82C465.76 696.4 465.97 699.07 466.39 701.83C466.87 704.59 467.68 707.11 468.82 709.39C469.96 711.61 471.49 713.44 473.41 714.88C475.33 716.32 477.73 717.04 480.61 717.04C483.37 717.04 485.71 716.32 487.63 714.88C489.55 713.44 491.11 711.61 492.31 709.39C493.51 707.11 494.38 704.59 494.92 701.83C495.52 699.07 495.82 696.4 495.82 693.82ZM502.21 693.91C502.21 697.45 501.76 700.93 500.86 704.35H518.23V683.02H500.86C501.76 686.56 502.21 690.19 502.21 693.91Z" fill="black"/>
</svg>
