<svg width="424" height="101" viewBox="0 0 424 101" fill="none" xmlns="http://www.w3.org/2000/svg">
<rect y="66" width="424" height="35" fill="#FFF000" fill-opacity="0.4"/>
<path d="M39.721 28.93C42.481 28.93 45.061 29.32 47.461 30.1C49.861 30.82 51.961 31.84 53.761 33.16C55.561 34.48 56.971 36.1 57.991 38.02C59.011 39.88 59.521 41.92 59.521 44.14C59.521 46.06 59.131 47.86 58.351 49.54C57.631 51.16 56.581 52.6 55.201 53.86C53.881 55.12 52.291 56.2 50.431 57.1C48.571 57.94 46.561 58.54 44.401 58.9V66.46C51.421 66.1 58.351 65.38 65.191 64.3C65.491 64.24 65.821 64.27 66.181 64.39C66.541 64.45 66.751 64.72 66.811 65.2L67.351 70.78C67.411 71.26 67.321 71.62 67.081 71.86C66.841 72.1 66.571 72.25 66.271 72.31C57.871 73.69 49.171 74.59 40.171 75.01C31.171 75.43 22.351 75.58 13.711 75.46C13.351 75.46 13.051 75.34 12.811 75.1C12.571 74.8 12.451 74.47 12.451 74.11V68.26C12.451 67.36 12.871 66.91 13.711 66.91C20.551 67.09 27.451 67.09 34.411 66.91V58.81C32.311 58.39 30.361 57.76 28.561 56.92C26.821 56.02 25.291 54.94 23.971 53.68C22.711 52.42 21.721 51.01 21.001 49.45C20.281 47.83 19.921 46.06 19.921 44.14C19.921 41.92 20.431 39.88 21.451 38.02C22.531 36.1 23.971 34.48 25.771 33.16C27.571 31.84 29.671 30.82 32.071 30.1C34.471 29.32 37.021 28.93 39.721 28.93ZM94.261 47.65C94.261 47.95 94.111 48.22 93.811 48.46C93.571 48.7 93.301 48.82 93.001 48.82H81.211V89.05C81.211 89.83 80.821 90.22 80.041 90.22H72.031C71.251 90.22 70.861 89.83 70.861 89.05V5.97999C70.861 5.2 71.251 4.81 72.031 4.81H80.041C80.821 4.81 81.211 5.2 81.211 5.97999V40.18H93.001C93.301 40.18 93.571 40.3 93.811 40.54C94.111 40.78 94.261 41.05 94.261 41.35V47.65ZM64.201 24.52C64.201 24.88 64.051 25.21 63.751 25.51C63.511 25.75 63.211 25.87 62.851 25.87H15.331C15.031 25.87 14.701 25.72 14.341 25.42C14.041 25.12 13.891 24.79 13.891 24.43V19.39C13.891 19.09 14.071 18.79 14.431 18.49C14.791 18.19 15.121 18.04 15.421 18.04H62.851C63.211 18.04 63.511 18.19 63.751 18.49C64.051 18.73 64.201 19.03 64.201 19.39V24.52ZM39.721 36.94C36.841 36.94 34.441 37.63 32.521 39.01C30.601 40.33 29.641 42.04 29.641 44.14C29.641 46.24 30.571 47.98 32.431 49.36C34.351 50.74 36.781 51.43 39.721 51.43C42.661 51.43 45.061 50.74 46.921 49.36C48.841 47.98 49.801 46.24 49.801 44.14C49.801 42.04 48.841 40.33 46.921 39.01C45.061 37.63 42.661 36.94 39.721 36.94ZM52.771 12.82C52.771 13.24 52.621 13.6 52.321 13.9C52.081 14.2 51.751 14.35 51.331 14.35H27.211C26.971 14.35 26.671 14.23 26.311 13.99C26.011 13.75 25.861 13.39 25.861 12.91V7.68999C25.861 7.27 26.011 6.94 26.311 6.7C26.671 6.46 26.971 6.34 27.211 6.34H51.331C51.691 6.34 52.021 6.49 52.321 6.79C52.621 7.08999 52.771 7.42 52.771 7.78V12.82ZM115.72 35.59C112.9 35.59 110.56 36.28 108.7 37.66C106.9 38.98 106 40.69 106 42.79C106 43.87 106.24 44.86 106.72 45.76C107.2 46.66 107.86 47.44 108.7 48.1C109.6 48.76 110.65 49.3 111.85 49.72C113.05 50.08 114.34 50.26 115.72 50.26C118.54 50.26 120.85 49.54 122.65 48.1C124.51 46.66 125.44 44.89 125.44 42.79C125.44 40.69 124.54 38.98 122.74 37.66C120.94 36.28 118.6 35.59 115.72 35.59ZM115.72 27.76C118.42 27.76 120.97 28.15 123.37 28.93C125.77 29.65 127.84 30.67 129.58 31.99C131.32 33.31 132.7 34.9 133.72 36.76C134.74 38.56 135.25 40.57 135.25 42.79C135.25 45.01 134.74 47.05 133.72 48.91C132.7 50.77 131.29 52.39 129.49 53.77C127.75 55.09 125.68 56.14 123.28 56.92C120.94 57.64 118.39 58 115.63 58C112.93 58 110.41 57.64 108.07 56.92C105.73 56.14 103.69 55.09 101.95 53.77C100.21 52.39 98.8297 50.77 97.8097 48.91C96.7897 47.05 96.2797 45.01 96.2797 42.79C96.2797 40.57 96.7897 38.56 97.8097 36.76C98.8297 34.9 100.21 33.31 101.95 31.99C103.69 30.67 105.73 29.65 108.07 28.93C110.47 28.15 113.02 27.76 115.72 27.76ZM140.2 23.53C140.2 23.89 140.05 24.22 139.75 24.52C139.51 24.76 139.21 24.88 138.85 24.88H91.1497C90.7897 24.88 90.4597 24.73 90.1597 24.43C89.8597 24.13 89.7097 23.8 89.7097 23.44V18.4C89.7097 18.1 89.8597 17.8 90.1597 17.5C90.5197 17.14 90.8797 16.96 91.2397 16.96H138.85C139.21 16.96 139.51 17.11 139.75 17.41C140.05 17.71 140.2 18.04 140.2 18.4V23.53ZM128.59 12.1C128.59 12.46 128.44 12.82 128.14 13.18C127.9 13.48 127.54 13.63 127.06 13.63H103.57C103.33 13.63 103.03 13.51 102.67 13.27C102.37 13.03 102.22 12.67 102.22 12.19V7.06C102.22 6.64 102.37 6.31 102.67 6.07C103.03 5.83 103.33 5.71 103.57 5.71H127.06C127.48 5.71 127.84 5.86 128.14 6.16C128.44 6.46 128.59 6.79 128.59 7.15V12.1ZM169.9 37.66C169.9 37.96 169.75 38.23 169.45 38.47C169.21 38.71 168.91 38.83 168.55 38.83H156.4V58.45C156.4 59.29 156.01 59.71 155.23 59.71H147.22C146.44 59.71 146.05 59.26 146.05 58.36V5.97999C146.05 5.2 146.44 4.81 147.22 4.81H155.23C156.01 4.81 156.4 5.2 156.4 5.97999V30.19H168.55C168.91 30.19 169.21 30.31 169.45 30.55C169.75 30.73 169.9 30.97 169.9 31.27V37.66ZM156.31 88.78C156.31 89.08 156.16 89.35 155.86 89.59C155.62 89.89 155.32 90.04 154.96 90.04H147.31C146.95 90.04 146.62 89.89 146.32 89.59C146.08 89.35 145.96 89.08 145.96 88.78V73.3C145.96 72.64 145.81 72.22 145.51 72.04C145.27 71.86 144.85 71.77 144.25 71.77H103.57C103.27 71.77 102.97 71.68 102.67 71.5C102.43 71.26 102.31 70.99 102.31 70.69V64.48C102.31 64.12 102.43 63.85 102.67 63.67C102.97 63.43 103.27 63.31 103.57 63.31H150.28C152.56 63.31 154.12 63.79 154.96 64.75C155.86 65.71 156.31 67.33 156.31 69.61V88.78ZM253.483 88.78C253.483 89.08 253.333 89.35 253.033 89.59C252.793 89.89 252.553 90.04 252.313 90.04H204.523C202.183 90.04 200.593 89.59 199.753 88.69C198.913 87.79 198.493 86.38 198.493 84.46V73.48C198.493 71.56 198.883 70.18 199.663 69.34C200.503 68.44 202.093 67.99 204.433 67.99H239.983C240.463 67.99 240.763 67.93 240.883 67.81C241.003 67.63 241.063 67.27 241.063 66.73V63.4C241.063 62.74 241.003 62.35 240.883 62.23C240.763 62.11 240.433 62.05 239.893 62.05H199.573C199.273 62.05 198.973 61.96 198.673 61.78C198.433 61.54 198.313 61.27 198.313 60.97V55.03C198.313 54.73 198.433 54.46 198.673 54.22C198.973 53.92 199.273 53.77 199.573 53.77H245.023C247.483 53.77 249.103 54.19 249.883 55.03C250.723 55.87 251.143 57.31 251.143 59.35V70.24C251.143 72.34 250.723 73.78 249.883 74.56C249.103 75.34 247.483 75.73 245.023 75.73H209.743C209.263 75.73 208.963 75.82 208.843 76C208.723 76.12 208.663 76.42 208.663 76.9V80.68C208.663 81.22 208.723 81.52 208.843 81.58C208.963 81.7 209.293 81.76 209.833 81.76H252.223C252.523 81.76 252.793 81.88 253.033 82.12C253.333 82.36 253.483 82.66 253.483 83.02V88.78ZM188.683 49.18C187.363 49.96 186.403 49.93 185.803 49.09L182.203 44.68C181.843 44.2 181.663 43.75 181.663 43.33C181.723 42.85 182.053 42.46 182.653 42.16C189.793 38.26 194.983 33.55 198.223 28.03C201.463 22.45 203.083 15.55 203.083 7.33C203.083 6.91 203.233 6.58 203.533 6.34C203.893 6.1 204.223 5.97999 204.523 5.97999L212.263 6.34C213.043 6.34 213.433 6.79 213.433 7.68999C213.433 10.21 213.283 12.61 212.983 14.89C212.683 17.11 212.263 19.27 211.723 21.37C212.743 23.35 214.003 25.24 215.503 27.04C217.003 28.84 218.593 30.49 220.273 31.99C221.953 33.49 223.663 34.81 225.403 35.95C227.203 37.03 228.913 37.93 230.533 38.65C231.553 39.07 231.733 39.82 231.073 40.9L228.013 45.76C227.413 46.66 226.633 46.9 225.673 46.48C222.073 44.92 218.713 42.85 215.593 40.27C212.533 37.69 209.863 34.78 207.583 31.54C205.483 35.32 202.813 38.68 199.573 41.62C196.393 44.5 192.763 47.02 188.683 49.18ZM251.143 48.46C251.143 49.24 250.753 49.63 249.973 49.63H241.963C241.183 49.63 240.793 49.21 240.793 48.37V5.97999C240.793 5.2 241.183 4.81 241.963 4.81H249.973C250.753 4.81 251.143 5.2 251.143 5.97999V48.46ZM317.422 71.86C317.422 71.38 317.332 71.08 317.152 70.96C317.032 70.78 316.732 70.69 316.252 70.69H285.382C284.902 70.69 284.572 70.75 284.392 70.87C284.272 70.99 284.212 71.29 284.212 71.77V79.42C284.212 79.96 284.272 80.29 284.392 80.41C284.572 80.53 284.902 80.59 285.382 80.59H316.252C316.732 80.59 317.032 80.53 317.152 80.41C317.332 80.29 317.422 79.96 317.422 79.42V71.86ZM327.772 82.57C327.772 84.85 327.262 86.47 326.242 87.43C325.222 88.39 323.572 88.87 321.292 88.87H280.792C278.092 88.87 276.262 88.39 275.302 87.43C274.402 86.47 273.952 84.82 273.952 82.48V68.89C273.952 66.61 274.432 64.96 275.392 63.94C276.412 62.92 278.062 62.41 280.342 62.41H320.842C323.542 62.41 325.372 62.92 326.332 63.94C327.292 64.9 327.772 66.58 327.772 68.98V82.57ZM304.552 38.29V32.08C304.552 31.78 304.672 31.54 304.912 31.36C305.212 31.12 305.512 31 305.812 31H317.332V5.97999C317.332 5.2 317.752 4.81 318.592 4.81H326.512C326.812 4.81 327.082 4.93 327.322 5.16999C327.622 5.41 327.772 5.68 327.772 5.97999V57.55C327.772 57.85 327.622 58.15 327.322 58.45C327.082 58.69 326.812 58.81 326.512 58.81H318.592C318.232 58.81 317.932 58.69 317.692 58.45C317.452 58.15 317.332 57.85 317.332 57.55V39.37H305.812C305.512 39.37 305.212 39.28 304.912 39.1C304.672 38.86 304.552 38.59 304.552 38.29ZM308.422 23.71C308.422 24.07 308.272 24.4 307.972 24.7C307.732 24.94 307.432 25.06 307.072 25.06H259.642C259.342 25.06 259.012 24.91 258.652 24.61C258.352 24.31 258.202 23.98 258.202 23.62V18.58C258.202 18.28 258.382 17.98 258.742 17.68C259.102 17.38 259.432 17.23 259.732 17.23H307.072C307.432 17.23 307.732 17.38 307.972 17.68C308.272 17.92 308.422 18.22 308.422 18.58V23.71ZM296.542 12.01C296.542 12.43 296.392 12.79 296.092 13.09C295.852 13.39 295.492 13.54 295.012 13.54H271.972C271.732 13.54 271.432 13.42 271.072 13.18C270.772 12.94 270.622 12.58 270.622 12.1V6.97C270.622 6.55 270.772 6.22 271.072 5.97999C271.432 5.73999 271.732 5.61999 271.972 5.61999H295.012C295.432 5.61999 295.792 5.77 296.092 6.07C296.392 6.37 296.542 6.7 296.542 7.06V12.01ZM283.582 35.95C280.762 35.95 278.452 36.55 276.652 37.75C274.852 38.95 273.952 40.6 273.952 42.7C273.952 44.8 274.852 46.51 276.652 47.83C278.452 49.15 280.762 49.81 283.582 49.81C286.462 49.81 288.772 49.15 290.512 47.83C292.312 46.51 293.212 44.8 293.212 42.7C293.212 40.6 292.312 38.95 290.512 37.75C288.772 36.55 286.462 35.95 283.582 35.95ZM283.582 28.03C286.282 28.03 288.802 28.39 291.142 29.11C293.542 29.77 295.612 30.76 297.352 32.08C299.152 33.34 300.532 34.87 301.492 36.67C302.512 38.47 303.022 40.48 303.022 42.7C303.022 44.92 302.512 46.96 301.492 48.82C300.472 50.62 299.092 52.18 297.352 53.5C295.612 54.76 293.542 55.75 291.142 56.47C288.802 57.19 286.252 57.55 283.492 57.55C280.792 57.55 278.272 57.19 275.932 56.47C273.592 55.75 271.552 54.76 269.812 53.5C268.072 52.18 266.692 50.62 265.672 48.82C264.712 46.96 264.232 44.92 264.232 42.7C264.232 40.48 264.712 38.47 265.672 36.67C266.692 34.87 268.072 33.34 269.812 32.08C271.612 30.76 273.682 29.77 276.022 29.11C278.362 28.39 280.882 28.03 283.582 28.03ZM404.76 88.78C404.76 89.08 404.61 89.35 404.31 89.59C404.07 89.89 403.83 90.04 403.59 90.04H355.8C353.46 90.04 351.87 89.59 351.03 88.69C350.19 87.79 349.77 86.38 349.77 84.46V73.48C349.77 71.56 350.16 70.18 350.94 69.34C351.78 68.44 353.37 67.99 355.71 67.99H391.26C391.74 67.99 392.04 67.93 392.16 67.81C392.28 67.63 392.34 67.27 392.34 66.73V63.4C392.34 62.74 392.28 62.35 392.16 62.23C392.04 62.11 391.71 62.05 391.17 62.05H350.85C350.55 62.05 350.25 61.96 349.95 61.78C349.71 61.54 349.59 61.27 349.59 60.97V55.03C349.59 54.73 349.71 54.46 349.95 54.22C350.25 53.92 350.55 53.77 350.85 53.77H396.3C398.76 53.77 400.38 54.19 401.16 55.03C402 55.87 402.42 57.31 402.42 59.35V70.24C402.42 72.34 402 73.78 401.16 74.56C400.38 75.34 398.76 75.73 396.3 75.73H361.02C360.54 75.73 360.24 75.82 360.12 76C360 76.12 359.94 76.42 359.94 76.9V80.68C359.94 81.22 360 81.52 360.12 81.58C360.24 81.7 360.57 81.76 361.11 81.76H403.5C403.8 81.76 404.07 81.88 404.31 82.12C404.61 82.36 404.76 82.66 404.76 83.02V88.78ZM339.96 49.18C338.64 49.96 337.68 49.93 337.08 49.09L333.48 44.68C333.12 44.2 332.94 43.75 332.94 43.33C333 42.85 333.33 42.46 333.93 42.16C341.07 38.26 346.26 33.55 349.5 28.03C352.74 22.45 354.36 15.55 354.36 7.33C354.36 6.91 354.51 6.58 354.81 6.34C355.17 6.1 355.5 5.97999 355.8 5.97999L363.54 6.34C364.32 6.34 364.71 6.79 364.71 7.68999C364.71 10.21 364.56 12.61 364.26 14.89C363.96 17.11 363.54 19.27 363 21.37C364.02 23.35 365.28 25.24 366.78 27.04C368.28 28.84 369.87 30.49 371.55 31.99C373.23 33.49 374.94 34.81 376.68 35.95C378.48 37.03 380.19 37.93 381.81 38.65C382.83 39.07 383.01 39.82 382.35 40.9L379.29 45.76C378.69 46.66 377.91 46.9 376.95 46.48C373.35 44.92 369.99 42.85 366.87 40.27C363.81 37.69 361.14 34.78 358.86 31.54C356.76 35.32 354.09 38.68 350.85 41.62C347.67 44.5 344.04 47.02 339.96 49.18ZM402.42 48.46C402.42 49.24 402.03 49.63 401.25 49.63H393.24C392.46 49.63 392.07 49.21 392.07 48.37V5.97999C392.07 5.2 392.46 4.81 393.24 4.81H401.25C402.03 4.81 402.42 5.2 402.42 5.97999V48.46Z" fill="#1A1A1A"/>
</svg>
