<?xml version="1.0" standalone="no"?>
<!DOCTYPE svg PUBLIC "-//W3C//DTD SVG 20010904//EN"
 "http://www.w3.org/TR/2001/REC-SVG-20010904/DTD/svg10.dtd">
<svg version="1.0" xmlns="http://www.w3.org/2000/svg"
 width="500.000000pt" height="500.000000pt" viewBox="0 0 500.000000 500.000000"
 preserveAspectRatio="xMidYMid meet">

<g transform="translate(0.000000,500.000000) scale(0.100000,-0.100000)"
fill="#000000" stroke="none">
<path d="M2310 4275 c-111 -30 -229 -125 -279 -223 -54 -105 -54 -114 -55
-712 -1 -542 -1 -555 19 -585 31 -45 69 -60 116 -46 73 22 72 18 71 419 -3
478 9 765 33 812 27 55 75 98 129 119 48 18 96 19 901 20 973 1 923 5 998 -79
31 -35 49 -66 58 -102 19 -74 18 -2719 -1 -2797 -8 -36 -25 -66 -57 -101 -75
-84 -25 -80 -998 -79 -805 1 -853 2 -901 20 -54 20 -101 63 -130 119 -16 31
-19 75 -25 420 -4 212 -8 464 -8 561 l-1 176 -26 27 c-55 54 -154 25 -172 -52
-5 -20 -9 -273 -8 -562 1 -566 2 -574 57 -682 31 -60 126 -156 183 -185 106
-54 89 -53 1033 -53 942 0 934 0 1037 52 58 29 158 135 190 199 53 109 53 126
50 1576 -4 1452 -3 1423 -61 1522 -35 60 -128 153 -179 179 -103 53 -93 52
-1045 51 -670 -1 -895 -4 -929 -14z"/>
<path d="M2404 3396 c-37 -37 -44 -81 -21 -122 7 -12 150 -168 320 -347 169
-179 307 -328 307 -331 0 -3 -556 -6 -1236 -6 l-1236 0 -29 -29 c-59 -59 -28
-152 56 -171 23 -6 543 -10 1243 -10 661 0 1202 -3 1202 -6 0 -3 -138 -152
-307 -331 -170 -179 -313 -335 -320 -347 -23 -41 -16 -85 21 -122 33 -33 58
-40 103 -28 18 5 526 535 796 830 56 62 69 96 53 142 -13 39 -809 890 -844
903 -44 17 -73 10 -108 -25z"/>
</g>
</svg>
