<?xml version="1.0" standalone="no"?>
<!DOCTYPE svg PUBLIC "-//W3C//DTD SVG 20010904//EN"
 "http://www.w3.org/TR/2001/REC-SVG-20010904/DTD/svg10.dtd">
<svg version="1.0" xmlns="http://www.w3.org/2000/svg"
 width="159.000000pt" height="63.000000pt" viewBox="0 0 159.000000 63.000000"
 preserveAspectRatio="xMidYMid meet">

<g transform="translate(0.000000,63.000000) scale(0.100000,-0.100000)"
fill="#000000" stroke="none">
<path d="M0 315 l0 -315 795 0 795 0 0 315 0 315 -795 0 -795 0 0 -315z m157
-57 c-1 -57 -3 -11 -3 102 0 113 2 159 3 103 2 -57 2 -149 0 -205z m773 267
l0 -34 -82 -3 -83 -3 -5 -165 -6 -165 -2 173 -2 172 85 0 85 0 0 30 c0 17 2
30 5 30 3 0 5 -16 5 -35z m130 -213 l0 -248 -34 1 c-47 1 -59 15 -13 15 l37 0
0 240 c0 132 2 240 5 240 3 0 5 -112 5 -248z m-451 -225 c-15 -14 -37 -20 -83
-22 -34 -1 -71 2 -81 6 -12 5 9 8 54 8 62 1 79 5 98 23 22 21 23 27 25 222 l3
201 2 -209 c3 -202 3 -210 -18 -229z m751 205 l0 -228 -34 1 c-47 1 -59 15
-13 15 l37 0 0 220 c0 121 2 220 5 220 3 0 5 -103 5 -228z m-855 199 l-40 -6
-5 -165 -6 -165 -2 173 -2 172 48 -1 47 -2 -40 -6z m730 0 l-40 -6 -5 -210 -5
-210 -32 0 c-17 0 -35 3 -39 8 -4 4 9 7 29 7 l37 0 0 210 0 210 48 -1 47 -2
-40 -6z m-326 -404 c-15 -14 -37 -20 -83 -22 -34 -1 -71 2 -81 6 -12 5 9 8 54
8 62 1 79 5 98 23 22 20 23 29 25 162 l2 141 3 -149 c3 -141 2 -150 -18 -169z
m-69 259 c0 -11 -19 -15 -25 -6 -3 5 1 10 9 10 9 0 16 -2 16 -4z m-510 -249
l0 -33 -95 1 c-52 1 -98 4 -102 8 -3 4 37 7 90 7 97 0 97 0 97 25 0 14 2 25 5
25 3 0 5 -15 5 -33z"/>
</g>
</svg>
