<svg width="1119" height="1119" viewBox="0 0 1119 1119" fill="none" xmlns="http://www.w3.org/2000/svg">
<path d="M741 0H378C169.236 0 0 169.236 0 378V741C0 949.764 169.236 1119 378 1119H741C949.764 1119 1119 949.764 1119 741V378C1119 169.236 949.764 0 741 0Z" fill="white"/>
<path d="M560 967C783.123 967 964 786.123 964 563C964 339.877 783.123 159 560 159C336.877 159 156 339.877 156 563C156 786.123 336.877 967 560 967Z" stroke="black" stroke-width="24"/>
<path d="M557 753C761.345 753 927 668.382 927 564C927 459.618 761.345 375 557 375C352.655 375 187 459.618 187 564C187 668.382 352.655 753 557 753Z" fill="#BCE6FF"/>
<path d="M690.643 697.643C835.137 553.149 892.439 376.18 818.629 302.37C744.82 228.561 567.851 285.863 423.357 430.357C278.863 574.851 221.561 751.82 295.37 825.63C369.18 899.439 546.149 842.137 690.643 697.643Z" fill="#BCE6FF"/>
<path d="M746 564C746 359.655 661.382 194 557 194C452.618 194 368 359.655 368 564C368 768.345 452.618 934 557 934C661.382 934 746 768.345 746 564Z" fill="#BCE6FF"/>
<path d="M690.643 430.357C546.149 285.863 369.18 228.561 295.37 302.371C221.561 376.18 278.863 553.149 423.357 697.643C567.851 842.137 744.82 899.439 818.63 825.63C892.439 751.82 835.137 574.851 690.643 430.357Z" fill="#BCE6FF"/>
<path d="M915 564C915 609.332 878.759 653.454 813.171 686.957C748.23 720.129 657.678 741 557 741C456.322 741 365.77 720.129 300.829 686.957C235.241 653.454 199 609.332 199 564C199 518.668 235.241 474.546 300.829 441.043C365.77 407.871 456.322 387 557 387C657.678 387 748.23 407.871 813.171 441.043C878.759 474.546 915 518.668 915 564Z" stroke="black" stroke-width="24"/>
<path d="M810.144 310.856C842.199 342.91 847.771 399.736 825.084 469.803C802.62 539.18 753.348 617.968 682.158 689.158C610.968 760.348 532.18 809.62 462.803 832.084C392.736 854.771 335.91 849.199 303.856 817.144C271.801 785.09 266.229 728.264 288.916 658.197C311.38 588.82 360.652 510.032 431.842 438.842C503.032 367.652 581.82 318.38 651.197 295.916C721.264 273.229 778.09 278.801 810.144 310.856Z" stroke="black" stroke-width="24"/>
<path d="M557 206C602.332 206 646.454 242.241 679.957 307.829C713.129 372.77 734 463.322 734 564C734 664.678 713.129 755.23 679.957 820.171C646.454 885.759 602.332 922 557 922C511.668 922 467.546 885.759 434.043 820.171C400.871 755.23 380 664.678 380 564C380 463.322 400.871 372.77 434.043 307.829C467.546 242.241 511.668 206 557 206Z" stroke="black" stroke-width="24"/>
<path d="M303.856 310.856C335.91 278.801 392.736 273.229 462.803 295.916C532.18 318.38 610.968 367.652 682.158 438.842C753.348 510.032 802.62 588.82 825.084 658.197C847.771 728.264 842.199 785.09 810.144 817.144C778.09 849.199 721.264 854.771 651.197 832.084C581.82 809.62 503.032 760.348 431.842 689.158C360.652 617.968 311.38 539.18 288.916 469.803C266.229 399.736 271.801 342.91 303.856 310.856Z" stroke="black" stroke-width="24"/>
<path d="M688.5 991C714.181 991 735 970.181 735 944.5C735 918.819 714.181 898 688.5 898C662.819 898 642 918.819 642 944.5C642 970.181 662.819 991 688.5 991Z" fill="#83B4FF" stroke="black" stroke-width="22"/>
<path d="M431.5 227C457.181 227 478 206.181 478 180.5C478 154.819 457.181 134 431.5 134C405.819 134 385 154.819 385 180.5C385 206.181 405.819 227 431.5 227Z" fill="#FF8383" stroke="black" stroke-width="22"/>
<path d="M560 633C598.66 633 630 601.66 630 563C630 524.34 598.66 493 560 493C521.34 493 490 524.34 490 563C490 601.66 521.34 633 560 633Z" fill="#FFC083" stroke="black" stroke-width="22"/>
<path d="M905.5 647.5C920.412 647.5 932.5 635.412 932.5 620.5C932.5 605.588 920.412 593.5 905.5 593.5C890.588 593.5 878.5 605.588 878.5 620.5C878.5 635.412 890.588 647.5 905.5 647.5Z" fill="#F7F39D" stroke="black" stroke-width="21"/>
<path d="M642.5 273.5C657.412 273.5 669.5 261.412 669.5 246.5C669.5 231.588 657.412 219.5 642.5 219.5C627.588 219.5 615.5 231.588 615.5 246.5C615.5 261.412 627.588 273.5 642.5 273.5Z" fill="#F7F39D" stroke="black" stroke-width="21"/>
<path d="M620.5 770.5C635.412 770.5 647.5 758.412 647.5 743.5C647.5 728.588 635.412 716.5 620.5 716.5C605.588 716.5 593.5 728.588 593.5 743.5C593.5 758.412 605.588 770.5 620.5 770.5Z" fill="#F7F39D" stroke="black" stroke-width="21"/>
<path d="M290.5 509.5C305.412 509.5 317.5 497.412 317.5 482.5C317.5 467.588 305.412 455.5 290.5 455.5C275.588 455.5 263.5 467.588 263.5 482.5C263.5 497.412 275.588 509.5 290.5 509.5Z" fill="#F7F39D" stroke="black" stroke-width="21"/>
</svg>
