<svg width="560" height="744" viewBox="0 0 560 744" fill="none" xmlns="http://www.w3.org/2000/svg">
<path d="M370.831 0H189.169C84.6938 0 0 84.6938 0 189.169V370.831C0 475.306 84.6938 560 189.169 560H370.831C475.306 560 560 475.306 560 370.831V189.169C560 84.6938 475.306 0 370.831 0Z" fill="white"/>
<path d="M280.25 483.932C391.911 483.932 482.431 393.413 482.431 281.752C482.431 170.09 391.911 79.571 280.25 79.571C168.589 79.571 78.0697 170.09 78.0697 281.752C78.0697 393.413 168.589 483.932 280.25 483.932Z" stroke="black" stroke-width="12"/>
<path d="M278.749 376.836C381.013 376.836 463.914 334.489 463.914 282.252C463.914 230.014 381.013 187.667 278.749 187.667C176.485 187.667 93.5835 230.014 93.5835 282.252C93.5835 334.489 176.485 376.836 278.749 376.836Z" fill="#BCE6FF"/>
<path d="M345.63 349.133C417.942 276.822 446.618 188.258 409.681 151.32C372.743 114.383 284.179 143.059 211.868 215.371C139.556 287.682 110.88 376.246 147.817 413.184C184.755 450.121 273.319 421.445 345.63 349.133Z" fill="#BCE6FF"/>
<path d="M373.333 282.252C373.333 179.988 330.986 97.0865 278.749 97.0865C226.511 97.0865 184.164 179.988 184.164 282.252C184.164 384.516 226.511 467.417 278.749 467.417C330.986 467.417 373.333 384.516 373.333 282.252Z" fill="#BCE6FF"/>
<path d="M345.63 215.371C273.319 143.059 184.755 114.383 147.817 151.32C110.88 188.258 139.556 276.822 211.868 349.133C284.179 421.445 372.743 450.121 409.68 413.184C446.618 376.246 417.942 287.682 345.63 215.371Z" fill="#BCE6FF"/>
<path d="M457.909 282.252C457.909 304.938 439.772 327.019 406.949 343.785C374.449 360.386 329.133 370.831 278.749 370.831C228.365 370.831 183.048 360.386 150.549 343.785C117.726 327.019 99.5889 304.938 99.5889 282.252C99.5889 259.566 117.726 237.485 150.549 220.718C183.048 204.118 228.365 193.673 278.749 193.673C329.133 193.673 374.449 204.118 406.949 220.718C439.772 237.485 457.909 259.566 457.909 282.252Z" stroke="black" stroke-width="12"/>
<path d="M405.434 155.567C421.476 171.608 424.264 200.047 412.911 235.111C401.669 269.831 377.011 309.26 341.384 344.887C305.757 380.514 266.328 405.172 231.608 416.414C196.543 427.767 168.105 424.979 152.064 408.937C136.022 392.896 133.233 364.457 144.587 329.393C155.829 294.673 180.487 255.244 216.114 219.617C251.741 183.99 291.17 159.332 325.889 148.09C360.954 136.737 389.393 139.525 405.434 155.567Z" stroke="black" stroke-width="12"/>
<path d="M278.749 103.092C301.435 103.092 323.516 121.229 340.282 154.052C356.883 186.552 367.328 231.868 367.328 282.252C367.328 332.636 356.883 377.952 340.282 410.452C323.516 443.275 301.435 461.412 278.749 461.412C256.063 461.412 233.982 443.275 217.215 410.452C200.615 377.952 190.17 332.636 190.17 282.252C190.17 231.868 200.615 186.552 217.215 154.052C233.982 121.229 256.063 103.092 278.749 103.092Z" stroke="black" stroke-width="12"/>
<path d="M152.064 155.567C168.105 139.525 196.543 136.737 231.608 148.09C266.328 159.332 305.757 183.99 341.384 219.617C377.011 255.244 401.669 294.673 412.911 329.393C424.264 364.457 421.476 392.896 405.434 408.937C389.393 424.979 360.954 427.767 325.889 416.414C291.17 405.172 251.741 380.514 216.114 344.887C180.487 309.26 155.829 269.831 144.587 235.111C133.233 200.047 136.022 171.608 152.064 155.567Z" stroke="black" stroke-width="12"/>
<path d="M344.558 495.943C357.41 495.943 367.828 485.524 367.828 472.672C367.828 459.82 357.41 449.401 344.558 449.401C331.706 449.401 321.287 459.82 321.287 472.672C321.287 485.524 331.706 495.943 344.558 495.943Z" fill="#83B4FF" stroke="black" stroke-width="11"/>
<path d="M215.943 113.601C228.795 113.601 239.214 103.183 239.214 90.3306C239.214 77.4785 228.795 67.0598 215.943 67.0598C203.091 67.0598 192.672 77.4785 192.672 90.3306C192.672 103.183 203.091 113.601 215.943 113.601Z" fill="#FF8383" stroke="black" stroke-width="11"/>
<path d="M280.25 316.783C299.598 316.783 315.282 301.099 315.282 281.751C315.282 262.404 299.598 246.72 280.25 246.72C260.903 246.72 245.219 262.404 245.219 281.751C245.219 301.099 260.903 316.783 280.25 316.783Z" fill="#FFC083" stroke="black" stroke-width="11"/>
<path d="M453.155 324.039C460.617 324.039 466.667 317.99 466.667 310.527C466.667 303.065 460.617 297.015 453.155 297.015C445.692 297.015 439.643 303.065 439.643 310.527C439.643 317.99 445.692 324.039 453.155 324.039Z" fill="#F7F39D" stroke="black" stroke-width="11"/>
<path d="M321.537 136.872C329 136.872 335.049 130.823 335.049 123.36C335.049 115.898 329 109.848 321.537 109.848C314.075 109.848 308.025 115.898 308.025 123.36C308.025 130.823 314.075 136.872 321.537 136.872Z" fill="#F7F39D" stroke="black" stroke-width="11"/>
<path d="M310.527 385.594C317.99 385.594 324.039 379.545 324.039 372.082C324.039 364.62 317.99 358.57 310.527 358.57C303.065 358.57 297.015 364.62 297.015 372.082C297.015 379.545 303.065 385.594 310.527 385.594Z" fill="#F7F39D" stroke="black" stroke-width="11"/>
<path d="M145.38 254.978C152.842 254.978 158.892 248.928 158.892 241.466C158.892 234.003 152.842 227.954 145.38 227.954C137.917 227.954 131.868 234.003 131.868 241.466C131.868 248.928 137.917 254.978 145.38 254.978Z" fill="#F7F39D" stroke="black" stroke-width="11"/>
<path d="M51.9917 666.19C51.9917 663.67 52.4717 661.99 53.4317 661.15C54.3917 660.25 56.1917 659.8 58.8317 659.8H98.6117C100.052 659.8 101.192 659.89 102.032 660.07C102.932 660.25 103.622 660.58 104.102 661.06C104.642 661.54 105.002 662.2 105.182 663.04C105.362 663.88 105.452 664.93 105.452 666.19V681.13C105.452 683.65 104.972 685.36 104.012 686.26C103.052 687.1 101.252 687.52 98.6117 687.52H58.8317C57.3917 687.52 56.2217 687.43 55.3217 687.25C54.4817 687.07 53.7917 686.74 53.2517 686.26C52.7717 685.72 52.4417 685.06 52.2617 684.28C52.0817 683.44 51.9917 682.39 51.9917 681.13V666.19ZM107.522 740.98C107.522 741.28 107.372 741.52 107.072 741.7C106.832 741.94 106.592 742.06 106.352 742.06H58.4717C55.6517 742.06 53.7917 741.52 52.8917 740.44C52.0517 739.42 51.6317 737.65 51.6317 735.13V729.37C51.6317 726.85 52.1417 725.17 53.1617 724.33C54.2417 723.43 56.1317 722.98 58.8317 722.98H97.5317C98.3717 722.98 98.9117 722.86 99.1517 722.62C99.3917 722.38 99.5117 721.81 99.5117 720.91V716.59C99.5117 715.69 99.3917 715.12 99.1517 714.88C98.9717 714.64 98.4617 714.52 97.6217 714.52H52.7117C52.4117 714.52 52.1117 714.43 51.8117 714.25C51.5717 714.07 51.4517 713.83 51.4517 713.53V710.38C51.4517 710.08 51.5717 709.84 51.8117 709.66C52.1117 709.48 52.4117 709.39 52.7117 709.39H75.4817V700.57H40.4717C40.1117 700.57 39.7817 700.45 39.4817 700.21C39.2417 699.97 39.1217 699.7 39.1217 699.4V696.34C39.1217 695.98 39.2417 695.71 39.4817 695.53C39.7817 695.29 40.1117 695.17 40.4717 695.17H116.972C117.272 695.17 117.572 695.29 117.872 695.53C118.172 695.71 118.322 695.98 118.322 696.34V699.4C118.322 699.7 118.172 699.97 117.872 700.21C117.572 700.45 117.272 700.57 116.972 700.57H81.6917V709.39H98.5217C99.9617 709.39 101.132 709.51 102.032 709.75C102.932 709.93 103.652 710.26 104.192 710.74C104.732 711.22 105.092 711.91 105.272 712.81C105.512 713.65 105.632 714.7 105.632 715.96V721.72C105.632 724.24 105.092 725.95 104.012 726.85C102.992 727.69 101.132 728.11 98.4317 728.11H59.6417C58.8017 728.11 58.2617 728.23 58.0217 728.47C57.8417 728.71 57.7517 729.28 57.7517 730.18V734.77C57.7517 735.61 57.8717 736.15 58.1117 736.39C58.3517 736.69 58.8917 736.84 59.7317 736.84H106.262C106.562 736.84 106.832 736.93 107.072 737.11C107.372 737.29 107.522 737.53 107.522 737.83V740.98ZM60.3617 665.2C59.5217 665.2 58.9517 665.38 58.6517 665.74C58.3517 666.04 58.2017 666.64 58.2017 667.54V679.78C58.2017 680.68 58.3517 681.31 58.6517 681.67C58.9517 681.97 59.5217 682.12 60.3617 682.12H97.0817C97.9217 682.12 98.4917 681.97 98.7917 681.67C99.0917 681.31 99.2417 680.68 99.2417 679.78V667.54C99.2417 666.64 99.0917 666.04 98.7917 665.74C98.4917 665.38 97.9217 665.2 97.0817 665.2H60.3617ZM185.86 741.34C185.86 742.18 185.44 742.6 184.6 742.6H180.91C180.07 742.6 179.65 742.18 179.65 741.34V660.88C179.65 660.04 180.07 659.62 180.91 659.62H184.6C185.44 659.62 185.86 660.04 185.86 660.88V741.34ZM130.42 722.26C127.72 722.14 125.89 721.6 124.93 720.64C124.03 719.62 123.58 717.85 123.58 715.33V697.42C123.58 694.9 124.09 693.22 125.11 692.38C126.19 691.48 128.08 691.03 130.78 691.03H153.46C154.3 691.03 154.84 690.91 155.08 690.67C155.32 690.43 155.44 689.86 155.44 688.96V673.84C155.44 672.94 155.32 672.37 155.08 672.13C154.9 671.89 154.39 671.77 153.55 671.77H125.2C124.9 671.77 124.6 671.68 124.3 671.5C124.06 671.32 123.94 671.08 123.94 670.78V667.36C123.94 667.06 124.06 666.82 124.3 666.64C124.6 666.46 124.9 666.37 125.2 666.37H154.54C155.98 666.37 157.15 666.49 158.05 666.73C158.95 666.91 159.67 667.24 160.21 667.72C160.75 668.2 161.11 668.89 161.29 669.79C161.53 670.63 161.65 671.68 161.65 672.94V690.04C161.65 692.56 161.11 694.27 160.03 695.17C159.01 696.01 157.15 696.43 154.45 696.43H131.68C130.84 696.43 130.3 696.55 130.06 696.79C129.88 697.03 129.79 697.6 129.79 698.5V714.88C129.79 716.26 130.45 716.95 131.77 716.95C138.91 717.07 145.75 716.8 152.29 716.14C158.89 715.48 165.28 714.46 171.46 713.08C172.3 712.9 172.81 713.2 172.99 713.98L173.53 716.95C173.71 717.73 173.32 718.24 172.36 718.48C169.18 719.2 165.82 719.83 162.28 720.37C158.8 720.85 155.23 721.27 151.57 721.63C147.97 721.93 144.37 722.14 140.77 722.26C137.17 722.38 133.72 722.38 130.42 722.26ZM240.079 696.52C240.079 698.68 239.569 700.66 238.549 702.46C237.589 704.2 236.239 705.73 234.499 707.05C232.819 708.37 230.779 709.39 228.379 710.11C226.039 710.83 223.489 711.19 220.729 711.19C217.909 711.19 215.329 710.83 212.989 710.11C210.649 709.39 208.609 708.37 206.869 707.05C205.129 705.73 203.779 704.17 202.819 702.37C201.859 700.57 201.379 698.62 201.379 696.52C201.379 694.36 201.859 692.38 202.819 690.58C203.779 688.78 205.129 687.25 206.869 685.99C208.609 684.73 210.649 683.74 212.989 683.02C215.329 682.3 217.909 681.94 220.729 681.94C223.489 681.94 226.039 682.3 228.379 683.02C230.779 683.74 232.819 684.76 234.499 686.08C236.239 687.34 237.589 688.87 238.549 690.67C239.569 692.47 240.079 694.42 240.079 696.52ZM234.049 696.52C234.049 695.08 233.719 693.79 233.059 692.65C232.399 691.45 231.469 690.46 230.269 689.68C229.069 688.84 227.659 688.21 226.039 687.79C224.419 687.31 222.649 687.07 220.729 687.07C218.809 687.07 217.039 687.31 215.419 687.79C213.799 688.21 212.389 688.84 211.189 689.68C209.989 690.46 209.029 691.45 208.309 692.65C207.649 693.79 207.319 695.08 207.319 696.52C207.319 697.96 207.649 699.28 208.309 700.48C209.029 701.62 209.989 702.61 211.189 703.45C212.389 704.29 213.799 704.95 215.419 705.43C217.039 705.85 218.809 706.06 220.729 706.06C222.649 706.06 224.419 705.85 226.039 705.43C227.659 704.95 229.069 704.29 230.269 703.45C231.469 702.61 232.399 701.62 233.059 700.48C233.719 699.28 234.049 697.96 234.049 696.52ZM207.229 718.12C207.229 717.76 207.379 717.49 207.679 717.31C207.979 717.13 208.279 717.04 208.579 717.04H252.859C255.679 717.04 257.509 717.58 258.349 718.66C259.249 719.68 259.699 721.42 259.699 723.88V741.7C259.699 742.54 259.279 742.96 258.439 742.96H254.749C253.909 742.96 253.489 742.54 253.489 741.7V724.33C253.489 723.49 253.339 722.98 253.039 722.8C252.799 722.56 252.259 722.44 251.419 722.44H208.579C208.279 722.44 207.979 722.35 207.679 722.17C207.379 721.93 207.229 721.66 207.229 721.36V718.12ZM259.699 711.37C259.699 712.21 259.279 712.63 258.439 712.63H254.749C253.909 712.63 253.489 712.21 253.489 711.37V660.88C253.489 660.04 253.909 659.62 254.749 659.62H258.439C259.279 659.62 259.699 660.04 259.699 660.88V685.36H272.119C272.479 685.36 272.779 685.48 273.019 685.72C273.319 685.9 273.469 686.17 273.469 686.53V689.41C273.469 689.71 273.319 689.98 273.019 690.22C272.779 690.46 272.479 690.58 272.119 690.58H259.699V711.37ZM247.009 676.72C247.009 677.5 246.559 677.89 245.659 677.89H195.979C195.679 677.89 195.379 677.77 195.079 677.53C194.839 677.29 194.719 676.99 194.719 676.63V673.75C194.719 673.39 194.839 673.09 195.079 672.85C195.379 672.61 195.679 672.49 195.979 672.49H245.659C246.559 672.49 247.009 672.88 247.009 673.66V676.72ZM233.869 665.65C233.869 666.49 233.419 666.91 232.519 666.91H207.859C207.559 666.91 207.259 666.82 206.959 666.64C206.719 666.4 206.599 666.1 206.599 665.74V662.68C206.599 662.32 206.719 662.02 206.959 661.78C207.199 661.54 207.469 661.42 207.769 661.42H232.519C233.419 661.42 233.869 661.84 233.869 662.68V665.65ZM359.302 741.79C359.302 742.09 359.152 742.33 358.852 742.51C358.612 742.75 358.372 742.87 358.132 742.87H312.862C310.042 742.87 308.182 742.33 307.282 741.25C306.442 740.23 306.022 738.46 306.022 735.94V729.19C306.022 726.67 306.532 724.99 307.552 724.15C308.632 723.25 310.522 722.8 313.222 722.8H349.222C350.062 722.8 350.602 722.68 350.842 722.44C351.082 722.2 351.202 721.63 351.202 720.73V715.6C351.202 714.7 351.082 714.13 350.842 713.89C350.662 713.65 350.152 713.53 349.312 713.53H307.102C306.802 713.53 306.502 713.44 306.202 713.26C305.962 713.08 305.842 712.84 305.842 712.54V709.3C305.842 709 305.962 708.76 306.202 708.58C306.502 708.4 306.802 708.31 307.102 708.31H350.302C351.742 708.31 352.912 708.43 353.812 708.67C354.712 708.85 355.432 709.18 355.972 709.66C356.512 710.14 356.872 710.83 357.052 711.73C357.292 712.57 357.412 713.62 357.412 714.88V721.63C357.412 724.15 356.872 725.86 355.792 726.76C354.772 727.6 352.912 728.02 350.212 728.02H314.122C313.282 728.02 312.742 728.14 312.502 728.38C312.322 728.62 312.232 729.19 312.232 730.09V735.58C312.232 736.42 312.352 736.96 312.592 737.2C312.832 737.5 313.372 737.65 314.212 737.65H358.042C358.342 737.65 358.612 737.74 358.852 737.92C359.152 738.1 359.302 738.34 359.302 738.64V741.79ZM318.082 662.41C318.022 666.61 317.482 670.51 316.462 674.11C317.242 676.09 318.322 678.07 319.702 680.05C321.082 682.03 322.642 683.89 324.382 685.63C326.182 687.37 328.102 688.96 330.142 690.4C332.242 691.78 334.372 692.92 336.532 693.82C336.892 693.94 337.072 694.18 337.072 694.54C337.072 694.84 337.012 695.11 336.892 695.35L335.182 698.41C335.002 698.77 334.732 698.98 334.372 699.04C334.072 699.04 333.742 698.98 333.382 698.86C331.462 698.02 329.542 696.97 327.622 695.71C325.702 694.39 323.842 692.95 322.042 691.39C320.302 689.77 318.682 688.12 317.182 686.44C315.742 684.7 314.542 682.99 313.582 681.31C311.662 684.91 309.142 688.3 306.022 691.48C302.962 694.6 299.182 697.6 294.682 700.48C294.262 700.78 293.902 700.96 293.602 701.02C293.362 701.02 293.092 700.84 292.792 700.48L290.542 697.69C290.062 697.03 290.212 696.43 290.992 695.89C294.712 693.55 297.892 691.15 300.532 688.69C303.172 686.17 305.302 683.56 306.922 680.86C308.602 678.1 309.832 675.19 310.612 672.13C311.392 669.07 311.782 665.8 311.782 662.32C311.782 661.84 311.902 661.48 312.142 661.24C312.382 661 312.622 660.88 312.862 660.88L317.092 661.15C317.752 661.15 318.082 661.57 318.082 662.41ZM357.412 701.83C357.412 702.67 356.992 703.09 356.152 703.09H352.462C351.622 703.09 351.202 702.67 351.202 701.83V660.88C351.202 660.04 351.622 659.62 352.462 659.62H356.152C356.992 659.62 357.412 660.04 357.412 660.88V701.83ZM383.011 722.98C383.011 720.46 383.491 718.78 384.451 717.94C385.411 717.04 387.211 716.59 389.851 716.59H427.561C429.001 716.59 430.141 716.68 430.981 716.86C431.881 717.04 432.571 717.37 433.051 717.85C433.591 718.33 433.951 718.99 434.131 719.83C434.311 720.67 434.401 721.72 434.401 722.98V735.49C434.401 738.01 433.921 739.69 432.961 740.53C432.001 741.43 430.201 741.88 427.561 741.88H389.851C388.411 741.88 387.241 741.79 386.341 741.61C385.501 741.43 384.811 741.07 384.271 740.53C383.791 740.05 383.461 739.39 383.281 738.55C383.101 737.77 383.011 736.75 383.011 735.49V722.98ZM412.171 696.07C412.171 698.23 411.691 700.21 410.731 702.01C409.771 703.75 408.421 705.28 406.681 706.6C405.001 707.92 402.991 708.94 400.651 709.66C398.371 710.38 395.881 710.74 393.181 710.74C390.421 710.74 387.871 710.38 385.531 709.66C383.251 708.94 381.271 707.92 379.591 706.6C377.911 705.28 376.591 703.72 375.631 701.92C374.671 700.12 374.191 698.17 374.191 696.07C374.191 693.91 374.671 691.93 375.631 690.13C376.591 688.33 377.911 686.8 379.591 685.54C381.271 684.28 383.251 683.29 385.531 682.57C387.871 681.85 390.421 681.49 393.181 681.49C395.881 681.49 398.371 681.85 400.651 682.57C402.991 683.29 405.001 684.31 406.681 685.63C408.421 686.89 409.771 688.42 410.731 690.22C411.691 692.02 412.171 693.97 412.171 696.07ZM391.381 721.99C390.541 721.99 389.971 722.17 389.671 722.53C389.371 722.83 389.221 723.43 389.221 724.33V734.14C389.221 735.04 389.371 735.64 389.671 735.94C389.971 736.3 390.541 736.48 391.381 736.48H426.031C426.871 736.48 427.441 736.3 427.741 735.94C428.041 735.64 428.191 735.04 428.191 734.14V724.33C428.191 723.43 428.041 722.83 427.741 722.53C427.441 722.17 426.871 721.99 426.031 721.99H391.381ZM406.231 696.07C406.231 694.63 405.901 693.34 405.241 692.2C404.581 691 403.651 690.01 402.451 689.23C401.311 688.39 399.931 687.76 398.311 687.34C396.751 686.86 395.041 686.62 393.181 686.62C391.321 686.62 389.581 686.86 387.961 687.34C386.341 687.76 384.931 688.39 383.731 689.23C382.591 690.01 381.691 691 381.031 692.2C380.371 693.34 380.041 694.63 380.041 696.07C380.041 697.51 380.371 698.83 381.031 700.03C381.691 701.17 382.591 702.16 383.731 703C384.931 703.84 386.341 704.5 387.961 704.98C389.581 705.4 391.321 705.61 393.181 705.61C395.041 705.61 396.751 705.4 398.311 704.98C399.931 704.5 401.311 703.84 402.451 703C403.651 702.16 404.581 701.17 405.241 700.03C405.901 698.83 406.231 697.51 406.231 696.07ZM428.191 685.54V660.88C428.191 660.04 428.611 659.62 429.451 659.62H433.141C433.981 659.62 434.401 660.04 434.401 660.88V710.11C434.401 710.95 433.981 711.37 433.141 711.37H429.451C428.611 711.37 428.191 710.95 428.191 710.11V690.94H415.591C414.811 690.94 414.421 690.58 414.421 689.86V686.62C414.421 685.9 414.811 685.54 415.591 685.54H428.191ZM418.921 676.27C418.921 677.05 418.471 677.44 417.571 677.44H369.691C369.391 677.44 369.091 677.32 368.791 677.08C368.551 676.84 368.431 676.54 368.431 676.18V673.3C368.431 672.94 368.551 672.64 368.791 672.4C369.091 672.16 369.391 672.04 369.691 672.04H417.571C418.471 672.04 418.921 672.43 418.921 673.21V676.27ZM406.231 665.2C406.231 666.04 405.781 666.46 404.881 666.46H381.121C380.821 666.46 380.521 666.37 380.221 666.19C379.981 665.95 379.861 665.65 379.861 665.29V662.23C379.861 661.87 379.981 661.57 380.221 661.33C380.461 661.09 380.731 660.97 381.031 660.97H404.881C405.781 660.97 406.231 661.39 406.231 662.23V665.2ZM513.28 741.79C513.28 742.09 513.13 742.33 512.83 742.51C512.59 742.75 512.35 742.87 512.11 742.87H466.84C464.02 742.87 462.16 742.33 461.26 741.25C460.42 740.23 460 738.46 460 735.94V729.19C460 726.67 460.51 724.99 461.53 724.15C462.61 723.25 464.5 722.8 467.2 722.8H503.2C504.04 722.8 504.58 722.68 504.82 722.44C505.06 722.2 505.18 721.63 505.18 720.73V715.6C505.18 714.7 505.06 714.13 504.82 713.89C504.64 713.65 504.13 713.53 503.29 713.53H461.08C460.78 713.53 460.48 713.44 460.18 713.26C459.94 713.08 459.82 712.84 459.82 712.54V709.3C459.82 709 459.94 708.76 460.18 708.58C460.48 708.4 460.78 708.31 461.08 708.31H504.28C505.72 708.31 506.89 708.43 507.79 708.67C508.69 708.85 509.41 709.18 509.95 709.66C510.49 710.14 510.85 710.83 511.03 711.73C511.27 712.57 511.39 713.62 511.39 714.88V721.63C511.39 724.15 510.85 725.86 509.77 726.76C508.75 727.6 506.89 728.02 504.19 728.02H468.1C467.26 728.02 466.72 728.14 466.48 728.38C466.3 728.62 466.21 729.19 466.21 730.09V735.58C466.21 736.42 466.33 736.96 466.57 737.2C466.81 737.5 467.35 737.65 468.19 737.65H512.02C512.32 737.65 512.59 737.74 512.83 737.92C513.13 738.1 513.28 738.34 513.28 738.64V741.79ZM472.06 662.41C472 666.61 471.46 670.51 470.44 674.11C471.22 676.09 472.3 678.07 473.68 680.05C475.06 682.03 476.62 683.89 478.36 685.63C480.16 687.37 482.08 688.96 484.12 690.4C486.22 691.78 488.35 692.92 490.51 693.82C490.87 693.94 491.05 694.18 491.05 694.54C491.05 694.84 490.99 695.11 490.87 695.35L489.16 698.41C488.98 698.77 488.71 698.98 488.35 699.04C488.05 699.04 487.72 698.98 487.36 698.86C485.44 698.02 483.52 696.97 481.6 695.71C479.68 694.39 477.82 692.95 476.02 691.39C474.28 689.77 472.66 688.12 471.16 686.44C469.72 684.7 468.52 682.99 467.56 681.31C465.64 684.91 463.12 688.3 460 691.48C456.94 694.6 453.16 697.6 448.66 700.48C448.24 700.78 447.88 700.96 447.58 701.02C447.34 701.02 447.07 700.84 446.77 700.48L444.52 697.69C444.04 697.03 444.19 696.43 444.97 695.89C448.69 693.55 451.87 691.15 454.51 688.69C457.15 686.17 459.28 683.56 460.9 680.86C462.58 678.1 463.81 675.19 464.59 672.13C465.37 669.07 465.76 665.8 465.76 662.32C465.76 661.84 465.88 661.48 466.12 661.24C466.36 661 466.6 660.88 466.84 660.88L471.07 661.15C471.73 661.15 472.06 661.57 472.06 662.41ZM511.39 701.83C511.39 702.67 510.97 703.09 510.13 703.09H506.44C505.6 703.09 505.18 702.67 505.18 701.83V660.88C505.18 660.04 505.6 659.62 506.44 659.62H510.13C510.97 659.62 511.39 660.04 511.39 660.88V701.83Z" fill="black"/>
</svg>
