<svg width="653" height="207" viewBox="0 0 653 207" fill="none" xmlns="http://www.w3.org/2000/svg">
<path d="M352.717 189.063H267.579V206.902H352.988V189.063H352.717Z" fill="black"/>
<path fill-rule="evenodd" clip-rule="evenodd" d="M176.764 188.656V23.7848H241.632C244.695 23.7848 251.416 24.5956 253.794 27.839C256.173 31.0824 256.767 35.6772 256.767 37.5691V85.1387C256.767 89.2469 252.803 93.3372 250.821 94.8688L238.658 102.707L250.821 110.275C256.659 113.734 257.939 122.347 257.848 126.221V173.791C257.939 176.224 257.416 181.845 254.605 184.873C251.794 187.9 247.307 188.656 245.416 188.656H176.764ZM201.089 44.8667L201.63 44.3262H231.901L232.442 44.8667V84.8684L220.009 93.5174H201.63L201.089 92.9768V44.8667ZM201.63 112.978L201.089 113.518V113.657V168.115L201.63 168.656H232.442L232.983 168.115V121.356L220.82 112.978H201.63Z" fill="black"/>
<path fill-rule="evenodd" clip-rule="evenodd" d="M0 23.7848H24.3253V45.9479C27.2083 46.0379 33.5149 47.029 37.8394 50.2724C42.1639 53.5157 43.7856 55.4077 45.9478 60.0025C48.1101 64.5973 48.1101 71.3543 48.1101 71.3543C51.5337 74.6878 59.7322 84.49 65.1378 97.0311C71.8949 112.707 73.2463 128.654 73.5165 135.411C73.7868 142.168 72.2192 161.682 64.8675 174.872V188.656H0V162.709H24.3253V167.034H33.5149C35.0465 162.529 38.0556 152.385 37.8394 147.844V147.574H8.64901C6.39666 147.123 1.83791 144.979 1.62169 140.006C1.40546 135.033 6.21647 132.888 8.64901 132.438H37.8394C37.3889 123.338 34.7041 102.869 27.5687 93.7877C27.0281 93.9679 25.6767 94.3282 24.5956 94.3282H24.3253V103.248H0V23.7848ZM24.3253 89.1929V50.2724C41.8936 51.0832 45.9478 67.5163 42.7045 77.0302C39.4611 86.5441 29.1003 89.1028 24.3253 89.1929ZM47.2993 76.4897C46.0379 80.634 41.2449 89.5713 32.1635 92.166C35.3168 98.0221 41.7855 114.275 42.4342 132.438V147.033C42.3441 149.826 41.299 157.736 37.8394 167.034H63.5161C65.5883 162.529 69.6245 150.222 69.192 137.033C68.7514 123.595 67.9517 120.571 66.5002 115.082C66.1709 113.837 65.808 112.465 65.4081 110.815C63.2459 101.896 56.2185 86.7604 47.2993 76.4897ZM8.64901 136.762H38.38V143.249H38.2558H8.64901C7.74807 143.069 5.94619 142.168 5.94619 140.006C5.94619 137.844 7.74807 136.943 8.64901 136.762Z" fill="black"/>
<path d="M6.48675 116.762L3.78394 105.95H21.6225L18.9197 116.762H6.48675Z" fill="black"/>
<path d="M7.56787 20.0008V0H17.8386V20.0008H7.56787Z" fill="black"/>
<path fill-rule="evenodd" clip-rule="evenodd" d="M105.41 23.7848H131.357L162.709 188.656H138.925L133.519 157.304H103.248L97.8419 188.656H73.5166L105.41 23.7848ZM130.546 136.762L118.113 61.6242L105.68 136.762H130.546Z" fill="black"/>
<circle cx="404.611" cy="106.221" r="15.406" fill="black"/>
<path fill-rule="evenodd" clip-rule="evenodd" d="M330.284 52.4346C330.284 50.0021 331.473 47.5155 332.987 46.2181C334.879 44.5964 338.122 43.245 340.014 43.245C341.906 43.245 343.798 43.7856 345.96 45.4073C348.123 47.029 349.204 50.2724 349.204 52.4346C349.204 54.5969 348.393 57.0294 346.771 58.6511C345.149 60.2728 342.717 61.6242 340.014 61.8945C337.311 62.1647 335.96 61.6242 333.527 59.7322C331.095 57.8402 330.284 54.8671 330.284 52.4346ZM339.474 47.5695C336.5 47.5695 334.608 49.7318 334.608 52.4346C334.608 55.1374 336.771 57.0294 340.014 57.0294C343.257 57.0294 344.879 55.1374 344.879 52.4346C344.879 49.7318 342.447 47.5695 339.474 47.5695Z" fill="black"/>
<path fill-rule="evenodd" clip-rule="evenodd" d="M394.881 32.9743C394.881 30.5418 396.07 28.0552 397.584 26.7579C399.476 25.1362 402.719 23.7848 404.611 23.7848C406.503 23.7848 408.395 24.3253 410.558 25.947C412.72 27.5687 413.801 30.8121 413.801 32.9743C413.801 35.1366 412.99 37.5691 411.368 39.1908C409.747 40.8125 407.314 42.1639 404.611 42.4342C401.909 42.7045 400.557 42.1639 398.125 40.2719C395.692 38.38 394.881 35.4069 394.881 32.9743ZM404.071 28.1093C401.098 28.1093 399.206 30.2715 399.206 32.9743C399.206 35.6772 401.368 37.5691 404.611 37.5691C407.855 37.5691 409.476 35.6772 409.476 32.9743C409.476 30.2715 407.044 28.1093 404.071 28.1093Z" fill="black"/>
<path fill-rule="evenodd" clip-rule="evenodd" d="M328.392 162.98C328.392 160.547 329.581 158.061 331.095 156.763C332.987 155.142 336.23 153.79 338.122 153.79C340.014 153.79 341.906 154.331 344.068 155.952C346.231 157.574 347.312 160.817 347.312 162.98C347.312 165.142 346.501 167.575 344.879 169.196C343.257 170.818 340.825 172.169 338.122 172.44C335.419 172.71 333.527 171.899 331.095 170.007C328.662 168.115 328.392 165.412 328.392 162.98ZM337.582 158.115C334.608 158.115 332.716 160.277 332.716 162.98C332.716 165.683 334.879 167.575 338.122 167.575C341.365 167.575 342.987 165.683 342.987 162.98C342.987 160.277 340.555 158.115 337.582 158.115Z" fill="black"/>
<path fill-rule="evenodd" clip-rule="evenodd" d="M394.881 177.845C394.881 175.413 396.07 172.926 397.584 171.629C399.476 170.007 402.719 168.656 404.611 168.656C406.503 168.656 408.395 169.196 410.558 170.818C412.72 172.44 413.801 175.683 413.801 177.845C413.801 180.007 412.99 182.44 411.368 184.062C409.747 185.683 407.314 187.035 404.611 187.305C401.909 187.575 400.557 187.035 398.125 185.143C395.692 183.251 394.881 180.278 394.881 177.845ZM404.071 172.98C401.098 172.98 399.206 175.142 399.206 177.845C399.206 180.548 401.368 182.44 404.611 182.44C407.855 182.44 409.476 180.548 409.476 177.845C409.476 175.142 407.044 172.98 404.071 172.98Z" fill="black"/>
<path fill-rule="evenodd" clip-rule="evenodd" d="M339.474 67.5704H335.149C335.329 70.4534 337.473 78.5979 344.609 88.1118C351.744 97.6257 359.474 106.131 362.447 109.194C357.222 114.78 346.176 126.978 343.798 131.087C340.825 136.222 336.771 140.817 336.23 147.033H340.555C340.915 145.141 342.879 139.627 347.852 132.708C352.825 125.789 359.925 117.572 362.718 114.599V159.736C361.006 160.547 356.555 162.169 353.528 162.169V166.223C355.33 166.223 359.907 165.574 362.718 164.061V175.142C362.898 177.485 363.583 182.926 365.961 184.873C368.878 187.259 369.714 188.345 374.34 188.64H393.53C392.088 187.114 389.205 183.089 389.205 179.197C389.205 174.332 390.016 172.71 392.449 168.656V168.115H387.854L387.043 167.304V154.331C389.836 152.979 397.26 148.979 404.611 143.79C408.125 146.222 416.45 151.736 421.639 154.331V167.304L420.828 168.115H416.774V168.656C417.855 169.827 420.017 173.467 420.017 178.656C420.017 183.845 417.134 187.485 415.693 188.656H434.883C436.595 188.386 440.613 187.197 442.991 184.602C445.37 182.008 445.964 177.215 445.964 175.142V164.331C448.307 164.962 453.532 166.169 455.695 165.953V162.169C453.893 161.989 449.424 161.25 445.964 159.736V114.599C450.278 119.003 460.107 130.168 463.803 137.303V129.195C460.019 124.239 451.262 113.248 446.505 108.923C450.109 105.5 458.614 96.7608 463.803 89.1929V81.625C459.569 87.5712 450.073 100.22 445.964 103.248V58.6511C447.496 57.9303 451.586 56.4348 455.695 56.2186V51.894C453.712 52.1643 448.992 52.9752 445.964 54.0563V37.0286C445.784 35.1366 444.775 30.5959 442.18 27.5687C439.586 24.5416 430.829 23.7848 426.774 23.7848H417.315C418.306 25.1362 420.234 29.0282 420.017 33.7852C419.801 38.5421 416.324 43.1549 414.612 44.8667H421.639V64.327C417.405 66.6694 408.017 72.003 404.341 74.5977C400.557 71.8949 391.8 66.0568 387.043 64.327V44.8667H394.611C392.809 43.0649 389.205 38.3259 389.205 33.7852C389.205 29.2445 391.187 25.2263 392.178 23.7848H378.394C375.151 23.8749 368.934 24.8659 366.502 27.839C364.069 30.8121 362.988 31.6229 362.718 39.1908V54.0563C361.546 53.5157 358.393 52.4346 355.15 52.4346V56.2186C356.591 56.3086 360.123 56.9213 362.718 58.6511V103.248C355.06 94.8825 339.69 76.0361 339.474 67.5704ZM400.827 77.0302C396.719 74.2193 389.926 70.6336 387.043 69.1921V86.7604C387.908 85.8955 396.593 79.9132 400.827 77.0302ZM408.395 77.0302C409.26 76.1653 417.585 71.2642 421.639 68.9218V87.0306L421.369 86.7604C420.936 86.1117 412.54 80.0033 408.395 77.0302ZM387.043 92.7066C388.34 91.4092 399.116 83.3368 404.341 79.4628C406.287 80.3277 416.684 88.4721 421.639 92.4363V125.951C419.693 128.33 409.476 135.411 404.611 138.654C402.449 137.789 391.998 129.465 387.043 125.411V92.7066ZM387.043 148.925V131.087C389.638 133.465 397.314 138.744 400.827 141.087C396.719 144.33 389.926 147.664 387.043 148.925ZM408.395 141.087C412.071 138.925 418.756 133.879 421.639 131.627V148.925C418.396 147.628 411.458 143.159 408.395 141.087Z" fill="black"/>
<path d="M548.671 74.5977H524.346V167.304L523.535 168.115H491.101L490.291 167.304V74.5977H465.965V168.385C465.965 171.358 465.965 182.17 469.749 185.683C472.776 188.494 479.84 188.837 482.993 188.656H527.86C533.536 188.656 540.563 188.927 545.158 184.873C548.834 181.629 549.032 172.53 548.671 168.385V74.5977Z" fill="black"/>
<path d="M568.672 188.656V23.7848H624.891C635.972 23.7848 642.189 24.3253 645.702 27.839C648.513 30.6499 649.216 39.1007 649.216 42.9748V97.3013C649.216 100.274 649.216 106.761 644.351 111.356C640.459 115.032 630.296 114.689 625.702 114.059L653 188.656H627.323L600.565 113.248V97.8419H624.08L624.891 97.0311V44.8667H593.808L592.997 45.6776V188.656H568.672Z" fill="black"/>
<path fill-rule="evenodd" clip-rule="evenodd" d="M465.965 23.7848H490.291V68.6515H465.965V23.7848ZM485.966 28.1093H470.29V64.327H485.966V28.1093Z" fill="black"/>
<path fill-rule="evenodd" clip-rule="evenodd" d="M524.346 23.7848H548.671V68.6515H524.346V23.7848ZM544.347 28.1093H528.671V64.327H544.347V28.1093Z" fill="black"/>
<path fill-rule="evenodd" clip-rule="evenodd" d="M499.48 1.08113H517.589L511.913 18.3791H522.454L502.183 47.5695L498.129 47.029L503.264 29.1904H494.615V26.2173L499.48 1.08113ZM512.183 4.86507H502.723L499.21 24.8659H508.67L505.697 35.1366L514.346 22.7036H506.237L512.183 4.86507Z" fill="black"/>
</svg>
