<svg width="1208" height="429" viewBox="0 0 1208 429" fill="none" xmlns="http://www.w3.org/2000/svg">
<path d="M652.5 396H495V429H653V396H652.5Z" fill="#F7F7F2"/>
<path fill-rule="evenodd" clip-rule="evenodd" d="M327 349V44H447C452.667 44 465.1 45.5 469.5 51.5C473.9 57.5 475 66 475 69.5V157.5C475 165.1 467.667 172.667 464 175.5L441.5 190L464 204C474.8 210.4 477.167 226.333 477 233.5V321.5C477.167 326 476.2 336.4 471 342C465.8 347.6 457.5 349 454 349H327ZM372 83L373 82H429L430 83V157L407 173H373L372 172V83ZM373 209L372 210V210.257V311L373 312H430L431 311V224.5L408.5 209H373Z" fill="#F7F7F2"/>
<path fill-rule="evenodd" clip-rule="evenodd" d="M0 44H45V85C50.3333 85.1667 62 87 70 93C78 99 81 102.5 85 111C89 119.5 89 132 89 132C95.3333 138.167 110.5 156.3 120.5 179.5C133 208.5 135.5 238 136 250.5C136.5 263 133.6 299.1 120 323.5V349H0V301H45V309H62C64.8333 300.667 70.4 281.9 70 273.5V273H16C11.8333 272.167 3.4 268.2 3 259C2.6 249.8 11.5 245.833 16 245H70C69.1667 228.167 64.2 190.3 51 173.5C50 173.833 47.5 174.5 45.5 174.5H45V191H0V44ZM45 165V93C77.5 94.5 85 124.9 79 142.5C73 160.1 53.8333 164.833 45 165ZM87.5 141.5C85.1667 149.167 76.3 165.7 59.5 170.5C65.3333 181.333 77.3 211.4 78.5 245V272C78.3333 277.167 76.4 291.8 70 309H117.5C121.333 300.667 128.8 277.9 128 253.5C127.185 228.64 125.706 223.047 123.02 212.893C122.411 210.59 121.74 208.051 121 205C117 188.5 104 160.5 87.5 141.5ZM16 253H71V265H70.7703H16C14.3333 264.667 11 263 11 259C11 255 14.3333 253.333 16 253Z" fill="#F7F7F2"/>
<path d="M12 216L7 196H40L35 216H12Z" fill="#F7F7F2"/>
<path d="M14 37V0H33V37H14Z" fill="#F7F7F2"/>
<path fill-rule="evenodd" clip-rule="evenodd" d="M195 44H243L301 349H257L247 291H191L181 349H136L195 44ZM241.5 253L218.5 114L195.5 253H241.5Z" fill="#F7F7F2"/>
<circle cx="748.5" cy="196.5" r="28.5" fill="#F7F7F2"/>
<path fill-rule="evenodd" clip-rule="evenodd" d="M611 97C611 92.5 613.2 87.9 616 85.5C619.5 82.5 625.5 80 629 80C632.5 80 636 81 640 84C644 87 646 93 646 97C646 101 644.5 105.5 641.5 108.5C638.5 111.5 634 114 629 114.5C624 115 621.5 114 617 110.5C612.5 107 611 101.5 611 97ZM628 88C622.5 88 619 92 619 97C619 102 623 105.5 629 105.5C635 105.5 638 102 638 97C638 92 633.5 88 628 88Z" fill="#F7F7F2"/>
<path fill-rule="evenodd" clip-rule="evenodd" d="M730.5 61C730.5 56.5 732.7 51.9 735.5 49.5C739 46.5 745 44 748.5 44C752 44 755.5 45 759.5 48C763.5 51 765.5 57 765.5 61C765.5 65 764 69.5 761 72.5C758 75.5 753.5 78 748.5 78.5C743.5 79 741 78 736.5 74.5C732 71 730.5 65.5 730.5 61ZM747.5 52C742 52 738.5 56 738.5 61C738.5 66 742.5 69.5 748.5 69.5C754.5 69.5 757.5 66 757.5 61C757.5 56 753 52 747.5 52Z" fill="#F7F7F2"/>
<path fill-rule="evenodd" clip-rule="evenodd" d="M607.5 301.5C607.5 297 609.7 292.4 612.5 290C616 287 622 284.5 625.5 284.5C629 284.5 632.5 285.5 636.5 288.5C640.5 291.5 642.5 297.5 642.5 301.5C642.5 305.5 641 310 638 313C635 316 630.5 318.5 625.5 319C620.5 319.5 617 318 612.5 314.5C608 311 607.5 306 607.5 301.5ZM624.5 292.5C619 292.5 615.5 296.5 615.5 301.5C615.5 306.5 619.5 310 625.5 310C631.5 310 634.5 306.5 634.5 301.5C634.5 296.5 630 292.5 624.5 292.5Z" fill="#F7F7F2"/>
<path fill-rule="evenodd" clip-rule="evenodd" d="M730.5 329C730.5 324.5 732.7 319.9 735.5 317.5C739 314.5 745 312 748.5 312C752 312 755.5 313 759.5 316C763.5 319 765.5 325 765.5 329C765.5 333 764 337.5 761 340.5C758 343.5 753.5 346 748.5 346.5C743.5 347 741 346 736.5 342.5C732 339 730.5 333.5 730.5 329ZM747.5 320C742 320 738.5 324 738.5 329C738.5 334 742.5 337.5 748.5 337.5C754.5 337.5 757.5 334 757.5 329C757.5 324 753 320 747.5 320Z" fill="#F7F7F2"/>
<path fill-rule="evenodd" clip-rule="evenodd" d="M628 125H620C620.333 130.333 624.3 145.4 637.5 163C650.7 180.6 665 196.333 670.5 202C660.833 212.333 640.4 234.9 636 242.5C630.5 252 623 260.5 622 272H630C630.667 268.5 634.3 258.3 643.5 245.5C652.7 232.7 665.833 217.5 671 212V295.5C667.833 297 659.6 300 654 300V307.5C657.333 307.5 665.8 306.3 671 303.5V324C671.333 328.333 672.6 338.4 677 342C682.397 346.415 683.942 348.424 692.5 348.97H728C725.333 346.147 720 338.7 720 331.5C720 322.5 721.5 319.5 726 312V311H717.5L716 309.5V285.5C721.167 283 734.9 275.6 748.5 266C755 270.5 770.4 280.7 780 285.5V309.5L778.5 311H771V312C773 314.167 777 320.9 777 330.5C777 340.1 771.667 346.833 769 349H804.5C807.667 348.5 815.1 346.3 819.5 341.5C823.9 336.7 825 327.833 825 324V304C829.333 305.167 839 307.4 843 307V300C839.667 299.667 831.4 298.3 825 295.5V212C832.98 220.146 851.162 240.801 858 254V239C851 229.833 834.8 209.5 826 201.5C832.667 195.167 848.4 179 858 165V151C850.167 162 832.6 185.4 825 191V108.5C827.833 107.167 835.4 104.4 843 104V96C839.333 96.5 830.6 98 825 100V68.5C824.667 65 822.8 56.6 818 51C813.2 45.4 797 44 789.5 44H772C773.833 46.5 777.4 53.7 777 62.5C776.6 71.3 770.167 79.8333 767 83H780V119C772.167 123.333 754.8 133.2 748 138C741 133 724.8 122.2 716 119V83H730C726.667 79.6667 720 70.9 720 62.5C720 54.1 723.667 46.6667 725.5 44H700C694 44.1667 682.5 46 678 51.5C673.5 57 671.5 58.5 671 72.5V100C668.833 99 663 97 657 97V104C659.667 104.167 666.2 105.3 671 108.5V191C656.833 175.525 628.4 140.661 628 125ZM741.5 142.5C733.9 137.3 721.333 130.667 716 128V160.5C717.6 158.9 733.667 147.833 741.5 142.5ZM755.5 142.5C757.1 140.9 772.5 131.833 780 127.5V161L779.5 160.5C778.7 159.3 763.167 148 755.5 142.5ZM716 171.5C718.4 169.1 738.333 154.167 748 147C751.6 148.6 770.833 163.667 780 171V233C776.4 237.4 757.5 250.5 748.5 256.5C744.5 254.9 725.167 239.5 716 232V171.5ZM716 275.5V242.5C720.8 246.9 735 256.667 741.5 261C733.9 267 721.333 273.167 716 275.5ZM755.5 261C762.3 257 774.667 247.667 780 243.5V275.5C774 273.1 761.167 264.833 755.5 261Z" fill="#F7F7F2"/>
<path d="M1015 138H970V309.5L968.5 311H908.5L907 309.5V138H862V311.5C862 317 862 337 869 343.5C874.6 348.7 887.667 349.333 893.5 349H976.5C987 349 1000 349.5 1008.5 342C1015.3 336 1015.67 319.167 1015 311.5V138Z" fill="#F7F7F2"/>
<path d="M1052 349V44H1156C1176.5 44 1188 45 1194.5 51.5C1199.7 56.7 1201 72.3333 1201 79.5V180C1201 185.5 1201 197.5 1192 206C1184.8 212.8 1166 212.167 1157.5 211L1208 349H1160.5L1111 209.5V181H1154.5L1156 179.5V83H1098.5L1097 84.5V349H1052Z" fill="#F7F7F2"/>
<path fill-rule="evenodd" clip-rule="evenodd" d="M862 44H907V127H862V44ZM899 52H870V119H899V52Z" fill="#F7F7F2"/>
<path fill-rule="evenodd" clip-rule="evenodd" d="M970 44H1015V127H970V44ZM1007 52H978V119H1007V52Z" fill="#F7F7F2"/>
<path fill-rule="evenodd" clip-rule="evenodd" d="M924 2H957.5L947 34H966.5L929 88L921.5 87L931 54H915V48.5L924 2ZM947.5 9H930L923.5 46H941L935.5 65L951.5 42H936.5L947.5 9Z" fill="#F7F7F2"/>
</svg>
