<svg width="524" height="101" viewBox="0 0 524 101" fill="none" xmlns="http://www.w3.org/2000/svg">
<rect y="66" width="524" height="35" fill="#FFF000" fill-opacity="0.4"/>
<path d="M84.2567 89.05C84.2567 89.83 83.8667 90.22 83.0867 90.22H75.0767C74.2967 90.22 73.9067 89.83 73.9067 89.05V5.97999C73.9067 5.2 74.2967 4.81 75.0767 4.81H83.0867C83.8667 4.81 84.2567 5.2 84.2567 5.97999V89.05ZM59.9567 18.31C59.4767 24.13 58.2467 29.62 56.2667 34.78C54.3467 39.94 51.7667 44.74 48.5267 49.18C45.3467 53.62 41.5667 57.73 37.1867 61.51C32.8067 65.29 27.9767 68.74 22.6967 71.86C22.2167 72.16 21.6767 72.28 21.0767 72.22C20.5367 72.1 20.1167 71.8 19.8167 71.32L16.7567 66.55C16.4567 66.07 16.3667 65.62 16.4867 65.2C16.6067 64.72 16.8767 64.36 17.2967 64.12C26.2367 58.84 33.3767 52.75 38.7167 45.85C44.1167 38.95 47.6267 31.39 49.2467 23.17C49.4867 21.97 49.4267 21.19 49.0667 20.83C48.7067 20.41 47.9567 20.2 46.8167 20.2H21.4367C20.5967 20.2 20.1767 19.78 20.1767 18.94V12.64C20.1767 11.92 20.5967 11.56 21.4367 11.56H53.6567C56.3567 11.56 58.1267 12.13 58.9667 13.27C59.8067 14.35 60.1367 16.03 59.9567 18.31ZM156.295 13.81C156.295 19.63 155.995 25.06 155.395 30.1C154.795 35.14 153.955 39.97 152.875 44.59H167.095C167.395 44.59 167.695 44.74 167.995 45.04C168.295 45.34 168.445 45.64 168.445 45.94V51.88C168.445 52.18 168.295 52.48 167.995 52.78C167.695 53.08 167.395 53.23 167.095 53.23H132.355V88.33C132.355 89.17 131.935 89.59 131.095 89.59H123.265C122.425 89.59 122.005 89.17 122.005 88.33V53.23H88.7054C88.3454 53.23 88.0454 53.08 87.8054 52.78C87.5654 52.48 87.4454 52.18 87.4454 51.88V45.94C87.4454 45.58 87.5654 45.28 87.8054 45.04C88.0454 44.74 88.3454 44.59 88.7054 44.59H142.975C143.815 40.93 144.535 36.76 145.135 32.08C145.735 27.34 146.035 22.63 146.035 17.95C146.035 17.11 145.825 16.6 145.405 16.42C144.985 16.18 144.355 16.06 143.515 16.06H100.135C99.8354 16.06 99.5354 15.97 99.2354 15.79C98.9354 15.55 98.7854 15.28 98.7854 14.98V8.49999C98.7854 8.14 98.9354 7.87 99.2354 7.68999C99.5354 7.51 99.8354 7.42 100.135 7.42H150.355C152.275 7.42 153.745 7.93 154.765 8.94999C155.785 9.97 156.295 11.59 156.295 13.81ZM171.904 85.9C171.664 86.44 171.364 86.77 171.004 86.89C170.704 87.07 170.314 87.16 169.834 87.16H163.354C162.694 87.16 162.184 87.01 161.824 86.71C161.524 86.47 161.494 85.99 161.734 85.27L185.044 11.74C185.284 11.08 185.764 10.75 186.484 10.75H193.594C194.974 10.75 195.484 11.35 195.124 12.55L171.904 85.9ZM198.094 70.33C197.014 71.23 195.964 71.2 194.944 70.24L190.804 66.28C189.844 65.44 189.934 64.51 191.074 63.49C194.914 59.95 198.214 56.02 200.974 51.7C203.794 47.38 206.044 42.76 207.724 37.84C208.444 35.68 209.044 33.55 209.524 31.45C210.064 29.29 210.484 27.13 210.784 24.97C211.144 22.75 211.384 20.47 211.504 18.13C211.624 15.73 211.654 13.21 211.594 10.57C211.594 10.21 211.714 9.91 211.954 9.67C212.254 9.37 212.554 9.22 212.854 9.22L220.864 9.49C221.164 9.49 221.434 9.64 221.674 9.94C221.914 10.18 222.034 10.48 222.034 10.84C222.034 14.44 221.884 17.8 221.584 20.92C221.344 24.04 220.984 27.04 220.504 29.92C221.044 32.74 221.944 35.59 223.204 38.47C224.524 41.35 226.024 44.11 227.704 46.75C229.444 49.33 231.304 51.73 233.284 53.95C235.264 56.17 237.214 58.06 239.134 59.62C240.094 60.34 240.154 61.27 239.314 62.41L235.534 67C235.234 67.42 234.814 67.66 234.274 67.72C233.794 67.78 233.284 67.6 232.744 67.18C231.244 66.04 229.684 64.63 228.064 62.95C226.444 61.27 224.854 59.44 223.294 57.46C221.794 55.48 220.414 53.47 219.154 51.43C217.894 49.33 216.874 47.32 216.094 45.4C215.014 47.92 213.784 50.38 212.404 52.78C211.024 55.18 209.524 57.46 207.904 59.62C206.344 61.78 204.724 63.79 203.044 65.65C201.364 67.45 199.714 69.01 198.094 70.33ZM260.374 89.05C260.374 89.83 259.954 90.22 259.114 90.22H251.194C250.894 90.22 250.594 90.1 250.294 89.86C250.054 89.68 249.934 89.41 249.934 89.05V5.97999C249.934 5.68 250.054 5.41 250.294 5.16999C250.594 4.93 250.894 4.81 251.194 4.81H259.114C259.954 4.81 260.374 5.2 260.374 5.97999V89.05ZM311.893 28.75C311.893 31.75 311.353 34.54 310.273 37.12C309.193 39.64 307.663 41.83 305.683 43.69C303.763 45.49 301.453 46.9 298.753 47.92C296.053 48.94 293.083 49.45 289.843 49.45C286.603 49.45 283.663 48.94 281.023 47.92C278.383 46.9 276.103 45.49 274.183 43.69C272.323 41.83 270.853 39.64 269.773 37.12C268.753 34.54 268.243 31.75 268.243 28.75C268.243 25.87 268.753 23.17 269.773 20.65C270.853 18.07 272.323 15.85 274.183 13.99C276.103 12.07 278.383 10.57 281.023 9.49C283.663 8.41 286.603 7.87 289.843 7.87C293.083 7.87 296.053 8.41 298.753 9.49C301.453 10.57 303.763 12.07 305.683 13.99C307.663 15.85 309.193 18.07 310.273 20.65C311.353 23.17 311.893 25.87 311.893 28.75ZM344.383 35.5C344.683 35.5 344.953 35.62 345.193 35.86C345.493 36.1 345.643 36.37 345.643 36.67V42.97C345.643 43.27 345.493 43.54 345.193 43.78C344.953 44.02 344.683 44.14 344.383 44.14H332.143V52.51C332.143 53.29 331.753 53.68 330.973 53.68H322.963C322.183 53.68 321.793 53.26 321.793 52.42V5.97999C321.793 5.2 322.183 4.81 322.963 4.81H330.973C331.753 4.81 332.143 5.2 332.143 5.97999V18.04H344.383C344.683 18.04 344.953 18.16 345.193 18.4C345.493 18.58 345.643 18.82 345.643 19.12V25.42C345.643 25.72 345.493 25.99 345.193 26.23C344.953 26.47 344.683 26.59 344.383 26.59H332.143V35.5H344.383ZM332.053 88.78C332.053 89.08 331.903 89.35 331.603 89.59C331.363 89.89 331.093 90.04 330.793 90.04H323.143C322.723 90.04 322.363 89.89 322.063 89.59C321.823 89.35 321.703 89.08 321.703 88.78V68.35C321.703 67.69 321.583 67.27 321.343 67.09C321.103 66.91 320.683 66.82 320.083 66.82H279.403C279.103 66.82 278.803 66.73 278.503 66.55C278.263 66.31 278.143 66.04 278.143 65.74V59.35C278.143 58.93 278.263 58.63 278.503 58.45C278.803 58.27 279.103 58.18 279.403 58.18H326.113C328.393 58.18 329.953 58.66 330.793 59.62C331.633 60.58 332.053 62.2 332.053 64.48V88.78ZM301.633 28.93C301.633 25.33 300.553 22.48 298.393 20.38C296.233 18.22 293.383 17.14 289.843 17.14C286.423 17.14 283.633 18.22 281.473 20.38C279.313 22.48 278.233 25.33 278.233 28.93C278.233 32.53 279.313 35.41 281.473 37.57C283.633 39.73 286.423 40.81 289.843 40.81C293.383 40.81 296.233 39.73 298.393 37.57C300.553 35.41 301.633 32.53 301.633 28.93ZM421.486 5.97999C421.486 5.2 421.906 4.81 422.746 4.81H430.486C431.266 4.81 431.656 5.2 431.656 5.97999V89.05C431.656 89.83 431.266 90.22 430.486 90.22H422.656C421.876 90.22 421.486 89.83 421.486 89.05V46.48H413.116V85.63C413.116 86.47 412.726 86.89 411.946 86.89H404.566C403.726 86.89 403.306 86.47 403.306 85.63V7.6C403.306 6.81999 403.726 6.42999 404.566 6.42999H411.946C412.726 6.42999 413.116 6.81999 413.116 7.6V37.84H421.486V5.97999ZM399.706 61.78C399.826 62.32 399.706 62.71 399.346 62.95C398.986 63.19 398.656 63.37 398.356 63.49C396.376 64.03 394.006 64.51 391.246 64.93C388.546 65.29 385.696 65.59 382.696 65.83C379.756 66.07 376.816 66.25 373.876 66.37C370.936 66.43 368.326 66.37 366.046 66.19C363.886 66.07 362.236 65.56 361.096 64.66C360.016 63.76 359.476 62.26 359.476 60.16V17.59C359.476 15.49 359.896 14.02 360.736 13.18C361.636 12.34 363.226 11.92 365.506 11.92H391.606C392.446 11.92 392.866 12.34 392.866 13.18V19.39C392.866 20.17 392.446 20.56 391.606 20.56H371.536C370.396 20.56 369.826 21.07 369.826 22.09V54.94C369.826 55.9 369.976 56.53 370.276 56.83C370.636 57.07 371.386 57.25 372.526 57.37C373.786 57.55 375.436 57.61 377.476 57.55C379.516 57.49 381.676 57.37 383.956 57.19C386.296 56.95 388.576 56.68 390.796 56.38C393.076 56.08 395.056 55.75 396.736 55.39C397.156 55.27 397.546 55.27 397.906 55.39C398.266 55.51 398.506 55.81 398.626 56.29L399.706 61.78ZM457.885 69.61C454.465 69.61 451.375 68.89 448.615 67.45C445.915 65.95 443.635 63.91 441.775 61.33C439.915 58.69 438.475 55.54 437.455 51.88C436.495 48.22 436.015 44.2 436.015 39.82C436.015 35.32 436.495 31.24 437.455 27.58C438.475 23.92 439.915 20.8 441.775 18.22C443.635 15.64 445.915 13.66 448.615 12.28C451.375 10.84 454.465 10.12 457.885 10.12C462.025 10.12 465.625 11.11 468.685 13.09C471.805 15.07 474.265 17.86 476.065 21.46H493.705V5.97999C493.705 5.2 494.095 4.81 494.875 4.81H502.885C503.665 4.81 504.055 5.2 504.055 5.97999V89.05C504.055 89.83 503.665 90.22 502.885 90.22H494.875C494.095 90.22 493.705 89.83 493.705 89.05V57.37H476.425C474.685 61.27 472.225 64.3 469.045 66.46C465.925 68.56 462.205 69.61 457.885 69.61ZM469.765 39.82C469.765 37.06 469.495 34.45 468.955 31.99C468.475 29.47 467.725 27.28 466.705 25.42C465.745 23.56 464.515 22.09 463.015 21.01C461.515 19.87 459.805 19.3 457.885 19.3C456.025 19.3 454.345 19.87 452.845 21.01C451.405 22.09 450.175 23.56 449.155 25.42C448.195 27.28 447.445 29.47 446.905 31.99C446.425 34.45 446.185 37.06 446.185 39.82C446.185 42.52 446.425 45.13 446.905 47.65C447.445 50.11 448.195 52.3 449.155 54.22C450.175 56.08 451.405 57.58 452.845 58.72C454.345 59.86 456.025 60.43 457.885 60.43C459.805 60.43 461.515 59.86 463.015 58.72C464.515 57.58 465.745 56.08 466.705 54.22C467.725 52.3 468.475 50.11 468.955 47.65C469.495 45.13 469.765 42.52 469.765 39.82ZM478.945 29.92C479.605 33.1 479.935 36.4 479.935 39.82C479.935 43.18 479.665 46.21 479.125 48.91H493.705V29.92H478.945Z" fill="#1A1A1A"/>
</svg>
