<svg width="1178" height="333" viewBox="0 0 1178 333" fill="none" xmlns="http://www.w3.org/2000/svg">
<line x1="1177" y1="0.5" x2="1166" y2="0.5" stroke="black"/>
<line x1="1178" y1="4" y2="4" stroke="black" stroke-width="8"/>
<line x1="4" y1="-3.21133e-07" x2="4.00002" y2="311" stroke="black" stroke-width="8"/>
<line y1="307" x2="402" y2="307" stroke="black" stroke-width="8"/>
<line x1="516" y1="307" x2="685" y2="307" stroke="black" stroke-width="8"/>
<line x1="799" y1="307" x2="1178" y2="307" stroke="black" stroke-width="8"/>
<line x1="609" y1="218" x2="609" y2="1.60582e-08" stroke="black" stroke-width="8"/>
<line x1="985" y1="220" x2="985" y2="1.59122e-08" stroke="black" stroke-width="8"/>
<line x1="1174" y1="220" x2="1174" y2="1.59122e-08" stroke="black" stroke-width="8"/>
<line x1="609" y1="311" x2="609" y2="275" stroke="black" stroke-width="8"/>
<line x1="985" y1="311" x2="985" y2="276" stroke="black" stroke-width="8"/>
<line x1="1174" y1="311" x2="1174" y2="276" stroke="black" stroke-width="8"/>
<line x1="516" y1="305.5" x2="402" y2="305.5" stroke="black"/>
<line x1="516" y1="309.5" x2="402" y2="309.5" stroke="black"/>
<line x1="459" y1="305" x2="459" y2="310" stroke="black" stroke-width="2"/>
<mask id="path-16-inside-1_18_449" fill="white">
<path d="M611 218C626.117 218 640.616 224.005 651.305 234.695C661.995 245.384 668 259.883 668 275L611 275L611 218Z"/>
</mask>
<path d="M611 218C626.117 218 640.616 224.005 651.305 234.695C661.995 245.384 668 259.883 668 275L611 275L611 218Z" stroke="black" stroke-width="2" mask="url(#path-16-inside-1_18_449)"/>
<mask id="path-17-inside-2_18_449" fill="white">
<path d="M987 219C1002.12 219 1016.62 225.005 1027.31 235.695C1037.99 246.384 1044 260.883 1044 276L987 276L987 219Z"/>
</mask>
<path d="M987 219C1002.12 219 1016.62 225.005 1027.31 235.695C1037.99 246.384 1044 260.883 1044 276L987 276L987 219Z" stroke="black" stroke-width="2" mask="url(#path-17-inside-2_18_449)"/>
<line x1="799" y1="305.5" x2="685" y2="305.5" stroke="black"/>
<line x1="800" y1="309.5" x2="686" y2="309.5" stroke="black"/>
<line x1="798.5" y1="310" x2="798.5" y2="306" stroke="black"/>
<line x1="685.5" y1="309" x2="685.5" y2="305" stroke="black"/>
<line x1="607.5" y1="275" x2="607.5" y2="218" stroke="black"/>
<line x1="983.5" y1="276" x2="983.5" y2="219" stroke="black"/>
<line x1="611" y1="218.5" x2="607" y2="218.5" stroke="black"/>
<line x1="987" y1="219.5" x2="983" y2="219.5" stroke="black"/>
<line x1="611" y1="274.5" x2="608" y2="274.5" stroke="black"/>
<line x1="987" y1="275.5" x2="984" y2="275.5" stroke="black"/>
<line x1="1172.5" y1="219" x2="1172.5" y2="277" stroke="black"/>
<line x1="1175.5" y1="219" x2="1175.5" y2="277" stroke="black"/>
<line x1="1177" y1="275.5" x2="1173" y2="275.5" stroke="black"/>
<path d="M254.226 146.984C254.226 146.312 254.354 145.864 254.61 145.64C254.866 145.4 255.346 145.28 256.05 145.28H266.658C267.042 145.28 267.346 145.304 267.57 145.352C267.81 145.4 267.994 145.488 268.122 145.616C268.266 145.744 268.362 145.92 268.41 146.144C268.458 146.368 268.482 146.648 268.482 146.984V150.968C268.482 151.64 268.354 152.096 268.098 152.336C267.842 152.56 267.362 152.672 266.658 152.672H256.05C255.666 152.672 255.354 152.648 255.114 152.6C254.89 152.552 254.706 152.464 254.562 152.336C254.434 152.192 254.346 152.016 254.298 151.808C254.25 151.584 254.226 151.304 254.226 150.968V146.984ZM269.034 166.928C269.034 167.008 268.994 167.072 268.914 167.12C268.85 167.184 268.786 167.216 268.722 167.216H255.954C255.202 167.216 254.706 167.072 254.466 166.784C254.242 166.512 254.13 166.04 254.13 165.368V163.832C254.13 163.16 254.266 162.712 254.538 162.488C254.826 162.248 255.33 162.128 256.05 162.128H266.37C266.594 162.128 266.738 162.096 266.802 162.032C266.866 161.968 266.898 161.816 266.898 161.576V160.424C266.898 160.184 266.866 160.032 266.802 159.968C266.754 159.904 266.618 159.872 266.394 159.872H254.418C254.338 159.872 254.258 159.848 254.178 159.8C254.114 159.752 254.082 159.688 254.082 159.608V158.768C254.082 158.688 254.114 158.624 254.178 158.576C254.258 158.528 254.338 158.504 254.418 158.504H260.49V156.152H251.154C251.058 156.152 250.97 156.12 250.89 156.056C250.826 155.992 250.794 155.92 250.794 155.84V155.024C250.794 154.928 250.826 154.856 250.89 154.808C250.97 154.744 251.058 154.712 251.154 154.712H271.554C271.634 154.712 271.714 154.744 271.794 154.808C271.874 154.856 271.914 154.928 271.914 155.024V155.84C271.914 155.92 271.874 155.992 271.794 156.056C271.714 156.12 271.634 156.152 271.554 156.152H262.146V158.504H266.634C267.018 158.504 267.33 158.536 267.57 158.6C267.81 158.648 268.002 158.736 268.146 158.864C268.29 158.992 268.386 159.176 268.434 159.416C268.498 159.64 268.53 159.92 268.53 160.256V161.792C268.53 162.464 268.386 162.92 268.098 163.16C267.826 163.384 267.33 163.496 266.61 163.496H256.266C256.042 163.496 255.898 163.528 255.834 163.592C255.786 163.656 255.762 163.808 255.762 164.048V165.272C255.762 165.496 255.794 165.64 255.858 165.704C255.922 165.784 256.066 165.824 256.29 165.824H268.698C268.778 165.824 268.85 165.848 268.914 165.896C268.994 165.944 269.034 166.008 269.034 166.088V166.928ZM256.458 146.72C256.234 146.72 256.082 146.768 256.002 146.864C255.922 146.944 255.882 147.104 255.882 147.344V150.608C255.882 150.848 255.922 151.016 256.002 151.112C256.082 151.192 256.234 151.232 256.458 151.232H266.25C266.474 151.232 266.626 151.192 266.706 151.112C266.786 151.016 266.826 150.848 266.826 150.608V147.344C266.826 147.104 266.786 146.944 266.706 146.864C266.626 146.768 266.474 146.72 266.25 146.72H256.458ZM291.965 167.024C291.965 167.248 291.853 167.36 291.629 167.36H290.645C290.421 167.36 290.309 167.248 290.309 167.024V145.568C290.309 145.344 290.421 145.232 290.645 145.232H291.629C291.853 145.232 291.965 145.344 291.965 145.568V167.024ZM277.181 161.936C276.461 161.904 275.973 161.76 275.717 161.504C275.477 161.232 275.357 160.76 275.357 160.088V155.312C275.357 154.64 275.493 154.192 275.765 153.968C276.053 153.728 276.557 153.608 277.277 153.608H283.325C283.549 153.608 283.693 153.576 283.757 153.512C283.821 153.448 283.853 153.296 283.853 153.056V149.024C283.853 148.784 283.821 148.632 283.757 148.568C283.709 148.504 283.573 148.472 283.349 148.472H275.789C275.709 148.472 275.629 148.448 275.549 148.4C275.485 148.352 275.453 148.288 275.453 148.208V147.296C275.453 147.216 275.485 147.152 275.549 147.104C275.629 147.056 275.709 147.032 275.789 147.032H283.613C283.997 147.032 284.309 147.064 284.549 147.128C284.789 147.176 284.981 147.264 285.125 147.392C285.269 147.52 285.365 147.704 285.413 147.944C285.477 148.168 285.509 148.448 285.509 148.784V153.344C285.509 154.016 285.365 154.472 285.077 154.712C284.805 154.936 284.309 155.048 283.589 155.048H277.517C277.293 155.048 277.149 155.08 277.085 155.144C277.037 155.208 277.013 155.36 277.013 155.6V159.968C277.013 160.336 277.189 160.52 277.541 160.52C279.445 160.552 281.269 160.48 283.013 160.304C284.773 160.128 286.477 159.856 288.125 159.488C288.349 159.44 288.485 159.52 288.533 159.728L288.677 160.52C288.725 160.728 288.621 160.864 288.365 160.928C287.517 161.12 286.621 161.288 285.677 161.432C284.749 161.56 283.797 161.672 282.821 161.768C281.861 161.848 280.901 161.904 279.941 161.936C278.981 161.968 278.061 161.968 277.181 161.936ZM315.039 167.144C315.039 167.224 314.999 167.288 314.919 167.336C314.855 167.4 314.791 167.432 314.727 167.432H302.655C301.903 167.432 301.407 167.288 301.167 167C300.943 166.728 300.831 166.256 300.831 165.584V163.784C300.831 163.112 300.967 162.664 301.239 162.44C301.527 162.2 302.031 162.08 302.751 162.08H312.351C312.575 162.08 312.719 162.048 312.783 161.984C312.847 161.92 312.879 161.768 312.879 161.528V160.16C312.879 159.92 312.847 159.768 312.783 159.704C312.735 159.64 312.599 159.608 312.375 159.608H301.119C301.039 159.608 300.959 159.584 300.879 159.536C300.815 159.488 300.783 159.424 300.783 159.344V158.48C300.783 158.4 300.815 158.336 300.879 158.288C300.959 158.24 301.039 158.216 301.119 158.216H312.639C313.023 158.216 313.335 158.248 313.575 158.312C313.815 158.36 314.007 158.448 314.151 158.576C314.295 158.704 314.391 158.888 314.439 159.128C314.503 159.352 314.535 159.632 314.535 159.968V161.768C314.535 162.44 314.391 162.896 314.103 163.136C313.831 163.36 313.335 163.472 312.615 163.472H302.991C302.767 163.472 302.623 163.504 302.559 163.568C302.511 163.632 302.487 163.784 302.487 164.024V165.488C302.487 165.712 302.519 165.856 302.583 165.92C302.647 166 302.791 166.04 303.015 166.04H314.703C314.783 166.04 314.855 166.064 314.919 166.112C314.999 166.16 315.039 166.224 315.039 166.304V167.144ZM304.047 145.976C304.031 147.096 303.887 148.136 303.615 149.096C303.823 149.624 304.111 150.152 304.479 150.68C304.847 151.208 305.263 151.704 305.727 152.168C306.207 152.632 306.719 153.056 307.263 153.44C307.823 153.808 308.391 154.112 308.967 154.352C309.063 154.384 309.111 154.448 309.111 154.544C309.111 154.624 309.095 154.696 309.063 154.76L308.607 155.576C308.559 155.672 308.487 155.728 308.391 155.744C308.311 155.744 308.223 155.728 308.127 155.696C307.615 155.472 307.103 155.192 306.591 154.856C306.079 154.504 305.583 154.12 305.103 153.704C304.639 153.272 304.207 152.832 303.807 152.384C303.423 151.92 303.103 151.464 302.847 151.016C302.335 151.976 301.663 152.88 300.831 153.728C300.015 154.56 299.007 155.36 297.807 156.128C297.695 156.208 297.599 156.256 297.519 156.272C297.455 156.272 297.383 156.224 297.303 156.128L296.703 155.384C296.575 155.208 296.615 155.048 296.823 154.904C297.815 154.28 298.663 153.64 299.367 152.984C300.071 152.312 300.639 151.616 301.071 150.896C301.519 150.16 301.847 149.384 302.055 148.568C302.263 147.752 302.367 146.88 302.367 145.952C302.367 145.824 302.399 145.728 302.463 145.664C302.527 145.6 302.591 145.568 302.655 145.568L303.783 145.64C303.959 145.64 304.047 145.752 304.047 145.976ZM314.535 156.488C314.535 156.712 314.423 156.824 314.199 156.824H313.215C312.991 156.824 312.879 156.712 312.879 156.488V145.568C312.879 145.344 312.991 145.232 313.215 145.232H314.199C314.423 145.232 314.535 145.344 314.535 145.568V156.488ZM323.401 162.128C323.401 161.456 323.529 161.008 323.785 160.784C324.041 160.544 324.521 160.424 325.225 160.424H335.281C335.665 160.424 335.969 160.448 336.193 160.496C336.433 160.544 336.617 160.632 336.745 160.76C336.889 160.888 336.985 161.064 337.033 161.288C337.081 161.512 337.105 161.792 337.105 162.128V165.464C337.105 166.136 336.977 166.584 336.721 166.808C336.465 167.048 335.985 167.168 335.281 167.168H325.225C324.841 167.168 324.529 167.144 324.289 167.096C324.065 167.048 323.881 166.952 323.737 166.808C323.609 166.68 323.521 166.504 323.473 166.28C323.425 166.072 323.401 165.8 323.401 165.464V162.128ZM331.177 154.952C331.177 155.528 331.049 156.056 330.793 156.536C330.537 157 330.177 157.408 329.713 157.76C329.265 158.112 328.729 158.384 328.105 158.576C327.497 158.768 326.833 158.864 326.113 158.864C325.377 158.864 324.697 158.768 324.073 158.576C323.465 158.384 322.937 158.112 322.489 157.76C322.041 157.408 321.689 156.992 321.433 156.512C321.177 156.032 321.049 155.512 321.049 154.952C321.049 154.376 321.177 153.848 321.433 153.368C321.689 152.888 322.041 152.48 322.489 152.144C322.937 151.808 323.465 151.544 324.073 151.352C324.697 151.16 325.377 151.064 326.113 151.064C326.833 151.064 327.497 151.16 328.105 151.352C328.729 151.544 329.265 151.816 329.713 152.168C330.177 152.504 330.537 152.912 330.793 153.392C331.049 153.872 331.177 154.392 331.177 154.952ZM325.633 161.864C325.409 161.864 325.257 161.912 325.177 162.008C325.097 162.088 325.057 162.248 325.057 162.488V165.104C325.057 165.344 325.097 165.504 325.177 165.584C325.257 165.68 325.409 165.728 325.633 165.728H334.873C335.097 165.728 335.249 165.68 335.329 165.584C335.409 165.504 335.449 165.344 335.449 165.104V162.488C335.449 162.248 335.409 162.088 335.329 162.008C335.249 161.912 335.097 161.864 334.873 161.864H325.633ZM329.593 154.952C329.593 154.568 329.505 154.224 329.329 153.92C329.153 153.6 328.905 153.336 328.585 153.128C328.281 152.904 327.913 152.736 327.481 152.624C327.065 152.496 326.609 152.432 326.113 152.432C325.617 152.432 325.153 152.496 324.721 152.624C324.289 152.736 323.913 152.904 323.593 153.128C323.289 153.336 323.049 153.6 322.873 153.92C322.697 154.224 322.609 154.568 322.609 154.952C322.609 155.336 322.697 155.688 322.873 156.008C323.049 156.312 323.289 156.576 323.593 156.8C323.913 157.024 324.289 157.2 324.721 157.328C325.153 157.44 325.617 157.496 326.113 157.496C326.609 157.496 327.065 157.44 327.481 157.328C327.913 157.2 328.281 157.024 328.585 156.8C328.905 156.576 329.153 156.312 329.329 156.008C329.505 155.688 329.593 155.336 329.593 154.952ZM335.449 152.144V145.568C335.449 145.344 335.561 145.232 335.785 145.232H336.769C336.993 145.232 337.105 145.344 337.105 145.568V158.696C337.105 158.92 336.993 159.032 336.769 159.032H335.785C335.561 159.032 335.449 158.92 335.449 158.696V153.584H332.089C331.881 153.584 331.777 153.488 331.777 153.296V152.432C331.777 152.24 331.881 152.144 332.089 152.144H335.449ZM332.977 149.672C332.977 149.88 332.857 149.984 332.617 149.984H319.849C319.769 149.984 319.689 149.952 319.609 149.888C319.545 149.824 319.513 149.744 319.513 149.648V148.88C319.513 148.784 319.545 148.704 319.609 148.64C319.689 148.576 319.769 148.544 319.849 148.544H332.617C332.857 148.544 332.977 148.648 332.977 148.856V149.672ZM329.593 146.72C329.593 146.944 329.473 147.056 329.233 147.056H322.897C322.817 147.056 322.737 147.032 322.657 146.984C322.593 146.92 322.561 146.84 322.561 146.744V145.928C322.561 145.832 322.593 145.752 322.657 145.688C322.721 145.624 322.793 145.592 322.873 145.592H329.233C329.473 145.592 329.593 145.704 329.593 145.928V146.72ZM360.179 167.144C360.179 167.224 360.139 167.288 360.059 167.336C359.995 167.4 359.931 167.432 359.867 167.432H347.795C347.043 167.432 346.547 167.288 346.307 167C346.083 166.728 345.971 166.256 345.971 165.584V163.784C345.971 163.112 346.107 162.664 346.379 162.44C346.667 162.2 347.171 162.08 347.891 162.08H357.491C357.715 162.08 357.859 162.048 357.923 161.984C357.987 161.92 358.019 161.768 358.019 161.528V160.16C358.019 159.92 357.987 159.768 357.923 159.704C357.875 159.64 357.739 159.608 357.515 159.608H346.259C346.179 159.608 346.099 159.584 346.019 159.536C345.955 159.488 345.923 159.424 345.923 159.344V158.48C345.923 158.4 345.955 158.336 346.019 158.288C346.099 158.24 346.179 158.216 346.259 158.216H357.779C358.163 158.216 358.475 158.248 358.715 158.312C358.955 158.36 359.147 158.448 359.291 158.576C359.435 158.704 359.531 158.888 359.579 159.128C359.643 159.352 359.675 159.632 359.675 159.968V161.768C359.675 162.44 359.531 162.896 359.243 163.136C358.971 163.36 358.475 163.472 357.755 163.472H348.131C347.907 163.472 347.763 163.504 347.699 163.568C347.651 163.632 347.627 163.784 347.627 164.024V165.488C347.627 165.712 347.659 165.856 347.723 165.92C347.787 166 347.931 166.04 348.155 166.04H359.843C359.923 166.04 359.995 166.064 360.059 166.112C360.139 166.16 360.179 166.224 360.179 166.304V167.144ZM349.187 145.976C349.171 147.096 349.027 148.136 348.755 149.096C348.963 149.624 349.251 150.152 349.619 150.68C349.987 151.208 350.403 151.704 350.867 152.168C351.347 152.632 351.859 153.056 352.403 153.44C352.963 153.808 353.531 154.112 354.107 154.352C354.203 154.384 354.251 154.448 354.251 154.544C354.251 154.624 354.235 154.696 354.203 154.76L353.747 155.576C353.699 155.672 353.627 155.728 353.531 155.744C353.451 155.744 353.363 155.728 353.267 155.696C352.755 155.472 352.243 155.192 351.731 154.856C351.219 154.504 350.723 154.12 350.243 153.704C349.779 153.272 349.347 152.832 348.947 152.384C348.563 151.92 348.243 151.464 347.987 151.016C347.475 151.976 346.803 152.88 345.971 153.728C345.155 154.56 344.147 155.36 342.947 156.128C342.835 156.208 342.739 156.256 342.659 156.272C342.595 156.272 342.523 156.224 342.443 156.128L341.843 155.384C341.715 155.208 341.755 155.048 341.963 154.904C342.955 154.28 343.803 153.64 344.507 152.984C345.211 152.312 345.779 151.616 346.211 150.896C346.659 150.16 346.987 149.384 347.195 148.568C347.403 147.752 347.507 146.88 347.507 145.952C347.507 145.824 347.539 145.728 347.603 145.664C347.667 145.6 347.731 145.568 347.795 145.568L348.923 145.64C349.099 145.64 349.187 145.752 349.187 145.976ZM359.675 156.488C359.675 156.712 359.563 156.824 359.339 156.824H358.355C358.131 156.824 358.019 156.712 358.019 156.488V145.568C358.019 145.344 358.131 145.232 358.355 145.232H359.339C359.563 145.232 359.675 145.344 359.675 145.568V156.488Z" fill="black"/>
<path d="M717.293 146.984C717.293 146.312 717.421 145.864 717.677 145.64C717.933 145.4 718.413 145.28 719.117 145.28H729.725C730.109 145.28 730.413 145.304 730.637 145.352C730.877 145.4 731.061 145.488 731.189 145.616C731.333 145.744 731.429 145.92 731.477 146.144C731.525 146.368 731.549 146.648 731.549 146.984V150.968C731.549 151.64 731.421 152.096 731.165 152.336C730.909 152.56 730.429 152.672 729.725 152.672H719.117C718.733 152.672 718.421 152.648 718.181 152.6C717.957 152.552 717.773 152.464 717.629 152.336C717.501 152.192 717.413 152.016 717.365 151.808C717.317 151.584 717.293 151.304 717.293 150.968V146.984ZM732.101 166.928C732.101 167.008 732.061 167.072 731.981 167.12C731.917 167.184 731.853 167.216 731.789 167.216H719.021C718.269 167.216 717.773 167.072 717.533 166.784C717.309 166.512 717.197 166.04 717.197 165.368V163.832C717.197 163.16 717.333 162.712 717.605 162.488C717.893 162.248 718.397 162.128 719.117 162.128H729.437C729.661 162.128 729.805 162.096 729.869 162.032C729.933 161.968 729.965 161.816 729.965 161.576V160.424C729.965 160.184 729.933 160.032 729.869 159.968C729.821 159.904 729.685 159.872 729.461 159.872H717.485C717.405 159.872 717.325 159.848 717.245 159.8C717.181 159.752 717.149 159.688 717.149 159.608V158.768C717.149 158.688 717.181 158.624 717.245 158.576C717.325 158.528 717.405 158.504 717.485 158.504H723.557V156.152H714.221C714.125 156.152 714.037 156.12 713.957 156.056C713.893 155.992 713.861 155.92 713.861 155.84V155.024C713.861 154.928 713.893 154.856 713.957 154.808C714.037 154.744 714.125 154.712 714.221 154.712H734.621C734.701 154.712 734.781 154.744 734.861 154.808C734.941 154.856 734.981 154.928 734.981 155.024V155.84C734.981 155.92 734.941 155.992 734.861 156.056C734.781 156.12 734.701 156.152 734.621 156.152H725.213V158.504H729.701C730.085 158.504 730.397 158.536 730.637 158.6C730.877 158.648 731.069 158.736 731.213 158.864C731.357 158.992 731.453 159.176 731.501 159.416C731.565 159.64 731.597 159.92 731.597 160.256V161.792C731.597 162.464 731.453 162.92 731.165 163.16C730.893 163.384 730.397 163.496 729.677 163.496H719.333C719.109 163.496 718.965 163.528 718.901 163.592C718.853 163.656 718.829 163.808 718.829 164.048V165.272C718.829 165.496 718.861 165.64 718.925 165.704C718.989 165.784 719.133 165.824 719.357 165.824H731.765C731.845 165.824 731.917 165.848 731.981 165.896C732.061 165.944 732.101 166.008 732.101 166.088V166.928ZM719.525 146.72C719.301 146.72 719.149 146.768 719.069 146.864C718.989 146.944 718.949 147.104 718.949 147.344V150.608C718.949 150.848 718.989 151.016 719.069 151.112C719.149 151.192 719.301 151.232 719.525 151.232H729.317C729.541 151.232 729.693 151.192 729.773 151.112C729.853 151.016 729.893 150.848 729.893 150.608V147.344C729.893 147.104 729.853 146.944 729.773 146.864C729.693 146.768 729.541 146.72 729.317 146.72H719.525ZM755.031 167.024C755.031 167.248 754.919 167.36 754.695 167.36H753.711C753.487 167.36 753.375 167.248 753.375 167.024V145.568C753.375 145.344 753.487 145.232 753.711 145.232H754.695C754.919 145.232 755.031 145.344 755.031 145.568V167.024ZM740.247 161.936C739.527 161.904 739.039 161.76 738.783 161.504C738.543 161.232 738.423 160.76 738.423 160.088V155.312C738.423 154.64 738.559 154.192 738.831 153.968C739.119 153.728 739.623 153.608 740.343 153.608H746.391C746.615 153.608 746.759 153.576 746.823 153.512C746.887 153.448 746.919 153.296 746.919 153.056V149.024C746.919 148.784 746.887 148.632 746.823 148.568C746.775 148.504 746.639 148.472 746.415 148.472H738.855C738.775 148.472 738.695 148.448 738.615 148.4C738.551 148.352 738.519 148.288 738.519 148.208V147.296C738.519 147.216 738.551 147.152 738.615 147.104C738.695 147.056 738.775 147.032 738.855 147.032H746.679C747.063 147.032 747.375 147.064 747.615 147.128C747.855 147.176 748.047 147.264 748.191 147.392C748.335 147.52 748.431 147.704 748.479 147.944C748.543 148.168 748.575 148.448 748.575 148.784V153.344C748.575 154.016 748.431 154.472 748.143 154.712C747.871 154.936 747.375 155.048 746.655 155.048H740.583C740.359 155.048 740.215 155.08 740.151 155.144C740.103 155.208 740.079 155.36 740.079 155.6V159.968C740.079 160.336 740.255 160.52 740.607 160.52C742.511 160.552 744.335 160.48 746.079 160.304C747.839 160.128 749.543 159.856 751.191 159.488C751.415 159.44 751.551 159.52 751.599 159.728L751.743 160.52C751.791 160.728 751.687 160.864 751.431 160.928C750.583 161.12 749.687 161.288 748.743 161.432C747.815 161.56 746.863 161.672 745.887 161.768C744.927 161.848 743.967 161.904 743.007 161.936C742.047 161.968 741.127 161.968 740.247 161.936ZM778.105 167.144C778.105 167.224 778.065 167.288 777.985 167.336C777.921 167.4 777.857 167.432 777.793 167.432H765.721C764.969 167.432 764.473 167.288 764.233 167C764.009 166.728 763.897 166.256 763.897 165.584V163.784C763.897 163.112 764.033 162.664 764.305 162.44C764.593 162.2 765.097 162.08 765.817 162.08H775.417C775.641 162.08 775.785 162.048 775.849 161.984C775.913 161.92 775.945 161.768 775.945 161.528V160.16C775.945 159.92 775.913 159.768 775.849 159.704C775.801 159.64 775.665 159.608 775.441 159.608H764.185C764.105 159.608 764.025 159.584 763.945 159.536C763.881 159.488 763.849 159.424 763.849 159.344V158.48C763.849 158.4 763.881 158.336 763.945 158.288C764.025 158.24 764.105 158.216 764.185 158.216H775.705C776.089 158.216 776.401 158.248 776.641 158.312C776.881 158.36 777.073 158.448 777.217 158.576C777.361 158.704 777.457 158.888 777.505 159.128C777.569 159.352 777.601 159.632 777.601 159.968V161.768C777.601 162.44 777.457 162.896 777.169 163.136C776.897 163.36 776.401 163.472 775.681 163.472H766.057C765.833 163.472 765.689 163.504 765.625 163.568C765.577 163.632 765.553 163.784 765.553 164.024V165.488C765.553 165.712 765.585 165.856 765.649 165.92C765.713 166 765.857 166.04 766.081 166.04H777.769C777.849 166.04 777.921 166.064 777.985 166.112C778.065 166.16 778.105 166.224 778.105 166.304V167.144ZM767.113 145.976C767.097 147.096 766.953 148.136 766.681 149.096C766.889 149.624 767.177 150.152 767.545 150.68C767.913 151.208 768.329 151.704 768.793 152.168C769.273 152.632 769.785 153.056 770.329 153.44C770.889 153.808 771.457 154.112 772.033 154.352C772.129 154.384 772.177 154.448 772.177 154.544C772.177 154.624 772.161 154.696 772.129 154.76L771.673 155.576C771.625 155.672 771.553 155.728 771.457 155.744C771.377 155.744 771.289 155.728 771.193 155.696C770.681 155.472 770.169 155.192 769.657 154.856C769.145 154.504 768.649 154.12 768.169 153.704C767.705 153.272 767.273 152.832 766.873 152.384C766.489 151.92 766.169 151.464 765.913 151.016C765.401 151.976 764.729 152.88 763.897 153.728C763.081 154.56 762.073 155.36 760.873 156.128C760.761 156.208 760.665 156.256 760.585 156.272C760.521 156.272 760.449 156.224 760.369 156.128L759.769 155.384C759.641 155.208 759.681 155.048 759.889 154.904C760.881 154.28 761.729 153.64 762.433 152.984C763.137 152.312 763.705 151.616 764.137 150.896C764.585 150.16 764.913 149.384 765.121 148.568C765.329 147.752 765.433 146.88 765.433 145.952C765.433 145.824 765.465 145.728 765.529 145.664C765.593 145.6 765.657 145.568 765.721 145.568L766.849 145.64C767.025 145.64 767.113 145.752 767.113 145.976ZM777.601 156.488C777.601 156.712 777.489 156.824 777.265 156.824H776.281C776.057 156.824 775.945 156.712 775.945 156.488V145.568C775.945 145.344 776.057 145.232 776.281 145.232H777.265C777.489 145.232 777.601 145.344 777.601 145.568V156.488ZM786.468 162.128C786.468 161.456 786.596 161.008 786.852 160.784C787.108 160.544 787.588 160.424 788.292 160.424H798.348C798.732 160.424 799.036 160.448 799.26 160.496C799.5 160.544 799.684 160.632 799.812 160.76C799.956 160.888 800.052 161.064 800.1 161.288C800.148 161.512 800.172 161.792 800.172 162.128V165.464C800.172 166.136 800.044 166.584 799.788 166.808C799.532 167.048 799.052 167.168 798.348 167.168H788.292C787.908 167.168 787.596 167.144 787.356 167.096C787.132 167.048 786.948 166.952 786.804 166.808C786.676 166.68 786.588 166.504 786.54 166.28C786.492 166.072 786.468 165.8 786.468 165.464V162.128ZM794.244 154.952C794.244 155.528 794.116 156.056 793.86 156.536C793.604 157 793.244 157.408 792.78 157.76C792.332 158.112 791.796 158.384 791.172 158.576C790.564 158.768 789.9 158.864 789.18 158.864C788.444 158.864 787.764 158.768 787.14 158.576C786.532 158.384 786.004 158.112 785.556 157.76C785.108 157.408 784.756 156.992 784.5 156.512C784.244 156.032 784.116 155.512 784.116 154.952C784.116 154.376 784.244 153.848 784.5 153.368C784.756 152.888 785.108 152.48 785.556 152.144C786.004 151.808 786.532 151.544 787.14 151.352C787.764 151.16 788.444 151.064 789.18 151.064C789.9 151.064 790.564 151.16 791.172 151.352C791.796 151.544 792.332 151.816 792.78 152.168C793.244 152.504 793.604 152.912 793.86 153.392C794.116 153.872 794.244 154.392 794.244 154.952ZM788.7 161.864C788.476 161.864 788.324 161.912 788.244 162.008C788.164 162.088 788.124 162.248 788.124 162.488V165.104C788.124 165.344 788.164 165.504 788.244 165.584C788.324 165.68 788.476 165.728 788.7 165.728H797.94C798.164 165.728 798.316 165.68 798.396 165.584C798.476 165.504 798.516 165.344 798.516 165.104V162.488C798.516 162.248 798.476 162.088 798.396 162.008C798.316 161.912 798.164 161.864 797.94 161.864H788.7ZM792.66 154.952C792.66 154.568 792.572 154.224 792.396 153.92C792.22 153.6 791.972 153.336 791.652 153.128C791.348 152.904 790.98 152.736 790.548 152.624C790.132 152.496 789.676 152.432 789.18 152.432C788.684 152.432 788.22 152.496 787.788 152.624C787.356 152.736 786.98 152.904 786.66 153.128C786.356 153.336 786.116 153.6 785.94 153.92C785.764 154.224 785.676 154.568 785.676 154.952C785.676 155.336 785.764 155.688 785.94 156.008C786.116 156.312 786.356 156.576 786.66 156.8C786.98 157.024 787.356 157.2 787.788 157.328C788.22 157.44 788.684 157.496 789.18 157.496C789.676 157.496 790.132 157.44 790.548 157.328C790.98 157.2 791.348 157.024 791.652 156.8C791.972 156.576 792.22 156.312 792.396 156.008C792.572 155.688 792.66 155.336 792.66 154.952ZM798.516 152.144V145.568C798.516 145.344 798.628 145.232 798.852 145.232H799.836C800.06 145.232 800.172 145.344 800.172 145.568V158.696C800.172 158.92 800.06 159.032 799.836 159.032H798.852C798.628 159.032 798.516 158.92 798.516 158.696V153.584H795.156C794.948 153.584 794.844 153.488 794.844 153.296V152.432C794.844 152.24 794.948 152.144 795.156 152.144H798.516ZM796.044 149.672C796.044 149.88 795.924 149.984 795.684 149.984H782.916C782.836 149.984 782.756 149.952 782.676 149.888C782.612 149.824 782.58 149.744 782.58 149.648V148.88C782.58 148.784 782.612 148.704 782.676 148.64C782.756 148.576 782.836 148.544 782.916 148.544H795.684C795.924 148.544 796.044 148.648 796.044 148.856V149.672ZM792.66 146.72C792.66 146.944 792.54 147.056 792.3 147.056H785.964C785.884 147.056 785.804 147.032 785.724 146.984C785.66 146.92 785.628 146.84 785.628 146.744V145.928C785.628 145.832 785.66 145.752 785.724 145.688C785.788 145.624 785.86 145.592 785.94 145.592H792.3C792.54 145.592 792.66 145.704 792.66 145.928V146.72ZM826.996 148.328C826.532 148.744 826.012 149.144 825.436 149.528C824.86 149.912 824.236 150.288 823.564 150.656C824.62 150.992 825.724 151.32 826.876 151.64C828.028 151.944 829.116 152.2 830.14 152.408C830.348 152.456 830.42 152.568 830.356 152.744L830.02 153.536C829.94 153.712 829.796 153.776 829.588 153.728C829.06 153.632 828.46 153.504 827.788 153.344C827.132 153.184 826.452 153.008 825.748 152.816C825.06 152.624 824.364 152.424 823.66 152.216C822.956 151.992 822.308 151.776 821.716 151.568C819.444 152.592 816.676 153.488 813.412 154.256C813.268 154.288 813.164 154.28 813.1 154.232C813.036 154.184 812.988 154.112 812.956 154.016L812.74 153.32C812.676 153.096 812.732 152.96 812.908 152.912C814.22 152.608 815.476 152.272 816.676 151.904C817.876 151.52 818.996 151.12 820.036 150.704C821.092 150.272 822.052 149.824 822.916 149.36C823.796 148.896 824.548 148.432 825.172 147.968C825.428 147.776 825.524 147.632 825.46 147.536C825.412 147.424 825.276 147.368 825.052 147.368H814.684C814.476 147.368 814.372 147.264 814.372 147.056V146.216C814.372 146.024 814.476 145.928 814.684 145.928H825.652C826.884 145.928 827.62 146.152 827.86 146.6C828.1 147.032 827.812 147.608 826.996 148.328ZM821.068 162.728C820.988 162.728 820.916 162.696 820.852 162.632C820.788 162.552 820.756 162.464 820.756 162.368V157.52H811.228C811.132 157.52 811.044 157.488 810.964 157.424C810.9 157.36 810.868 157.288 810.868 157.208V156.392C810.868 156.296 810.9 156.224 810.964 156.176C811.044 156.112 811.132 156.08 811.228 156.08H831.628C831.708 156.08 831.788 156.112 831.868 156.176C831.948 156.224 831.988 156.296 831.988 156.392V157.208C831.988 157.288 831.948 157.36 831.868 157.424C831.788 157.488 831.708 157.52 831.628 157.52H822.412V162.368C822.412 162.464 822.38 162.552 822.316 162.632C822.268 162.696 822.196 162.728 822.1 162.728H821.068ZM829.396 166.64C829.396 166.736 829.356 166.808 829.276 166.856C829.196 166.904 829.116 166.928 829.036 166.928H815.812C815.06 166.928 814.564 166.768 814.324 166.448C814.1 166.144 813.988 165.664 813.988 165.008V160.232C813.988 160.008 814.1 159.896 814.324 159.896H815.308C815.532 159.896 815.644 160.008 815.644 160.232V164.984C815.644 165.208 815.676 165.344 815.74 165.392C815.82 165.456 815.972 165.488 816.196 165.488H829.036C829.116 165.488 829.196 165.512 829.276 165.56C829.356 165.624 829.396 165.696 829.396 165.776V166.64ZM852.063 167.024C852.063 167.248 851.951 167.36 851.727 167.36H850.743C850.519 167.36 850.407 167.248 850.407 167.024V145.568C850.407 145.344 850.519 145.232 850.743 145.232H851.727C851.951 145.232 852.063 145.344 852.063 145.568V167.024ZM837.135 161.072C836.751 161.072 836.439 161.048 836.199 161C835.975 160.952 835.799 160.864 835.671 160.736C835.543 160.592 835.455 160.416 835.407 160.208C835.359 159.984 835.335 159.704 835.335 159.368V146.744C835.335 146.664 835.367 146.6 835.431 146.552C835.495 146.488 835.567 146.456 835.647 146.456H836.679C836.759 146.456 836.823 146.488 836.871 146.552C836.935 146.616 836.967 146.68 836.967 146.744V152.312H844.407V146.768C844.407 146.688 844.431 146.616 844.479 146.552C844.543 146.488 844.615 146.456 844.695 146.456H845.727C845.807 146.456 845.879 146.488 845.943 146.552C846.007 146.6 846.039 146.664 846.039 146.744V159.536C846.039 160.144 845.911 160.552 845.655 160.76C845.399 160.968 844.919 161.072 844.215 161.072H837.135ZM836.967 153.728V159.08C836.967 159.32 837.007 159.48 837.087 159.56C837.167 159.624 837.319 159.656 837.543 159.656H843.831C844.055 159.656 844.207 159.624 844.287 159.56C844.367 159.48 844.407 159.32 844.407 159.08V153.728H836.967ZM875.113 167.144C875.113 167.224 875.073 167.288 874.993 167.336C874.929 167.4 874.865 167.432 874.801 167.432H862.729C861.977 167.432 861.481 167.288 861.241 167C861.017 166.728 860.905 166.256 860.905 165.584V163.784C860.905 163.112 861.041 162.664 861.313 162.44C861.601 162.2 862.105 162.08 862.825 162.08H872.425C872.649 162.08 872.793 162.048 872.857 161.984C872.921 161.92 872.953 161.768 872.953 161.528V160.16C872.953 159.92 872.921 159.768 872.857 159.704C872.809 159.64 872.673 159.608 872.449 159.608H861.193C861.113 159.608 861.033 159.584 860.953 159.536C860.889 159.488 860.857 159.424 860.857 159.344V158.48C860.857 158.4 860.889 158.336 860.953 158.288C861.033 158.24 861.113 158.216 861.193 158.216H872.713C873.097 158.216 873.409 158.248 873.649 158.312C873.889 158.36 874.081 158.448 874.225 158.576C874.369 158.704 874.465 158.888 874.513 159.128C874.577 159.352 874.609 159.632 874.609 159.968V161.768C874.609 162.44 874.465 162.896 874.177 163.136C873.905 163.36 873.409 163.472 872.689 163.472H863.065C862.841 163.472 862.697 163.504 862.633 163.568C862.585 163.632 862.561 163.784 862.561 164.024V165.488C862.561 165.712 862.593 165.856 862.657 165.92C862.721 166 862.865 166.04 863.089 166.04H874.777C874.857 166.04 874.929 166.064 874.993 166.112C875.073 166.16 875.113 166.224 875.113 166.304V167.144ZM864.121 145.976C864.105 147.096 863.961 148.136 863.689 149.096C863.897 149.624 864.185 150.152 864.553 150.68C864.921 151.208 865.337 151.704 865.801 152.168C866.281 152.632 866.793 153.056 867.337 153.44C867.897 153.808 868.465 154.112 869.041 154.352C869.137 154.384 869.185 154.448 869.185 154.544C869.185 154.624 869.169 154.696 869.137 154.76L868.681 155.576C868.633 155.672 868.561 155.728 868.465 155.744C868.385 155.744 868.297 155.728 868.201 155.696C867.689 155.472 867.177 155.192 866.665 154.856C866.153 154.504 865.657 154.12 865.177 153.704C864.713 153.272 864.281 152.832 863.881 152.384C863.497 151.92 863.177 151.464 862.921 151.016C862.409 151.976 861.737 152.88 860.905 153.728C860.089 154.56 859.081 155.36 857.881 156.128C857.769 156.208 857.673 156.256 857.593 156.272C857.529 156.272 857.457 156.224 857.377 156.128L856.777 155.384C856.649 155.208 856.689 155.048 856.897 154.904C857.889 154.28 858.737 153.64 859.441 152.984C860.145 152.312 860.713 151.616 861.145 150.896C861.593 150.16 861.921 149.384 862.129 148.568C862.337 147.752 862.441 146.88 862.441 145.952C862.441 145.824 862.473 145.728 862.537 145.664C862.601 145.6 862.665 145.568 862.729 145.568L863.857 145.64C864.033 145.64 864.121 145.752 864.121 145.976ZM874.609 156.488C874.609 156.712 874.497 156.824 874.273 156.824H873.289C873.065 156.824 872.953 156.712 872.953 156.488V145.568C872.953 145.344 873.065 145.232 873.289 145.232H874.273C874.497 145.232 874.609 145.344 874.609 145.568V156.488Z" fill="black"/>
<path d="M1062.21 160.928C1062.21 160.256 1062.33 159.808 1062.59 159.584C1062.85 159.344 1063.33 159.224 1064.03 159.224H1074.09C1074.47 159.224 1074.77 159.248 1075 159.296C1075.24 159.344 1075.42 159.432 1075.55 159.56C1075.69 159.688 1075.79 159.864 1075.84 160.088C1075.89 160.312 1075.91 160.592 1075.91 160.928V165.464C1075.91 166.136 1075.78 166.584 1075.53 166.808C1075.27 167.048 1074.79 167.168 1074.09 167.168H1064.03C1063.65 167.168 1063.33 167.144 1063.09 167.096C1062.87 167.048 1062.69 166.952 1062.54 166.808C1062.41 166.68 1062.33 166.504 1062.28 166.28C1062.23 166.072 1062.21 165.8 1062.21 165.464V160.928ZM1070.75 151.52C1070.75 152.32 1070.61 153.056 1070.32 153.728C1070.03 154.384 1069.63 154.952 1069.12 155.432C1068.62 155.912 1068.02 156.288 1067.32 156.56C1066.63 156.832 1065.87 156.968 1065.04 156.968C1064.24 156.968 1063.49 156.84 1062.81 156.584C1062.12 156.312 1061.52 155.936 1061.01 155.456C1060.51 154.976 1060.12 154.4 1059.83 153.728C1059.56 153.056 1059.42 152.32 1059.42 151.52C1059.42 150.672 1059.56 149.912 1059.83 149.24C1060.12 148.552 1060.51 147.976 1061.01 147.512C1061.52 147.032 1062.12 146.672 1062.81 146.432C1063.49 146.176 1064.24 146.048 1065.04 146.048C1065.81 146.048 1066.53 146.176 1067.22 146.432C1067.91 146.672 1068.51 147.024 1069.02 147.488C1069.55 147.952 1069.97 148.528 1070.27 149.216C1070.59 149.888 1070.75 150.656 1070.75 151.52ZM1064.44 160.664C1064.21 160.664 1064.06 160.712 1063.98 160.808C1063.9 160.888 1063.86 161.048 1063.86 161.288V165.104C1063.86 165.344 1063.9 165.504 1063.98 165.584C1064.06 165.68 1064.21 165.728 1064.44 165.728H1073.68C1073.9 165.728 1074.05 165.68 1074.13 165.584C1074.21 165.504 1074.25 165.344 1074.25 165.104V161.288C1074.25 161.048 1074.21 160.888 1074.13 160.808C1074.05 160.712 1073.9 160.664 1073.68 160.664H1064.44ZM1069.07 151.496C1069.07 150.856 1068.96 150.296 1068.73 149.816C1068.53 149.32 1068.24 148.912 1067.87 148.592C1067.5 148.256 1067.07 148.008 1066.57 147.848C1066.09 147.672 1065.58 147.584 1065.04 147.584C1064.48 147.584 1063.96 147.672 1063.48 147.848C1063 148.008 1062.58 148.256 1062.23 148.592C1061.88 148.912 1061.6 149.32 1061.39 149.816C1061.2 150.296 1061.1 150.856 1061.1 151.496C1061.1 152.104 1061.2 152.648 1061.39 153.128C1061.58 153.608 1061.85 154.024 1062.18 154.376C1062.53 154.728 1062.95 155 1063.43 155.192C1063.91 155.368 1064.45 155.456 1065.04 155.456C1065.58 155.456 1066.09 155.368 1066.57 155.192C1067.07 155 1067.5 154.728 1067.87 154.376C1068.24 154.024 1068.53 153.608 1068.73 153.128C1068.96 152.648 1069.07 152.104 1069.07 151.496ZM1075.91 157.664C1075.91 157.888 1075.8 158 1075.57 158H1074.59C1074.37 158 1074.25 157.888 1074.25 157.664V145.568C1074.25 145.344 1074.37 145.232 1074.59 145.232H1075.57C1075.8 145.232 1075.91 145.344 1075.91 145.568V151.28H1079.22C1079.32 151.28 1079.4 151.312 1079.46 151.376C1079.54 151.424 1079.58 151.496 1079.58 151.592V152.408C1079.58 152.488 1079.54 152.56 1079.46 152.624C1079.4 152.688 1079.32 152.72 1079.22 152.72H1075.91V157.664ZM1099.82 167.144C1099.82 167.224 1099.78 167.288 1099.7 167.336C1099.64 167.4 1099.58 167.432 1099.51 167.432H1087.44C1086.69 167.432 1086.19 167.288 1085.95 167C1085.73 166.728 1085.62 166.256 1085.62 165.584V163.784C1085.62 163.112 1085.75 162.664 1086.02 162.44C1086.31 162.2 1086.82 162.08 1087.54 162.08H1097.14C1097.36 162.08 1097.5 162.048 1097.57 161.984C1097.63 161.92 1097.66 161.768 1097.66 161.528V160.16C1097.66 159.92 1097.63 159.768 1097.57 159.704C1097.52 159.64 1097.38 159.608 1097.16 159.608H1085.9C1085.82 159.608 1085.74 159.584 1085.66 159.536C1085.6 159.488 1085.57 159.424 1085.57 159.344V158.48C1085.57 158.4 1085.6 158.336 1085.66 158.288C1085.74 158.24 1085.82 158.216 1085.9 158.216H1097.42C1097.81 158.216 1098.12 158.248 1098.36 158.312C1098.6 158.36 1098.79 158.448 1098.94 158.576C1099.08 158.704 1099.18 158.888 1099.22 159.128C1099.29 159.352 1099.32 159.632 1099.32 159.968V161.768C1099.32 162.44 1099.18 162.896 1098.89 163.136C1098.62 163.36 1098.12 163.472 1097.4 163.472H1087.78C1087.55 163.472 1087.41 163.504 1087.34 163.568C1087.3 163.632 1087.27 163.784 1087.27 164.024V165.488C1087.27 165.712 1087.3 165.856 1087.37 165.92C1087.43 166 1087.58 166.04 1087.8 166.04H1099.49C1099.57 166.04 1099.64 166.064 1099.7 166.112C1099.78 166.16 1099.82 166.224 1099.82 166.304V167.144ZM1088.83 145.976C1088.82 147.096 1088.67 148.136 1088.4 149.096C1088.61 149.624 1088.9 150.152 1089.26 150.68C1089.63 151.208 1090.05 151.704 1090.51 152.168C1090.99 152.632 1091.5 153.056 1092.05 153.44C1092.61 153.808 1093.18 154.112 1093.75 154.352C1093.85 154.384 1093.9 154.448 1093.9 154.544C1093.9 154.624 1093.88 154.696 1093.85 154.76L1093.39 155.576C1093.34 155.672 1093.27 155.728 1093.18 155.744C1093.1 155.744 1093.01 155.728 1092.91 155.696C1092.4 155.472 1091.89 155.192 1091.38 154.856C1090.86 154.504 1090.37 154.12 1089.89 153.704C1089.42 153.272 1088.99 152.832 1088.59 152.384C1088.21 151.92 1087.89 151.464 1087.63 151.016C1087.12 151.976 1086.45 152.88 1085.62 153.728C1084.8 154.56 1083.79 155.36 1082.59 156.128C1082.48 156.208 1082.38 156.256 1082.3 156.272C1082.24 156.272 1082.17 156.224 1082.09 156.128L1081.49 155.384C1081.36 155.208 1081.4 155.048 1081.61 154.904C1082.6 154.28 1083.45 153.64 1084.15 152.984C1084.86 152.312 1085.42 151.616 1085.86 150.896C1086.3 150.16 1086.63 149.384 1086.84 148.568C1087.05 147.752 1087.15 146.88 1087.15 145.952C1087.15 145.824 1087.18 145.728 1087.25 145.664C1087.31 145.6 1087.38 145.568 1087.44 145.568L1088.57 145.64C1088.74 145.64 1088.83 145.752 1088.83 145.976ZM1099.32 156.488C1099.32 156.712 1099.21 156.824 1098.98 156.824H1098C1097.78 156.824 1097.66 156.712 1097.66 156.488V145.568C1097.66 145.344 1097.78 145.232 1098 145.232H1098.98C1099.21 145.232 1099.32 145.344 1099.32 145.568V156.488Z" fill="black"/>
</svg>
