<svg width="500" height="101" viewBox="0 0 500 101" fill="none" xmlns="http://www.w3.org/2000/svg">
<rect y="66" width="500" height="35" fill="#FFF000" fill-opacity="0.4"/>
<path d="M93.1817 46.75C93.1817 47.05 93.0317 47.35 92.7317 47.65C92.4317 47.89 92.1317 48.01 91.8317 48.01H57.8117V54.76H74.4617C76.9217 54.76 78.5417 55.15 79.3217 55.93C80.1617 56.65 80.5817 58.03 80.5817 60.07V70.33C80.5817 72.43 80.1617 73.84 79.3217 74.56C78.5417 75.28 76.9217 75.64 74.4617 75.64H36.3917C35.9117 75.64 35.6117 75.73 35.4917 75.91C35.3717 76.03 35.3117 76.33 35.3117 76.81V79.69C35.3117 80.23 35.3717 80.53 35.4917 80.59C35.6117 80.71 35.9417 80.77 36.4817 80.77H81.3917C81.6917 80.77 81.9917 80.86 82.2917 81.04C82.5917 81.28 82.7417 81.61 82.7417 82.03V87.88C82.7417 88.18 82.5917 88.45 82.2917 88.69C81.9917 88.99 81.7217 89.14 81.4817 89.14H31.1717C28.8317 89.14 27.2417 88.72 26.4017 87.88C25.5617 87.04 25.1417 85.66 25.1417 83.74V73.48C25.1417 71.56 25.5317 70.18 26.3117 69.34C27.1517 68.5 28.7417 68.08 31.0817 68.08H69.4217C69.9017 68.08 70.2017 68.05 70.3217 67.99C70.4417 67.87 70.5017 67.51 70.5017 66.91V64.48C70.5017 63.82 70.4417 63.43 70.3217 63.31C70.2017 63.13 69.8717 63.04 69.3317 63.04H26.2217C25.9217 63.04 25.6217 62.95 25.3217 62.77C25.0817 62.53 24.9617 62.26 24.9617 61.96V55.93C24.9617 55.63 25.0817 55.36 25.3217 55.12C25.6217 54.88 25.9217 54.76 26.2217 54.76H47.4617V48.01H13.4417C12.6017 48.01 12.1817 47.59 12.1817 46.75V41.17C12.1817 40.81 12.3017 40.48 12.5417 40.18C12.7817 39.88 13.0817 39.73 13.4417 39.73H91.8317C92.1317 39.73 92.4317 39.91 92.7317 40.27C93.0317 40.57 93.1817 40.87 93.1817 41.17V46.75ZM79.9517 26.95C79.9517 29.23 79.3517 30.85 78.1517 31.81C77.0117 32.77 75.3017 33.25 73.0217 33.25H32.1617C29.4017 33.25 27.5417 32.8 26.5817 31.9C25.6817 30.94 25.2317 29.29 25.2317 26.95V11.29C25.2317 9.01 25.8017 7.39 26.9417 6.42999C28.1417 5.47 29.8817 4.99 32.1617 4.99H73.0217C75.7817 4.99 77.6117 5.44 78.5117 6.34C79.4717 7.23999 79.9517 8.88999 79.9517 11.29V26.95ZM69.6917 14.44C69.6917 13.96 69.6017 13.66 69.4217 13.54C69.2417 13.36 68.9117 13.27 68.4317 13.27H36.7517C36.2117 13.27 35.8517 13.33 35.6717 13.45C35.5517 13.57 35.4917 13.87 35.4917 14.35V23.8C35.4917 24.34 35.5517 24.67 35.6717 24.79C35.8517 24.91 36.2117 24.97 36.7517 24.97H68.4317C68.9717 24.97 69.3017 24.91 69.4217 24.79C69.6017 24.67 69.6917 24.34 69.6917 23.8V14.44ZM160.27 89.05C160.27 89.83 159.88 90.22 159.1 90.22H151.09C150.31 90.22 149.92 89.83 149.92 89.05V5.97999C149.92 5.2 150.31 4.81 151.09 4.81H159.1C159.88 4.81 160.27 5.2 160.27 5.97999V89.05ZM143.89 64.66C144.01 65.14 143.89 65.53 143.53 65.83C143.17 66.07 142.75 66.25 142.27 66.37C140.53 66.79 138.52 67.18 136.24 67.54C134.02 67.84 131.65 68.11 129.13 68.35C126.61 68.59 124.06 68.8 121.48 68.98C118.9 69.16 116.41 69.28 114.01 69.34C111.61 69.4 109.39 69.43 107.35 69.43C105.37 69.43 103.72 69.37 102.4 69.25C99.7604 69.01 97.9304 68.44 96.9104 67.54C95.9504 66.64 95.4704 65.05 95.4704 62.77V41.17C95.4704 39.01 95.9804 37.45 97.0004 36.49C98.0804 35.53 99.6704 35.05 101.77 35.05H123.19C123.67 35.05 124 34.99 124.18 34.87C124.36 34.69 124.45 34.3 124.45 33.7V21.1C124.45 20.62 124.39 20.29 124.27 20.11C124.15 19.93 123.79 19.84 123.19 19.84H97.2704C96.9704 19.84 96.6704 19.72 96.3704 19.48C96.1304 19.24 96.0104 18.97 96.0104 18.67V12.46C96.0104 12.16 96.1304 11.92 96.3704 11.74C96.6704 11.5 96.9704 11.38 97.2704 11.38H128.59C131.17 11.38 132.82 11.86 133.54 12.82C134.32 13.78 134.71 15.34 134.71 17.5V37.48C134.71 39.76 134.23 41.32 133.27 42.16C132.37 43 130.75 43.42 128.41 43.42H107.08C106.24 43.42 105.82 43.84 105.82 44.68V58.9C105.82 59.56 105.94 60.01 106.18 60.25C106.42 60.43 106.87 60.52 107.53 60.52C110.17 60.64 112.93 60.67 115.81 60.61C118.75 60.49 121.69 60.34 124.63 60.16C127.57 59.92 130.42 59.62 133.18 59.26C136 58.9 138.64 58.48 141.1 58C141.52 57.88 141.91 57.94 142.27 58.18C142.69 58.36 142.96 58.72 143.08 59.26L143.89 64.66ZM191.539 35.59C188.719 35.59 186.379 36.28 184.519 37.66C182.719 38.98 181.819 40.69 181.819 42.79C181.819 43.87 182.059 44.86 182.539 45.76C183.019 46.66 183.679 47.44 184.519 48.1C185.419 48.76 186.469 49.3 187.669 49.72C188.869 50.08 190.159 50.26 191.539 50.26C194.359 50.26 196.669 49.54 198.469 48.1C200.329 46.66 201.259 44.89 201.259 42.79C201.259 40.69 200.359 38.98 198.559 37.66C196.759 36.28 194.419 35.59 191.539 35.59ZM191.539 27.76C194.239 27.76 196.789 28.15 199.189 28.93C201.589 29.65 203.659 30.67 205.399 31.99C207.139 33.31 208.519 34.9 209.539 36.76C210.559 38.56 211.069 40.57 211.069 42.79C211.069 45.01 210.559 47.05 209.539 48.91C208.519 50.77 207.109 52.39 205.309 53.77C203.569 55.09 201.499 56.14 199.099 56.92C196.759 57.64 194.209 58 191.449 58C188.749 58 186.229 57.64 183.889 56.92C181.549 56.14 179.509 55.09 177.769 53.77C176.029 52.39 174.649 50.77 173.629 48.91C172.609 47.05 172.099 45.01 172.099 42.79C172.099 40.57 172.609 38.56 173.629 36.76C174.649 34.9 176.029 33.31 177.769 31.99C179.509 30.67 181.549 29.65 183.889 28.93C186.289 28.15 188.839 27.76 191.539 27.76ZM216.019 23.53C216.019 23.89 215.869 24.22 215.569 24.52C215.329 24.76 215.029 24.88 214.669 24.88H166.969C166.609 24.88 166.279 24.73 165.979 24.43C165.679 24.13 165.529 23.8 165.529 23.44V18.4C165.529 18.1 165.679 17.8 165.979 17.5C166.339 17.14 166.699 16.96 167.059 16.96H214.669C215.029 16.96 215.329 17.11 215.569 17.41C215.869 17.71 216.019 18.04 216.019 18.4V23.53ZM204.409 12.1C204.409 12.46 204.259 12.82 203.959 13.18C203.719 13.48 203.359 13.63 202.879 13.63H179.389C179.149 13.63 178.849 13.51 178.489 13.27C178.189 13.03 178.039 12.67 178.039 12.19V7.06C178.039 6.64 178.189 6.31 178.489 6.07C178.849 5.83 179.149 5.71 179.389 5.71H202.879C203.299 5.71 203.659 5.86 203.959 6.16C204.259 6.46 204.409 6.79 204.409 7.15V12.1ZM245.719 37.66C245.719 37.96 245.569 38.23 245.269 38.47C245.029 38.71 244.729 38.83 244.369 38.83H232.219V58.45C232.219 59.29 231.829 59.71 231.049 59.71H223.039C222.259 59.71 221.869 59.26 221.869 58.36V5.97999C221.869 5.2 222.259 4.81 223.039 4.81H231.049C231.829 4.81 232.219 5.2 232.219 5.97999V30.19H244.369C244.729 30.19 245.029 30.31 245.269 30.55C245.569 30.73 245.719 30.97 245.719 31.27V37.66ZM232.129 88.78C232.129 89.08 231.979 89.35 231.679 89.59C231.439 89.89 231.139 90.04 230.779 90.04H223.129C222.769 90.04 222.439 89.89 222.139 89.59C221.899 89.35 221.779 89.08 221.779 88.78V73.3C221.779 72.64 221.629 72.22 221.329 72.04C221.089 71.86 220.669 71.77 220.069 71.77H179.389C179.089 71.77 178.789 71.68 178.489 71.5C178.249 71.26 178.129 70.99 178.129 70.69V64.48C178.129 64.12 178.249 63.85 178.489 63.67C178.789 63.43 179.089 63.31 179.389 63.31H226.099C228.379 63.31 229.939 63.79 230.779 64.75C231.679 65.71 232.129 67.33 232.129 69.61V88.78ZM329.302 88.78C329.302 89.08 329.152 89.35 328.852 89.59C328.612 89.89 328.372 90.04 328.132 90.04H280.342C278.002 90.04 276.412 89.59 275.572 88.69C274.732 87.79 274.312 86.38 274.312 84.46V73.48C274.312 71.56 274.702 70.18 275.482 69.34C276.322 68.44 277.912 67.99 280.252 67.99H315.802C316.282 67.99 316.582 67.93 316.702 67.81C316.822 67.63 316.882 67.27 316.882 66.73V63.4C316.882 62.74 316.822 62.35 316.702 62.23C316.582 62.11 316.252 62.05 315.712 62.05H275.392C275.092 62.05 274.792 61.96 274.492 61.78C274.252 61.54 274.132 61.27 274.132 60.97V55.03C274.132 54.73 274.252 54.46 274.492 54.22C274.792 53.92 275.092 53.77 275.392 53.77H320.842C323.302 53.77 324.922 54.19 325.702 55.03C326.542 55.87 326.962 57.31 326.962 59.35V70.24C326.962 72.34 326.542 73.78 325.702 74.56C324.922 75.34 323.302 75.73 320.842 75.73H285.562C285.082 75.73 284.782 75.82 284.662 76C284.542 76.12 284.482 76.42 284.482 76.9V80.68C284.482 81.22 284.542 81.52 284.662 81.58C284.782 81.7 285.112 81.76 285.652 81.76H328.042C328.342 81.76 328.612 81.88 328.852 82.12C329.152 82.36 329.302 82.66 329.302 83.02V88.78ZM264.502 49.18C263.182 49.96 262.222 49.93 261.622 49.09L258.022 44.68C257.662 44.2 257.482 43.75 257.482 43.33C257.542 42.85 257.872 42.46 258.472 42.16C265.612 38.26 270.802 33.55 274.042 28.03C277.282 22.45 278.902 15.55 278.902 7.33C278.902 6.91 279.052 6.58 279.352 6.34C279.712 6.1 280.042 5.97999 280.342 5.97999L288.082 6.34C288.862 6.34 289.252 6.79 289.252 7.68999C289.252 10.21 289.102 12.61 288.802 14.89C288.502 17.11 288.082 19.27 287.542 21.37C288.562 23.35 289.822 25.24 291.322 27.04C292.822 28.84 294.412 30.49 296.092 31.99C297.772 33.49 299.482 34.81 301.222 35.95C303.022 37.03 304.732 37.93 306.352 38.65C307.372 39.07 307.552 39.82 306.892 40.9L303.832 45.76C303.232 46.66 302.452 46.9 301.492 46.48C297.892 44.92 294.532 42.85 291.412 40.27C288.352 37.69 285.682 34.78 283.402 31.54C281.302 35.32 278.632 38.68 275.392 41.62C272.212 44.5 268.582 47.02 264.502 49.18ZM326.962 48.46C326.962 49.24 326.572 49.63 325.792 49.63H317.782C317.002 49.63 316.612 49.21 316.612 48.37V5.97999C316.612 5.2 317.002 4.81 317.782 4.81H325.792C326.572 4.81 326.962 5.2 326.962 5.97999V48.46ZM393.241 71.86C393.241 71.38 393.151 71.08 392.971 70.96C392.851 70.78 392.551 70.69 392.071 70.69H361.201C360.721 70.69 360.391 70.75 360.211 70.87C360.091 70.99 360.031 71.29 360.031 71.77V79.42C360.031 79.96 360.091 80.29 360.211 80.41C360.391 80.53 360.721 80.59 361.201 80.59H392.071C392.551 80.59 392.851 80.53 392.971 80.41C393.151 80.29 393.241 79.96 393.241 79.42V71.86ZM403.591 82.57C403.591 84.85 403.081 86.47 402.061 87.43C401.041 88.39 399.391 88.87 397.111 88.87H356.611C353.911 88.87 352.081 88.39 351.121 87.43C350.221 86.47 349.771 84.82 349.771 82.48V68.89C349.771 66.61 350.251 64.96 351.211 63.94C352.231 62.92 353.881 62.41 356.161 62.41H396.661C399.361 62.41 401.191 62.92 402.151 63.94C403.111 64.9 403.591 66.58 403.591 68.98V82.57ZM380.371 38.29V32.08C380.371 31.78 380.491 31.54 380.731 31.36C381.031 31.12 381.331 31 381.631 31H393.151V5.97999C393.151 5.2 393.571 4.81 394.411 4.81H402.331C402.631 4.81 402.901 4.93 403.141 5.16999C403.441 5.41 403.591 5.68 403.591 5.97999V57.55C403.591 57.85 403.441 58.15 403.141 58.45C402.901 58.69 402.631 58.81 402.331 58.81H394.411C394.051 58.81 393.751 58.69 393.511 58.45C393.271 58.15 393.151 57.85 393.151 57.55V39.37H381.631C381.331 39.37 381.031 39.28 380.731 39.1C380.491 38.86 380.371 38.59 380.371 38.29ZM384.241 23.71C384.241 24.07 384.091 24.4 383.791 24.7C383.551 24.94 383.251 25.06 382.891 25.06H335.461C335.161 25.06 334.831 24.91 334.471 24.61C334.171 24.31 334.021 23.98 334.021 23.62V18.58C334.021 18.28 334.201 17.98 334.561 17.68C334.921 17.38 335.251 17.23 335.551 17.23H382.891C383.251 17.23 383.551 17.38 383.791 17.68C384.091 17.92 384.241 18.22 384.241 18.58V23.71ZM372.361 12.01C372.361 12.43 372.211 12.79 371.911 13.09C371.671 13.39 371.311 13.54 370.831 13.54H347.791C347.551 13.54 347.251 13.42 346.891 13.18C346.591 12.94 346.441 12.58 346.441 12.1V6.97C346.441 6.55 346.591 6.22 346.891 5.97999C347.251 5.73999 347.551 5.61999 347.791 5.61999H370.831C371.251 5.61999 371.611 5.77 371.911 6.07C372.211 6.37 372.361 6.7 372.361 7.06V12.01ZM359.401 35.95C356.581 35.95 354.271 36.55 352.471 37.75C350.671 38.95 349.771 40.6 349.771 42.7C349.771 44.8 350.671 46.51 352.471 47.83C354.271 49.15 356.581 49.81 359.401 49.81C362.281 49.81 364.591 49.15 366.331 47.83C368.131 46.51 369.031 44.8 369.031 42.7C369.031 40.6 368.131 38.95 366.331 37.75C364.591 36.55 362.281 35.95 359.401 35.95ZM359.401 28.03C362.101 28.03 364.621 28.39 366.961 29.11C369.361 29.77 371.431 30.76 373.171 32.08C374.971 33.34 376.351 34.87 377.311 36.67C378.331 38.47 378.841 40.48 378.841 42.7C378.841 44.92 378.331 46.96 377.311 48.82C376.291 50.62 374.911 52.18 373.171 53.5C371.431 54.76 369.361 55.75 366.961 56.47C364.621 57.19 362.071 57.55 359.311 57.55C356.611 57.55 354.091 57.19 351.751 56.47C349.411 55.75 347.371 54.76 345.631 53.5C343.891 52.18 342.511 50.62 341.491 48.82C340.531 46.96 340.051 44.92 340.051 42.7C340.051 40.48 340.531 38.47 341.491 36.67C342.511 34.87 343.891 33.34 345.631 32.08C347.431 30.76 349.501 29.77 351.841 29.11C354.181 28.39 356.701 28.03 359.401 28.03ZM480.58 88.78C480.58 89.08 480.43 89.35 480.13 89.59C479.89 89.89 479.65 90.04 479.41 90.04H431.62C429.28 90.04 427.69 89.59 426.85 88.69C426.01 87.79 425.59 86.38 425.59 84.46V73.48C425.59 71.56 425.98 70.18 426.76 69.34C427.6 68.44 429.19 67.99 431.53 67.99H467.08C467.56 67.99 467.86 67.93 467.98 67.81C468.1 67.63 468.16 67.27 468.16 66.73V63.4C468.16 62.74 468.1 62.35 467.98 62.23C467.86 62.11 467.53 62.05 466.99 62.05H426.67C426.37 62.05 426.07 61.96 425.77 61.78C425.53 61.54 425.41 61.27 425.41 60.97V55.03C425.41 54.73 425.53 54.46 425.77 54.22C426.07 53.92 426.37 53.77 426.67 53.77H472.12C474.58 53.77 476.2 54.19 476.98 55.03C477.82 55.87 478.24 57.31 478.24 59.35V70.24C478.24 72.34 477.82 73.78 476.98 74.56C476.2 75.34 474.58 75.73 472.12 75.73H436.84C436.36 75.73 436.06 75.82 435.94 76C435.82 76.12 435.76 76.42 435.76 76.9V80.68C435.76 81.22 435.82 81.52 435.94 81.58C436.06 81.7 436.39 81.76 436.93 81.76H479.32C479.62 81.76 479.89 81.88 480.13 82.12C480.43 82.36 480.58 82.66 480.58 83.02V88.78ZM415.78 49.18C414.46 49.96 413.5 49.93 412.9 49.09L409.3 44.68C408.94 44.2 408.76 43.75 408.76 43.33C408.82 42.85 409.15 42.46 409.75 42.16C416.89 38.26 422.08 33.55 425.32 28.03C428.56 22.45 430.18 15.55 430.18 7.33C430.18 6.91 430.33 6.58 430.63 6.34C430.99 6.1 431.32 5.97999 431.62 5.97999L439.36 6.34C440.14 6.34 440.53 6.79 440.53 7.68999C440.53 10.21 440.38 12.61 440.08 14.89C439.78 17.11 439.36 19.27 438.82 21.37C439.84 23.35 441.1 25.24 442.6 27.04C444.1 28.84 445.69 30.49 447.37 31.99C449.05 33.49 450.76 34.81 452.5 35.95C454.3 37.03 456.01 37.93 457.63 38.65C458.65 39.07 458.83 39.82 458.17 40.9L455.11 45.76C454.51 46.66 453.73 46.9 452.77 46.48C449.17 44.92 445.81 42.85 442.69 40.27C439.63 37.69 436.96 34.78 434.68 31.54C432.58 35.32 429.91 38.68 426.67 41.62C423.49 44.5 419.86 47.02 415.78 49.18ZM478.24 48.46C478.24 49.24 477.85 49.63 477.07 49.63H469.06C468.28 49.63 467.89 49.21 467.89 48.37V5.97999C467.89 5.2 468.28 4.81 469.06 4.81H477.07C477.85 4.81 478.24 5.2 478.24 5.97999V48.46Z" fill="#1A1A1A"/>
</svg>
