<svg width="575" height="101" viewBox="0 0 575 101" fill="none" xmlns="http://www.w3.org/2000/svg">
<rect y="66" width="575" height="35" fill="#FFF000" fill-opacity="0.4"/>
<path d="M88.9023 73.21C88.9023 75.73 88.0923 78.04 86.4723 80.14C84.9123 82.24 82.7823 84.04 80.0823 85.54C77.3823 87.04 74.2623 88.18 70.7223 88.96C67.1823 89.8 63.4923 90.22 59.6523 90.22C55.5123 90.22 51.6723 89.8 48.1323 88.96C44.6523 88.18 41.5923 87.04 38.9523 85.54C36.3723 84.1 34.3323 82.33 32.8323 80.23C31.3923 78.13 30.6723 75.79 30.6723 73.21C30.6723 70.69 31.3923 68.41 32.8323 66.37C34.3323 64.27 36.3723 62.47 38.9523 60.97C41.5923 59.47 44.6523 58.33 48.1323 57.55C51.6723 56.71 55.5123 56.29 59.6523 56.29C63.4923 56.29 67.1823 56.71 70.7223 57.55C74.2623 58.33 77.3823 59.47 80.0823 60.97C82.7823 62.41 84.9123 64.18 86.4723 66.28C88.0923 68.32 88.9023 70.63 88.9023 73.21ZM78.0123 5.97999C78.0123 5.2 78.4323 4.81 79.2723 4.81H87.0123C87.7923 4.81 88.1823 5.2 88.1823 5.97999V54.13C88.1823 54.97 87.7923 55.39 87.0123 55.39H79.1823C78.4023 55.39 78.0123 54.97 78.0123 54.13V35.32H69.9123V51.7C69.9123 52.48 69.5223 52.87 68.7423 52.87H61.3623C60.5223 52.87 60.1023 52.48 60.1023 51.7V7.42C60.1023 6.64 60.5223 6.25 61.3623 6.25H68.7423C69.5223 6.25 69.9123 6.64 69.9123 7.42V26.68H78.0123V5.97999ZM19.9623 51.52C19.4823 51.82 18.9723 52 18.4323 52.06C17.8923 52.06 17.4123 51.82 16.9923 51.34L13.6623 47.47C12.7623 46.51 12.8823 45.55 14.0223 44.59C17.5023 42.13 20.3823 39.55 22.6623 36.85C24.9423 34.15 26.7423 31.33 28.0623 28.39C29.4423 25.45 30.4023 22.36 30.9423 19.12C31.4823 15.88 31.7523 12.49 31.7523 8.94999C31.7523 8.47 31.8723 8.11 32.1123 7.87C32.4123 7.57 32.7123 7.42 33.0123 7.42L40.5723 7.78C41.3523 7.78 41.7423 8.26 41.7423 9.22C41.7423 14.08 41.2923 18.61 40.3923 22.81C41.5923 26.29 43.6023 29.65 46.4223 32.89C49.2423 36.13 52.3623 38.89 55.7823 41.17C56.2623 41.47 56.4723 41.8 56.4123 42.16C56.4123 42.46 56.2623 42.82 55.9623 43.24L52.5423 47.83C51.8223 48.73 50.9523 48.85 49.9323 48.19C47.4123 46.63 44.8923 44.62 42.3723 42.16C39.8523 39.7 37.7823 37.03 36.1623 34.15C34.3023 37.69 32.0223 40.9 29.3223 43.78C26.6823 46.6 23.5623 49.18 19.9623 51.52ZM78.2823 73.48C78.2823 71.98 77.7123 70.69 76.5723 69.61C75.4923 68.47 74.0523 67.54 72.2523 66.82C70.5123 66.04 68.5323 65.47 66.3123 65.11C64.0923 64.69 61.8723 64.48 59.6523 64.48C57.2523 64.48 54.9423 64.69 52.7223 65.11C50.5623 65.47 48.6123 66.04 46.8723 66.82C45.1923 67.54 43.8423 68.47 42.8223 69.61C41.8023 70.69 41.2923 71.98 41.2923 73.48C41.2923 74.92 41.8023 76.15 42.8223 77.17C43.8423 78.25 45.1923 79.15 46.8723 79.87C48.6123 80.59 50.5923 81.13 52.8123 81.49C55.0323 81.85 57.3123 82.03 59.6523 82.03C61.8723 82.03 64.0923 81.85 66.3123 81.49C68.5323 81.13 70.5123 80.59 72.2523 79.87C74.0523 79.15 75.4923 78.25 76.5723 77.17C77.7123 76.15 78.2823 74.92 78.2823 73.48ZM134.391 44.14C134.391 46.48 133.911 48.13 132.951 49.09C132.051 49.99 130.461 50.44 128.181 50.44H101.451C98.931 50.44 97.191 49.99 96.231 49.09C95.271 48.13 94.791 46.48 94.791 44.14V14.62C94.791 12.34 95.241 10.78 96.141 9.94C97.101 9.04 98.721 8.59 101.001 8.59H128.181C130.461 8.59 132.051 9.01 132.951 9.85C133.911 10.63 134.391 12.22 134.391 14.62V17.05H149.691V5.97999C149.691 5.2 150.081 4.81 150.861 4.81H158.871C159.651 4.81 160.041 5.2 160.041 5.97999V53.95C160.041 54.79 159.651 55.21 158.871 55.21H150.861C150.081 55.21 149.691 54.79 149.691 53.95V42.7H134.391V44.14ZM160.671 73.21C160.671 75.73 159.981 78.04 158.601 80.14C157.281 82.24 155.421 84.04 153.021 85.54C150.621 87.04 147.771 88.18 144.471 88.96C141.171 89.8 137.571 90.22 133.671 90.22C129.591 90.22 125.901 89.8 122.601 88.96C119.301 88.18 116.481 87.04 114.141 85.54C111.861 84.1 110.091 82.33 108.831 80.23C107.571 78.13 106.941 75.79 106.941 73.21C106.941 70.69 107.571 68.41 108.831 66.37C110.091 64.27 111.861 62.47 114.141 60.97C116.481 59.47 119.301 58.33 122.601 57.55C125.901 56.71 129.591 56.29 133.671 56.29C137.571 56.29 141.171 56.71 144.471 57.55C147.771 58.33 150.621 59.47 153.021 60.97C155.421 62.41 157.281 64.18 158.601 66.28C159.981 68.32 160.671 70.63 160.671 73.21ZM124.311 18.04C124.311 17.5 124.221 17.17 124.041 17.05C123.921 16.87 123.621 16.78 123.141 16.78H106.041C105.561 16.78 105.231 16.84 105.051 16.96C104.931 17.08 104.871 17.41 104.871 17.95V40.99C104.871 41.53 104.931 41.86 105.051 41.98C105.231 42.1 105.561 42.16 106.041 42.16H123.141C123.621 42.16 123.921 42.1 124.041 41.98C124.221 41.86 124.311 41.53 124.311 40.99V18.04ZM150.051 73.48C150.051 71.98 149.601 70.69 148.701 69.61C147.861 68.47 146.691 67.54 145.191 66.82C143.691 66.04 141.951 65.47 139.971 65.11C137.991 64.69 135.891 64.48 133.671 64.48C128.871 64.48 125.001 65.23 122.061 66.73C119.121 68.23 117.651 70.48 117.651 73.48C117.651 76.3 119.151 78.43 122.151 79.87C125.151 81.31 128.991 82.03 133.671 82.03C135.891 82.03 137.991 81.85 139.971 81.49C141.951 81.13 143.691 80.59 145.191 79.87C146.691 79.15 147.861 78.25 148.701 77.17C149.601 76.15 150.051 74.92 150.051 73.48ZM149.691 34.6V25.15H134.391V34.6H149.691ZM245.4 47.2C245.4 47.5 245.25 47.77 244.95 48.01C244.71 48.25 244.44 48.37 244.14 48.37H232.35V89.05C232.35 89.83 231.96 90.22 231.18 90.22H223.17C222.39 90.22 222 89.83 222 89.05V5.97999C222 5.2 222.39 4.81 223.17 4.81H231.18C231.96 4.81 232.35 5.2 232.35 5.97999V39.73H244.14C244.44 39.73 244.71 39.85 244.95 40.09C245.25 40.27 245.4 40.54 245.4 40.9V47.2ZM163.59 65.2C163.59 64.36 164.01 63.94 164.85 63.94C167.67 64.06 170.43 64.12 173.13 64.12C175.89 64.12 178.68 64.09 181.5 64.03V40.18C181.5 39.34 181.92 38.92 182.76 38.92H190.41C191.25 38.92 191.67 39.34 191.67 40.18V63.67C195.87 63.43 200.01 63.13 204.09 62.77C208.17 62.41 212.25 61.9 216.33 61.24C216.63 61.18 216.96 61.21 217.32 61.33C217.68 61.39 217.89 61.66 217.95 62.14L218.49 67.81C218.55 68.35 218.46 68.74 218.22 68.98C217.98 69.22 217.71 69.37 217.41 69.43C209.01 70.81 200.31 71.71 191.31 72.13C182.31 72.55 173.49 72.67 164.85 72.49C164.49 72.49 164.19 72.37 163.95 72.13C163.71 71.83 163.59 71.5 163.59 71.14V65.2ZM213.09 18.67C213.09 23.59 212.88 28.66 212.46 33.88C212.04 39.1 211.35 44.35 210.39 49.63C210.27 50.11 210.06 50.59 209.76 51.07C209.52 51.49 209.16 51.67 208.68 51.61L201.48 50.98C200.7 50.92 200.4 50.29 200.58 49.09C201.24 44.77 201.78 40.42 202.2 36.04C202.68 31.6 202.92 27.13 202.92 22.63C202.92 21.79 202.71 21.25 202.29 21.01C201.87 20.77 201.24 20.65 200.4 20.65H170.61C170.25 20.65 169.92 20.56 169.62 20.38C169.32 20.14 169.17 19.87 169.17 19.57V13.36C169.17 12.94 169.32 12.64 169.62 12.46C169.92 12.28 170.25 12.19 170.61 12.19H207.15C209.01 12.19 210.45 12.73 211.47 13.81C212.55 14.83 213.09 16.45 213.09 18.67ZM266.858 35.59C264.038 35.59 261.698 36.28 259.838 37.66C258.038 38.98 257.138 40.69 257.138 42.79C257.138 43.87 257.378 44.86 257.858 45.76C258.338 46.66 258.998 47.44 259.838 48.1C260.738 48.76 261.788 49.3 262.988 49.72C264.188 50.08 265.478 50.26 266.858 50.26C269.678 50.26 271.988 49.54 273.788 48.1C275.648 46.66 276.578 44.89 276.578 42.79C276.578 40.69 275.678 38.98 273.878 37.66C272.078 36.28 269.738 35.59 266.858 35.59ZM266.858 27.76C269.558 27.76 272.108 28.15 274.508 28.93C276.908 29.65 278.978 30.67 280.718 31.99C282.458 33.31 283.838 34.9 284.858 36.76C285.878 38.56 286.388 40.57 286.388 42.79C286.388 45.01 285.878 47.05 284.858 48.91C283.838 50.77 282.428 52.39 280.628 53.77C278.888 55.09 276.818 56.14 274.418 56.92C272.078 57.64 269.528 58 266.768 58C264.068 58 261.548 57.64 259.208 56.92C256.868 56.14 254.828 55.09 253.088 53.77C251.348 52.39 249.968 50.77 248.948 48.91C247.928 47.05 247.418 45.01 247.418 42.79C247.418 40.57 247.928 38.56 248.948 36.76C249.968 34.9 251.348 33.31 253.088 31.99C254.828 30.67 256.868 29.65 259.208 28.93C261.608 28.15 264.158 27.76 266.858 27.76ZM291.338 23.53C291.338 23.89 291.188 24.22 290.888 24.52C290.648 24.76 290.348 24.88 289.988 24.88H242.288C241.928 24.88 241.598 24.73 241.298 24.43C240.998 24.13 240.848 23.8 240.848 23.44V18.4C240.848 18.1 240.998 17.8 241.298 17.5C241.658 17.14 242.018 16.96 242.378 16.96H289.988C290.348 16.96 290.648 17.11 290.888 17.41C291.188 17.71 291.338 18.04 291.338 18.4V23.53ZM279.728 12.1C279.728 12.46 279.578 12.82 279.278 13.18C279.038 13.48 278.678 13.63 278.198 13.63H254.708C254.468 13.63 254.168 13.51 253.808 13.27C253.508 13.03 253.358 12.67 253.358 12.19V7.06C253.358 6.64 253.508 6.31 253.808 6.07C254.168 5.83 254.468 5.71 254.708 5.71H278.198C278.618 5.71 278.978 5.86 279.278 6.16C279.578 6.46 279.728 6.79 279.728 7.15V12.1ZM321.038 37.66C321.038 37.96 320.888 38.23 320.588 38.47C320.348 38.71 320.048 38.83 319.688 38.83H307.538V58.45C307.538 59.29 307.148 59.71 306.368 59.71H298.358C297.578 59.71 297.188 59.26 297.188 58.36V5.97999C297.188 5.2 297.578 4.81 298.358 4.81H306.368C307.148 4.81 307.538 5.2 307.538 5.97999V30.19H319.688C320.048 30.19 320.348 30.31 320.588 30.55C320.888 30.73 321.038 30.97 321.038 31.27V37.66ZM307.448 88.78C307.448 89.08 307.298 89.35 306.998 89.59C306.758 89.89 306.458 90.04 306.098 90.04H298.448C298.088 90.04 297.758 89.89 297.458 89.59C297.218 89.35 297.098 89.08 297.098 88.78V73.3C297.098 72.64 296.948 72.22 296.648 72.04C296.408 71.86 295.988 71.77 295.388 71.77H254.708C254.408 71.77 254.108 71.68 253.808 71.5C253.568 71.26 253.448 70.99 253.448 70.69V64.48C253.448 64.12 253.568 63.85 253.808 63.67C254.108 63.43 254.408 63.31 254.708 63.31H301.418C303.698 63.31 305.258 63.79 306.098 64.75C306.998 65.71 307.448 67.33 307.448 69.61V88.78ZM404.622 88.78C404.622 89.08 404.472 89.35 404.172 89.59C403.932 89.89 403.692 90.04 403.452 90.04H355.662C353.322 90.04 351.732 89.59 350.892 88.69C350.052 87.79 349.632 86.38 349.632 84.46V73.48C349.632 71.56 350.022 70.18 350.802 69.34C351.642 68.44 353.232 67.99 355.572 67.99H391.122C391.602 67.99 391.902 67.93 392.022 67.81C392.142 67.63 392.202 67.27 392.202 66.73V63.4C392.202 62.74 392.142 62.35 392.022 62.23C391.902 62.11 391.572 62.05 391.032 62.05H350.712C350.412 62.05 350.112 61.96 349.812 61.78C349.572 61.54 349.452 61.27 349.452 60.97V55.03C349.452 54.73 349.572 54.46 349.812 54.22C350.112 53.92 350.412 53.77 350.712 53.77H396.162C398.622 53.77 400.242 54.19 401.022 55.03C401.862 55.87 402.282 57.31 402.282 59.35V70.24C402.282 72.34 401.862 73.78 401.022 74.56C400.242 75.34 398.622 75.73 396.162 75.73H360.882C360.402 75.73 360.102 75.82 359.982 76C359.862 76.12 359.802 76.42 359.802 76.9V80.68C359.802 81.22 359.862 81.52 359.982 81.58C360.102 81.7 360.432 81.76 360.972 81.76H403.362C403.662 81.76 403.932 81.88 404.172 82.12C404.472 82.36 404.622 82.66 404.622 83.02V88.78ZM339.822 49.18C338.502 49.96 337.542 49.93 336.942 49.09L333.342 44.68C332.982 44.2 332.802 43.75 332.802 43.33C332.862 42.85 333.192 42.46 333.792 42.16C340.932 38.26 346.122 33.55 349.362 28.03C352.602 22.45 354.222 15.55 354.222 7.33C354.222 6.91 354.372 6.58 354.672 6.34C355.032 6.1 355.362 5.97999 355.662 5.97999L363.402 6.34C364.182 6.34 364.572 6.79 364.572 7.68999C364.572 10.21 364.422 12.61 364.122 14.89C363.822 17.11 363.402 19.27 362.862 21.37C363.882 23.35 365.142 25.24 366.642 27.04C368.142 28.84 369.732 30.49 371.412 31.99C373.092 33.49 374.802 34.81 376.542 35.95C378.342 37.03 380.052 37.93 381.672 38.65C382.692 39.07 382.872 39.82 382.212 40.9L379.152 45.76C378.552 46.66 377.772 46.9 376.812 46.48C373.212 44.92 369.852 42.85 366.732 40.27C363.672 37.69 361.002 34.78 358.722 31.54C356.622 35.32 353.952 38.68 350.712 41.62C347.532 44.5 343.902 47.02 339.822 49.18ZM402.282 48.46C402.282 49.24 401.892 49.63 401.112 49.63H393.102C392.322 49.63 391.932 49.21 391.932 48.37V5.97999C391.932 5.2 392.322 4.81 393.102 4.81H401.112C401.892 4.81 402.282 5.2 402.282 5.97999V48.46ZM468.56 71.86C468.56 71.38 468.47 71.08 468.29 70.96C468.17 70.78 467.87 70.69 467.39 70.69H436.52C436.04 70.69 435.71 70.75 435.53 70.87C435.41 70.99 435.35 71.29 435.35 71.77V79.42C435.35 79.96 435.41 80.29 435.53 80.41C435.71 80.53 436.04 80.59 436.52 80.59H467.39C467.87 80.59 468.17 80.53 468.29 80.41C468.47 80.29 468.56 79.96 468.56 79.42V71.86ZM478.91 82.57C478.91 84.85 478.4 86.47 477.38 87.43C476.36 88.39 474.71 88.87 472.43 88.87H431.93C429.23 88.87 427.4 88.39 426.44 87.43C425.54 86.47 425.09 84.82 425.09 82.48V68.89C425.09 66.61 425.57 64.96 426.53 63.94C427.55 62.92 429.2 62.41 431.48 62.41H471.98C474.68 62.41 476.51 62.92 477.47 63.94C478.43 64.9 478.91 66.58 478.91 68.98V82.57ZM455.69 38.29V32.08C455.69 31.78 455.81 31.54 456.05 31.36C456.35 31.12 456.65 31 456.95 31H468.47V5.97999C468.47 5.2 468.89 4.81 469.73 4.81H477.65C477.95 4.81 478.22 4.93 478.46 5.16999C478.76 5.41 478.91 5.68 478.91 5.97999V57.55C478.91 57.85 478.76 58.15 478.46 58.45C478.22 58.69 477.95 58.81 477.65 58.81H469.73C469.37 58.81 469.07 58.69 468.83 58.45C468.59 58.15 468.47 57.85 468.47 57.55V39.37H456.95C456.65 39.37 456.35 39.28 456.05 39.1C455.81 38.86 455.69 38.59 455.69 38.29ZM459.56 23.71C459.56 24.07 459.41 24.4 459.11 24.7C458.87 24.94 458.57 25.06 458.21 25.06H410.78C410.48 25.06 410.15 24.91 409.79 24.61C409.49 24.31 409.34 23.98 409.34 23.62V18.58C409.34 18.28 409.52 17.98 409.88 17.68C410.24 17.38 410.57 17.23 410.87 17.23H458.21C458.57 17.23 458.87 17.38 459.11 17.68C459.41 17.92 459.56 18.22 459.56 18.58V23.71ZM447.68 12.01C447.68 12.43 447.53 12.79 447.23 13.09C446.99 13.39 446.63 13.54 446.15 13.54H423.11C422.87 13.54 422.57 13.42 422.21 13.18C421.91 12.94 421.76 12.58 421.76 12.1V6.97C421.76 6.55 421.91 6.22 422.21 5.97999C422.57 5.73999 422.87 5.61999 423.11 5.61999H446.15C446.57 5.61999 446.93 5.77 447.23 6.07C447.53 6.37 447.68 6.7 447.68 7.06V12.01ZM434.72 35.95C431.9 35.95 429.59 36.55 427.79 37.75C425.99 38.95 425.09 40.6 425.09 42.7C425.09 44.8 425.99 46.51 427.79 47.83C429.59 49.15 431.9 49.81 434.72 49.81C437.6 49.81 439.91 49.15 441.65 47.83C443.45 46.51 444.35 44.8 444.35 42.7C444.35 40.6 443.45 38.95 441.65 37.75C439.91 36.55 437.6 35.95 434.72 35.95ZM434.72 28.03C437.42 28.03 439.94 28.39 442.28 29.11C444.68 29.77 446.75 30.76 448.49 32.08C450.29 33.34 451.67 34.87 452.63 36.67C453.65 38.47 454.16 40.48 454.16 42.7C454.16 44.92 453.65 46.96 452.63 48.82C451.61 50.62 450.23 52.18 448.49 53.5C446.75 54.76 444.68 55.75 442.28 56.47C439.94 57.19 437.39 57.55 434.63 57.55C431.93 57.55 429.41 57.19 427.07 56.47C424.73 55.75 422.69 54.76 420.95 53.5C419.21 52.18 417.83 50.62 416.81 48.82C415.85 46.96 415.37 44.92 415.37 42.7C415.37 40.48 415.85 38.47 416.81 36.67C417.83 34.87 419.21 33.34 420.95 32.08C422.75 30.76 424.82 29.77 427.16 29.11C429.5 28.39 432.02 28.03 434.72 28.03ZM555.899 88.78C555.899 89.08 555.749 89.35 555.449 89.59C555.209 89.89 554.969 90.04 554.729 90.04H506.939C504.599 90.04 503.009 89.59 502.169 88.69C501.329 87.79 500.909 86.38 500.909 84.46V73.48C500.909 71.56 501.299 70.18 502.079 69.34C502.919 68.44 504.509 67.99 506.849 67.99H542.399C542.879 67.99 543.179 67.93 543.299 67.81C543.419 67.63 543.479 67.27 543.479 66.73V63.4C543.479 62.74 543.419 62.35 543.299 62.23C543.179 62.11 542.849 62.05 542.309 62.05H501.989C501.689 62.05 501.389 61.96 501.089 61.78C500.849 61.54 500.729 61.27 500.729 60.97V55.03C500.729 54.73 500.849 54.46 501.089 54.22C501.389 53.92 501.689 53.77 501.989 53.77H547.439C549.899 53.77 551.519 54.19 552.299 55.03C553.139 55.87 553.559 57.31 553.559 59.35V70.24C553.559 72.34 553.139 73.78 552.299 74.56C551.519 75.34 549.899 75.73 547.439 75.73H512.159C511.679 75.73 511.379 75.82 511.259 76C511.139 76.12 511.079 76.42 511.079 76.9V80.68C511.079 81.22 511.139 81.52 511.259 81.58C511.379 81.7 511.709 81.76 512.249 81.76H554.639C554.939 81.76 555.209 81.88 555.449 82.12C555.749 82.36 555.899 82.66 555.899 83.02V88.78ZM491.099 49.18C489.779 49.96 488.819 49.93 488.219 49.09L484.619 44.68C484.259 44.2 484.079 43.75 484.079 43.33C484.139 42.85 484.469 42.46 485.069 42.16C492.209 38.26 497.399 33.55 500.639 28.03C503.879 22.45 505.499 15.55 505.499 7.33C505.499 6.91 505.649 6.58 505.949 6.34C506.309 6.1 506.639 5.97999 506.939 5.97999L514.679 6.34C515.459 6.34 515.849 6.79 515.849 7.68999C515.849 10.21 515.699 12.61 515.399 14.89C515.099 17.11 514.679 19.27 514.139 21.37C515.159 23.35 516.419 25.24 517.919 27.04C519.419 28.84 521.009 30.49 522.689 31.99C524.369 33.49 526.079 34.81 527.819 35.95C529.619 37.03 531.329 37.93 532.949 38.65C533.969 39.07 534.149 39.82 533.489 40.9L530.429 45.76C529.829 46.66 529.049 46.9 528.089 46.48C524.489 44.92 521.129 42.85 518.009 40.27C514.949 37.69 512.279 34.78 509.999 31.54C507.899 35.32 505.229 38.68 501.989 41.62C498.809 44.5 495.179 47.02 491.099 49.18ZM553.559 48.46C553.559 49.24 553.169 49.63 552.389 49.63H544.379C543.599 49.63 543.209 49.21 543.209 48.37V5.97999C543.209 5.2 543.599 4.81 544.379 4.81H552.389C553.169 4.81 553.559 5.2 553.559 5.97999V48.46Z" fill="#1A1A1A"/>
</svg>
