<svg width="990" height="612" viewBox="0 0 990 612" fill="none" xmlns="http://www.w3.org/2000/svg">
<line x1="990" y1="4" y2="4" stroke="black" stroke-width="8"/>
<line x1="4" x2="4" y2="612" stroke="black" stroke-width="8"/>
<line x1="386" y1="608" y2="608" stroke="black" stroke-width="8"/>
<line x1="382" y1="604" x2="382" y2="306" stroke="black" stroke-width="8"/>
<line y1="306" x2="185" y2="306" stroke="black" stroke-width="8"/>
<line x1="515" y1="306" x2="685" y2="306" stroke="black" stroke-width="8"/>
<line x1="298" y1="306" x2="402" y2="306" stroke="black" stroke-width="8"/>
<line x1="798" y1="306" x2="990" y2="306" stroke="black" stroke-width="8"/>
<line x1="815" y1="154.956" x2="816" y2="63.956" stroke="black" stroke-width="8"/>
<line x1="609" y1="218" x2="609" y2="3" stroke="black" stroke-width="8"/>
<line x1="613" y1="151" x2="812" y2="151" stroke="black" stroke-width="8"/>
<line x1="986" y1="218" x2="986" y2="1.60582e-08" stroke="black" stroke-width="8"/>
<line x1="609" y1="310" x2="609" y2="274" stroke="black" stroke-width="8"/>
<line x1="986" y1="310" x2="986" y2="274" stroke="black" stroke-width="8"/>
<line x1="516" y1="304.5" x2="402" y2="304.5" stroke="black"/>
<line x1="515" y1="308.5" x2="401" y2="308.5" stroke="black"/>
<line x1="459" y1="304" x2="459" y2="309" stroke="black" stroke-width="2"/>
<mask id="path-18-inside-1_18_448" fill="white">
<path d="M610 218C625.117 218 639.616 224.005 650.305 234.695C660.995 245.384 667 259.883 667 275L610 275L610 218Z"/>
</mask>
<path d="M610 218C625.117 218 639.616 224.005 650.305 234.695C660.995 245.384 667 259.883 667 275L610 275L610 218Z" stroke="black" stroke-width="2" mask="url(#path-18-inside-1_18_448)"/>
<path d="M799 304.5H685M799 307.5H685" stroke="black"/>
<line x1="607.5" y1="275" x2="607.5" y2="218" stroke="black"/>
<line x1="984.5" y1="275" x2="984.5" y2="218" stroke="black"/>
<line x1="987.5" y1="275" x2="987.5" y2="218" stroke="black"/>
<line x1="611" y1="218.5" x2="607" y2="218.5" stroke="black"/>
<line x1="611" y1="274.5" x2="608" y2="274.5" stroke="black"/>
<path d="M246.45 162.064C246.45 161.376 246.634 160.768 247.002 160.24C247.37 159.696 247.882 159.24 248.538 158.872C249.21 158.488 249.994 158.2 250.89 158.008C251.802 157.816 252.802 157.72 253.89 157.72C254.882 157.72 255.826 157.816 256.722 158.008C257.618 158.2 258.41 158.48 259.098 158.848C259.786 159.216 260.33 159.672 260.73 160.216C261.13 160.744 261.33 161.36 261.33 162.064C261.33 162.768 261.13 163.392 260.73 163.936C260.33 164.496 259.786 164.96 259.098 165.328C258.41 165.696 257.618 165.976 256.722 166.168C255.826 166.36 254.882 166.456 253.89 166.456C252.802 166.456 251.802 166.36 250.89 166.168C249.994 165.976 249.21 165.696 248.538 165.328C247.882 164.96 247.37 164.496 247.002 163.936C246.634 163.392 246.45 162.768 246.45 162.064ZM248.226 162.136C248.226 162.616 248.362 163.032 248.634 163.384C248.922 163.752 249.314 164.056 249.81 164.296C250.322 164.536 250.922 164.712 251.61 164.824C252.298 164.952 253.05 165.016 253.866 165.016C254.586 165.016 255.29 164.952 255.978 164.824C256.666 164.712 257.274 164.536 257.802 164.296C258.33 164.056 258.754 163.752 259.074 163.384C259.41 163.032 259.578 162.616 259.578 162.136C259.578 161.64 259.41 161.208 259.074 160.84C258.754 160.472 258.33 160.168 257.802 159.928C257.274 159.672 256.666 159.48 255.978 159.352C255.29 159.224 254.586 159.16 253.866 159.16C253.05 159.16 252.298 159.224 251.61 159.352C250.922 159.48 250.322 159.672 249.81 159.928C249.314 160.168 248.922 160.472 248.634 160.84C248.362 161.208 248.226 161.64 248.226 162.136ZM256.554 156.352C256.554 156.576 256.442 156.688 256.218 156.688H255.306C255.082 156.688 254.97 156.576 254.97 156.352V144.976C254.97 144.752 255.082 144.64 255.306 144.64H256.218C256.442 144.64 256.554 144.752 256.554 144.976V150.28H259.602V144.568C259.602 144.344 259.714 144.232 259.938 144.232H260.85C261.074 144.232 261.186 144.344 261.186 144.568V157.096C261.186 157.32 261.074 157.432 260.85 157.432H259.938C259.714 157.432 259.602 157.32 259.602 157.096V151.72H256.554V156.352ZM249.066 145.36C249.05 146.576 248.882 147.736 248.562 148.84C248.754 149.4 249.01 149.952 249.33 150.496C249.65 151.04 250.01 151.552 250.41 152.032C250.826 152.512 251.274 152.952 251.754 153.352C252.234 153.736 252.722 154.056 253.218 154.312C253.394 154.408 253.418 154.552 253.29 154.744L252.714 155.56C252.666 155.624 252.61 155.664 252.546 155.68C252.498 155.68 252.402 155.64 252.258 155.56C251.378 155.016 250.546 154.32 249.762 153.472C248.978 152.624 248.33 151.744 247.818 150.832C247.354 151.808 246.77 152.736 246.066 153.616C245.378 154.48 244.546 155.312 243.57 156.112C243.442 156.208 243.33 156.256 243.234 156.256C243.154 156.256 243.098 156.232 243.066 156.184L242.394 155.416C242.25 155.24 242.29 155.072 242.514 154.912C243.33 154.272 244.034 153.6 244.626 152.896C245.218 152.192 245.714 151.448 246.114 150.664C246.514 149.864 246.818 149.024 247.026 148.144C247.234 147.264 247.354 146.328 247.386 145.336C247.37 145.224 247.394 145.136 247.458 145.072C247.522 144.992 247.594 144.952 247.674 144.952L248.802 145.024C248.978 145.024 249.066 145.136 249.066 145.36ZM282.965 157.336C282.965 157.56 282.853 157.672 282.629 157.672H281.645C281.421 157.672 281.309 157.56 281.309 157.336V153.52H276.557V154.288C276.557 154.96 276.429 155.416 276.173 155.656C275.917 155.88 275.437 155.992 274.733 155.992H268.133C267.749 155.992 267.437 155.968 267.197 155.92C266.973 155.872 266.789 155.784 266.645 155.656C266.517 155.512 266.429 155.336 266.381 155.128C266.333 154.904 266.309 154.624 266.309 154.288V146.968C266.309 146.296 266.437 145.848 266.693 145.624C266.949 145.384 267.429 145.264 268.133 145.264H274.733C275.117 145.264 275.421 145.288 275.645 145.336C275.885 145.384 276.069 145.472 276.197 145.6C276.341 145.728 276.437 145.904 276.485 146.128C276.533 146.352 276.557 146.632 276.557 146.968V147.856H281.309V144.568C281.309 144.344 281.421 144.232 281.645 144.232H282.629C282.853 144.232 282.965 144.344 282.965 144.568V157.336ZM283.157 162.064C283.157 162.752 282.973 163.368 282.605 163.912C282.237 164.456 281.733 164.912 281.093 165.28C280.469 165.664 279.733 165.952 278.885 166.144C278.053 166.352 277.157 166.456 276.197 166.456C275.157 166.456 274.213 166.352 273.365 166.144C272.517 165.952 271.789 165.664 271.181 165.28C270.573 164.912 270.101 164.456 269.765 163.912C269.429 163.368 269.261 162.752 269.261 162.064C269.261 161.392 269.429 160.792 269.765 160.264C270.101 159.72 270.573 159.264 271.181 158.896C271.789 158.512 272.517 158.224 273.365 158.032C274.213 157.824 275.157 157.72 276.197 157.72C277.157 157.72 278.053 157.824 278.885 158.032C279.733 158.224 280.469 158.504 281.093 158.872C281.733 159.24 282.237 159.696 282.605 160.24C282.973 160.768 283.157 161.376 283.157 162.064ZM268.541 146.704C268.317 146.704 268.165 146.752 268.085 146.848C268.005 146.928 267.965 147.088 267.965 147.328V153.928C267.965 154.168 268.005 154.336 268.085 154.432C268.165 154.512 268.317 154.552 268.541 154.552H274.325C274.549 154.552 274.701 154.512 274.781 154.432C274.861 154.336 274.901 154.168 274.901 153.928V147.328C274.901 147.088 274.861 146.928 274.781 146.848C274.701 146.752 274.549 146.704 274.325 146.704H268.541ZM281.453 162.136C281.453 161.656 281.309 161.232 281.021 160.864C280.733 160.496 280.341 160.192 279.845 159.952C279.365 159.696 278.805 159.504 278.165 159.376C277.525 159.232 276.861 159.16 276.173 159.16C275.405 159.16 274.701 159.232 274.061 159.376C273.421 159.504 272.869 159.696 272.405 159.952C271.957 160.192 271.605 160.496 271.349 160.864C271.093 161.232 270.965 161.656 270.965 162.136C270.965 162.6 271.093 163.008 271.349 163.36C271.605 163.728 271.957 164.032 272.405 164.272C272.869 164.512 273.421 164.696 274.061 164.824C274.701 164.952 275.405 165.016 276.173 165.016C276.861 165.016 277.525 164.952 278.165 164.824C278.805 164.696 279.365 164.512 279.845 164.272C280.341 164.032 280.733 163.728 281.021 163.36C281.309 163.008 281.453 162.6 281.453 162.136ZM276.557 152.104H281.309V149.272H276.557V152.104ZM306.039 166.144C306.039 166.224 305.999 166.288 305.919 166.336C305.855 166.4 305.791 166.432 305.727 166.432H293.655C292.903 166.432 292.407 166.288 292.167 166C291.943 165.728 291.831 165.256 291.831 164.584V162.784C291.831 162.112 291.967 161.664 292.239 161.44C292.527 161.2 293.031 161.08 293.751 161.08H303.351C303.575 161.08 303.719 161.048 303.783 160.984C303.847 160.92 303.879 160.768 303.879 160.528V159.16C303.879 158.92 303.847 158.768 303.783 158.704C303.735 158.64 303.599 158.608 303.375 158.608H292.119C292.039 158.608 291.959 158.584 291.879 158.536C291.815 158.488 291.783 158.424 291.783 158.344V157.48C291.783 157.4 291.815 157.336 291.879 157.288C291.959 157.24 292.039 157.216 292.119 157.216H303.639C304.023 157.216 304.335 157.248 304.575 157.312C304.815 157.36 305.007 157.448 305.151 157.576C305.295 157.704 305.391 157.888 305.439 158.128C305.503 158.352 305.535 158.632 305.535 158.968V160.768C305.535 161.44 305.391 161.896 305.103 162.136C304.831 162.36 304.335 162.472 303.615 162.472H293.991C293.767 162.472 293.623 162.504 293.559 162.568C293.511 162.632 293.487 162.784 293.487 163.024V164.488C293.487 164.712 293.519 164.856 293.583 164.92C293.647 165 293.791 165.04 294.015 165.04H305.703C305.783 165.04 305.855 165.064 305.919 165.112C305.999 165.16 306.039 165.224 306.039 165.304V166.144ZM295.047 144.976C295.031 146.096 294.887 147.136 294.615 148.096C294.823 148.624 295.111 149.152 295.479 149.68C295.847 150.208 296.263 150.704 296.727 151.168C297.207 151.632 297.719 152.056 298.263 152.44C298.823 152.808 299.391 153.112 299.967 153.352C300.063 153.384 300.111 153.448 300.111 153.544C300.111 153.624 300.095 153.696 300.063 153.76L299.607 154.576C299.559 154.672 299.487 154.728 299.391 154.744C299.311 154.744 299.223 154.728 299.127 154.696C298.615 154.472 298.103 154.192 297.591 153.856C297.079 153.504 296.583 153.12 296.103 152.704C295.639 152.272 295.207 151.832 294.807 151.384C294.423 150.92 294.103 150.464 293.847 150.016C293.335 150.976 292.663 151.88 291.831 152.728C291.015 153.56 290.007 154.36 288.807 155.128C288.695 155.208 288.599 155.256 288.519 155.272C288.455 155.272 288.383 155.224 288.303 155.128L287.703 154.384C287.575 154.208 287.615 154.048 287.823 153.904C288.815 153.28 289.663 152.64 290.367 151.984C291.071 151.312 291.639 150.616 292.071 149.896C292.519 149.16 292.847 148.384 293.055 147.568C293.263 146.752 293.367 145.88 293.367 144.952C293.367 144.824 293.399 144.728 293.463 144.664C293.527 144.6 293.591 144.568 293.655 144.568L294.783 144.64C294.959 144.64 295.047 144.752 295.047 144.976ZM305.535 155.488C305.535 155.712 305.423 155.824 305.199 155.824H304.215C303.991 155.824 303.879 155.712 303.879 155.488V144.568C303.879 144.344 303.991 144.232 304.215 144.232H305.199C305.423 144.232 305.535 144.344 305.535 144.568V155.488ZM314.401 161.128C314.401 160.456 314.529 160.008 314.785 159.784C315.041 159.544 315.521 159.424 316.225 159.424H326.281C326.665 159.424 326.969 159.448 327.193 159.496C327.433 159.544 327.617 159.632 327.745 159.76C327.889 159.888 327.985 160.064 328.033 160.288C328.081 160.512 328.105 160.792 328.105 161.128V164.464C328.105 165.136 327.977 165.584 327.721 165.808C327.465 166.048 326.985 166.168 326.281 166.168H316.225C315.841 166.168 315.529 166.144 315.289 166.096C315.065 166.048 314.881 165.952 314.737 165.808C314.609 165.68 314.521 165.504 314.473 165.28C314.425 165.072 314.401 164.8 314.401 164.464V161.128ZM322.177 153.952C322.177 154.528 322.049 155.056 321.793 155.536C321.537 156 321.177 156.408 320.713 156.76C320.265 157.112 319.729 157.384 319.105 157.576C318.497 157.768 317.833 157.864 317.113 157.864C316.377 157.864 315.697 157.768 315.073 157.576C314.465 157.384 313.937 157.112 313.489 156.76C313.041 156.408 312.689 155.992 312.433 155.512C312.177 155.032 312.049 154.512 312.049 153.952C312.049 153.376 312.177 152.848 312.433 152.368C312.689 151.888 313.041 151.48 313.489 151.144C313.937 150.808 314.465 150.544 315.073 150.352C315.697 150.16 316.377 150.064 317.113 150.064C317.833 150.064 318.497 150.16 319.105 150.352C319.729 150.544 320.265 150.816 320.713 151.168C321.177 151.504 321.537 151.912 321.793 152.392C322.049 152.872 322.177 153.392 322.177 153.952ZM316.633 160.864C316.409 160.864 316.257 160.912 316.177 161.008C316.097 161.088 316.057 161.248 316.057 161.488V164.104C316.057 164.344 316.097 164.504 316.177 164.584C316.257 164.68 316.409 164.728 316.633 164.728H325.873C326.097 164.728 326.249 164.68 326.329 164.584C326.409 164.504 326.449 164.344 326.449 164.104V161.488C326.449 161.248 326.409 161.088 326.329 161.008C326.249 160.912 326.097 160.864 325.873 160.864H316.633ZM320.593 153.952C320.593 153.568 320.505 153.224 320.329 152.92C320.153 152.6 319.905 152.336 319.585 152.128C319.281 151.904 318.913 151.736 318.481 151.624C318.065 151.496 317.609 151.432 317.113 151.432C316.617 151.432 316.153 151.496 315.721 151.624C315.289 151.736 314.913 151.904 314.593 152.128C314.289 152.336 314.049 152.6 313.873 152.92C313.697 153.224 313.609 153.568 313.609 153.952C313.609 154.336 313.697 154.688 313.873 155.008C314.049 155.312 314.289 155.576 314.593 155.8C314.913 156.024 315.289 156.2 315.721 156.328C316.153 156.44 316.617 156.496 317.113 156.496C317.609 156.496 318.065 156.44 318.481 156.328C318.913 156.2 319.281 156.024 319.585 155.8C319.905 155.576 320.153 155.312 320.329 155.008C320.505 154.688 320.593 154.336 320.593 153.952ZM326.449 151.144V144.568C326.449 144.344 326.561 144.232 326.785 144.232H327.769C327.993 144.232 328.105 144.344 328.105 144.568V157.696C328.105 157.92 327.993 158.032 327.769 158.032H326.785C326.561 158.032 326.449 157.92 326.449 157.696V152.584H323.089C322.881 152.584 322.777 152.488 322.777 152.296V151.432C322.777 151.24 322.881 151.144 323.089 151.144H326.449ZM323.977 148.672C323.977 148.88 323.857 148.984 323.617 148.984H310.849C310.769 148.984 310.689 148.952 310.609 148.888C310.545 148.824 310.513 148.744 310.513 148.648V147.88C310.513 147.784 310.545 147.704 310.609 147.64C310.689 147.576 310.769 147.544 310.849 147.544H323.617C323.857 147.544 323.977 147.648 323.977 147.856V148.672ZM320.593 145.72C320.593 145.944 320.473 146.056 320.233 146.056H313.897C313.817 146.056 313.737 146.032 313.657 145.984C313.593 145.92 313.561 145.84 313.561 145.744V144.928C313.561 144.832 313.593 144.752 313.657 144.688C313.721 144.624 313.793 144.592 313.873 144.592H320.233C320.473 144.592 320.593 144.704 320.593 144.928V145.72ZM351.179 166.144C351.179 166.224 351.139 166.288 351.059 166.336C350.995 166.4 350.931 166.432 350.867 166.432H338.795C338.043 166.432 337.547 166.288 337.307 166C337.083 165.728 336.971 165.256 336.971 164.584V162.784C336.971 162.112 337.107 161.664 337.379 161.44C337.667 161.2 338.171 161.08 338.891 161.08H348.491C348.715 161.08 348.859 161.048 348.923 160.984C348.987 160.92 349.019 160.768 349.019 160.528V159.16C349.019 158.92 348.987 158.768 348.923 158.704C348.875 158.64 348.739 158.608 348.515 158.608H337.259C337.179 158.608 337.099 158.584 337.019 158.536C336.955 158.488 336.923 158.424 336.923 158.344V157.48C336.923 157.4 336.955 157.336 337.019 157.288C337.099 157.24 337.179 157.216 337.259 157.216H348.779C349.163 157.216 349.475 157.248 349.715 157.312C349.955 157.36 350.147 157.448 350.291 157.576C350.435 157.704 350.531 157.888 350.579 158.128C350.643 158.352 350.675 158.632 350.675 158.968V160.768C350.675 161.44 350.531 161.896 350.243 162.136C349.971 162.36 349.475 162.472 348.755 162.472H339.131C338.907 162.472 338.763 162.504 338.699 162.568C338.651 162.632 338.627 162.784 338.627 163.024V164.488C338.627 164.712 338.659 164.856 338.723 164.92C338.787 165 338.931 165.04 339.155 165.04H350.843C350.923 165.04 350.995 165.064 351.059 165.112C351.139 165.16 351.179 165.224 351.179 165.304V166.144ZM340.187 144.976C340.171 146.096 340.027 147.136 339.755 148.096C339.963 148.624 340.251 149.152 340.619 149.68C340.987 150.208 341.403 150.704 341.867 151.168C342.347 151.632 342.859 152.056 343.403 152.44C343.963 152.808 344.531 153.112 345.107 153.352C345.203 153.384 345.251 153.448 345.251 153.544C345.251 153.624 345.235 153.696 345.203 153.76L344.747 154.576C344.699 154.672 344.627 154.728 344.531 154.744C344.451 154.744 344.363 154.728 344.267 154.696C343.755 154.472 343.243 154.192 342.731 153.856C342.219 153.504 341.723 153.12 341.243 152.704C340.779 152.272 340.347 151.832 339.947 151.384C339.563 150.92 339.243 150.464 338.987 150.016C338.475 150.976 337.803 151.88 336.971 152.728C336.155 153.56 335.147 154.36 333.947 155.128C333.835 155.208 333.739 155.256 333.659 155.272C333.595 155.272 333.523 155.224 333.443 155.128L332.843 154.384C332.715 154.208 332.755 154.048 332.963 153.904C333.955 153.28 334.803 152.64 335.507 151.984C336.211 151.312 336.779 150.616 337.211 149.896C337.659 149.16 337.987 148.384 338.195 147.568C338.403 146.752 338.507 145.88 338.507 144.952C338.507 144.824 338.539 144.728 338.603 144.664C338.667 144.6 338.731 144.568 338.795 144.568L339.923 144.64C340.099 144.64 340.187 144.752 340.187 144.976ZM350.675 155.488C350.675 155.712 350.563 155.824 350.339 155.824H349.355C349.131 155.824 349.019 155.712 349.019 155.488V144.568C349.019 144.344 349.131 144.232 349.355 144.232H350.339C350.563 144.232 350.675 144.344 350.675 144.568V155.488Z" fill="black"/>
<path d="M130.905 463.928C130.905 463.256 131.033 462.808 131.289 462.584C131.545 462.344 132.025 462.224 132.729 462.224H142.785C143.169 462.224 143.473 462.248 143.697 462.296C143.937 462.344 144.121 462.432 144.249 462.56C144.393 462.688 144.489 462.864 144.537 463.088C144.585 463.312 144.609 463.592 144.609 463.928V468.464C144.609 469.136 144.481 469.584 144.225 469.808C143.969 470.048 143.489 470.168 142.785 470.168H132.729C132.345 470.168 132.033 470.144 131.793 470.096C131.569 470.048 131.385 469.952 131.241 469.808C131.113 469.68 131.025 469.504 130.977 469.28C130.929 469.072 130.905 468.8 130.905 468.464V463.928ZM133.137 463.664C132.913 463.664 132.761 463.712 132.681 463.808C132.601 463.888 132.561 464.048 132.561 464.288V468.104C132.561 468.344 132.601 468.504 132.681 468.584C132.761 468.68 132.913 468.728 133.137 468.728H142.377C142.601 468.728 142.753 468.68 142.833 468.584C142.913 468.504 142.953 468.344 142.953 468.104V464.288C142.953 464.048 142.913 463.888 142.833 463.808C142.753 463.712 142.601 463.664 142.377 463.664H133.137ZM134.073 449.096C134.073 450.264 133.953 451.352 133.713 452.36C133.905 453.032 134.169 453.672 134.505 454.28C134.857 454.888 135.265 455.456 135.729 455.984C136.193 456.512 136.697 456.992 137.241 457.424C137.801 457.84 138.385 458.192 138.993 458.48C139.089 458.528 139.129 458.6 139.113 458.696C139.113 458.776 139.097 458.848 139.065 458.912L138.561 459.704C138.513 459.784 138.457 459.84 138.393 459.872C138.329 459.904 138.225 459.88 138.081 459.8C137.713 459.608 137.289 459.352 136.809 459.032C136.345 458.696 135.873 458.304 135.393 457.856C134.913 457.408 134.457 456.92 134.025 456.392C133.593 455.848 133.233 455.288 132.945 454.712C132.417 455.928 131.705 457.032 130.809 458.024C129.913 459.016 128.865 459.904 127.665 460.688C127.585 460.736 127.497 460.768 127.401 460.784C127.305 460.8 127.225 460.768 127.161 460.688L126.561 459.896C126.529 459.832 126.521 459.752 126.537 459.656C126.569 459.56 126.625 459.488 126.705 459.44C128.609 458.272 130.041 456.8 131.001 455.024C131.961 453.248 132.425 451.264 132.393 449.072C132.393 448.816 132.489 448.688 132.681 448.688L133.809 448.76C133.985 448.76 134.073 448.872 134.073 449.096ZM144.609 460.52C144.609 460.744 144.497 460.856 144.273 460.856H143.289C143.065 460.856 142.953 460.744 142.953 460.52V448.568C142.953 448.344 143.065 448.232 143.289 448.232H144.273C144.497 448.232 144.609 448.344 144.609 448.568V460.52ZM161.035 458.336C161.035 458.88 160.923 459.376 160.699 459.824C160.491 460.272 160.195 460.664 159.811 461C159.427 461.336 158.963 461.616 158.419 461.84C157.891 462.048 157.307 462.184 156.667 462.248V464.744C157.211 464.712 157.779 464.672 158.371 464.624C158.963 464.56 159.539 464.496 160.099 464.432C160.675 464.352 161.227 464.272 161.755 464.192C162.283 464.112 162.763 464.032 163.195 463.952C163.451 463.904 163.587 463.96 163.603 464.12L163.747 465.032C163.779 465.224 163.675 465.336 163.435 465.368C162.363 465.544 161.187 465.704 159.907 465.848C158.627 465.992 157.339 466.104 156.043 466.184C155.579 466.216 155.035 466.24 154.411 466.256C153.787 466.272 153.147 466.288 152.491 466.304C151.851 466.304 151.219 466.304 150.595 466.304C149.987 466.304 149.459 466.296 149.011 466.28C148.915 466.28 148.827 466.248 148.747 466.184C148.683 466.12 148.651 466.048 148.651 465.968V465.152C148.651 465.056 148.683 464.984 148.747 464.936C148.827 464.872 148.915 464.84 149.011 464.84C149.363 464.856 149.779 464.872 150.259 464.888C150.755 464.888 151.267 464.888 151.795 464.888C152.339 464.872 152.883 464.864 153.427 464.864C153.987 464.848 154.515 464.832 155.011 464.816V462.272C154.355 462.208 153.755 462.072 153.211 461.864C152.683 461.64 152.227 461.36 151.843 461.024C151.459 460.672 151.155 460.272 150.931 459.824C150.723 459.36 150.619 458.864 150.619 458.336C150.619 457.744 150.747 457.208 151.003 456.728C151.275 456.232 151.643 455.816 152.107 455.48C152.571 455.128 153.115 454.864 153.739 454.688C154.379 454.496 155.075 454.4 155.827 454.4C156.563 454.4 157.251 454.496 157.891 454.688C158.531 454.88 159.083 455.152 159.547 455.504C160.011 455.84 160.371 456.248 160.627 456.728C160.899 457.208 161.035 457.744 161.035 458.336ZM166.339 470.024C166.339 470.248 166.227 470.36 166.003 470.36H165.019C164.795 470.36 164.683 470.248 164.683 470.024V448.568C164.683 448.344 164.795 448.232 165.019 448.232H166.003C166.227 448.232 166.339 448.344 166.339 448.568V457.952H169.651C169.747 457.952 169.827 457.984 169.891 458.048C169.971 458.096 170.011 458.168 170.011 458.264V459.08C170.011 459.16 169.971 459.232 169.891 459.296C169.827 459.36 169.747 459.392 169.651 459.392H166.339V470.024ZM159.403 458.336C159.403 457.52 159.067 456.896 158.395 456.464C157.723 456.032 156.867 455.816 155.827 455.816C155.315 455.816 154.835 455.872 154.387 455.984C153.955 456.096 153.579 456.256 153.259 456.464C152.939 456.672 152.683 456.936 152.491 457.256C152.315 457.576 152.227 457.936 152.227 458.336C152.227 458.736 152.315 459.096 152.491 459.416C152.683 459.72 152.939 459.984 153.259 460.208C153.579 460.416 153.955 460.584 154.387 460.712C154.835 460.824 155.315 460.88 155.827 460.88C156.867 460.88 157.723 460.656 158.395 460.208C159.067 459.76 159.403 459.136 159.403 458.336ZM162.571 452.84C162.571 453.048 162.451 453.152 162.211 453.152H149.443C149.363 453.152 149.283 453.12 149.203 453.056C149.139 452.992 149.107 452.912 149.107 452.816V452.024C149.107 451.928 149.139 451.848 149.203 451.784C149.283 451.72 149.363 451.688 149.443 451.688H162.211C162.451 451.688 162.571 451.792 162.571 452V452.84ZM159.187 449.816C159.187 450.04 159.067 450.152 158.827 450.152H152.491C152.411 450.152 152.331 450.128 152.251 450.08C152.187 450.016 152.155 449.936 152.155 449.84V449.024C152.155 448.928 152.187 448.848 152.251 448.784C152.315 448.72 152.387 448.688 152.467 448.688H158.827C159.067 448.688 159.187 448.8 159.187 449.024V449.816ZM189.75 470.024C189.75 470.248 189.638 470.36 189.414 470.36H188.43C188.206 470.36 188.094 470.248 188.094 470.024V448.568C188.094 448.344 188.206 448.232 188.43 448.232H189.414C189.638 448.232 189.75 448.344 189.75 448.568V470.024ZM183.318 451.76C183.238 453.136 182.966 454.488 182.502 455.816C182.038 457.144 181.39 458.416 180.558 459.632C179.742 460.832 178.75 461.952 177.582 462.992C176.43 464.016 175.118 464.92 173.646 465.704C173.438 465.816 173.286 465.792 173.19 465.632L172.662 464.792C172.55 464.6 172.582 464.464 172.758 464.384C174.118 463.68 175.318 462.88 176.358 461.984C177.414 461.072 178.31 460.088 179.046 459.032C179.798 457.976 180.39 456.864 180.822 455.696C181.254 454.528 181.526 453.328 181.638 452.096C181.67 451.856 181.638 451.696 181.542 451.616C181.446 451.52 181.286 451.472 181.062 451.472H173.43C173.238 451.472 173.142 451.368 173.142 451.16V450.32C173.142 450.128 173.238 450.032 173.43 450.032H181.518C182.27 450.032 182.766 450.176 183.006 450.464C183.246 450.736 183.35 451.168 183.318 451.76ZM206.776 463.784C206.728 463.864 206.664 463.912 206.584 463.928C206.52 463.944 206.424 463.904 206.296 463.808C205.912 463.52 205.504 463.192 205.072 462.824C204.64 462.44 204.216 462.04 203.8 461.624C203.384 461.192 202.976 460.752 202.576 460.304C202.176 459.84 201.808 459.384 201.472 458.936C200.672 459.944 199.76 460.912 198.736 461.84C197.712 462.752 196.544 463.664 195.232 464.576C195.152 464.624 195.072 464.664 194.992 464.696C194.912 464.712 194.848 464.688 194.8 464.624L194.224 463.88C194.16 463.8 194.136 463.72 194.152 463.64C194.168 463.544 194.208 463.472 194.272 463.424C196.832 461.616 198.824 459.784 200.248 457.928C201.688 456.072 202.688 454.136 203.248 452.12C203.312 451.896 203.312 451.736 203.248 451.64C203.2 451.528 203.064 451.472 202.84 451.472H195.568C195.376 451.472 195.28 451.368 195.28 451.16V450.32C195.28 450.128 195.392 450.032 195.616 450.032H203.488C204.32 450.032 204.848 450.176 205.072 450.464C205.296 450.752 205.296 451.264 205.072 452C204.448 454.048 203.568 455.928 202.432 457.64C202.8 458.152 203.192 458.656 203.608 459.152C204.024 459.648 204.44 460.12 204.856 460.568C205.272 461 205.688 461.4 206.104 461.768C206.52 462.12 206.912 462.416 207.28 462.656C207.36 462.72 207.4 462.792 207.4 462.872C207.4 462.952 207.376 463.024 207.328 463.088L206.776 463.784ZM211.48 470.024C211.48 470.248 211.368 470.36 211.144 470.36H210.16C209.936 470.36 209.824 470.248 209.824 470.024V448.568C209.824 448.344 209.936 448.232 210.16 448.232H211.144C211.368 448.232 211.48 448.344 211.48 448.568V457.304H214.792C214.888 457.304 214.968 457.336 215.032 457.4C215.112 457.448 215.152 457.52 215.152 457.616V458.432C215.152 458.512 215.112 458.584 215.032 458.648C214.968 458.712 214.888 458.744 214.792 458.744H211.48V470.024ZM226.13 452.096C225.89 453.024 225.594 453.936 225.242 454.832C224.89 455.712 224.482 456.584 224.018 457.448C224.258 457.928 224.538 458.424 224.858 458.936C225.194 459.432 225.554 459.92 225.938 460.4C226.322 460.88 226.714 461.336 227.114 461.768C227.53 462.184 227.938 462.552 228.338 462.872C228.418 462.952 228.45 463.032 228.434 463.112C228.434 463.192 228.402 463.264 228.338 463.328L227.762 463.976C227.698 464.04 227.634 464.08 227.57 464.096C227.506 464.112 227.41 464.064 227.282 463.952C226.93 463.648 226.562 463.296 226.178 462.896C225.794 462.496 225.418 462.072 225.05 461.624C224.682 461.176 224.33 460.728 223.994 460.28C223.658 459.816 223.362 459.368 223.106 458.936C222.386 460.04 221.562 461.088 220.634 462.08C219.706 463.072 218.69 463.984 217.586 464.816C217.506 464.864 217.418 464.904 217.322 464.936C217.242 464.952 217.178 464.928 217.13 464.864L216.506 464.12C216.442 464.04 216.418 463.96 216.434 463.88C216.466 463.8 216.522 463.736 216.602 463.688C218.602 462.12 220.234 460.408 221.498 458.552C222.762 456.696 223.698 454.584 224.306 452.216C224.37 451.992 224.37 451.832 224.306 451.736C224.258 451.64 224.122 451.592 223.898 451.592H217.802C217.61 451.592 217.514 451.488 217.514 451.28V450.44C217.514 450.248 217.626 450.152 217.85 450.152H224.546C225.378 450.152 225.898 450.288 226.106 450.56C226.314 450.832 226.322 451.344 226.13 452.096ZM229.85 456.248V448.976C229.85 448.752 229.962 448.64 230.186 448.64H231.098C231.322 448.64 231.434 448.752 231.434 448.976V469.112C231.434 469.336 231.322 469.448 231.098 469.448H230.186C229.962 469.448 229.85 469.336 229.85 469.112V457.688H226.394C226.298 457.688 226.21 457.656 226.13 457.592C226.066 457.528 226.034 457.456 226.034 457.376V456.56C226.034 456.464 226.066 456.392 226.13 456.344C226.21 456.28 226.298 456.248 226.394 456.248H229.85ZM235.682 470.024C235.682 470.248 235.57 470.36 235.346 470.36H234.434C234.21 470.36 234.098 470.248 234.098 470.024V448.568C234.098 448.344 234.21 448.232 234.434 448.232H235.346C235.57 448.232 235.682 448.344 235.682 448.568V470.024ZM257.965 470.144C257.965 470.224 257.925 470.288 257.845 470.336C257.781 470.4 257.717 470.432 257.653 470.432H245.581C244.829 470.432 244.333 470.288 244.093 470C243.869 469.728 243.757 469.256 243.757 468.584V466.784C243.757 466.112 243.893 465.664 244.165 465.44C244.453 465.2 244.957 465.08 245.677 465.08H255.277C255.501 465.08 255.645 465.048 255.709 464.984C255.773 464.92 255.805 464.768 255.805 464.528V463.16C255.805 462.92 255.773 462.768 255.709 462.704C255.661 462.64 255.525 462.608 255.301 462.608H244.045C243.965 462.608 243.885 462.584 243.805 462.536C243.741 462.488 243.709 462.424 243.709 462.344V461.48C243.709 461.4 243.741 461.336 243.805 461.288C243.885 461.24 243.965 461.216 244.045 461.216H255.565C255.949 461.216 256.261 461.248 256.501 461.312C256.741 461.36 256.933 461.448 257.077 461.576C257.221 461.704 257.317 461.888 257.365 462.128C257.429 462.352 257.461 462.632 257.461 462.968V464.768C257.461 465.44 257.317 465.896 257.029 466.136C256.757 466.36 256.261 466.472 255.541 466.472H245.917C245.693 466.472 245.549 466.504 245.485 466.568C245.437 466.632 245.413 466.784 245.413 467.024V468.488C245.413 468.712 245.445 468.856 245.509 468.92C245.573 469 245.717 469.04 245.941 469.04H257.629C257.709 469.04 257.781 469.064 257.845 469.112C257.925 469.16 257.965 469.224 257.965 469.304V470.144ZM246.973 448.976C246.957 450.096 246.813 451.136 246.541 452.096C246.749 452.624 247.037 453.152 247.405 453.68C247.773 454.208 248.189 454.704 248.653 455.168C249.133 455.632 249.645 456.056 250.189 456.44C250.749 456.808 251.317 457.112 251.893 457.352C251.989 457.384 252.037 457.448 252.037 457.544C252.037 457.624 252.021 457.696 251.989 457.76L251.533 458.576C251.485 458.672 251.413 458.728 251.317 458.744C251.237 458.744 251.149 458.728 251.053 458.696C250.541 458.472 250.029 458.192 249.517 457.856C249.005 457.504 248.509 457.12 248.029 456.704C247.565 456.272 247.133 455.832 246.733 455.384C246.349 454.92 246.029 454.464 245.773 454.016C245.261 454.976 244.589 455.88 243.757 456.728C242.941 457.56 241.933 458.36 240.733 459.128C240.621 459.208 240.525 459.256 240.445 459.272C240.381 459.272 240.309 459.224 240.229 459.128L239.629 458.384C239.501 458.208 239.541 458.048 239.749 457.904C240.741 457.28 241.589 456.64 242.293 455.984C242.997 455.312 243.565 454.616 243.997 453.896C244.445 453.16 244.773 452.384 244.981 451.568C245.189 450.752 245.293 449.88 245.293 448.952C245.293 448.824 245.325 448.728 245.389 448.664C245.453 448.6 245.517 448.568 245.581 448.568L246.709 448.64C246.885 448.64 246.973 448.752 246.973 448.976ZM257.461 459.488C257.461 459.712 257.349 459.824 257.125 459.824H256.141C255.917 459.824 255.805 459.712 255.805 459.488V448.568C255.805 448.344 255.917 448.232 256.141 448.232H257.125C257.349 448.232 257.461 448.344 257.461 448.568V459.488Z" fill="black"/>
<path d="M687.169 80.792C687.169 81.848 687.121 82.864 687.025 83.84C686.945 84.8 686.809 85.728 686.617 86.624C686.777 87.264 687.025 87.944 687.361 88.664C687.697 89.368 688.089 90.072 688.537 90.776C689.001 91.48 689.513 92.168 690.073 92.84C690.649 93.496 691.257 94.088 691.897 94.616C691.977 94.68 692.017 94.76 692.017 94.856C692.033 94.952 692.017 95.032 691.969 95.096L691.369 95.84C691.225 96.016 691.057 96.016 690.865 95.84C690.417 95.456 689.953 95 689.473 94.472C689.009 93.928 688.553 93.36 688.105 92.768C687.673 92.176 687.265 91.568 686.881 90.944C686.497 90.32 686.169 89.72 685.897 89.144C685.385 90.6 684.713 91.944 683.881 93.176C683.049 94.392 682.057 95.528 680.905 96.584C680.745 96.712 680.609 96.72 680.497 96.608L679.777 95.864C679.729 95.816 679.705 95.752 679.705 95.672C679.721 95.592 679.769 95.512 679.849 95.432C680.825 94.504 681.673 93.528 682.393 92.504C683.113 91.48 683.697 90.376 684.145 89.192C684.609 88.008 684.945 86.72 685.153 85.328C685.377 83.936 685.489 82.408 685.489 80.744C685.489 80.632 685.513 80.552 685.561 80.504C685.625 80.44 685.697 80.408 685.777 80.408L686.905 80.456C687.081 80.456 687.169 80.568 687.169 80.792ZM697.465 101.024C697.465 101.248 697.353 101.36 697.129 101.36H696.145C695.921 101.36 695.809 101.248 695.809 101.024V79.568C695.809 79.344 695.921 79.232 696.145 79.232H697.129C697.353 79.232 697.465 79.344 697.465 79.568V101.024ZM714.035 85.64C714.035 86.44 713.891 87.176 713.603 87.848C713.315 88.504 712.915 89.072 712.403 89.552C711.907 90.032 711.307 90.408 710.603 90.68C709.915 90.952 709.155 91.088 708.323 91.088C707.523 91.088 706.779 90.96 706.091 90.704C705.403 90.432 704.803 90.056 704.291 89.576C703.795 89.096 703.403 88.52 703.115 87.848C702.843 87.176 702.707 86.44 702.707 85.64C702.707 84.792 702.843 84.032 703.115 83.36C703.403 82.672 703.795 82.096 704.291 81.632C704.803 81.152 705.403 80.792 706.091 80.552C706.779 80.296 707.523 80.168 708.323 80.168C709.091 80.168 709.819 80.296 710.507 80.552C711.195 80.792 711.795 81.144 712.307 81.608C712.835 82.072 713.251 82.648 713.555 83.336C713.875 84.008 714.035 84.776 714.035 85.64ZM712.355 85.616C712.355 84.976 712.243 84.416 712.019 83.936C711.811 83.44 711.523 83.032 711.155 82.712C710.787 82.376 710.355 82.128 709.859 81.968C709.379 81.792 708.867 81.704 708.323 81.704C707.763 81.704 707.243 81.792 706.763 81.968C706.283 82.128 705.867 82.376 705.515 82.712C705.163 83.032 704.883 83.44 704.675 83.936C704.483 84.416 704.387 84.976 704.387 85.616C704.387 86.224 704.483 86.768 704.675 87.248C704.867 87.728 705.131 88.144 705.467 88.496C705.819 88.848 706.235 89.12 706.715 89.312C707.195 89.488 707.731 89.576 708.323 89.576C708.867 89.576 709.379 89.488 709.859 89.312C710.355 89.12 710.787 88.848 711.155 88.496C711.523 88.144 711.811 87.728 712.019 87.248C712.243 86.768 712.355 86.224 712.355 85.616ZM719.195 91.664C719.195 91.888 719.083 92 718.859 92H717.875C717.651 92 717.539 91.888 717.539 91.664V79.568C717.539 79.344 717.651 79.232 717.875 79.232H718.859C719.083 79.232 719.195 79.344 719.195 79.568V83.216H722.507C722.603 83.216 722.683 83.248 722.747 83.312C722.827 83.36 722.867 83.432 722.867 83.528V84.32C722.867 84.4 722.827 84.472 722.747 84.536C722.683 84.6 722.603 84.632 722.507 84.632H719.195V87.512H722.507C722.603 87.512 722.683 87.544 722.747 87.608C722.827 87.656 722.867 87.728 722.867 87.824V88.616C722.867 88.696 722.827 88.768 722.747 88.832C722.683 88.896 722.603 88.928 722.507 88.928H719.195V91.664ZM705.203 93.632C705.203 93.536 705.243 93.464 705.323 93.416C705.403 93.368 705.483 93.344 705.563 93.344H717.371C718.123 93.344 718.611 93.488 718.835 93.776C719.075 94.048 719.195 94.512 719.195 95.168V101.12C719.195 101.344 719.083 101.456 718.859 101.456H717.875C717.651 101.456 717.539 101.344 717.539 101.12V95.288C717.539 95.064 717.499 94.928 717.419 94.88C717.355 94.816 717.211 94.784 716.987 94.784H705.563C705.483 94.784 705.403 94.76 705.323 94.712C705.243 94.648 705.203 94.576 705.203 94.496V93.632ZM742.053 97.064C742.053 97.752 741.869 98.368 741.501 98.912C741.133 99.456 740.629 99.912 739.989 100.28C739.365 100.664 738.629 100.952 737.781 101.144C736.949 101.352 736.053 101.456 735.093 101.456C734.053 101.456 733.109 101.352 732.261 101.144C731.413 100.952 730.685 100.664 730.077 100.28C729.469 99.912 728.997 99.456 728.661 98.912C728.325 98.368 728.157 97.752 728.157 97.064C728.157 96.392 728.325 95.792 728.661 95.264C728.997 94.72 729.469 94.264 730.077 93.896C730.685 93.512 731.413 93.224 732.261 93.032C733.109 92.824 734.053 92.72 735.093 92.72C736.053 92.72 736.949 92.824 737.781 93.032C738.629 93.224 739.365 93.504 739.989 93.872C740.629 94.24 741.133 94.696 741.501 95.24C741.869 95.768 742.053 96.376 742.053 97.064ZM740.349 97.136C740.349 96.656 740.205 96.232 739.917 95.864C739.629 95.496 739.237 95.192 738.741 94.952C738.261 94.696 737.701 94.504 737.061 94.376C736.421 94.232 735.757 94.16 735.069 94.16C734.301 94.16 733.597 94.232 732.957 94.376C732.317 94.504 731.765 94.696 731.301 94.952C730.853 95.192 730.501 95.496 730.245 95.864C729.989 96.232 729.861 96.656 729.861 97.136C729.861 97.6 729.989 98.008 730.245 98.36C730.501 98.728 730.853 99.032 731.301 99.272C731.765 99.512 732.317 99.696 732.957 99.824C733.597 99.952 734.301 100.016 735.069 100.016C735.757 100.016 736.421 99.952 737.061 99.824C737.701 99.696 738.261 99.512 738.741 99.272C739.237 99.032 739.629 98.728 739.917 98.36C740.205 98.008 740.349 97.6 740.349 97.136ZM735.525 82.256C735.301 82.88 734.997 83.504 734.613 84.128C734.229 84.752 733.773 85.368 733.245 85.976C733.805 86.552 734.493 87.104 735.309 87.632C736.141 88.16 737.029 88.632 737.973 89.048C738.069 89.096 738.109 89.16 738.093 89.24C738.093 89.32 738.077 89.4 738.045 89.48L737.565 90.32C737.517 90.4 737.461 90.456 737.397 90.488C737.333 90.52 737.229 90.496 737.085 90.416C736.733 90.256 736.349 90.064 735.933 89.84C735.533 89.616 735.117 89.36 734.685 89.072C734.253 88.784 733.821 88.472 733.389 88.136C732.973 87.8 732.581 87.448 732.213 87.08C731.285 87.992 730.261 88.832 729.141 89.6C728.037 90.352 726.909 90.984 725.757 91.496C725.677 91.528 725.597 91.552 725.517 91.568C725.437 91.584 725.373 91.552 725.325 91.472L724.845 90.632C724.797 90.552 724.789 90.472 724.821 90.392C724.869 90.296 724.933 90.232 725.013 90.2C727.077 89.208 728.837 88.072 730.293 86.792C731.749 85.512 732.885 84.032 733.701 82.352C733.813 82.128 733.829 81.968 733.749 81.872C733.669 81.776 733.517 81.728 733.293 81.728H726.261C726.069 81.728 725.973 81.624 725.973 81.416V80.576C725.973 80.384 726.085 80.288 726.309 80.288H733.941C734.773 80.288 735.309 80.44 735.549 80.744C735.789 81.032 735.781 81.536 735.525 82.256ZM741.765 92.12C741.765 92.344 741.653 92.456 741.429 92.456H740.445C740.221 92.456 740.109 92.344 740.109 92.12V79.568C740.109 79.344 740.221 79.232 740.445 79.232H741.429C741.653 79.232 741.765 79.344 741.765 79.568V85.304H745.077C745.173 85.304 745.253 85.336 745.317 85.4C745.397 85.448 745.437 85.52 745.437 85.616V86.432C745.437 86.512 745.397 86.584 745.317 86.648C745.253 86.712 745.173 86.744 745.077 86.744H741.765V92.12Z" fill="black"/>
<path d="M719.517 219.064C719.517 218.376 719.701 217.768 720.069 217.24C720.437 216.696 720.949 216.24 721.605 215.872C722.277 215.488 723.061 215.2 723.957 215.008C724.869 214.816 725.869 214.72 726.957 214.72C727.949 214.72 728.893 214.816 729.789 215.008C730.685 215.2 731.477 215.48 732.165 215.848C732.853 216.216 733.397 216.672 733.797 217.216C734.197 217.744 734.397 218.36 734.397 219.064C734.397 219.768 734.197 220.392 733.797 220.936C733.397 221.496 732.853 221.96 732.165 222.328C731.477 222.696 730.685 222.976 729.789 223.168C728.893 223.36 727.949 223.456 726.957 223.456C725.869 223.456 724.869 223.36 723.957 223.168C723.061 222.976 722.277 222.696 721.605 222.328C720.949 221.96 720.437 221.496 720.069 220.936C719.701 220.392 719.517 219.768 719.517 219.064ZM721.293 219.136C721.293 219.616 721.429 220.032 721.701 220.384C721.989 220.752 722.381 221.056 722.877 221.296C723.389 221.536 723.989 221.712 724.677 221.824C725.365 221.952 726.117 222.016 726.933 222.016C727.653 222.016 728.357 221.952 729.045 221.824C729.733 221.712 730.341 221.536 730.869 221.296C731.397 221.056 731.821 220.752 732.141 220.384C732.477 220.032 732.645 219.616 732.645 219.136C732.645 218.64 732.477 218.208 732.141 217.84C731.821 217.472 731.397 217.168 730.869 216.928C730.341 216.672 729.733 216.48 729.045 216.352C728.357 216.224 727.653 216.16 726.933 216.16C726.117 216.16 725.365 216.224 724.677 216.352C723.989 216.48 723.389 216.672 722.877 216.928C722.381 217.168 721.989 217.472 721.701 217.84C721.429 218.208 721.293 218.64 721.293 219.136ZM729.621 213.352C729.621 213.576 729.509 213.688 729.285 213.688H728.373C728.149 213.688 728.037 213.576 728.037 213.352V201.976C728.037 201.752 728.149 201.64 728.373 201.64H729.285C729.509 201.64 729.621 201.752 729.621 201.976V207.28H732.669V201.568C732.669 201.344 732.781 201.232 733.005 201.232H733.917C734.141 201.232 734.253 201.344 734.253 201.568V214.096C734.253 214.32 734.141 214.432 733.917 214.432H733.005C732.781 214.432 732.669 214.32 732.669 214.096V208.72H729.621V213.352ZM722.133 202.36C722.117 203.576 721.949 204.736 721.629 205.84C721.821 206.4 722.077 206.952 722.397 207.496C722.717 208.04 723.077 208.552 723.477 209.032C723.893 209.512 724.341 209.952 724.821 210.352C725.301 210.736 725.789 211.056 726.285 211.312C726.461 211.408 726.485 211.552 726.357 211.744L725.781 212.56C725.733 212.624 725.677 212.664 725.613 212.68C725.565 212.68 725.469 212.64 725.325 212.56C724.445 212.016 723.613 211.32 722.829 210.472C722.045 209.624 721.397 208.744 720.885 207.832C720.421 208.808 719.837 209.736 719.133 210.616C718.445 211.48 717.613 212.312 716.637 213.112C716.509 213.208 716.397 213.256 716.301 213.256C716.221 213.256 716.165 213.232 716.133 213.184L715.461 212.416C715.317 212.24 715.357 212.072 715.581 211.912C716.397 211.272 717.101 210.6 717.693 209.896C718.285 209.192 718.781 208.448 719.181 207.664C719.581 206.864 719.885 206.024 720.093 205.144C720.301 204.264 720.421 203.328 720.453 202.336C720.437 202.224 720.461 202.136 720.525 202.072C720.589 201.992 720.661 201.952 720.741 201.952L721.869 202.024C722.045 202.024 722.133 202.136 722.133 202.36ZM756.031 214.336C756.031 214.56 755.919 214.672 755.695 214.672H754.711C754.487 214.672 754.375 214.56 754.375 214.336V210.52H749.623V211.288C749.623 211.96 749.495 212.416 749.239 212.656C748.983 212.88 748.503 212.992 747.799 212.992H741.199C740.815 212.992 740.503 212.968 740.263 212.92C740.039 212.872 739.855 212.784 739.711 212.656C739.583 212.512 739.495 212.336 739.447 212.128C739.399 211.904 739.375 211.624 739.375 211.288V203.968C739.375 203.296 739.503 202.848 739.759 202.624C740.015 202.384 740.495 202.264 741.199 202.264H747.799C748.183 202.264 748.487 202.288 748.711 202.336C748.951 202.384 749.135 202.472 749.263 202.6C749.407 202.728 749.503 202.904 749.551 203.128C749.599 203.352 749.623 203.632 749.623 203.968V204.856H754.375V201.568C754.375 201.344 754.487 201.232 754.711 201.232H755.695C755.919 201.232 756.031 201.344 756.031 201.568V214.336ZM756.223 219.064C756.223 219.752 756.039 220.368 755.671 220.912C755.303 221.456 754.799 221.912 754.159 222.28C753.535 222.664 752.799 222.952 751.951 223.144C751.119 223.352 750.223 223.456 749.263 223.456C748.223 223.456 747.279 223.352 746.431 223.144C745.583 222.952 744.855 222.664 744.247 222.28C743.639 221.912 743.167 221.456 742.831 220.912C742.495 220.368 742.327 219.752 742.327 219.064C742.327 218.392 742.495 217.792 742.831 217.264C743.167 216.72 743.639 216.264 744.247 215.896C744.855 215.512 745.583 215.224 746.431 215.032C747.279 214.824 748.223 214.72 749.263 214.72C750.223 214.72 751.119 214.824 751.951 215.032C752.799 215.224 753.535 215.504 754.159 215.872C754.799 216.24 755.303 216.696 755.671 217.24C756.039 217.768 756.223 218.376 756.223 219.064ZM741.607 203.704C741.383 203.704 741.231 203.752 741.151 203.848C741.071 203.928 741.031 204.088 741.031 204.328V210.928C741.031 211.168 741.071 211.336 741.151 211.432C741.231 211.512 741.383 211.552 741.607 211.552H747.391C747.615 211.552 747.767 211.512 747.847 211.432C747.927 211.336 747.967 211.168 747.967 210.928V204.328C747.967 204.088 747.927 203.928 747.847 203.848C747.767 203.752 747.615 203.704 747.391 203.704H741.607ZM754.519 219.136C754.519 218.656 754.375 218.232 754.087 217.864C753.799 217.496 753.407 217.192 752.911 216.952C752.431 216.696 751.871 216.504 751.231 216.376C750.591 216.232 749.927 216.16 749.239 216.16C748.471 216.16 747.767 216.232 747.127 216.376C746.487 216.504 745.935 216.696 745.471 216.952C745.023 217.192 744.671 217.496 744.415 217.864C744.159 218.232 744.031 218.656 744.031 219.136C744.031 219.6 744.159 220.008 744.415 220.36C744.671 220.728 745.023 221.032 745.471 221.272C745.935 221.512 746.487 221.696 747.127 221.824C747.767 221.952 748.471 222.016 749.239 222.016C749.927 222.016 750.591 221.952 751.231 221.824C751.871 221.696 752.431 221.512 752.911 221.272C753.407 221.032 753.799 220.728 754.087 220.36C754.375 220.008 754.519 219.6 754.519 219.136ZM749.623 209.104H754.375V206.272H749.623V209.104ZM779.105 223.144C779.105 223.224 779.065 223.288 778.985 223.336C778.921 223.4 778.857 223.432 778.793 223.432H766.721C765.969 223.432 765.473 223.288 765.233 223C765.009 222.728 764.897 222.256 764.897 221.584V219.784C764.897 219.112 765.033 218.664 765.305 218.44C765.593 218.2 766.097 218.08 766.817 218.08H776.417C776.641 218.08 776.785 218.048 776.849 217.984C776.913 217.92 776.945 217.768 776.945 217.528V216.16C776.945 215.92 776.913 215.768 776.849 215.704C776.801 215.64 776.665 215.608 776.441 215.608H765.185C765.105 215.608 765.025 215.584 764.945 215.536C764.881 215.488 764.849 215.424 764.849 215.344V214.48C764.849 214.4 764.881 214.336 764.945 214.288C765.025 214.24 765.105 214.216 765.185 214.216H776.705C777.089 214.216 777.401 214.248 777.641 214.312C777.881 214.36 778.073 214.448 778.217 214.576C778.361 214.704 778.457 214.888 778.505 215.128C778.569 215.352 778.601 215.632 778.601 215.968V217.768C778.601 218.44 778.457 218.896 778.169 219.136C777.897 219.36 777.401 219.472 776.681 219.472H767.057C766.833 219.472 766.689 219.504 766.625 219.568C766.577 219.632 766.553 219.784 766.553 220.024V221.488C766.553 221.712 766.585 221.856 766.649 221.92C766.713 222 766.857 222.04 767.081 222.04H778.769C778.849 222.04 778.921 222.064 778.985 222.112C779.065 222.16 779.105 222.224 779.105 222.304V223.144ZM768.113 201.976C768.097 203.096 767.953 204.136 767.681 205.096C767.889 205.624 768.177 206.152 768.545 206.68C768.913 207.208 769.329 207.704 769.793 208.168C770.273 208.632 770.785 209.056 771.329 209.44C771.889 209.808 772.457 210.112 773.033 210.352C773.129 210.384 773.177 210.448 773.177 210.544C773.177 210.624 773.161 210.696 773.129 210.76L772.673 211.576C772.625 211.672 772.553 211.728 772.457 211.744C772.377 211.744 772.289 211.728 772.193 211.696C771.681 211.472 771.169 211.192 770.657 210.856C770.145 210.504 769.649 210.12 769.169 209.704C768.705 209.272 768.273 208.832 767.873 208.384C767.489 207.92 767.169 207.464 766.913 207.016C766.401 207.976 765.729 208.88 764.897 209.728C764.081 210.56 763.073 211.36 761.873 212.128C761.761 212.208 761.665 212.256 761.585 212.272C761.521 212.272 761.449 212.224 761.369 212.128L760.769 211.384C760.641 211.208 760.681 211.048 760.889 210.904C761.881 210.28 762.729 209.64 763.433 208.984C764.137 208.312 764.705 207.616 765.137 206.896C765.585 206.16 765.913 205.384 766.121 204.568C766.329 203.752 766.433 202.88 766.433 201.952C766.433 201.824 766.465 201.728 766.529 201.664C766.593 201.6 766.657 201.568 766.721 201.568L767.849 201.64C768.025 201.64 768.113 201.752 768.113 201.976ZM778.601 212.488C778.601 212.712 778.489 212.824 778.265 212.824H777.281C777.057 212.824 776.945 212.712 776.945 212.488V201.568C776.945 201.344 777.057 201.232 777.281 201.232H778.265C778.489 201.232 778.601 201.344 778.601 201.568V212.488ZM787.468 218.128C787.468 217.456 787.596 217.008 787.852 216.784C788.108 216.544 788.588 216.424 789.292 216.424H799.348C799.732 216.424 800.036 216.448 800.26 216.496C800.5 216.544 800.684 216.632 800.812 216.76C800.956 216.888 801.052 217.064 801.1 217.288C801.148 217.512 801.172 217.792 801.172 218.128V221.464C801.172 222.136 801.044 222.584 800.788 222.808C800.532 223.048 800.052 223.168 799.348 223.168H789.292C788.908 223.168 788.596 223.144 788.356 223.096C788.132 223.048 787.948 222.952 787.804 222.808C787.676 222.68 787.588 222.504 787.54 222.28C787.492 222.072 787.468 221.8 787.468 221.464V218.128ZM795.244 210.952C795.244 211.528 795.116 212.056 794.86 212.536C794.604 213 794.244 213.408 793.78 213.76C793.332 214.112 792.796 214.384 792.172 214.576C791.564 214.768 790.9 214.864 790.18 214.864C789.444 214.864 788.764 214.768 788.14 214.576C787.532 214.384 787.004 214.112 786.556 213.76C786.108 213.408 785.756 212.992 785.5 212.512C785.244 212.032 785.116 211.512 785.116 210.952C785.116 210.376 785.244 209.848 785.5 209.368C785.756 208.888 786.108 208.48 786.556 208.144C787.004 207.808 787.532 207.544 788.14 207.352C788.764 207.16 789.444 207.064 790.18 207.064C790.9 207.064 791.564 207.16 792.172 207.352C792.796 207.544 793.332 207.816 793.78 208.168C794.244 208.504 794.604 208.912 794.86 209.392C795.116 209.872 795.244 210.392 795.244 210.952ZM789.7 217.864C789.476 217.864 789.324 217.912 789.244 218.008C789.164 218.088 789.124 218.248 789.124 218.488V221.104C789.124 221.344 789.164 221.504 789.244 221.584C789.324 221.68 789.476 221.728 789.7 221.728H798.94C799.164 221.728 799.316 221.68 799.396 221.584C799.476 221.504 799.516 221.344 799.516 221.104V218.488C799.516 218.248 799.476 218.088 799.396 218.008C799.316 217.912 799.164 217.864 798.94 217.864H789.7ZM793.66 210.952C793.66 210.568 793.572 210.224 793.396 209.92C793.22 209.6 792.972 209.336 792.652 209.128C792.348 208.904 791.98 208.736 791.548 208.624C791.132 208.496 790.676 208.432 790.18 208.432C789.684 208.432 789.22 208.496 788.788 208.624C788.356 208.736 787.98 208.904 787.66 209.128C787.356 209.336 787.116 209.6 786.94 209.92C786.764 210.224 786.676 210.568 786.676 210.952C786.676 211.336 786.764 211.688 786.94 212.008C787.116 212.312 787.356 212.576 787.66 212.8C787.98 213.024 788.356 213.2 788.788 213.328C789.22 213.44 789.684 213.496 790.18 213.496C790.676 213.496 791.132 213.44 791.548 213.328C791.98 213.2 792.348 213.024 792.652 212.8C792.972 212.576 793.22 212.312 793.396 212.008C793.572 211.688 793.66 211.336 793.66 210.952ZM799.516 208.144V201.568C799.516 201.344 799.628 201.232 799.852 201.232H800.836C801.06 201.232 801.172 201.344 801.172 201.568V214.696C801.172 214.92 801.06 215.032 800.836 215.032H799.852C799.628 215.032 799.516 214.92 799.516 214.696V209.584H796.156C795.948 209.584 795.844 209.488 795.844 209.296V208.432C795.844 208.24 795.948 208.144 796.156 208.144H799.516ZM797.044 205.672C797.044 205.88 796.924 205.984 796.684 205.984H783.916C783.836 205.984 783.756 205.952 783.676 205.888C783.612 205.824 783.58 205.744 783.58 205.648V204.88C783.58 204.784 783.612 204.704 783.676 204.64C783.756 204.576 783.836 204.544 783.916 204.544H796.684C796.924 204.544 797.044 204.648 797.044 204.856V205.672ZM793.66 202.72C793.66 202.944 793.54 203.056 793.3 203.056H786.964C786.884 203.056 786.804 203.032 786.724 202.984C786.66 202.92 786.628 202.84 786.628 202.744V201.928C786.628 201.832 786.66 201.752 786.724 201.688C786.788 201.624 786.86 201.592 786.94 201.592H793.3C793.54 201.592 793.66 201.704 793.66 201.928V202.72ZM827.996 204.328C827.532 204.744 827.012 205.144 826.436 205.528C825.86 205.912 825.236 206.288 824.564 206.656C825.62 206.992 826.724 207.32 827.876 207.64C829.028 207.944 830.116 208.2 831.14 208.408C831.348 208.456 831.42 208.568 831.356 208.744L831.02 209.536C830.94 209.712 830.796 209.776 830.588 209.728C830.06 209.632 829.46 209.504 828.788 209.344C828.132 209.184 827.452 209.008 826.748 208.816C826.06 208.624 825.364 208.424 824.66 208.216C823.956 207.992 823.308 207.776 822.716 207.568C820.444 208.592 817.676 209.488 814.412 210.256C814.268 210.288 814.164 210.28 814.1 210.232C814.036 210.184 813.988 210.112 813.956 210.016L813.74 209.32C813.676 209.096 813.732 208.96 813.908 208.912C815.22 208.608 816.476 208.272 817.676 207.904C818.876 207.52 819.996 207.12 821.036 206.704C822.092 206.272 823.052 205.824 823.916 205.36C824.796 204.896 825.548 204.432 826.172 203.968C826.428 203.776 826.524 203.632 826.46 203.536C826.412 203.424 826.276 203.368 826.052 203.368H815.684C815.476 203.368 815.372 203.264 815.372 203.056V202.216C815.372 202.024 815.476 201.928 815.684 201.928H826.652C827.884 201.928 828.62 202.152 828.86 202.6C829.1 203.032 828.812 203.608 827.996 204.328ZM822.068 218.728C821.988 218.728 821.916 218.696 821.852 218.632C821.788 218.552 821.756 218.464 821.756 218.368V213.52H812.228C812.132 213.52 812.044 213.488 811.964 213.424C811.9 213.36 811.868 213.288 811.868 213.208V212.392C811.868 212.296 811.9 212.224 811.964 212.176C812.044 212.112 812.132 212.08 812.228 212.08H832.628C832.708 212.08 832.788 212.112 832.868 212.176C832.948 212.224 832.988 212.296 832.988 212.392V213.208C832.988 213.288 832.948 213.36 832.868 213.424C832.788 213.488 832.708 213.52 832.628 213.52H823.412V218.368C823.412 218.464 823.38 218.552 823.316 218.632C823.268 218.696 823.196 218.728 823.1 218.728H822.068ZM830.396 222.64C830.396 222.736 830.356 222.808 830.276 222.856C830.196 222.904 830.116 222.928 830.036 222.928H816.812C816.06 222.928 815.564 222.768 815.324 222.448C815.1 222.144 814.988 221.664 814.988 221.008V216.232C814.988 216.008 815.1 215.896 815.324 215.896H816.308C816.532 215.896 816.644 216.008 816.644 216.232V220.984C816.644 221.208 816.676 221.344 816.74 221.392C816.82 221.456 816.972 221.488 817.196 221.488H830.036C830.116 221.488 830.196 221.512 830.276 221.56C830.356 221.624 830.396 221.696 830.396 221.776V222.64ZM853.063 223.024C853.063 223.248 852.951 223.36 852.727 223.36H851.743C851.519 223.36 851.407 223.248 851.407 223.024V201.568C851.407 201.344 851.519 201.232 851.743 201.232H852.727C852.951 201.232 853.063 201.344 853.063 201.568V223.024ZM838.135 217.072C837.751 217.072 837.439 217.048 837.199 217C836.975 216.952 836.799 216.864 836.671 216.736C836.543 216.592 836.455 216.416 836.407 216.208C836.359 215.984 836.335 215.704 836.335 215.368V202.744C836.335 202.664 836.367 202.6 836.431 202.552C836.495 202.488 836.567 202.456 836.647 202.456H837.679C837.759 202.456 837.823 202.488 837.871 202.552C837.935 202.616 837.967 202.68 837.967 202.744V208.312H845.407V202.768C845.407 202.688 845.431 202.616 845.479 202.552C845.543 202.488 845.615 202.456 845.695 202.456H846.727C846.807 202.456 846.879 202.488 846.943 202.552C847.007 202.6 847.039 202.664 847.039 202.744V215.536C847.039 216.144 846.911 216.552 846.655 216.76C846.399 216.968 845.919 217.072 845.215 217.072H838.135ZM837.967 209.728V215.08C837.967 215.32 838.007 215.48 838.087 215.56C838.167 215.624 838.319 215.656 838.543 215.656H844.831C845.055 215.656 845.207 215.624 845.287 215.56C845.367 215.48 845.407 215.32 845.407 215.08V209.728H837.967ZM876.113 223.144C876.113 223.224 876.073 223.288 875.993 223.336C875.929 223.4 875.865 223.432 875.801 223.432H863.729C862.977 223.432 862.481 223.288 862.241 223C862.017 222.728 861.905 222.256 861.905 221.584V219.784C861.905 219.112 862.041 218.664 862.313 218.44C862.601 218.2 863.105 218.08 863.825 218.08H873.425C873.649 218.08 873.793 218.048 873.857 217.984C873.921 217.92 873.953 217.768 873.953 217.528V216.16C873.953 215.92 873.921 215.768 873.857 215.704C873.809 215.64 873.673 215.608 873.449 215.608H862.193C862.113 215.608 862.033 215.584 861.953 215.536C861.889 215.488 861.857 215.424 861.857 215.344V214.48C861.857 214.4 861.889 214.336 861.953 214.288C862.033 214.24 862.113 214.216 862.193 214.216H873.713C874.097 214.216 874.409 214.248 874.649 214.312C874.889 214.36 875.081 214.448 875.225 214.576C875.369 214.704 875.465 214.888 875.513 215.128C875.577 215.352 875.609 215.632 875.609 215.968V217.768C875.609 218.44 875.465 218.896 875.177 219.136C874.905 219.36 874.409 219.472 873.689 219.472H864.065C863.841 219.472 863.697 219.504 863.633 219.568C863.585 219.632 863.561 219.784 863.561 220.024V221.488C863.561 221.712 863.593 221.856 863.657 221.92C863.721 222 863.865 222.04 864.089 222.04H875.777C875.857 222.04 875.929 222.064 875.993 222.112C876.073 222.16 876.113 222.224 876.113 222.304V223.144ZM865.121 201.976C865.105 203.096 864.961 204.136 864.689 205.096C864.897 205.624 865.185 206.152 865.553 206.68C865.921 207.208 866.337 207.704 866.801 208.168C867.281 208.632 867.793 209.056 868.337 209.44C868.897 209.808 869.465 210.112 870.041 210.352C870.137 210.384 870.185 210.448 870.185 210.544C870.185 210.624 870.169 210.696 870.137 210.76L869.681 211.576C869.633 211.672 869.561 211.728 869.465 211.744C869.385 211.744 869.297 211.728 869.201 211.696C868.689 211.472 868.177 211.192 867.665 210.856C867.153 210.504 866.657 210.12 866.177 209.704C865.713 209.272 865.281 208.832 864.881 208.384C864.497 207.92 864.177 207.464 863.921 207.016C863.409 207.976 862.737 208.88 861.905 209.728C861.089 210.56 860.081 211.36 858.881 212.128C858.769 212.208 858.673 212.256 858.593 212.272C858.529 212.272 858.457 212.224 858.377 212.128L857.777 211.384C857.649 211.208 857.689 211.048 857.897 210.904C858.889 210.28 859.737 209.64 860.441 208.984C861.145 208.312 861.713 207.616 862.145 206.896C862.593 206.16 862.921 205.384 863.129 204.568C863.337 203.752 863.441 202.88 863.441 201.952C863.441 201.824 863.473 201.728 863.537 201.664C863.601 201.6 863.665 201.568 863.729 201.568L864.857 201.64C865.033 201.64 865.121 201.752 865.121 201.976ZM875.609 212.488C875.609 212.712 875.497 212.824 875.273 212.824H874.289C874.065 212.824 873.953 212.712 873.953 212.488V201.568C873.953 201.344 874.065 201.232 874.289 201.232H875.273C875.497 201.232 875.609 201.344 875.609 201.568V212.488Z" fill="black"/>
<line x1="185" y1="304.5" x2="298" y2="304.5" stroke="black"/>
<line x1="185" y1="308.5" x2="298" y2="308.5" stroke="black"/>
<line x1="241.5" y1="304" x2="241.5" y2="308" stroke="black"/>
</svg>
