<svg width="990" height="612" viewBox="0 0 990 612" fill="none" xmlns="http://www.w3.org/2000/svg">
<line x1="990" y1="4" y2="4" stroke="black" stroke-width="8"/>
<line x1="4" x2="4" y2="612" stroke="black" stroke-width="8"/>
<line x1="386" y1="608" y2="608" stroke="black" stroke-width="8"/>
<line x1="382" y1="604" x2="382" y2="306" stroke="black" stroke-width="8"/>
<line y1="306" x2="185" y2="306" stroke="black" stroke-width="8"/>
<line x1="515" y1="306" x2="685" y2="306" stroke="black" stroke-width="8"/>
<line x1="298" y1="306" x2="402" y2="306" stroke="black" stroke-width="8"/>
<line x1="798" y1="306" x2="990" y2="306" stroke="black" stroke-width="8"/>
<line x1="609" y1="218" x2="609" y2="1.60582e-08" stroke="black" stroke-width="8"/>
<line x1="987" y1="117" x2="726" y2="117" stroke="black" stroke-width="8"/>
<line x1="986" y1="218" x2="986" y2="1.60582e-08" stroke="black" stroke-width="8"/>
<line x1="609" y1="310" x2="609" y2="274" stroke="black" stroke-width="8"/>
<line x1="986" y1="310" x2="986" y2="274" stroke="black" stroke-width="8"/>
<line x1="516" y1="304.5" x2="402" y2="304.5" stroke="black"/>
<line x1="516" y1="309.5" x2="402" y2="309.5" stroke="black"/>
<line x1="459" y1="304" x2="459" y2="309" stroke="black" stroke-width="2"/>
<mask id="path-17-inside-1_18_447" fill="white">
<path d="M610 218C625.117 218 639.616 224.005 650.305 234.695C660.995 245.384 667 259.883 667 275L610 275L610 218Z"/>
</mask>
<path d="M610 218C625.117 218 639.616 224.005 650.305 234.695C660.995 245.384 667 259.883 667 275L610 275L610 218Z" stroke="black" stroke-width="2" mask="url(#path-17-inside-1_18_447)"/>
<line x1="799" y1="304.5" x2="685" y2="304.5" stroke="black"/>
<line x1="797" y1="308.5" x2="683" y2="308.5" stroke="black"/>
<line x1="607.5" y1="275" x2="607.5" y2="218" stroke="black"/>
<line x1="984.5" y1="275" x2="984.5" y2="218" stroke="black"/>
<line x1="986.5" y1="275" x2="986.5" y2="218" stroke="black"/>
<line x1="611" y1="218.5" x2="607" y2="218.5" stroke="black"/>
<line x1="611" y1="274.5" x2="608" y2="274.5" stroke="black"/>
<path d="M254.25 154.336C254.25 154.88 254.138 155.376 253.914 155.824C253.706 156.272 253.41 156.664 253.026 157C252.642 157.336 252.178 157.616 251.634 157.84C251.106 158.048 250.522 158.184 249.882 158.248V160.744C250.426 160.712 250.994 160.672 251.586 160.624C252.178 160.56 252.754 160.496 253.314 160.432C253.89 160.352 254.442 160.272 254.97 160.192C255.498 160.112 255.978 160.032 256.41 159.952C256.666 159.904 256.802 159.96 256.818 160.12L256.962 161.032C256.994 161.224 256.89 161.336 256.65 161.368C255.578 161.544 254.402 161.704 253.122 161.848C251.842 161.992 250.554 162.104 249.258 162.184C248.794 162.216 248.25 162.24 247.626 162.256C247.002 162.272 246.362 162.288 245.706 162.304C245.066 162.304 244.434 162.304 243.81 162.304C243.202 162.304 242.674 162.296 242.226 162.28C242.13 162.28 242.042 162.248 241.962 162.184C241.898 162.12 241.866 162.048 241.866 161.968V161.152C241.866 161.056 241.898 160.984 241.962 160.936C242.042 160.872 242.13 160.84 242.226 160.84C242.578 160.856 242.994 160.872 243.474 160.888C243.97 160.888 244.482 160.888 245.01 160.888C245.554 160.872 246.098 160.864 246.642 160.864C247.202 160.848 247.73 160.832 248.226 160.816V158.272C247.57 158.208 246.97 158.072 246.426 157.864C245.898 157.64 245.442 157.36 245.058 157.024C244.674 156.672 244.37 156.272 244.146 155.824C243.938 155.36 243.834 154.864 243.834 154.336C243.834 153.744 243.962 153.208 244.218 152.728C244.49 152.232 244.858 151.816 245.322 151.48C245.786 151.128 246.33 150.864 246.954 150.688C247.594 150.496 248.29 150.4 249.042 150.4C249.778 150.4 250.466 150.496 251.106 150.688C251.746 150.88 252.298 151.152 252.762 151.504C253.226 151.84 253.586 152.248 253.842 152.728C254.114 153.208 254.25 153.744 254.25 154.336ZM259.554 166.024C259.554 166.248 259.442 166.36 259.218 166.36H258.234C258.01 166.36 257.898 166.248 257.898 166.024V144.568C257.898 144.344 258.01 144.232 258.234 144.232H259.218C259.442 144.232 259.554 144.344 259.554 144.568V153.952H262.866C262.962 153.952 263.042 153.984 263.106 154.048C263.186 154.096 263.226 154.168 263.226 154.264V155.08C263.226 155.16 263.186 155.232 263.106 155.296C263.042 155.36 262.962 155.392 262.866 155.392H259.554V166.024ZM252.618 154.336C252.618 153.52 252.282 152.896 251.61 152.464C250.938 152.032 250.082 151.816 249.042 151.816C248.53 151.816 248.05 151.872 247.602 151.984C247.17 152.096 246.794 152.256 246.474 152.464C246.154 152.672 245.898 152.936 245.706 153.256C245.53 153.576 245.442 153.936 245.442 154.336C245.442 154.736 245.53 155.096 245.706 155.416C245.898 155.72 246.154 155.984 246.474 156.208C246.794 156.416 247.17 156.584 247.602 156.712C248.05 156.824 248.53 156.88 249.042 156.88C250.082 156.88 250.938 156.656 251.61 156.208C252.282 155.76 252.618 155.136 252.618 154.336ZM255.786 148.84C255.786 149.048 255.666 149.152 255.426 149.152H242.658C242.578 149.152 242.498 149.12 242.418 149.056C242.354 148.992 242.322 148.912 242.322 148.816V148.024C242.322 147.928 242.354 147.848 242.418 147.784C242.498 147.72 242.578 147.688 242.658 147.688H255.426C255.666 147.688 255.786 147.792 255.786 148V148.84ZM252.402 145.816C252.402 146.04 252.282 146.152 252.042 146.152H245.706C245.626 146.152 245.546 146.128 245.466 146.08C245.402 146.016 245.37 145.936 245.37 145.84V145.024C245.37 144.928 245.402 144.848 245.466 144.784C245.53 144.72 245.602 144.688 245.682 144.688H252.042C252.282 144.688 252.402 144.8 252.402 145.024V145.816ZM276.893 154.072C276.893 154.648 276.757 155.176 276.485 155.656C276.229 156.12 275.869 156.528 275.405 156.88C274.957 157.232 274.413 157.504 273.773 157.696C273.149 157.888 272.469 157.984 271.733 157.984C270.981 157.984 270.293 157.888 269.669 157.696C269.045 157.504 268.501 157.232 268.037 156.88C267.573 156.528 267.213 156.112 266.957 155.632C266.701 155.152 266.573 154.632 266.573 154.072C266.573 153.496 266.701 152.968 266.957 152.488C267.213 152.008 267.573 151.6 268.037 151.264C268.501 150.928 269.045 150.664 269.669 150.472C270.293 150.28 270.981 150.184 271.733 150.184C272.469 150.184 273.149 150.28 273.773 150.472C274.413 150.664 274.957 150.936 275.405 151.288C275.869 151.624 276.229 152.032 276.485 152.512C276.757 152.992 276.893 153.512 276.893 154.072ZM275.285 154.072C275.285 153.688 275.197 153.344 275.021 153.04C274.845 152.72 274.597 152.456 274.277 152.248C273.957 152.024 273.581 151.856 273.149 151.744C272.717 151.616 272.245 151.552 271.733 151.552C271.221 151.552 270.749 151.616 270.317 151.744C269.885 151.856 269.509 152.024 269.189 152.248C268.869 152.456 268.613 152.72 268.421 153.04C268.245 153.344 268.157 153.688 268.157 154.072C268.157 154.456 268.245 154.808 268.421 155.128C268.613 155.432 268.869 155.696 269.189 155.92C269.509 156.144 269.885 156.32 270.317 156.448C270.749 156.56 271.221 156.616 271.733 156.616C272.245 156.616 272.717 156.56 273.149 156.448C273.581 156.32 273.957 156.144 274.277 155.92C274.597 155.696 274.845 155.432 275.021 155.128C275.197 154.808 275.285 154.456 275.285 154.072ZM268.133 159.832C268.133 159.736 268.173 159.664 268.253 159.616C268.333 159.568 268.413 159.544 268.493 159.544H280.301C281.053 159.544 281.541 159.688 281.765 159.976C282.005 160.248 282.125 160.712 282.125 161.368V166.12C282.125 166.344 282.013 166.456 281.789 166.456H280.805C280.581 166.456 280.469 166.344 280.469 166.12V161.488C280.469 161.264 280.429 161.128 280.349 161.08C280.285 161.016 280.141 160.984 279.917 160.984H268.493C268.413 160.984 268.333 160.96 268.253 160.912C268.173 160.848 268.133 160.776 268.133 160.696V159.832ZM282.125 158.032C282.125 158.256 282.013 158.368 281.789 158.368H280.805C280.581 158.368 280.469 158.256 280.469 158.032V144.568C280.469 144.344 280.581 144.232 280.805 144.232H281.789C282.013 144.232 282.125 144.344 282.125 144.568V151.096H285.437C285.533 151.096 285.613 151.128 285.677 151.192C285.757 151.24 285.797 151.312 285.797 151.408V152.176C285.797 152.256 285.757 152.328 285.677 152.392C285.613 152.456 285.533 152.488 285.437 152.488H282.125V158.032ZM278.741 148.792C278.741 149 278.621 149.104 278.381 149.104H265.133C265.053 149.104 264.973 149.072 264.893 149.008C264.829 148.944 264.797 148.864 264.797 148.768V148C264.797 147.904 264.829 147.824 264.893 147.76C264.973 147.696 265.053 147.664 265.133 147.664H278.381C278.621 147.664 278.741 147.768 278.741 147.976V148.792ZM275.237 145.84C275.237 146.064 275.117 146.176 274.877 146.176H268.301C268.221 146.176 268.141 146.152 268.061 146.104C267.997 146.04 267.965 145.96 267.965 145.864V145.048C267.965 144.952 267.997 144.872 268.061 144.808C268.125 144.744 268.197 144.712 268.277 144.712H274.877C275.117 144.712 275.237 144.824 275.237 145.048V145.84ZM306.039 166.144C306.039 166.224 305.999 166.288 305.919 166.336C305.855 166.4 305.791 166.432 305.727 166.432H293.655C292.903 166.432 292.407 166.288 292.167 166C291.943 165.728 291.831 165.256 291.831 164.584V162.784C291.831 162.112 291.967 161.664 292.239 161.44C292.527 161.2 293.031 161.08 293.751 161.08H303.351C303.575 161.08 303.719 161.048 303.783 160.984C303.847 160.92 303.879 160.768 303.879 160.528V159.16C303.879 158.92 303.847 158.768 303.783 158.704C303.735 158.64 303.599 158.608 303.375 158.608H292.119C292.039 158.608 291.959 158.584 291.879 158.536C291.815 158.488 291.783 158.424 291.783 158.344V157.48C291.783 157.4 291.815 157.336 291.879 157.288C291.959 157.24 292.039 157.216 292.119 157.216H303.639C304.023 157.216 304.335 157.248 304.575 157.312C304.815 157.36 305.007 157.448 305.151 157.576C305.295 157.704 305.391 157.888 305.439 158.128C305.503 158.352 305.535 158.632 305.535 158.968V160.768C305.535 161.44 305.391 161.896 305.103 162.136C304.831 162.36 304.335 162.472 303.615 162.472H293.991C293.767 162.472 293.623 162.504 293.559 162.568C293.511 162.632 293.487 162.784 293.487 163.024V164.488C293.487 164.712 293.519 164.856 293.583 164.92C293.647 165 293.791 165.04 294.015 165.04H305.703C305.783 165.04 305.855 165.064 305.919 165.112C305.999 165.16 306.039 165.224 306.039 165.304V166.144ZM295.047 144.976C295.031 146.096 294.887 147.136 294.615 148.096C294.823 148.624 295.111 149.152 295.479 149.68C295.847 150.208 296.263 150.704 296.727 151.168C297.207 151.632 297.719 152.056 298.263 152.44C298.823 152.808 299.391 153.112 299.967 153.352C300.063 153.384 300.111 153.448 300.111 153.544C300.111 153.624 300.095 153.696 300.063 153.76L299.607 154.576C299.559 154.672 299.487 154.728 299.391 154.744C299.311 154.744 299.223 154.728 299.127 154.696C298.615 154.472 298.103 154.192 297.591 153.856C297.079 153.504 296.583 153.12 296.103 152.704C295.639 152.272 295.207 151.832 294.807 151.384C294.423 150.92 294.103 150.464 293.847 150.016C293.335 150.976 292.663 151.88 291.831 152.728C291.015 153.56 290.007 154.36 288.807 155.128C288.695 155.208 288.599 155.256 288.519 155.272C288.455 155.272 288.383 155.224 288.303 155.128L287.703 154.384C287.575 154.208 287.615 154.048 287.823 153.904C288.815 153.28 289.663 152.64 290.367 151.984C291.071 151.312 291.639 150.616 292.071 149.896C292.519 149.16 292.847 148.384 293.055 147.568C293.263 146.752 293.367 145.88 293.367 144.952C293.367 144.824 293.399 144.728 293.463 144.664C293.527 144.6 293.591 144.568 293.655 144.568L294.783 144.64C294.959 144.64 295.047 144.752 295.047 144.976ZM305.535 155.488C305.535 155.712 305.423 155.824 305.199 155.824H304.215C303.991 155.824 303.879 155.712 303.879 155.488V144.568C303.879 144.344 303.991 144.232 304.215 144.232H305.199C305.423 144.232 305.535 144.344 305.535 144.568V155.488ZM314.401 161.128C314.401 160.456 314.529 160.008 314.785 159.784C315.041 159.544 315.521 159.424 316.225 159.424H326.281C326.665 159.424 326.969 159.448 327.193 159.496C327.433 159.544 327.617 159.632 327.745 159.76C327.889 159.888 327.985 160.064 328.033 160.288C328.081 160.512 328.105 160.792 328.105 161.128V164.464C328.105 165.136 327.977 165.584 327.721 165.808C327.465 166.048 326.985 166.168 326.281 166.168H316.225C315.841 166.168 315.529 166.144 315.289 166.096C315.065 166.048 314.881 165.952 314.737 165.808C314.609 165.68 314.521 165.504 314.473 165.28C314.425 165.072 314.401 164.8 314.401 164.464V161.128ZM322.177 153.952C322.177 154.528 322.049 155.056 321.793 155.536C321.537 156 321.177 156.408 320.713 156.76C320.265 157.112 319.729 157.384 319.105 157.576C318.497 157.768 317.833 157.864 317.113 157.864C316.377 157.864 315.697 157.768 315.073 157.576C314.465 157.384 313.937 157.112 313.489 156.76C313.041 156.408 312.689 155.992 312.433 155.512C312.177 155.032 312.049 154.512 312.049 153.952C312.049 153.376 312.177 152.848 312.433 152.368C312.689 151.888 313.041 151.48 313.489 151.144C313.937 150.808 314.465 150.544 315.073 150.352C315.697 150.16 316.377 150.064 317.113 150.064C317.833 150.064 318.497 150.16 319.105 150.352C319.729 150.544 320.265 150.816 320.713 151.168C321.177 151.504 321.537 151.912 321.793 152.392C322.049 152.872 322.177 153.392 322.177 153.952ZM316.633 160.864C316.409 160.864 316.257 160.912 316.177 161.008C316.097 161.088 316.057 161.248 316.057 161.488V164.104C316.057 164.344 316.097 164.504 316.177 164.584C316.257 164.68 316.409 164.728 316.633 164.728H325.873C326.097 164.728 326.249 164.68 326.329 164.584C326.409 164.504 326.449 164.344 326.449 164.104V161.488C326.449 161.248 326.409 161.088 326.329 161.008C326.249 160.912 326.097 160.864 325.873 160.864H316.633ZM320.593 153.952C320.593 153.568 320.505 153.224 320.329 152.92C320.153 152.6 319.905 152.336 319.585 152.128C319.281 151.904 318.913 151.736 318.481 151.624C318.065 151.496 317.609 151.432 317.113 151.432C316.617 151.432 316.153 151.496 315.721 151.624C315.289 151.736 314.913 151.904 314.593 152.128C314.289 152.336 314.049 152.6 313.873 152.92C313.697 153.224 313.609 153.568 313.609 153.952C313.609 154.336 313.697 154.688 313.873 155.008C314.049 155.312 314.289 155.576 314.593 155.8C314.913 156.024 315.289 156.2 315.721 156.328C316.153 156.44 316.617 156.496 317.113 156.496C317.609 156.496 318.065 156.44 318.481 156.328C318.913 156.2 319.281 156.024 319.585 155.8C319.905 155.576 320.153 155.312 320.329 155.008C320.505 154.688 320.593 154.336 320.593 153.952ZM326.449 151.144V144.568C326.449 144.344 326.561 144.232 326.785 144.232H327.769C327.993 144.232 328.105 144.344 328.105 144.568V157.696C328.105 157.92 327.993 158.032 327.769 158.032H326.785C326.561 158.032 326.449 157.92 326.449 157.696V152.584H323.089C322.881 152.584 322.777 152.488 322.777 152.296V151.432C322.777 151.24 322.881 151.144 323.089 151.144H326.449ZM323.977 148.672C323.977 148.88 323.857 148.984 323.617 148.984H310.849C310.769 148.984 310.689 148.952 310.609 148.888C310.545 148.824 310.513 148.744 310.513 148.648V147.88C310.513 147.784 310.545 147.704 310.609 147.64C310.689 147.576 310.769 147.544 310.849 147.544H323.617C323.857 147.544 323.977 147.648 323.977 147.856V148.672ZM320.593 145.72C320.593 145.944 320.473 146.056 320.233 146.056H313.897C313.817 146.056 313.737 146.032 313.657 145.984C313.593 145.92 313.561 145.84 313.561 145.744V144.928C313.561 144.832 313.593 144.752 313.657 144.688C313.721 144.624 313.793 144.592 313.873 144.592H320.233C320.473 144.592 320.593 144.704 320.593 144.928V145.72ZM351.179 166.144C351.179 166.224 351.139 166.288 351.059 166.336C350.995 166.4 350.931 166.432 350.867 166.432H338.795C338.043 166.432 337.547 166.288 337.307 166C337.083 165.728 336.971 165.256 336.971 164.584V162.784C336.971 162.112 337.107 161.664 337.379 161.44C337.667 161.2 338.171 161.08 338.891 161.08H348.491C348.715 161.08 348.859 161.048 348.923 160.984C348.987 160.92 349.019 160.768 349.019 160.528V159.16C349.019 158.92 348.987 158.768 348.923 158.704C348.875 158.64 348.739 158.608 348.515 158.608H337.259C337.179 158.608 337.099 158.584 337.019 158.536C336.955 158.488 336.923 158.424 336.923 158.344V157.48C336.923 157.4 336.955 157.336 337.019 157.288C337.099 157.24 337.179 157.216 337.259 157.216H348.779C349.163 157.216 349.475 157.248 349.715 157.312C349.955 157.36 350.147 157.448 350.291 157.576C350.435 157.704 350.531 157.888 350.579 158.128C350.643 158.352 350.675 158.632 350.675 158.968V160.768C350.675 161.44 350.531 161.896 350.243 162.136C349.971 162.36 349.475 162.472 348.755 162.472H339.131C338.907 162.472 338.763 162.504 338.699 162.568C338.651 162.632 338.627 162.784 338.627 163.024V164.488C338.627 164.712 338.659 164.856 338.723 164.92C338.787 165 338.931 165.04 339.155 165.04H350.843C350.923 165.04 350.995 165.064 351.059 165.112C351.139 165.16 351.179 165.224 351.179 165.304V166.144ZM340.187 144.976C340.171 146.096 340.027 147.136 339.755 148.096C339.963 148.624 340.251 149.152 340.619 149.68C340.987 150.208 341.403 150.704 341.867 151.168C342.347 151.632 342.859 152.056 343.403 152.44C343.963 152.808 344.531 153.112 345.107 153.352C345.203 153.384 345.251 153.448 345.251 153.544C345.251 153.624 345.235 153.696 345.203 153.76L344.747 154.576C344.699 154.672 344.627 154.728 344.531 154.744C344.451 154.744 344.363 154.728 344.267 154.696C343.755 154.472 343.243 154.192 342.731 153.856C342.219 153.504 341.723 153.12 341.243 152.704C340.779 152.272 340.347 151.832 339.947 151.384C339.563 150.92 339.243 150.464 338.987 150.016C338.475 150.976 337.803 151.88 336.971 152.728C336.155 153.56 335.147 154.36 333.947 155.128C333.835 155.208 333.739 155.256 333.659 155.272C333.595 155.272 333.523 155.224 333.443 155.128L332.843 154.384C332.715 154.208 332.755 154.048 332.963 153.904C333.955 153.28 334.803 152.64 335.507 151.984C336.211 151.312 336.779 150.616 337.211 149.896C337.659 149.16 337.987 148.384 338.195 147.568C338.403 146.752 338.507 145.88 338.507 144.952C338.507 144.824 338.539 144.728 338.603 144.664C338.667 144.6 338.731 144.568 338.795 144.568L339.923 144.64C340.099 144.64 340.187 144.752 340.187 144.976ZM350.675 155.488C350.675 155.712 350.563 155.824 350.339 155.824H349.355C349.131 155.824 349.019 155.712 349.019 155.488V144.568C349.019 144.344 349.131 144.232 349.355 144.232H350.339C350.563 144.232 350.675 144.344 350.675 144.568V155.488Z" fill="black"/>
<path d="M130.905 463.928C130.905 463.256 131.033 462.808 131.289 462.584C131.545 462.344 132.025 462.224 132.729 462.224H142.785C143.169 462.224 143.473 462.248 143.697 462.296C143.937 462.344 144.121 462.432 144.249 462.56C144.393 462.688 144.489 462.864 144.537 463.088C144.585 463.312 144.609 463.592 144.609 463.928V468.464C144.609 469.136 144.481 469.584 144.225 469.808C143.969 470.048 143.489 470.168 142.785 470.168H132.729C132.345 470.168 132.033 470.144 131.793 470.096C131.569 470.048 131.385 469.952 131.241 469.808C131.113 469.68 131.025 469.504 130.977 469.28C130.929 469.072 130.905 468.8 130.905 468.464V463.928ZM133.137 463.664C132.913 463.664 132.761 463.712 132.681 463.808C132.601 463.888 132.561 464.048 132.561 464.288V468.104C132.561 468.344 132.601 468.504 132.681 468.584C132.761 468.68 132.913 468.728 133.137 468.728H142.377C142.601 468.728 142.753 468.68 142.833 468.584C142.913 468.504 142.953 468.344 142.953 468.104V464.288C142.953 464.048 142.913 463.888 142.833 463.808C142.753 463.712 142.601 463.664 142.377 463.664H133.137ZM134.073 449.096C134.073 450.264 133.953 451.352 133.713 452.36C133.905 453.032 134.169 453.672 134.505 454.28C134.857 454.888 135.265 455.456 135.729 455.984C136.193 456.512 136.697 456.992 137.241 457.424C137.801 457.84 138.385 458.192 138.993 458.48C139.089 458.528 139.129 458.6 139.113 458.696C139.113 458.776 139.097 458.848 139.065 458.912L138.561 459.704C138.513 459.784 138.457 459.84 138.393 459.872C138.329 459.904 138.225 459.88 138.081 459.8C137.713 459.608 137.289 459.352 136.809 459.032C136.345 458.696 135.873 458.304 135.393 457.856C134.913 457.408 134.457 456.92 134.025 456.392C133.593 455.848 133.233 455.288 132.945 454.712C132.417 455.928 131.705 457.032 130.809 458.024C129.913 459.016 128.865 459.904 127.665 460.688C127.585 460.736 127.497 460.768 127.401 460.784C127.305 460.8 127.225 460.768 127.161 460.688L126.561 459.896C126.529 459.832 126.521 459.752 126.537 459.656C126.569 459.56 126.625 459.488 126.705 459.44C128.609 458.272 130.041 456.8 131.001 455.024C131.961 453.248 132.425 451.264 132.393 449.072C132.393 448.816 132.489 448.688 132.681 448.688L133.809 448.76C133.985 448.76 134.073 448.872 134.073 449.096ZM144.609 460.52C144.609 460.744 144.497 460.856 144.273 460.856H143.289C143.065 460.856 142.953 460.744 142.953 460.52V448.568C142.953 448.344 143.065 448.232 143.289 448.232H144.273C144.497 448.232 144.609 448.344 144.609 448.568V460.52ZM161.035 458.336C161.035 458.88 160.923 459.376 160.699 459.824C160.491 460.272 160.195 460.664 159.811 461C159.427 461.336 158.963 461.616 158.419 461.84C157.891 462.048 157.307 462.184 156.667 462.248V464.744C157.211 464.712 157.779 464.672 158.371 464.624C158.963 464.56 159.539 464.496 160.099 464.432C160.675 464.352 161.227 464.272 161.755 464.192C162.283 464.112 162.763 464.032 163.195 463.952C163.451 463.904 163.587 463.96 163.603 464.12L163.747 465.032C163.779 465.224 163.675 465.336 163.435 465.368C162.363 465.544 161.187 465.704 159.907 465.848C158.627 465.992 157.339 466.104 156.043 466.184C155.579 466.216 155.035 466.24 154.411 466.256C153.787 466.272 153.147 466.288 152.491 466.304C151.851 466.304 151.219 466.304 150.595 466.304C149.987 466.304 149.459 466.296 149.011 466.28C148.915 466.28 148.827 466.248 148.747 466.184C148.683 466.12 148.651 466.048 148.651 465.968V465.152C148.651 465.056 148.683 464.984 148.747 464.936C148.827 464.872 148.915 464.84 149.011 464.84C149.363 464.856 149.779 464.872 150.259 464.888C150.755 464.888 151.267 464.888 151.795 464.888C152.339 464.872 152.883 464.864 153.427 464.864C153.987 464.848 154.515 464.832 155.011 464.816V462.272C154.355 462.208 153.755 462.072 153.211 461.864C152.683 461.64 152.227 461.36 151.843 461.024C151.459 460.672 151.155 460.272 150.931 459.824C150.723 459.36 150.619 458.864 150.619 458.336C150.619 457.744 150.747 457.208 151.003 456.728C151.275 456.232 151.643 455.816 152.107 455.48C152.571 455.128 153.115 454.864 153.739 454.688C154.379 454.496 155.075 454.4 155.827 454.4C156.563 454.4 157.251 454.496 157.891 454.688C158.531 454.88 159.083 455.152 159.547 455.504C160.011 455.84 160.371 456.248 160.627 456.728C160.899 457.208 161.035 457.744 161.035 458.336ZM166.339 470.024C166.339 470.248 166.227 470.36 166.003 470.36H165.019C164.795 470.36 164.683 470.248 164.683 470.024V448.568C164.683 448.344 164.795 448.232 165.019 448.232H166.003C166.227 448.232 166.339 448.344 166.339 448.568V457.952H169.651C169.747 457.952 169.827 457.984 169.891 458.048C169.971 458.096 170.011 458.168 170.011 458.264V459.08C170.011 459.16 169.971 459.232 169.891 459.296C169.827 459.36 169.747 459.392 169.651 459.392H166.339V470.024ZM159.403 458.336C159.403 457.52 159.067 456.896 158.395 456.464C157.723 456.032 156.867 455.816 155.827 455.816C155.315 455.816 154.835 455.872 154.387 455.984C153.955 456.096 153.579 456.256 153.259 456.464C152.939 456.672 152.683 456.936 152.491 457.256C152.315 457.576 152.227 457.936 152.227 458.336C152.227 458.736 152.315 459.096 152.491 459.416C152.683 459.72 152.939 459.984 153.259 460.208C153.579 460.416 153.955 460.584 154.387 460.712C154.835 460.824 155.315 460.88 155.827 460.88C156.867 460.88 157.723 460.656 158.395 460.208C159.067 459.76 159.403 459.136 159.403 458.336ZM162.571 452.84C162.571 453.048 162.451 453.152 162.211 453.152H149.443C149.363 453.152 149.283 453.12 149.203 453.056C149.139 452.992 149.107 452.912 149.107 452.816V452.024C149.107 451.928 149.139 451.848 149.203 451.784C149.283 451.72 149.363 451.688 149.443 451.688H162.211C162.451 451.688 162.571 451.792 162.571 452V452.84ZM159.187 449.816C159.187 450.04 159.067 450.152 158.827 450.152H152.491C152.411 450.152 152.331 450.128 152.251 450.08C152.187 450.016 152.155 449.936 152.155 449.84V449.024C152.155 448.928 152.187 448.848 152.251 448.784C152.315 448.72 152.387 448.688 152.467 448.688H158.827C159.067 448.688 159.187 448.8 159.187 449.024V449.816ZM189.75 470.024C189.75 470.248 189.638 470.36 189.414 470.36H188.43C188.206 470.36 188.094 470.248 188.094 470.024V448.568C188.094 448.344 188.206 448.232 188.43 448.232H189.414C189.638 448.232 189.75 448.344 189.75 448.568V470.024ZM183.318 451.76C183.238 453.136 182.966 454.488 182.502 455.816C182.038 457.144 181.39 458.416 180.558 459.632C179.742 460.832 178.75 461.952 177.582 462.992C176.43 464.016 175.118 464.92 173.646 465.704C173.438 465.816 173.286 465.792 173.19 465.632L172.662 464.792C172.55 464.6 172.582 464.464 172.758 464.384C174.118 463.68 175.318 462.88 176.358 461.984C177.414 461.072 178.31 460.088 179.046 459.032C179.798 457.976 180.39 456.864 180.822 455.696C181.254 454.528 181.526 453.328 181.638 452.096C181.67 451.856 181.638 451.696 181.542 451.616C181.446 451.52 181.286 451.472 181.062 451.472H173.43C173.238 451.472 173.142 451.368 173.142 451.16V450.32C173.142 450.128 173.238 450.032 173.43 450.032H181.518C182.27 450.032 182.766 450.176 183.006 450.464C183.246 450.736 183.35 451.168 183.318 451.76ZM206.776 463.784C206.728 463.864 206.664 463.912 206.584 463.928C206.52 463.944 206.424 463.904 206.296 463.808C205.912 463.52 205.504 463.192 205.072 462.824C204.64 462.44 204.216 462.04 203.8 461.624C203.384 461.192 202.976 460.752 202.576 460.304C202.176 459.84 201.808 459.384 201.472 458.936C200.672 459.944 199.76 460.912 198.736 461.84C197.712 462.752 196.544 463.664 195.232 464.576C195.152 464.624 195.072 464.664 194.992 464.696C194.912 464.712 194.848 464.688 194.8 464.624L194.224 463.88C194.16 463.8 194.136 463.72 194.152 463.64C194.168 463.544 194.208 463.472 194.272 463.424C196.832 461.616 198.824 459.784 200.248 457.928C201.688 456.072 202.688 454.136 203.248 452.12C203.312 451.896 203.312 451.736 203.248 451.64C203.2 451.528 203.064 451.472 202.84 451.472H195.568C195.376 451.472 195.28 451.368 195.28 451.16V450.32C195.28 450.128 195.392 450.032 195.616 450.032H203.488C204.32 450.032 204.848 450.176 205.072 450.464C205.296 450.752 205.296 451.264 205.072 452C204.448 454.048 203.568 455.928 202.432 457.64C202.8 458.152 203.192 458.656 203.608 459.152C204.024 459.648 204.44 460.12 204.856 460.568C205.272 461 205.688 461.4 206.104 461.768C206.52 462.12 206.912 462.416 207.28 462.656C207.36 462.72 207.4 462.792 207.4 462.872C207.4 462.952 207.376 463.024 207.328 463.088L206.776 463.784ZM211.48 470.024C211.48 470.248 211.368 470.36 211.144 470.36H210.16C209.936 470.36 209.824 470.248 209.824 470.024V448.568C209.824 448.344 209.936 448.232 210.16 448.232H211.144C211.368 448.232 211.48 448.344 211.48 448.568V457.304H214.792C214.888 457.304 214.968 457.336 215.032 457.4C215.112 457.448 215.152 457.52 215.152 457.616V458.432C215.152 458.512 215.112 458.584 215.032 458.648C214.968 458.712 214.888 458.744 214.792 458.744H211.48V470.024ZM226.13 452.096C225.89 453.024 225.594 453.936 225.242 454.832C224.89 455.712 224.482 456.584 224.018 457.448C224.258 457.928 224.538 458.424 224.858 458.936C225.194 459.432 225.554 459.92 225.938 460.4C226.322 460.88 226.714 461.336 227.114 461.768C227.53 462.184 227.938 462.552 228.338 462.872C228.418 462.952 228.45 463.032 228.434 463.112C228.434 463.192 228.402 463.264 228.338 463.328L227.762 463.976C227.698 464.04 227.634 464.08 227.57 464.096C227.506 464.112 227.41 464.064 227.282 463.952C226.93 463.648 226.562 463.296 226.178 462.896C225.794 462.496 225.418 462.072 225.05 461.624C224.682 461.176 224.33 460.728 223.994 460.28C223.658 459.816 223.362 459.368 223.106 458.936C222.386 460.04 221.562 461.088 220.634 462.08C219.706 463.072 218.69 463.984 217.586 464.816C217.506 464.864 217.418 464.904 217.322 464.936C217.242 464.952 217.178 464.928 217.13 464.864L216.506 464.12C216.442 464.04 216.418 463.96 216.434 463.88C216.466 463.8 216.522 463.736 216.602 463.688C218.602 462.12 220.234 460.408 221.498 458.552C222.762 456.696 223.698 454.584 224.306 452.216C224.37 451.992 224.37 451.832 224.306 451.736C224.258 451.64 224.122 451.592 223.898 451.592H217.802C217.61 451.592 217.514 451.488 217.514 451.28V450.44C217.514 450.248 217.626 450.152 217.85 450.152H224.546C225.378 450.152 225.898 450.288 226.106 450.56C226.314 450.832 226.322 451.344 226.13 452.096ZM229.85 456.248V448.976C229.85 448.752 229.962 448.64 230.186 448.64H231.098C231.322 448.64 231.434 448.752 231.434 448.976V469.112C231.434 469.336 231.322 469.448 231.098 469.448H230.186C229.962 469.448 229.85 469.336 229.85 469.112V457.688H226.394C226.298 457.688 226.21 457.656 226.13 457.592C226.066 457.528 226.034 457.456 226.034 457.376V456.56C226.034 456.464 226.066 456.392 226.13 456.344C226.21 456.28 226.298 456.248 226.394 456.248H229.85ZM235.682 470.024C235.682 470.248 235.57 470.36 235.346 470.36H234.434C234.21 470.36 234.098 470.248 234.098 470.024V448.568C234.098 448.344 234.21 448.232 234.434 448.232H235.346C235.57 448.232 235.682 448.344 235.682 448.568V470.024ZM257.965 470.144C257.965 470.224 257.925 470.288 257.845 470.336C257.781 470.4 257.717 470.432 257.653 470.432H245.581C244.829 470.432 244.333 470.288 244.093 470C243.869 469.728 243.757 469.256 243.757 468.584V466.784C243.757 466.112 243.893 465.664 244.165 465.44C244.453 465.2 244.957 465.08 245.677 465.08H255.277C255.501 465.08 255.645 465.048 255.709 464.984C255.773 464.92 255.805 464.768 255.805 464.528V463.16C255.805 462.92 255.773 462.768 255.709 462.704C255.661 462.64 255.525 462.608 255.301 462.608H244.045C243.965 462.608 243.885 462.584 243.805 462.536C243.741 462.488 243.709 462.424 243.709 462.344V461.48C243.709 461.4 243.741 461.336 243.805 461.288C243.885 461.24 243.965 461.216 244.045 461.216H255.565C255.949 461.216 256.261 461.248 256.501 461.312C256.741 461.36 256.933 461.448 257.077 461.576C257.221 461.704 257.317 461.888 257.365 462.128C257.429 462.352 257.461 462.632 257.461 462.968V464.768C257.461 465.44 257.317 465.896 257.029 466.136C256.757 466.36 256.261 466.472 255.541 466.472H245.917C245.693 466.472 245.549 466.504 245.485 466.568C245.437 466.632 245.413 466.784 245.413 467.024V468.488C245.413 468.712 245.445 468.856 245.509 468.92C245.573 469 245.717 469.04 245.941 469.04H257.629C257.709 469.04 257.781 469.064 257.845 469.112C257.925 469.16 257.965 469.224 257.965 469.304V470.144ZM246.973 448.976C246.957 450.096 246.813 451.136 246.541 452.096C246.749 452.624 247.037 453.152 247.405 453.68C247.773 454.208 248.189 454.704 248.653 455.168C249.133 455.632 249.645 456.056 250.189 456.44C250.749 456.808 251.317 457.112 251.893 457.352C251.989 457.384 252.037 457.448 252.037 457.544C252.037 457.624 252.021 457.696 251.989 457.76L251.533 458.576C251.485 458.672 251.413 458.728 251.317 458.744C251.237 458.744 251.149 458.728 251.053 458.696C250.541 458.472 250.029 458.192 249.517 457.856C249.005 457.504 248.509 457.12 248.029 456.704C247.565 456.272 247.133 455.832 246.733 455.384C246.349 454.92 246.029 454.464 245.773 454.016C245.261 454.976 244.589 455.88 243.757 456.728C242.941 457.56 241.933 458.36 240.733 459.128C240.621 459.208 240.525 459.256 240.445 459.272C240.381 459.272 240.309 459.224 240.229 459.128L239.629 458.384C239.501 458.208 239.541 458.048 239.749 457.904C240.741 457.28 241.589 456.64 242.293 455.984C242.997 455.312 243.565 454.616 243.997 453.896C244.445 453.16 244.773 452.384 244.981 451.568C245.189 450.752 245.293 449.88 245.293 448.952C245.293 448.824 245.325 448.728 245.389 448.664C245.453 448.6 245.517 448.568 245.581 448.568L246.709 448.64C246.885 448.64 246.973 448.752 246.973 448.976ZM257.461 459.488C257.461 459.712 257.349 459.824 257.125 459.824H256.141C255.917 459.824 255.805 459.712 255.805 459.488V448.568C255.805 448.344 255.917 448.232 256.141 448.232H257.125C257.349 448.232 257.461 448.344 257.461 448.568V459.488Z" fill="black"/>
<path d="M773.169 51.792C773.169 52.848 773.121 53.864 773.025 54.84C772.945 55.8 772.809 56.728 772.617 57.624C772.777 58.264 773.025 58.944 773.361 59.664C773.697 60.368 774.089 61.072 774.537 61.776C775.001 62.48 775.513 63.168 776.073 63.84C776.649 64.496 777.257 65.088 777.897 65.616C777.977 65.68 778.017 65.76 778.017 65.856C778.033 65.952 778.017 66.032 777.969 66.096L777.369 66.84C777.225 67.016 777.057 67.016 776.865 66.84C776.417 66.456 775.953 66 775.473 65.472C775.009 64.928 774.553 64.36 774.105 63.768C773.673 63.176 773.265 62.568 772.881 61.944C772.497 61.32 772.169 60.72 771.897 60.144C771.385 61.6 770.713 62.944 769.881 64.176C769.049 65.392 768.057 66.528 766.905 67.584C766.745 67.712 766.609 67.72 766.497 67.608L765.777 66.864C765.729 66.816 765.705 66.752 765.705 66.672C765.721 66.592 765.769 66.512 765.849 66.432C766.825 65.504 767.673 64.528 768.393 63.504C769.113 62.48 769.697 61.376 770.145 60.192C770.609 59.008 770.945 57.72 771.153 56.328C771.377 54.936 771.489 53.408 771.489 51.744C771.489 51.632 771.513 51.552 771.561 51.504C771.625 51.44 771.697 51.408 771.777 51.408L772.905 51.456C773.081 51.456 773.169 51.568 773.169 51.792ZM783.465 72.024C783.465 72.248 783.353 72.36 783.129 72.36H782.145C781.921 72.36 781.809 72.248 781.809 72.024V50.568C781.809 50.344 781.921 50.232 782.145 50.232H783.129C783.353 50.232 783.465 50.344 783.465 50.568V72.024ZM800.035 56.64C800.035 57.44 799.891 58.176 799.603 58.848C799.315 59.504 798.915 60.072 798.403 60.552C797.907 61.032 797.307 61.408 796.603 61.68C795.915 61.952 795.155 62.088 794.323 62.088C793.523 62.088 792.779 61.96 792.091 61.704C791.403 61.432 790.803 61.056 790.291 60.576C789.795 60.096 789.403 59.52 789.115 58.848C788.843 58.176 788.707 57.44 788.707 56.64C788.707 55.792 788.843 55.032 789.115 54.36C789.403 53.672 789.795 53.096 790.291 52.632C790.803 52.152 791.403 51.792 792.091 51.552C792.779 51.296 793.523 51.168 794.323 51.168C795.091 51.168 795.819 51.296 796.507 51.552C797.195 51.792 797.795 52.144 798.307 52.608C798.835 53.072 799.251 53.648 799.555 54.336C799.875 55.008 800.035 55.776 800.035 56.64ZM798.355 56.616C798.355 55.976 798.243 55.416 798.019 54.936C797.811 54.44 797.523 54.032 797.155 53.712C796.787 53.376 796.355 53.128 795.859 52.968C795.379 52.792 794.867 52.704 794.323 52.704C793.763 52.704 793.243 52.792 792.763 52.968C792.283 53.128 791.867 53.376 791.515 53.712C791.163 54.032 790.883 54.44 790.675 54.936C790.483 55.416 790.387 55.976 790.387 56.616C790.387 57.224 790.483 57.768 790.675 58.248C790.867 58.728 791.131 59.144 791.467 59.496C791.819 59.848 792.235 60.12 792.715 60.312C793.195 60.488 793.731 60.576 794.323 60.576C794.867 60.576 795.379 60.488 795.859 60.312C796.355 60.12 796.787 59.848 797.155 59.496C797.523 59.144 797.811 58.728 798.019 58.248C798.243 57.768 798.355 57.224 798.355 56.616ZM805.195 62.664C805.195 62.888 805.083 63 804.859 63H803.875C803.651 63 803.539 62.888 803.539 62.664V50.568C803.539 50.344 803.651 50.232 803.875 50.232H804.859C805.083 50.232 805.195 50.344 805.195 50.568V54.216H808.507C808.603 54.216 808.683 54.248 808.747 54.312C808.827 54.36 808.867 54.432 808.867 54.528V55.32C808.867 55.4 808.827 55.472 808.747 55.536C808.683 55.6 808.603 55.632 808.507 55.632H805.195V58.512H808.507C808.603 58.512 808.683 58.544 808.747 58.608C808.827 58.656 808.867 58.728 808.867 58.824V59.616C808.867 59.696 808.827 59.768 808.747 59.832C808.683 59.896 808.603 59.928 808.507 59.928H805.195V62.664ZM791.203 64.632C791.203 64.536 791.243 64.464 791.323 64.416C791.403 64.368 791.483 64.344 791.563 64.344H803.371C804.123 64.344 804.611 64.488 804.835 64.776C805.075 65.048 805.195 65.512 805.195 66.168V72.12C805.195 72.344 805.083 72.456 804.859 72.456H803.875C803.651 72.456 803.539 72.344 803.539 72.12V66.288C803.539 66.064 803.499 65.928 803.419 65.88C803.355 65.816 803.211 65.784 802.987 65.784H791.563C791.483 65.784 791.403 65.76 791.323 65.712C791.243 65.648 791.203 65.576 791.203 65.496V64.632ZM829.109 72.144C829.109 72.224 829.069 72.288 828.989 72.336C828.925 72.4 828.861 72.432 828.797 72.432H816.725C815.973 72.432 815.477 72.288 815.237 72C815.013 71.728 814.901 71.256 814.901 70.584V68.784C814.901 68.112 815.037 67.664 815.309 67.44C815.597 67.2 816.101 67.08 816.821 67.08H826.421C826.645 67.08 826.789 67.048 826.853 66.984C826.917 66.92 826.949 66.768 826.949 66.528V65.16C826.949 64.92 826.917 64.768 826.853 64.704C826.805 64.64 826.669 64.608 826.445 64.608H815.189C815.109 64.608 815.029 64.584 814.949 64.536C814.885 64.488 814.853 64.424 814.853 64.344V63.48C814.853 63.4 814.885 63.336 814.949 63.288C815.029 63.24 815.109 63.216 815.189 63.216H826.709C827.093 63.216 827.405 63.248 827.645 63.312C827.885 63.36 828.077 63.448 828.221 63.576C828.365 63.704 828.461 63.888 828.509 64.128C828.573 64.352 828.605 64.632 828.605 64.968V66.768C828.605 67.44 828.461 67.896 828.173 68.136C827.901 68.36 827.405 68.472 826.685 68.472H817.061C816.837 68.472 816.693 68.504 816.629 68.568C816.581 68.632 816.557 68.784 816.557 69.024V70.488C816.557 70.712 816.589 70.856 816.653 70.92C816.717 71 816.861 71.04 817.085 71.04H828.773C828.853 71.04 828.925 71.064 828.989 71.112C829.069 71.16 829.109 71.224 829.109 71.304V72.144ZM818.117 50.976C818.101 52.096 817.957 53.136 817.685 54.096C817.893 54.624 818.181 55.152 818.549 55.68C818.917 56.208 819.333 56.704 819.797 57.168C820.277 57.632 820.789 58.056 821.333 58.44C821.893 58.808 822.461 59.112 823.037 59.352C823.133 59.384 823.181 59.448 823.181 59.544C823.181 59.624 823.165 59.696 823.133 59.76L822.677 60.576C822.629 60.672 822.557 60.728 822.461 60.744C822.381 60.744 822.293 60.728 822.197 60.696C821.685 60.472 821.173 60.192 820.661 59.856C820.149 59.504 819.653 59.12 819.173 58.704C818.709 58.272 818.277 57.832 817.877 57.384C817.493 56.92 817.173 56.464 816.917 56.016C816.405 56.976 815.733 57.88 814.901 58.728C814.085 59.56 813.077 60.36 811.877 61.128C811.765 61.208 811.669 61.256 811.589 61.272C811.525 61.272 811.453 61.224 811.373 61.128L810.773 60.384C810.645 60.208 810.685 60.048 810.893 59.904C811.885 59.28 812.733 58.64 813.437 57.984C814.141 57.312 814.709 56.616 815.141 55.896C815.589 55.16 815.917 54.384 816.125 53.568C816.333 52.752 816.437 51.88 816.437 50.952C816.437 50.824 816.469 50.728 816.533 50.664C816.597 50.6 816.661 50.568 816.725 50.568L817.853 50.64C818.029 50.64 818.117 50.752 818.117 50.976ZM828.605 61.488C828.605 61.712 828.493 61.824 828.269 61.824H827.285C827.061 61.824 826.949 61.712 826.949 61.488V50.568C826.949 50.344 827.061 50.232 827.285 50.232H828.269C828.493 50.232 828.605 50.344 828.605 50.568V61.488Z" fill="black"/>
<path d="M727.317 211.336C727.317 211.88 727.205 212.376 726.981 212.824C726.773 213.272 726.477 213.664 726.093 214C725.709 214.336 725.245 214.616 724.701 214.84C724.173 215.048 723.589 215.184 722.949 215.248V217.744C723.493 217.712 724.061 217.672 724.653 217.624C725.245 217.56 725.821 217.496 726.381 217.432C726.957 217.352 727.509 217.272 728.037 217.192C728.565 217.112 729.045 217.032 729.477 216.952C729.733 216.904 729.869 216.96 729.885 217.12L730.029 218.032C730.061 218.224 729.957 218.336 729.717 218.368C728.645 218.544 727.469 218.704 726.189 218.848C724.909 218.992 723.621 219.104 722.325 219.184C721.861 219.216 721.317 219.24 720.693 219.256C720.069 219.272 719.429 219.288 718.773 219.304C718.133 219.304 717.501 219.304 716.877 219.304C716.269 219.304 715.741 219.296 715.293 219.28C715.197 219.28 715.109 219.248 715.029 219.184C714.965 219.12 714.933 219.048 714.933 218.968V218.152C714.933 218.056 714.965 217.984 715.029 217.936C715.109 217.872 715.197 217.84 715.293 217.84C715.645 217.856 716.061 217.872 716.541 217.888C717.037 217.888 717.549 217.888 718.077 217.888C718.621 217.872 719.165 217.864 719.709 217.864C720.269 217.848 720.797 217.832 721.293 217.816V215.272C720.637 215.208 720.037 215.072 719.493 214.864C718.965 214.64 718.509 214.36 718.125 214.024C717.741 213.672 717.437 213.272 717.213 212.824C717.005 212.36 716.901 211.864 716.901 211.336C716.901 210.744 717.029 210.208 717.285 209.728C717.557 209.232 717.925 208.816 718.389 208.48C718.853 208.128 719.397 207.864 720.021 207.688C720.661 207.496 721.357 207.4 722.109 207.4C722.845 207.4 723.533 207.496 724.173 207.688C724.813 207.88 725.365 208.152 725.829 208.504C726.293 208.84 726.653 209.248 726.909 209.728C727.181 210.208 727.317 210.744 727.317 211.336ZM732.621 223.024C732.621 223.248 732.509 223.36 732.285 223.36H731.301C731.077 223.36 730.965 223.248 730.965 223.024V201.568C730.965 201.344 731.077 201.232 731.301 201.232H732.285C732.509 201.232 732.621 201.344 732.621 201.568V210.952H735.933C736.029 210.952 736.109 210.984 736.173 211.048C736.253 211.096 736.293 211.168 736.293 211.264V212.08C736.293 212.16 736.253 212.232 736.173 212.296C736.109 212.36 736.029 212.392 735.933 212.392H732.621V223.024ZM725.685 211.336C725.685 210.52 725.349 209.896 724.677 209.464C724.005 209.032 723.149 208.816 722.109 208.816C721.597 208.816 721.117 208.872 720.669 208.984C720.237 209.096 719.861 209.256 719.541 209.464C719.221 209.672 718.965 209.936 718.773 210.256C718.597 210.576 718.509 210.936 718.509 211.336C718.509 211.736 718.597 212.096 718.773 212.416C718.965 212.72 719.221 212.984 719.541 213.208C719.861 213.416 720.237 213.584 720.669 213.712C721.117 213.824 721.597 213.88 722.109 213.88C723.149 213.88 724.005 213.656 724.677 213.208C725.349 212.76 725.685 212.136 725.685 211.336ZM728.853 205.84C728.853 206.048 728.733 206.152 728.493 206.152H715.725C715.645 206.152 715.565 206.12 715.485 206.056C715.421 205.992 715.389 205.912 715.389 205.816V205.024C715.389 204.928 715.421 204.848 715.485 204.784C715.565 204.72 715.645 204.688 715.725 204.688H728.493C728.733 204.688 728.853 204.792 728.853 205V205.84ZM725.469 202.816C725.469 203.04 725.349 203.152 725.109 203.152H718.773C718.693 203.152 718.613 203.128 718.533 203.08C718.469 203.016 718.437 202.936 718.437 202.84V202.024C718.437 201.928 718.469 201.848 718.533 201.784C718.597 201.72 718.669 201.688 718.749 201.688H725.109C725.349 201.688 725.469 201.8 725.469 202.024V202.816ZM749.959 211.072C749.959 211.648 749.823 212.176 749.551 212.656C749.295 213.12 748.935 213.528 748.471 213.88C748.023 214.232 747.479 214.504 746.839 214.696C746.215 214.888 745.535 214.984 744.799 214.984C744.047 214.984 743.359 214.888 742.735 214.696C742.111 214.504 741.567 214.232 741.103 213.88C740.639 213.528 740.279 213.112 740.023 212.632C739.767 212.152 739.639 211.632 739.639 211.072C739.639 210.496 739.767 209.968 740.023 209.488C740.279 209.008 740.639 208.6 741.103 208.264C741.567 207.928 742.111 207.664 742.735 207.472C743.359 207.28 744.047 207.184 744.799 207.184C745.535 207.184 746.215 207.28 746.839 207.472C747.479 207.664 748.023 207.936 748.471 208.288C748.935 208.624 749.295 209.032 749.551 209.512C749.823 209.992 749.959 210.512 749.959 211.072ZM748.351 211.072C748.351 210.688 748.263 210.344 748.087 210.04C747.911 209.72 747.663 209.456 747.343 209.248C747.023 209.024 746.647 208.856 746.215 208.744C745.783 208.616 745.311 208.552 744.799 208.552C744.287 208.552 743.815 208.616 743.383 208.744C742.951 208.856 742.575 209.024 742.255 209.248C741.935 209.456 741.679 209.72 741.487 210.04C741.311 210.344 741.223 210.688 741.223 211.072C741.223 211.456 741.311 211.808 741.487 212.128C741.679 212.432 741.935 212.696 742.255 212.92C742.575 213.144 742.951 213.32 743.383 213.448C743.815 213.56 744.287 213.616 744.799 213.616C745.311 213.616 745.783 213.56 746.215 213.448C746.647 213.32 747.023 213.144 747.343 212.92C747.663 212.696 747.911 212.432 748.087 212.128C748.263 211.808 748.351 211.456 748.351 211.072ZM741.199 216.832C741.199 216.736 741.239 216.664 741.319 216.616C741.399 216.568 741.479 216.544 741.559 216.544H753.367C754.119 216.544 754.607 216.688 754.831 216.976C755.071 217.248 755.191 217.712 755.191 218.368V223.12C755.191 223.344 755.079 223.456 754.855 223.456H753.871C753.647 223.456 753.535 223.344 753.535 223.12V218.488C753.535 218.264 753.495 218.128 753.415 218.08C753.351 218.016 753.207 217.984 752.983 217.984H741.559C741.479 217.984 741.399 217.96 741.319 217.912C741.239 217.848 741.199 217.776 741.199 217.696V216.832ZM755.191 215.032C755.191 215.256 755.079 215.368 754.855 215.368H753.871C753.647 215.368 753.535 215.256 753.535 215.032V201.568C753.535 201.344 753.647 201.232 753.871 201.232H754.855C755.079 201.232 755.191 201.344 755.191 201.568V208.096H758.503C758.599 208.096 758.679 208.128 758.743 208.192C758.823 208.24 758.863 208.312 758.863 208.408V209.176C758.863 209.256 758.823 209.328 758.743 209.392C758.679 209.456 758.599 209.488 758.503 209.488H755.191V215.032ZM751.807 205.792C751.807 206 751.687 206.104 751.447 206.104H738.199C738.119 206.104 738.039 206.072 737.959 206.008C737.895 205.944 737.863 205.864 737.863 205.768V205C737.863 204.904 737.895 204.824 737.959 204.76C738.039 204.696 738.119 204.664 738.199 204.664H751.447C751.687 204.664 751.807 204.768 751.807 204.976V205.792ZM748.303 202.84C748.303 203.064 748.183 203.176 747.943 203.176H741.367C741.287 203.176 741.207 203.152 741.127 203.104C741.063 203.04 741.031 202.96 741.031 202.864V202.048C741.031 201.952 741.063 201.872 741.127 201.808C741.191 201.744 741.263 201.712 741.343 201.712H747.943C748.183 201.712 748.303 201.824 748.303 202.048V202.84ZM779.105 223.144C779.105 223.224 779.065 223.288 778.985 223.336C778.921 223.4 778.857 223.432 778.793 223.432H766.721C765.969 223.432 765.473 223.288 765.233 223C765.009 222.728 764.897 222.256 764.897 221.584V219.784C764.897 219.112 765.033 218.664 765.305 218.44C765.593 218.2 766.097 218.08 766.817 218.08H776.417C776.641 218.08 776.785 218.048 776.849 217.984C776.913 217.92 776.945 217.768 776.945 217.528V216.16C776.945 215.92 776.913 215.768 776.849 215.704C776.801 215.64 776.665 215.608 776.441 215.608H765.185C765.105 215.608 765.025 215.584 764.945 215.536C764.881 215.488 764.849 215.424 764.849 215.344V214.48C764.849 214.4 764.881 214.336 764.945 214.288C765.025 214.24 765.105 214.216 765.185 214.216H776.705C777.089 214.216 777.401 214.248 777.641 214.312C777.881 214.36 778.073 214.448 778.217 214.576C778.361 214.704 778.457 214.888 778.505 215.128C778.569 215.352 778.601 215.632 778.601 215.968V217.768C778.601 218.44 778.457 218.896 778.169 219.136C777.897 219.36 777.401 219.472 776.681 219.472H767.057C766.833 219.472 766.689 219.504 766.625 219.568C766.577 219.632 766.553 219.784 766.553 220.024V221.488C766.553 221.712 766.585 221.856 766.649 221.92C766.713 222 766.857 222.04 767.081 222.04H778.769C778.849 222.04 778.921 222.064 778.985 222.112C779.065 222.16 779.105 222.224 779.105 222.304V223.144ZM768.113 201.976C768.097 203.096 767.953 204.136 767.681 205.096C767.889 205.624 768.177 206.152 768.545 206.68C768.913 207.208 769.329 207.704 769.793 208.168C770.273 208.632 770.785 209.056 771.329 209.44C771.889 209.808 772.457 210.112 773.033 210.352C773.129 210.384 773.177 210.448 773.177 210.544C773.177 210.624 773.161 210.696 773.129 210.76L772.673 211.576C772.625 211.672 772.553 211.728 772.457 211.744C772.377 211.744 772.289 211.728 772.193 211.696C771.681 211.472 771.169 211.192 770.657 210.856C770.145 210.504 769.649 210.12 769.169 209.704C768.705 209.272 768.273 208.832 767.873 208.384C767.489 207.92 767.169 207.464 766.913 207.016C766.401 207.976 765.729 208.88 764.897 209.728C764.081 210.56 763.073 211.36 761.873 212.128C761.761 212.208 761.665 212.256 761.585 212.272C761.521 212.272 761.449 212.224 761.369 212.128L760.769 211.384C760.641 211.208 760.681 211.048 760.889 210.904C761.881 210.28 762.729 209.64 763.433 208.984C764.137 208.312 764.705 207.616 765.137 206.896C765.585 206.16 765.913 205.384 766.121 204.568C766.329 203.752 766.433 202.88 766.433 201.952C766.433 201.824 766.465 201.728 766.529 201.664C766.593 201.6 766.657 201.568 766.721 201.568L767.849 201.64C768.025 201.64 768.113 201.752 768.113 201.976ZM778.601 212.488C778.601 212.712 778.489 212.824 778.265 212.824H777.281C777.057 212.824 776.945 212.712 776.945 212.488V201.568C776.945 201.344 777.057 201.232 777.281 201.232H778.265C778.489 201.232 778.601 201.344 778.601 201.568V212.488ZM787.468 218.128C787.468 217.456 787.596 217.008 787.852 216.784C788.108 216.544 788.588 216.424 789.292 216.424H799.348C799.732 216.424 800.036 216.448 800.26 216.496C800.5 216.544 800.684 216.632 800.812 216.76C800.956 216.888 801.052 217.064 801.1 217.288C801.148 217.512 801.172 217.792 801.172 218.128V221.464C801.172 222.136 801.044 222.584 800.788 222.808C800.532 223.048 800.052 223.168 799.348 223.168H789.292C788.908 223.168 788.596 223.144 788.356 223.096C788.132 223.048 787.948 222.952 787.804 222.808C787.676 222.68 787.588 222.504 787.54 222.28C787.492 222.072 787.468 221.8 787.468 221.464V218.128ZM795.244 210.952C795.244 211.528 795.116 212.056 794.86 212.536C794.604 213 794.244 213.408 793.78 213.76C793.332 214.112 792.796 214.384 792.172 214.576C791.564 214.768 790.9 214.864 790.18 214.864C789.444 214.864 788.764 214.768 788.14 214.576C787.532 214.384 787.004 214.112 786.556 213.76C786.108 213.408 785.756 212.992 785.5 212.512C785.244 212.032 785.116 211.512 785.116 210.952C785.116 210.376 785.244 209.848 785.5 209.368C785.756 208.888 786.108 208.48 786.556 208.144C787.004 207.808 787.532 207.544 788.14 207.352C788.764 207.16 789.444 207.064 790.18 207.064C790.9 207.064 791.564 207.16 792.172 207.352C792.796 207.544 793.332 207.816 793.78 208.168C794.244 208.504 794.604 208.912 794.86 209.392C795.116 209.872 795.244 210.392 795.244 210.952ZM789.7 217.864C789.476 217.864 789.324 217.912 789.244 218.008C789.164 218.088 789.124 218.248 789.124 218.488V221.104C789.124 221.344 789.164 221.504 789.244 221.584C789.324 221.68 789.476 221.728 789.7 221.728H798.94C799.164 221.728 799.316 221.68 799.396 221.584C799.476 221.504 799.516 221.344 799.516 221.104V218.488C799.516 218.248 799.476 218.088 799.396 218.008C799.316 217.912 799.164 217.864 798.94 217.864H789.7ZM793.66 210.952C793.66 210.568 793.572 210.224 793.396 209.92C793.22 209.6 792.972 209.336 792.652 209.128C792.348 208.904 791.98 208.736 791.548 208.624C791.132 208.496 790.676 208.432 790.18 208.432C789.684 208.432 789.22 208.496 788.788 208.624C788.356 208.736 787.98 208.904 787.66 209.128C787.356 209.336 787.116 209.6 786.94 209.92C786.764 210.224 786.676 210.568 786.676 210.952C786.676 211.336 786.764 211.688 786.94 212.008C787.116 212.312 787.356 212.576 787.66 212.8C787.98 213.024 788.356 213.2 788.788 213.328C789.22 213.44 789.684 213.496 790.18 213.496C790.676 213.496 791.132 213.44 791.548 213.328C791.98 213.2 792.348 213.024 792.652 212.8C792.972 212.576 793.22 212.312 793.396 212.008C793.572 211.688 793.66 211.336 793.66 210.952ZM799.516 208.144V201.568C799.516 201.344 799.628 201.232 799.852 201.232H800.836C801.06 201.232 801.172 201.344 801.172 201.568V214.696C801.172 214.92 801.06 215.032 800.836 215.032H799.852C799.628 215.032 799.516 214.92 799.516 214.696V209.584H796.156C795.948 209.584 795.844 209.488 795.844 209.296V208.432C795.844 208.24 795.948 208.144 796.156 208.144H799.516ZM797.044 205.672C797.044 205.88 796.924 205.984 796.684 205.984H783.916C783.836 205.984 783.756 205.952 783.676 205.888C783.612 205.824 783.58 205.744 783.58 205.648V204.88C783.58 204.784 783.612 204.704 783.676 204.64C783.756 204.576 783.836 204.544 783.916 204.544H796.684C796.924 204.544 797.044 204.648 797.044 204.856V205.672ZM793.66 202.72C793.66 202.944 793.54 203.056 793.3 203.056H786.964C786.884 203.056 786.804 203.032 786.724 202.984C786.66 202.92 786.628 202.84 786.628 202.744V201.928C786.628 201.832 786.66 201.752 786.724 201.688C786.788 201.624 786.86 201.592 786.94 201.592H793.3C793.54 201.592 793.66 201.704 793.66 201.928V202.72ZM827.996 204.328C827.532 204.744 827.012 205.144 826.436 205.528C825.86 205.912 825.236 206.288 824.564 206.656C825.62 206.992 826.724 207.32 827.876 207.64C829.028 207.944 830.116 208.2 831.14 208.408C831.348 208.456 831.42 208.568 831.356 208.744L831.02 209.536C830.94 209.712 830.796 209.776 830.588 209.728C830.06 209.632 829.46 209.504 828.788 209.344C828.132 209.184 827.452 209.008 826.748 208.816C826.06 208.624 825.364 208.424 824.66 208.216C823.956 207.992 823.308 207.776 822.716 207.568C820.444 208.592 817.676 209.488 814.412 210.256C814.268 210.288 814.164 210.28 814.1 210.232C814.036 210.184 813.988 210.112 813.956 210.016L813.74 209.32C813.676 209.096 813.732 208.96 813.908 208.912C815.22 208.608 816.476 208.272 817.676 207.904C818.876 207.52 819.996 207.12 821.036 206.704C822.092 206.272 823.052 205.824 823.916 205.36C824.796 204.896 825.548 204.432 826.172 203.968C826.428 203.776 826.524 203.632 826.46 203.536C826.412 203.424 826.276 203.368 826.052 203.368H815.684C815.476 203.368 815.372 203.264 815.372 203.056V202.216C815.372 202.024 815.476 201.928 815.684 201.928H826.652C827.884 201.928 828.62 202.152 828.86 202.6C829.1 203.032 828.812 203.608 827.996 204.328ZM822.068 218.728C821.988 218.728 821.916 218.696 821.852 218.632C821.788 218.552 821.756 218.464 821.756 218.368V213.52H812.228C812.132 213.52 812.044 213.488 811.964 213.424C811.9 213.36 811.868 213.288 811.868 213.208V212.392C811.868 212.296 811.9 212.224 811.964 212.176C812.044 212.112 812.132 212.08 812.228 212.08H832.628C832.708 212.08 832.788 212.112 832.868 212.176C832.948 212.224 832.988 212.296 832.988 212.392V213.208C832.988 213.288 832.948 213.36 832.868 213.424C832.788 213.488 832.708 213.52 832.628 213.52H823.412V218.368C823.412 218.464 823.38 218.552 823.316 218.632C823.268 218.696 823.196 218.728 823.1 218.728H822.068ZM830.396 222.64C830.396 222.736 830.356 222.808 830.276 222.856C830.196 222.904 830.116 222.928 830.036 222.928H816.812C816.06 222.928 815.564 222.768 815.324 222.448C815.1 222.144 814.988 221.664 814.988 221.008V216.232C814.988 216.008 815.1 215.896 815.324 215.896H816.308C816.532 215.896 816.644 216.008 816.644 216.232V220.984C816.644 221.208 816.676 221.344 816.74 221.392C816.82 221.456 816.972 221.488 817.196 221.488H830.036C830.116 221.488 830.196 221.512 830.276 221.56C830.356 221.624 830.396 221.696 830.396 221.776V222.64ZM853.063 223.024C853.063 223.248 852.951 223.36 852.727 223.36H851.743C851.519 223.36 851.407 223.248 851.407 223.024V201.568C851.407 201.344 851.519 201.232 851.743 201.232H852.727C852.951 201.232 853.063 201.344 853.063 201.568V223.024ZM838.135 217.072C837.751 217.072 837.439 217.048 837.199 217C836.975 216.952 836.799 216.864 836.671 216.736C836.543 216.592 836.455 216.416 836.407 216.208C836.359 215.984 836.335 215.704 836.335 215.368V202.744C836.335 202.664 836.367 202.6 836.431 202.552C836.495 202.488 836.567 202.456 836.647 202.456H837.679C837.759 202.456 837.823 202.488 837.871 202.552C837.935 202.616 837.967 202.68 837.967 202.744V208.312H845.407V202.768C845.407 202.688 845.431 202.616 845.479 202.552C845.543 202.488 845.615 202.456 845.695 202.456H846.727C846.807 202.456 846.879 202.488 846.943 202.552C847.007 202.6 847.039 202.664 847.039 202.744V215.536C847.039 216.144 846.911 216.552 846.655 216.76C846.399 216.968 845.919 217.072 845.215 217.072H838.135ZM837.967 209.728V215.08C837.967 215.32 838.007 215.48 838.087 215.56C838.167 215.624 838.319 215.656 838.543 215.656H844.831C845.055 215.656 845.207 215.624 845.287 215.56C845.367 215.48 845.407 215.32 845.407 215.08V209.728H837.967ZM876.113 223.144C876.113 223.224 876.073 223.288 875.993 223.336C875.929 223.4 875.865 223.432 875.801 223.432H863.729C862.977 223.432 862.481 223.288 862.241 223C862.017 222.728 861.905 222.256 861.905 221.584V219.784C861.905 219.112 862.041 218.664 862.313 218.44C862.601 218.2 863.105 218.08 863.825 218.08H873.425C873.649 218.08 873.793 218.048 873.857 217.984C873.921 217.92 873.953 217.768 873.953 217.528V216.16C873.953 215.92 873.921 215.768 873.857 215.704C873.809 215.64 873.673 215.608 873.449 215.608H862.193C862.113 215.608 862.033 215.584 861.953 215.536C861.889 215.488 861.857 215.424 861.857 215.344V214.48C861.857 214.4 861.889 214.336 861.953 214.288C862.033 214.24 862.113 214.216 862.193 214.216H873.713C874.097 214.216 874.409 214.248 874.649 214.312C874.889 214.36 875.081 214.448 875.225 214.576C875.369 214.704 875.465 214.888 875.513 215.128C875.577 215.352 875.609 215.632 875.609 215.968V217.768C875.609 218.44 875.465 218.896 875.177 219.136C874.905 219.36 874.409 219.472 873.689 219.472H864.065C863.841 219.472 863.697 219.504 863.633 219.568C863.585 219.632 863.561 219.784 863.561 220.024V221.488C863.561 221.712 863.593 221.856 863.657 221.92C863.721 222 863.865 222.04 864.089 222.04H875.777C875.857 222.04 875.929 222.064 875.993 222.112C876.073 222.16 876.113 222.224 876.113 222.304V223.144ZM865.121 201.976C865.105 203.096 864.961 204.136 864.689 205.096C864.897 205.624 865.185 206.152 865.553 206.68C865.921 207.208 866.337 207.704 866.801 208.168C867.281 208.632 867.793 209.056 868.337 209.44C868.897 209.808 869.465 210.112 870.041 210.352C870.137 210.384 870.185 210.448 870.185 210.544C870.185 210.624 870.169 210.696 870.137 210.76L869.681 211.576C869.633 211.672 869.561 211.728 869.465 211.744C869.385 211.744 869.297 211.728 869.201 211.696C868.689 211.472 868.177 211.192 867.665 210.856C867.153 210.504 866.657 210.12 866.177 209.704C865.713 209.272 865.281 208.832 864.881 208.384C864.497 207.92 864.177 207.464 863.921 207.016C863.409 207.976 862.737 208.88 861.905 209.728C861.089 210.56 860.081 211.36 858.881 212.128C858.769 212.208 858.673 212.256 858.593 212.272C858.529 212.272 858.457 212.224 858.377 212.128L857.777 211.384C857.649 211.208 857.689 211.048 857.897 210.904C858.889 210.28 859.737 209.64 860.441 208.984C861.145 208.312 861.713 207.616 862.145 206.896C862.593 206.16 862.921 205.384 863.129 204.568C863.337 203.752 863.441 202.88 863.441 201.952C863.441 201.824 863.473 201.728 863.537 201.664C863.601 201.6 863.665 201.568 863.729 201.568L864.857 201.64C865.033 201.64 865.121 201.752 865.121 201.976ZM875.609 212.488C875.609 212.712 875.497 212.824 875.273 212.824H874.289C874.065 212.824 873.953 212.712 873.953 212.488V201.568C873.953 201.344 874.065 201.232 874.289 201.232H875.273C875.497 201.232 875.609 201.344 875.609 201.568V212.488Z" fill="black"/>
<line x1="185" y1="304.5" x2="298" y2="304.5" stroke="black"/>
<line x1="613" y1="115.5" x2="726" y2="115.5" stroke="black"/>
<line x1="185" y1="308.5" x2="298" y2="308.5" stroke="black"/>
<line x1="613" y1="119.5" x2="726" y2="119.5" stroke="black"/>
<line x1="241.5" y1="304" x2="241.5" y2="308" stroke="black"/>
<line x1="669.5" y1="115" x2="669.5" y2="119" stroke="black"/>
</svg>
