<svg width="560" height="560" viewBox="0 0 560 560" fill="none" xmlns="http://www.w3.org/2000/svg">
<path d="M189.169 9H370.831C470.336 9 551 89.6644 551 189.169V370.831C551 470.336 470.336 551 370.831 551H189.169C89.6644 551 9 470.336 9 370.831V189.169C9 89.6644 89.6644 9 189.169 9Z" fill="#FCFCFC" stroke="#191970" stroke-width="18"/>
<path d="M280.25 483.932C391.911 483.932 482.431 393.413 482.431 281.752C482.431 170.09 391.911 79.571 280.25 79.571C168.589 79.571 78.0697 170.09 78.0697 281.752C78.0697 393.413 168.589 483.932 280.25 483.932Z" stroke="black" stroke-width="12"/>
<path d="M278.749 376.836C381.013 376.836 463.914 334.489 463.914 282.252C463.914 230.014 381.013 187.667 278.749 187.667C176.485 187.667 93.5835 230.014 93.5835 282.252C93.5835 334.489 176.485 376.836 278.749 376.836Z" fill="#BCE6FF"/>
<path d="M345.63 349.133C417.942 276.822 446.618 188.258 409.681 151.32C372.743 114.383 284.179 143.059 211.868 215.371C139.556 287.682 110.88 376.246 147.817 413.184C184.755 450.121 273.319 421.445 345.63 349.133Z" fill="#BCE6FF"/>
<path d="M373.333 282.252C373.333 179.988 330.986 97.0865 278.749 97.0865C226.511 97.0865 184.164 179.988 184.164 282.252C184.164 384.516 226.511 467.417 278.749 467.417C330.986 467.417 373.333 384.516 373.333 282.252Z" fill="#BCE6FF"/>
<path d="M345.63 215.371C273.319 143.059 184.755 114.383 147.817 151.32C110.88 188.258 139.556 276.822 211.868 349.133C284.179 421.445 372.743 450.121 409.68 413.184C446.618 376.246 417.942 287.682 345.63 215.371Z" fill="#BCE6FF"/>
<path d="M457.909 282.252C457.909 304.938 439.772 327.019 406.949 343.785C374.449 360.386 329.133 370.831 278.749 370.831C228.365 370.831 183.048 360.386 150.549 343.785C117.726 327.019 99.5889 304.938 99.5889 282.252C99.5889 259.566 117.726 237.485 150.549 220.718C183.048 204.118 228.365 193.673 278.749 193.673C329.133 193.673 374.449 204.118 406.949 220.718C439.772 237.485 457.909 259.566 457.909 282.252Z" stroke="black" stroke-width="12"/>
<path d="M405.434 155.567C421.476 171.608 424.264 200.047 412.911 235.111C401.669 269.831 377.011 309.26 341.384 344.887C305.757 380.514 266.328 405.172 231.608 416.414C196.543 427.767 168.105 424.979 152.064 408.937C136.022 392.896 133.233 364.457 144.587 329.393C155.829 294.673 180.487 255.244 216.114 219.617C251.741 183.99 291.17 159.332 325.889 148.09C360.954 136.737 389.393 139.525 405.434 155.567Z" stroke="black" stroke-width="12"/>
<path d="M278.749 103.092C301.435 103.092 323.516 121.229 340.282 154.052C356.883 186.552 367.328 231.868 367.328 282.252C367.328 332.636 356.883 377.952 340.282 410.452C323.516 443.275 301.435 461.412 278.749 461.412C256.063 461.412 233.982 443.275 217.215 410.452C200.615 377.952 190.17 332.636 190.17 282.252C190.17 231.868 200.615 186.552 217.215 154.052C233.982 121.229 256.063 103.092 278.749 103.092Z" stroke="black" stroke-width="12"/>
<path d="M152.064 155.567C168.105 139.525 196.543 136.737 231.608 148.09C266.328 159.332 305.757 183.99 341.384 219.617C377.011 255.244 401.669 294.673 412.911 329.393C424.264 364.457 421.476 392.896 405.434 408.937C389.393 424.979 360.954 427.767 325.889 416.414C291.17 405.172 251.741 380.514 216.114 344.887C180.487 309.26 155.829 269.831 144.587 235.111C133.233 200.047 136.022 171.608 152.064 155.567Z" stroke="black" stroke-width="12"/>
<path d="M344.558 495.943C357.41 495.943 367.828 485.524 367.828 472.672C367.828 459.82 357.41 449.401 344.558 449.401C331.706 449.401 321.287 459.82 321.287 472.672C321.287 485.524 331.706 495.943 344.558 495.943Z" fill="#83B4FF" stroke="black" stroke-width="11"/>
<path d="M215.943 113.601C228.795 113.601 239.214 103.183 239.214 90.3306C239.214 77.4785 228.795 67.0598 215.943 67.0598C203.091 67.0598 192.672 77.4785 192.672 90.3306C192.672 103.183 203.091 113.601 215.943 113.601Z" fill="#FF8383" stroke="black" stroke-width="11"/>
<path d="M280.25 316.783C299.598 316.783 315.282 301.099 315.282 281.751C315.282 262.404 299.598 246.72 280.25 246.72C260.903 246.72 245.219 262.404 245.219 281.751C245.219 301.099 260.903 316.783 280.25 316.783Z" fill="#FFC083" stroke="black" stroke-width="11"/>
<path d="M453.155 324.039C460.617 324.039 466.667 317.99 466.667 310.527C466.667 303.065 460.617 297.015 453.155 297.015C445.692 297.015 439.643 303.065 439.643 310.527C439.643 317.99 445.692 324.039 453.155 324.039Z" fill="#F7F39D" stroke="black" stroke-width="11"/>
<path d="M321.537 136.872C329 136.872 335.049 130.823 335.049 123.36C335.049 115.898 329 109.848 321.537 109.848C314.075 109.848 308.025 115.898 308.025 123.36C308.025 130.823 314.075 136.872 321.537 136.872Z" fill="#F7F39D" stroke="black" stroke-width="11"/>
<path d="M310.527 385.594C317.99 385.594 324.039 379.545 324.039 372.082C324.039 364.62 317.99 358.57 310.527 358.57C303.065 358.57 297.015 364.62 297.015 372.082C297.015 379.545 303.065 385.594 310.527 385.594Z" fill="#F7F39D" stroke="black" stroke-width="11"/>
<path d="M145.38 254.978C152.842 254.978 158.892 248.928 158.892 241.466C158.892 234.003 152.842 227.954 145.38 227.954C137.917 227.954 131.868 234.003 131.868 241.466C131.868 248.928 137.917 254.978 145.38 254.978Z" fill="#F7F39D" stroke="black" stroke-width="11"/>
</svg>
