<svg width="560" height="560" viewBox="0 0 560 560" fill="none" xmlns="http://www.w3.org/2000/svg">
<rect x="9" y="9" width="542" height="542" rx="160" fill="#FCFCFC" stroke="#191970" stroke-width="18"/>
<path d="M383.5 396.753C379.5 392.586 365.4 386.753 341 396.753C310.5 409.253 293.5 397.253 280.5 392.753C267.5 388.253 249 379.753 213 399.253C211.667 413.253 215.2 446.353 240 466.753C271 492.253 303 495.253 326 484.753C349 474.253 369.5 456.753 375.5 439.253C381.5 421.753 383.5 418.753 383.5 396.753Z" fill="#FFB36E"/>
<circle cx="253.5" cy="345.753" r="13.5" fill="#FFB36E"/>
<circle cx="316.5" cy="361.753" r="9.5" fill="#FFB36E"/>
<path d="M336.976 311.161C358.282 320.179 375.802 336.305 386.551 356.791C397.3 377.278 400.613 400.858 395.926 423.514C391.238 446.17 378.84 466.499 360.844 481.039C342.848 495.578 320.367 503.428 297.233 503.25C274.098 503.072 251.74 494.879 233.969 480.065C216.199 465.251 204.114 444.734 199.775 422.009C195.435 399.284 199.11 375.757 210.172 355.438C221.234 335.118 239 319.263 260.442 310.574" stroke="black" stroke-width="12"/>
<line x1="122.997" y1="212.383" x2="121.997" y2="235.383" stroke="black" stroke-width="6"/>
<line x1="185.968" y1="264.813" x2="189.968" y2="291.813" stroke="black" stroke-width="6"/>
<line x1="172.007" y1="238.495" x2="136.007" y2="206.495" stroke="black" stroke-width="6"/>
<path fill-rule="evenodd" clip-rule="evenodd" d="M373 77.2529L375 69.7529C375.333 68.9195 376.5 67.3529 378.5 67.7529C380.5 68.1529 381 70.2529 381 71.2529L379.5 78.7529L391 88.7529L409.5 83.2529L413 65.7529L433.5 59.2529C434.5 58.9195 436.8 58.6529 438 60.2529C439.2 61.8529 446.833 68.9195 450.5 72.2528L458.5 70.7529C459.5 70.5862 461.7 70.7528 462.5 72.7528C463.3 74.7528 461.5 76.2528 460.5 76.7529L453 78.7528L450 93.2528L463 104.753C463.667 105.419 464.9 107.353 464.5 109.753C464.1 112.153 462.333 120.419 461.5 124.253C461.167 125.417 460 127.945 458 128.749C456 129.552 445.5 132.753 440.5 134.253L440 138.753C439.833 139.586 438.9 141.253 436.5 141.253C434.1 141.253 433.5 138.919 433.5 137.753L434.5 132.753L421 121.253L406 126.253C404.667 126.753 401.5 127.353 399.5 125.753C397.5 124.153 390 117.086 386.5 113.753L370.5 119.753C369.167 120.086 366 120.353 364 118.753C362 117.153 354.5 110.086 351 106.753L346 109.253C344.833 109.419 342.2 109.353 341 107.753C339.8 106.153 341.167 104.419 342 103.753L350 100.253L352.5 85.2528C352.667 84.2528 353.5 82.1528 355.5 81.7528C357.5 81.3528 368 78.5862 373 77.2529ZM356 103.253L358.5 87.7529L375 82.2529L387 93.7529L385 108.253L368.5 113.753L356 103.253ZM391.5 110.253L394 94.7529L410.5 89.2529L422.5 100.753L420.5 115.253L404 120.753L391.5 110.253ZM415.5 86.2529L418 70.7529L434.5 65.2529L446.5 76.7529L444.5 91.2529L428 96.7529L415.5 86.2529ZM426.5 118.249L429 102.749L445.5 97.2487L457.5 108.749L455.5 123.249L439 128.749L426.5 118.249Z" fill="black"/>
<circle cx="415.5" cy="228.753" r="13" fill="#A7B8FF" stroke="black" stroke-width="5"/>
<circle cx="440.5" cy="223.753" r="26" fill="#FFAFAC" stroke="black" stroke-width="5"/>
<circle cx="452.5" cy="246.753" r="13" fill="#A7B8FF" stroke="black" stroke-width="5"/>
<circle cx="148.5" cy="133.753" r="16" fill="#FF9C5D" stroke="black" stroke-width="5"/>
<circle cx="268" cy="141.253" r="14" fill="#FFB36E"/>
<circle cx="308" cy="217.253" r="8" fill="#FFB36E"/>
<circle cx="288.5" cy="286.753" r="10.5" fill="#FFB36E"/>
<circle cx="80.5" cy="166.753" r="16" fill="#FF9C5D" stroke="black" stroke-width="5"/>
<circle cx="124.5" cy="195.753" r="16" fill="#FF9C5D" stroke="black" stroke-width="5"/>
<circle cx="184.5" cy="248.753" r="16" fill="#FF9C5D" stroke="black" stroke-width="5"/>
<circle cx="121" cy="243.253" r="8.5" fill="#99C3FF" stroke="black" stroke-width="5"/>
<circle cx="245" cy="216.253" r="8.5" fill="#99C3FF" stroke="black" stroke-width="5"/>
<circle cx="191" cy="300.253" r="8.5" fill="#99C3FF" stroke="black" stroke-width="5"/>
<line x1="94.6298" y1="176.734" x2="111.63" y2="187.734" stroke="black" stroke-width="6"/>
<line x1="142.798" y1="150.336" x2="130.798" y2="181.336" stroke="black" stroke-width="6"/>
<line x1="236.524" y1="219.837" x2="197.524" y2="242.837" stroke="black" stroke-width="6"/>
<mask id="path-26-inside-1_13_164" fill="white">
<rect x="242" y="134.253" width="112" height="62" rx="7"/>
</mask>
<rect x="242" y="134.253" width="112" height="62" rx="7" stroke="black" stroke-width="24" mask="url(#path-26-inside-1_13_164)"/>
<line x1="264" y1="194.253" x2="264" y2="309.253" stroke="black" stroke-width="12"/>
<line x1="334" y1="309.253" x2="334" y2="194.253" stroke="black" stroke-width="12"/>
<ellipse cx="263" cy="309.753" rx="7" ry="6.5" fill="black"/>
<ellipse cx="335" cy="310.753" rx="7" ry="6.5" fill="black"/>
</svg>
