<svg width="560" height="744" viewBox="0 0 560 744" fill="none" xmlns="http://www.w3.org/2000/svg">
<rect x="9" y="9" width="542" height="542" rx="160" fill="#FCFCFC" stroke="#191970" stroke-width="18"/>
<path d="M383.5 396.753C379.5 392.586 365.4 386.753 341 396.753C310.5 409.253 293.5 397.253 280.5 392.753C267.5 388.253 249 379.753 213 399.253C211.667 413.253 215.2 446.353 240 466.753C271 492.253 303 495.253 326 484.753C349 474.253 369.5 456.753 375.5 439.253C381.5 421.753 383.5 418.753 383.5 396.753Z" fill="#FFB36E"/>
<circle cx="253.5" cy="345.753" r="13.5" fill="#FFB36E"/>
<circle cx="316.5" cy="361.753" r="9.5" fill="#FFB36E"/>
<path d="M336.976 311.161C358.282 320.179 375.802 336.305 386.551 356.791C397.3 377.278 400.613 400.858 395.926 423.514C391.238 446.17 378.84 466.499 360.844 481.039C342.848 495.578 320.367 503.428 297.233 503.25C274.098 503.072 251.74 494.879 233.969 480.065C216.199 465.251 204.114 444.734 199.775 422.009C195.435 399.284 199.11 375.757 210.172 355.438C221.234 335.118 239 319.263 260.442 310.574" stroke="black" stroke-width="12"/>
<line x1="122.997" y1="212.383" x2="121.997" y2="235.383" stroke="black" stroke-width="6"/>
<line x1="185.968" y1="264.813" x2="189.968" y2="291.813" stroke="black" stroke-width="6"/>
<line x1="172.007" y1="238.495" x2="136.007" y2="206.495" stroke="black" stroke-width="6"/>
<path fill-rule="evenodd" clip-rule="evenodd" d="M373 77.2529L375 69.7529C375.333 68.9195 376.5 67.3529 378.5 67.7529C380.5 68.1529 381 70.2529 381 71.2529L379.5 78.7529L391 88.7529L409.5 83.2529L413 65.7529L433.5 59.2529C434.5 58.9195 436.8 58.6529 438 60.2529C439.2 61.8529 446.833 68.9195 450.5 72.2528L458.5 70.7529C459.5 70.5862 461.7 70.7528 462.5 72.7528C463.3 74.7528 461.5 76.2528 460.5 76.7529L453 78.7528L450 93.2528L463 104.753C463.667 105.419 464.9 107.353 464.5 109.753C464.1 112.153 462.333 120.419 461.5 124.253C461.167 125.417 460 127.945 458 128.749C456 129.552 445.5 132.753 440.5 134.253L440 138.753C439.833 139.586 438.9 141.253 436.5 141.253C434.1 141.253 433.5 138.919 433.5 137.753L434.5 132.753L421 121.253L406 126.253C404.667 126.753 401.5 127.353 399.5 125.753C397.5 124.153 390 117.086 386.5 113.753L370.5 119.753C369.167 120.086 366 120.353 364 118.753C362 117.153 354.5 110.086 351 106.753L346 109.253C344.833 109.419 342.2 109.353 341 107.753C339.8 106.153 341.167 104.419 342 103.753L350 100.253L352.5 85.2528C352.667 84.2528 353.5 82.1528 355.5 81.7528C357.5 81.3528 368 78.5862 373 77.2529ZM356 103.253L358.5 87.7529L375 82.2529L387 93.7529L385 108.253L368.5 113.753L356 103.253ZM391.5 110.253L394 94.7529L410.5 89.2529L422.5 100.753L420.5 115.253L404 120.753L391.5 110.253ZM415.5 86.2529L418 70.7529L434.5 65.2529L446.5 76.7529L444.5 91.2529L428 96.7529L415.5 86.2529ZM426.5 118.249L429 102.749L445.5 97.2487L457.5 108.749L455.5 123.249L439 128.749L426.5 118.249Z" fill="black"/>
<circle cx="415.5" cy="228.753" r="13" fill="#A7B8FF" stroke="black" stroke-width="5"/>
<circle cx="440.5" cy="223.753" r="26" fill="#FFAFAC" stroke="black" stroke-width="5"/>
<circle cx="452.5" cy="246.753" r="13" fill="#A7B8FF" stroke="black" stroke-width="5"/>
<circle cx="148.5" cy="133.753" r="16" fill="#FF9C5D" stroke="black" stroke-width="5"/>
<circle cx="268" cy="141.253" r="14" fill="#FFB36E"/>
<circle cx="308" cy="217.253" r="8" fill="#FFB36E"/>
<circle cx="288.5" cy="286.753" r="10.5" fill="#FFB36E"/>
<circle cx="80.5" cy="166.753" r="16" fill="#FF9C5D" stroke="black" stroke-width="5"/>
<circle cx="124.5" cy="195.753" r="16" fill="#FF9C5D" stroke="black" stroke-width="5"/>
<circle cx="184.5" cy="248.753" r="16" fill="#FF9C5D" stroke="black" stroke-width="5"/>
<circle cx="121" cy="243.253" r="8.5" fill="#99C3FF" stroke="black" stroke-width="5"/>
<circle cx="245" cy="216.253" r="8.5" fill="#99C3FF" stroke="black" stroke-width="5"/>
<circle cx="191" cy="300.253" r="8.5" fill="#99C3FF" stroke="black" stroke-width="5"/>
<line x1="94.6298" y1="176.734" x2="111.63" y2="187.734" stroke="black" stroke-width="6"/>
<line x1="142.798" y1="150.336" x2="130.798" y2="181.336" stroke="black" stroke-width="6"/>
<line x1="236.524" y1="219.837" x2="197.524" y2="242.837" stroke="black" stroke-width="6"/>
<mask id="path-26-inside-1_27_8" fill="white">
<rect x="242" y="134.253" width="112" height="62" rx="7"/>
</mask>
<rect x="242" y="134.253" width="112" height="62" rx="7" stroke="black" stroke-width="24" mask="url(#path-26-inside-1_27_8)"/>
<line x1="264" y1="194.253" x2="264" y2="309.253" stroke="black" stroke-width="12"/>
<line x1="334" y1="309.253" x2="334" y2="194.253" stroke="black" stroke-width="12"/>
<ellipse cx="263" cy="309.753" rx="7" ry="6.5" fill="black"/>
<ellipse cx="335" cy="310.753" rx="7" ry="6.5" fill="black"/>
<path d="M124.826 697.51C124.826 699.55 124.406 701.41 123.566 703.09C122.786 704.77 121.676 706.24 120.236 707.5C118.796 708.76 117.056 709.81 115.016 710.65C113.036 711.43 110.846 711.94 108.446 712.18V721.54C110.486 721.42 112.616 721.27 114.836 721.09C117.056 720.85 119.216 720.61 121.316 720.37C123.476 720.07 125.546 719.77 127.526 719.47C129.506 719.17 131.306 718.87 132.926 718.57C133.886 718.39 134.396 718.6 134.456 719.2L134.996 722.62C135.116 723.34 134.726 723.76 133.826 723.88C129.806 724.54 125.396 725.14 120.596 725.68C115.796 726.22 110.966 726.64 106.106 726.94C104.366 727.06 102.326 727.15 99.986 727.21C97.646 727.27 95.246 727.33 92.786 727.39C90.386 727.39 88.016 727.39 85.676 727.39C83.396 727.39 81.416 727.36 79.736 727.3C79.376 727.3 79.046 727.18 78.746 726.94C78.506 726.7 78.386 726.43 78.386 726.13V723.07C78.386 722.71 78.506 722.44 78.746 722.26C79.046 722.02 79.376 721.9 79.736 721.9C81.056 721.96 82.616 722.02 84.416 722.08C86.276 722.08 88.196 722.08 90.176 722.08C92.216 722.02 94.256 721.99 96.296 721.99C98.396 721.93 100.376 721.87 102.236 721.81V712.27C99.776 712.03 97.526 711.52 95.486 710.74C93.506 709.9 91.796 708.85 90.356 707.59C88.916 706.27 87.776 704.77 86.936 703.09C86.156 701.35 85.766 699.49 85.766 697.51C85.766 695.29 86.246 693.28 87.206 691.48C88.226 689.62 89.606 688.06 91.346 686.8C93.086 685.48 95.126 684.49 97.466 683.83C99.866 683.11 102.476 682.75 105.296 682.75C108.056 682.75 110.636 683.11 113.036 683.83C115.436 684.55 117.506 685.57 119.246 686.89C120.986 688.15 122.336 689.68 123.296 691.48C124.316 693.28 124.826 695.29 124.826 697.51ZM144.716 741.34C144.716 742.18 144.296 742.6 143.456 742.6H139.766C138.926 742.6 138.506 742.18 138.506 741.34V660.88C138.506 660.04 138.926 659.62 139.766 659.62H143.456C144.296 659.62 144.716 660.04 144.716 660.88V696.07H157.136C157.496 696.07 157.796 696.19 158.036 696.43C158.336 696.61 158.486 696.88 158.486 697.24V700.3C158.486 700.6 158.336 700.87 158.036 701.11C157.796 701.35 157.496 701.47 157.136 701.47H144.716V741.34ZM118.706 697.51C118.706 694.45 117.446 692.11 114.926 690.49C112.406 688.87 109.196 688.06 105.296 688.06C103.376 688.06 101.576 688.27 99.896 688.69C98.276 689.11 96.866 689.71 95.666 690.49C94.466 691.27 93.506 692.26 92.786 693.46C92.126 694.66 91.796 696.01 91.796 697.51C91.796 699.01 92.126 700.36 92.786 701.56C93.506 702.7 94.466 703.69 95.666 704.53C96.866 705.31 98.276 705.94 99.896 706.42C101.576 706.84 103.376 707.05 105.296 707.05C109.196 707.05 112.406 706.21 114.926 704.53C117.446 702.85 118.706 700.51 118.706 697.51ZM130.586 676.9C130.586 677.68 130.136 678.07 129.236 678.07H81.356C81.056 678.07 80.756 677.95 80.456 677.71C80.216 677.47 80.096 677.17 80.096 676.81V673.84C80.096 673.48 80.216 673.18 80.456 672.94C80.756 672.7 81.056 672.58 81.356 672.58H129.236C130.136 672.58 130.586 672.97 130.586 673.75V676.9ZM117.896 665.56C117.896 666.4 117.446 666.82 116.546 666.82H92.786C92.486 666.82 92.186 666.73 91.886 666.55C91.646 666.31 91.526 666.01 91.526 665.65V662.59C91.526 662.23 91.646 661.93 91.886 661.69C92.126 661.45 92.396 661.33 92.696 661.33H116.546C117.446 661.33 117.896 661.75 117.896 662.59V665.56ZM202.085 696.52C202.085 698.68 201.575 700.66 200.555 702.46C199.595 704.2 198.245 705.73 196.505 707.05C194.825 708.37 192.785 709.39 190.385 710.11C188.045 710.83 185.495 711.19 182.735 711.19C179.915 711.19 177.335 710.83 174.995 710.11C172.655 709.39 170.615 708.37 168.875 707.05C167.135 705.73 165.785 704.17 164.825 702.37C163.865 700.57 163.385 698.62 163.385 696.52C163.385 694.36 163.865 692.38 164.825 690.58C165.785 688.78 167.135 687.25 168.875 685.99C170.615 684.73 172.655 683.74 174.995 683.02C177.335 682.3 179.915 681.94 182.735 681.94C185.495 681.94 188.045 682.3 190.385 683.02C192.785 683.74 194.825 684.76 196.505 686.08C198.245 687.34 199.595 688.87 200.555 690.67C201.575 692.47 202.085 694.42 202.085 696.52ZM196.055 696.52C196.055 695.08 195.725 693.79 195.065 692.65C194.405 691.45 193.475 690.46 192.275 689.68C191.075 688.84 189.665 688.21 188.045 687.79C186.425 687.31 184.655 687.07 182.735 687.07C180.815 687.07 179.045 687.31 177.425 687.79C175.805 688.21 174.395 688.84 173.195 689.68C171.995 690.46 171.035 691.45 170.315 692.65C169.655 693.79 169.325 695.08 169.325 696.52C169.325 697.96 169.655 699.28 170.315 700.48C171.035 701.62 171.995 702.61 173.195 703.45C174.395 704.29 175.805 704.95 177.425 705.43C179.045 705.85 180.815 706.06 182.735 706.06C184.655 706.06 186.425 705.85 188.045 705.43C189.665 704.95 191.075 704.29 192.275 703.45C193.475 702.61 194.405 701.62 195.065 700.48C195.725 699.28 196.055 697.96 196.055 696.52ZM169.235 718.12C169.235 717.76 169.385 717.49 169.685 717.31C169.985 717.13 170.285 717.04 170.585 717.04H214.865C217.685 717.04 219.515 717.58 220.355 718.66C221.255 719.68 221.705 721.42 221.705 723.88V741.7C221.705 742.54 221.285 742.96 220.445 742.96H216.755C215.915 742.96 215.495 742.54 215.495 741.7V724.33C215.495 723.49 215.345 722.98 215.045 722.8C214.805 722.56 214.265 722.44 213.425 722.44H170.585C170.285 722.44 169.985 722.35 169.685 722.17C169.385 721.93 169.235 721.66 169.235 721.36V718.12ZM221.705 711.37C221.705 712.21 221.285 712.63 220.445 712.63H216.755C215.915 712.63 215.495 712.21 215.495 711.37V660.88C215.495 660.04 215.915 659.62 216.755 659.62H220.445C221.285 659.62 221.705 660.04 221.705 660.88V685.36H234.125C234.485 685.36 234.785 685.48 235.025 685.72C235.325 685.9 235.475 686.17 235.475 686.53V689.41C235.475 689.71 235.325 689.98 235.025 690.22C234.785 690.46 234.485 690.58 234.125 690.58H221.705V711.37ZM209.015 676.72C209.015 677.5 208.565 677.89 207.665 677.89H157.985C157.685 677.89 157.385 677.77 157.085 677.53C156.845 677.29 156.725 676.99 156.725 676.63V673.75C156.725 673.39 156.845 673.09 157.085 672.85C157.385 672.61 157.685 672.49 157.985 672.49H207.665C208.565 672.49 209.015 672.88 209.015 673.66V676.72ZM195.875 665.65C195.875 666.49 195.425 666.91 194.525 666.91H169.865C169.565 666.91 169.265 666.82 168.965 666.64C168.725 666.4 168.605 666.1 168.605 665.74V662.68C168.605 662.32 168.725 662.02 168.965 661.78C169.205 661.54 169.475 661.42 169.775 661.42H194.525C195.425 661.42 195.875 661.84 195.875 662.68V665.65ZM321.308 741.79C321.308 742.09 321.158 742.33 320.858 742.51C320.618 742.75 320.378 742.87 320.138 742.87H274.868C272.048 742.87 270.188 742.33 269.288 741.25C268.448 740.23 268.028 738.46 268.028 735.94V729.19C268.028 726.67 268.538 724.99 269.558 724.15C270.638 723.25 272.528 722.8 275.228 722.8H311.228C312.068 722.8 312.608 722.68 312.848 722.44C313.088 722.2 313.208 721.63 313.208 720.73V715.6C313.208 714.7 313.088 714.13 312.848 713.89C312.668 713.65 312.158 713.53 311.318 713.53H269.108C268.808 713.53 268.508 713.44 268.208 713.26C267.968 713.08 267.848 712.84 267.848 712.54V709.3C267.848 709 267.968 708.76 268.208 708.58C268.508 708.4 268.808 708.31 269.108 708.31H312.308C313.748 708.31 314.918 708.43 315.818 708.67C316.718 708.85 317.438 709.18 317.978 709.66C318.518 710.14 318.878 710.83 319.058 711.73C319.298 712.57 319.418 713.62 319.418 714.88V721.63C319.418 724.15 318.878 725.86 317.798 726.76C316.778 727.6 314.918 728.02 312.218 728.02H276.128C275.288 728.02 274.748 728.14 274.508 728.38C274.328 728.62 274.238 729.19 274.238 730.09V735.58C274.238 736.42 274.358 736.96 274.598 737.2C274.838 737.5 275.378 737.65 276.218 737.65H320.048C320.348 737.65 320.618 737.74 320.858 737.92C321.158 738.1 321.308 738.34 321.308 738.64V741.79ZM280.088 662.41C280.028 666.61 279.488 670.51 278.468 674.11C279.248 676.09 280.328 678.07 281.708 680.05C283.088 682.03 284.648 683.89 286.388 685.63C288.188 687.37 290.108 688.96 292.148 690.4C294.248 691.78 296.378 692.92 298.538 693.82C298.898 693.94 299.078 694.18 299.078 694.54C299.078 694.84 299.018 695.11 298.898 695.35L297.188 698.41C297.008 698.77 296.738 698.98 296.378 699.04C296.078 699.04 295.748 698.98 295.388 698.86C293.468 698.02 291.548 696.97 289.628 695.71C287.708 694.39 285.848 692.95 284.048 691.39C282.308 689.77 280.688 688.12 279.188 686.44C277.748 684.7 276.548 682.99 275.588 681.31C273.668 684.91 271.148 688.3 268.028 691.48C264.968 694.6 261.188 697.6 256.688 700.48C256.268 700.78 255.908 700.96 255.608 701.02C255.368 701.02 255.098 700.84 254.798 700.48L252.548 697.69C252.068 697.03 252.218 696.43 252.998 695.89C256.718 693.55 259.898 691.15 262.538 688.69C265.178 686.17 267.308 683.56 268.928 680.86C270.608 678.1 271.838 675.19 272.618 672.13C273.398 669.07 273.788 665.8 273.788 662.32C273.788 661.84 273.908 661.48 274.148 661.24C274.388 661 274.628 660.88 274.868 660.88L279.098 661.15C279.758 661.15 280.088 661.57 280.088 662.41ZM319.418 701.83C319.418 702.67 318.998 703.09 318.158 703.09H314.468C313.628 703.09 313.208 702.67 313.208 701.83V660.88C313.208 660.04 313.628 659.62 314.468 659.62H318.158C318.998 659.62 319.418 660.04 319.418 660.88V701.83ZM345.017 722.98C345.017 720.46 345.497 718.78 346.457 717.94C347.417 717.04 349.217 716.59 351.857 716.59H389.567C391.007 716.59 392.147 716.68 392.987 716.86C393.887 717.04 394.577 717.37 395.057 717.85C395.597 718.33 395.957 718.99 396.137 719.83C396.317 720.67 396.407 721.72 396.407 722.98V735.49C396.407 738.01 395.927 739.69 394.967 740.53C394.007 741.43 392.207 741.88 389.567 741.88H351.857C350.417 741.88 349.247 741.79 348.347 741.61C347.507 741.43 346.817 741.07 346.277 740.53C345.797 740.05 345.467 739.39 345.287 738.55C345.107 737.77 345.017 736.75 345.017 735.49V722.98ZM374.177 696.07C374.177 698.23 373.697 700.21 372.737 702.01C371.777 703.75 370.427 705.28 368.687 706.6C367.007 707.92 364.997 708.94 362.657 709.66C360.377 710.38 357.887 710.74 355.187 710.74C352.427 710.74 349.877 710.38 347.537 709.66C345.257 708.94 343.277 707.92 341.597 706.6C339.917 705.28 338.597 703.72 337.637 701.92C336.677 700.12 336.197 698.17 336.197 696.07C336.197 693.91 336.677 691.93 337.637 690.13C338.597 688.33 339.917 686.8 341.597 685.54C343.277 684.28 345.257 683.29 347.537 682.57C349.877 681.85 352.427 681.49 355.187 681.49C357.887 681.49 360.377 681.85 362.657 682.57C364.997 683.29 367.007 684.31 368.687 685.63C370.427 686.89 371.777 688.42 372.737 690.22C373.697 692.02 374.177 693.97 374.177 696.07ZM353.387 721.99C352.547 721.99 351.977 722.17 351.677 722.53C351.377 722.83 351.227 723.43 351.227 724.33V734.14C351.227 735.04 351.377 735.64 351.677 735.94C351.977 736.3 352.547 736.48 353.387 736.48H388.037C388.877 736.48 389.447 736.3 389.747 735.94C390.047 735.64 390.197 735.04 390.197 734.14V724.33C390.197 723.43 390.047 722.83 389.747 722.53C389.447 722.17 388.877 721.99 388.037 721.99H353.387ZM368.237 696.07C368.237 694.63 367.907 693.34 367.247 692.2C366.587 691 365.657 690.01 364.457 689.23C363.317 688.39 361.937 687.76 360.317 687.34C358.757 686.86 357.047 686.62 355.187 686.62C353.327 686.62 351.587 686.86 349.967 687.34C348.347 687.76 346.937 688.39 345.737 689.23C344.597 690.01 343.697 691 343.037 692.2C342.377 693.34 342.047 694.63 342.047 696.07C342.047 697.51 342.377 698.83 343.037 700.03C343.697 701.17 344.597 702.16 345.737 703C346.937 703.84 348.347 704.5 349.967 704.98C351.587 705.4 353.327 705.61 355.187 705.61C357.047 705.61 358.757 705.4 360.317 704.98C361.937 704.5 363.317 703.84 364.457 703C365.657 702.16 366.587 701.17 367.247 700.03C367.907 698.83 368.237 697.51 368.237 696.07ZM390.197 685.54V660.88C390.197 660.04 390.617 659.62 391.457 659.62H395.147C395.987 659.62 396.407 660.04 396.407 660.88V710.11C396.407 710.95 395.987 711.37 395.147 711.37H391.457C390.617 711.37 390.197 710.95 390.197 710.11V690.94H377.597C376.817 690.94 376.427 690.58 376.427 689.86V686.62C376.427 685.9 376.817 685.54 377.597 685.54H390.197ZM380.927 676.27C380.927 677.05 380.477 677.44 379.577 677.44H331.697C331.397 677.44 331.097 677.32 330.797 677.08C330.557 676.84 330.437 676.54 330.437 676.18V673.3C330.437 672.94 330.557 672.64 330.797 672.4C331.097 672.16 331.397 672.04 331.697 672.04H379.577C380.477 672.04 380.927 672.43 380.927 673.21V676.27ZM368.237 665.2C368.237 666.04 367.787 666.46 366.887 666.46H343.127C342.827 666.46 342.527 666.37 342.227 666.19C341.987 665.95 341.867 665.65 341.867 665.29V662.23C341.867 661.87 341.987 661.57 342.227 661.33C342.467 661.09 342.737 660.97 343.037 660.97H366.887C367.787 660.97 368.237 661.39 368.237 662.23V665.2ZM475.285 741.79C475.285 742.09 475.135 742.33 474.835 742.51C474.595 742.75 474.355 742.87 474.115 742.87H428.845C426.025 742.87 424.165 742.33 423.265 741.25C422.425 740.23 422.005 738.46 422.005 735.94V729.19C422.005 726.67 422.515 724.99 423.535 724.15C424.615 723.25 426.505 722.8 429.205 722.8H465.205C466.045 722.8 466.585 722.68 466.825 722.44C467.065 722.2 467.185 721.63 467.185 720.73V715.6C467.185 714.7 467.065 714.13 466.825 713.89C466.645 713.65 466.135 713.53 465.295 713.53H423.085C422.785 713.53 422.485 713.44 422.185 713.26C421.945 713.08 421.825 712.84 421.825 712.54V709.3C421.825 709 421.945 708.76 422.185 708.58C422.485 708.4 422.785 708.31 423.085 708.31H466.285C467.725 708.31 468.895 708.43 469.795 708.67C470.695 708.85 471.415 709.18 471.955 709.66C472.495 710.14 472.855 710.83 473.035 711.73C473.275 712.57 473.395 713.62 473.395 714.88V721.63C473.395 724.15 472.855 725.86 471.775 726.76C470.755 727.6 468.895 728.02 466.195 728.02H430.105C429.265 728.02 428.725 728.14 428.485 728.38C428.305 728.62 428.215 729.19 428.215 730.09V735.58C428.215 736.42 428.335 736.96 428.575 737.2C428.815 737.5 429.355 737.65 430.195 737.65H474.025C474.325 737.65 474.595 737.74 474.835 737.92C475.135 738.1 475.285 738.34 475.285 738.64V741.79ZM434.065 662.41C434.005 666.61 433.465 670.51 432.445 674.11C433.225 676.09 434.305 678.07 435.685 680.05C437.065 682.03 438.625 683.89 440.365 685.63C442.165 687.37 444.085 688.96 446.125 690.4C448.225 691.78 450.355 692.92 452.515 693.82C452.875 693.94 453.055 694.18 453.055 694.54C453.055 694.84 452.995 695.11 452.875 695.35L451.165 698.41C450.985 698.77 450.715 698.98 450.355 699.04C450.055 699.04 449.725 698.98 449.365 698.86C447.445 698.02 445.525 696.97 443.605 695.71C441.685 694.39 439.825 692.95 438.025 691.39C436.285 689.77 434.665 688.12 433.165 686.44C431.725 684.7 430.525 682.99 429.565 681.31C427.645 684.91 425.125 688.3 422.005 691.48C418.945 694.6 415.165 697.6 410.665 700.48C410.245 700.78 409.885 700.96 409.585 701.02C409.345 701.02 409.075 700.84 408.775 700.48L406.525 697.69C406.045 697.03 406.195 696.43 406.975 695.89C410.695 693.55 413.875 691.15 416.515 688.69C419.155 686.17 421.285 683.56 422.905 680.86C424.585 678.1 425.815 675.19 426.595 672.13C427.375 669.07 427.765 665.8 427.765 662.32C427.765 661.84 427.885 661.48 428.125 661.24C428.365 661 428.605 660.88 428.845 660.88L433.075 661.15C433.735 661.15 434.065 661.57 434.065 662.41ZM473.395 701.83C473.395 702.67 472.975 703.09 472.135 703.09H468.445C467.605 703.09 467.185 702.67 467.185 701.83V660.88C467.185 660.04 467.605 659.62 468.445 659.62H472.135C472.975 659.62 473.395 660.04 473.395 660.88V701.83Z" fill="black"/>
</svg>
