<svg width="560" height="560" viewBox="0 0 560 560" fill="none" xmlns="http://www.w3.org/2000/svg">
<path d="M169 9H391C479.366 9 551 80.6344 551 169V391C551 479.366 479.366 551 391 551H169C80.6344 551 9 479.366 9 391V169C9 80.6344 80.6344 9 169 9Z" fill="#FCFCFC" stroke="#191970" stroke-width="18"/>
<path fill-rule="evenodd" clip-rule="evenodd" d="M128.755 362.991C114.089 349.658 83.0552 317.091 76.2552 293.491C67.7552 263.991 67.7552 228.991 77.2552 202.991C86.7552 176.991 125.755 143.991 154.755 133.491C183.755 122.991 213.755 115.491 231.255 110.991C245.255 107.391 272.755 96.1577 284.755 90.991C288.755 88.8244 296.755 86.591 296.755 94.991C296.755 105.491 297.255 115.991 303.755 128.991C310.255 141.991 319.255 154.991 322.255 173.491C325.255 191.991 319.255 184.491 302.755 191.491C286.255 198.491 268.755 205.491 254.755 228.491C240.755 251.491 236.755 274.991 240.255 294.991C243.755 314.991 255.755 335.491 262.755 343.491C269.755 351.491 269.755 347.491 269.755 354.491C269.755 361.491 212.255 372.491 207.755 372.491C203.255 372.491 190.255 373.991 169.255 371.491C148.255 368.991 130.755 364.835 128.755 362.991ZM94.2552 304.991C102.255 322.991 124.589 344.491 134.755 352.991L147.255 357.491C156.255 358.824 179.155 361.591 198.755 361.991C218.355 362.391 244.589 354.491 255.255 350.491C247.755 342.491 239.255 327.991 233.755 313.491C228.255 298.991 227.255 271.991 232.255 251.991C237.255 231.991 247.755 217.991 264.755 200.991C278.355 187.391 301.089 179.658 310.755 177.491C310.422 173.991 307.755 162.891 299.755 146.491C291.755 130.091 286.422 110.324 284.755 102.491L273.755 106.991C249.255 118.991 217.255 125.491 200.755 130.491C184.255 135.491 145.255 147.491 122.255 164.991C99.2552 182.491 84.2552 204.991 81.7552 238.991C79.2552 272.991 84.2552 282.491 94.2552 304.991Z" fill="black"/>
<path d="M134.755 352.991C124.589 344.491 102.255 322.991 94.2552 304.991C84.2552 282.491 79.2552 272.991 81.7552 238.991C84.2552 204.991 99.2552 182.491 122.255 164.991C145.255 147.491 184.255 135.491 200.755 130.491C217.255 125.491 249.255 118.991 273.755 106.991L284.755 102.491C286.422 110.324 291.755 130.091 299.755 146.491C307.755 162.891 310.422 173.991 310.755 177.491C301.089 179.658 278.355 187.391 264.755 200.991C247.755 217.991 237.255 231.991 232.255 251.991C227.255 271.991 228.255 298.991 233.755 313.491C239.255 327.991 247.755 342.491 255.255 350.491C244.589 354.491 218.355 362.391 198.755 361.991C179.155 361.591 156.255 358.824 147.255 357.491L134.755 352.991Z" fill="#00AA27"/>
<path fill-rule="evenodd" clip-rule="evenodd" d="M128.755 362.991C114.089 349.658 83.0552 317.091 76.2552 293.491C67.7552 263.991 67.7552 228.991 77.2552 202.991C86.7552 176.991 125.755 143.991 154.755 133.491C183.755 122.991 213.755 115.491 231.255 110.991C245.255 107.391 272.755 96.1577 284.755 90.991C288.755 88.8244 296.755 86.591 296.755 94.991C296.755 105.491 297.255 115.991 303.755 128.991C310.255 141.991 319.255 154.991 322.255 173.491C325.255 191.991 319.255 184.491 302.755 191.491C286.255 198.491 268.755 205.491 254.755 228.491C240.755 251.491 236.755 274.991 240.255 294.991C243.755 314.991 255.755 335.491 262.755 343.491C269.755 351.491 269.755 347.491 269.755 354.491C269.755 361.491 212.255 372.491 207.755 372.491C203.255 372.491 190.255 373.991 169.255 371.491C148.255 368.991 130.755 364.835 128.755 362.991ZM94.2552 304.991C102.255 322.991 124.589 344.491 134.755 352.991L147.255 357.491C156.255 358.824 179.155 361.591 198.755 361.991C218.355 362.391 244.589 354.491 255.255 350.491C247.755 342.491 239.255 327.991 233.755 313.491C228.255 298.991 227.255 271.991 232.255 251.991C237.255 231.991 247.755 217.991 264.755 200.991C278.355 187.391 301.089 179.658 310.755 177.491C310.422 173.991 307.755 162.891 299.755 146.491C291.755 130.091 286.422 110.324 284.755 102.491L273.755 106.991C249.255 118.991 217.255 125.491 200.755 130.491C184.255 135.491 145.255 147.491 122.255 164.991C99.2552 182.491 84.2552 204.991 81.7552 238.991C79.2552 272.991 84.2552 282.491 94.2552 304.991Z" stroke="black"/>
<path d="M134.755 352.991C124.589 344.491 102.255 322.991 94.2552 304.991C84.2552 282.491 79.2552 272.991 81.7552 238.991C84.2552 204.991 99.2552 182.491 122.255 164.991C145.255 147.491 184.255 135.491 200.755 130.491C217.255 125.491 249.255 118.991 273.755 106.991L284.755 102.491C286.422 110.324 291.755 130.091 299.755 146.491C307.755 162.891 310.422 173.991 310.755 177.491C301.089 179.658 278.355 187.391 264.755 200.991C247.755 217.991 237.255 231.991 232.255 251.991C227.255 271.991 228.255 298.991 233.755 313.491C239.255 327.991 247.755 342.491 255.255 350.491C244.589 354.491 218.355 362.391 198.755 361.991C179.155 361.591 156.255 358.824 147.255 357.491L134.755 352.991Z" stroke="black"/>
<circle cx="335.755" cy="280.491" r="85" fill="#A7E4FF" stroke="black" stroke-width="12"/>
<circle cx="95.2554" cy="427.991" r="5" fill="black" stroke="black"/>
<circle cx="108.255" cy="215.991" r="5" fill="black" stroke="black"/>
<line x1="255.396" y1="176.444" x2="94.3955" y2="429.444" stroke="black" stroke-width="11"/>
<line x1="107.671" y1="215.628" x2="180.671" y2="289.628" stroke="black" stroke-width="11"/>
<line x1="175.155" y1="170.191" x2="220.155" y2="230.191" stroke="black" stroke-width="11"/>
<line x1="237.836" y1="140.384" x2="254.836" y2="181.384" stroke="black" stroke-width="11"/>
<line x1="292.203" y1="166.797" x2="248.203" y2="178.797" stroke="black" stroke-width="11"/>
<line x1="244.755" y1="231.991" x2="215.755" y2="231.991" stroke="black" stroke-width="11"/>
<line x1="237.085" y1="297.95" x2="180.085" y2="290.95" stroke="black" stroke-width="11"/>
<circle cx="175.255" cy="169.991" r="5" fill="black" stroke="black"/>
<circle cx="238.255" cy="139.991" r="5" fill="black" stroke="black"/>
<circle cx="291.255" cy="166.991" r="5" fill="black" stroke="black"/>
<mask id="path-16-inside-1_13_221" fill="white">
<rect x="424.6" y="336.491" width="112.426" height="57.5133" rx="8" transform="rotate(45.25 424.6 336.491)"/>
</mask>
<rect x="424.6" y="336.491" width="112.426" height="57.5133" rx="8" transform="rotate(45.25 424.6 336.491)" fill="#FFD68D" stroke="black" stroke-width="24" mask="url(#path-16-inside-1_13_221)"/>
<path d="M396.798 342.54L410.965 356.831L404.407 363.332L390.24 349.041L396.798 342.54Z" fill="#FFD68D" stroke="black" stroke-width="12"/>
<path fill-rule="evenodd" clip-rule="evenodd" d="M335.755 350.991C346.589 345.324 365.055 328.091 352.255 304.491C350.589 300.991 346.755 293.491 344.755 291.491C347.589 287.491 353.155 275.591 352.755 259.991C352.255 240.491 349.255 237.991 338.255 220.991C338.755 220.324 340.655 218.891 344.255 218.491C348.755 217.991 353.255 214.491 350.255 210.991C347.255 207.491 344.255 207.991 339.755 208.491C336.155 208.891 333.589 210.658 332.755 211.491C330.255 208.491 324.555 202.991 321.755 204.991C318.255 207.491 317.755 209.491 319.255 212.991C320.455 215.791 322.089 216.824 322.755 216.991C316.922 220.491 305.255 230.891 305.255 244.491C305.255 258.091 315.589 273.491 320.755 279.491L330.755 291.491C328.922 294.324 323.055 300.991 314.255 304.991C303.255 309.991 297.755 310.491 297.755 314.491C297.755 318.491 302.255 320.991 304.255 320.491C306.255 320.091 307.755 319.324 308.255 318.991L329.755 341.991C325.755 342.991 317.655 345.691 317.255 348.491C316.755 351.991 318.255 354.491 321.255 354.991C323.655 355.391 331.922 352.491 335.755 350.991ZM334.255 338.991L315.255 316.991L321.255 313.491L341.255 332.991C340.055 335.391 336.089 337.991 334.255 338.991ZM330.755 306.991C329.955 308.591 327.089 309.658 325.755 309.991L344.255 327.491C345.455 326.291 345.755 322.991 345.755 321.491L330.755 306.991ZM343.255 311.491L334.755 303.491L337.755 300.491C339.355 302.091 342.089 308.491 343.255 311.491ZM339.255 276.491C339.655 278.891 338.422 280.824 337.755 281.491C335.355 279.891 331.422 274.824 329.755 272.491L339.255 276.491ZM340.755 265.491C341.955 268.691 340.922 270.824 340.255 271.491L322.255 261.491C320.255 259.891 318.755 256.158 318.255 254.491L340.755 265.491ZM341.755 254.491V258.491L317.755 247.991C316.155 246.791 316.755 243.158 317.255 241.491L341.755 254.491ZM340.255 247.991L319.255 235.991C318.855 234.791 320.422 233.491 321.255 232.991L337.755 242.491C339.755 244.491 340.255 246.991 340.255 247.991ZM333.755 233.491L325.755 228.991L328.755 226.491C331.155 227.691 333.089 231.658 333.755 233.491Z" fill="black" stroke="black"/>
</svg>
