<svg width="565" height="727" viewBox="0 0 565 727" fill="none" xmlns="http://www.w3.org/2000/svg">
<path d="M171 9H393C481.366 9 553 80.6344 553 169V391C553 479.366 481.366 551 393 551H171C82.6344 551 11 479.366 11 391V169C11 80.6344 82.6344 9 171 9Z" fill="#FCFCFC" stroke="#191970" stroke-width="18"/>
<path fill-rule="evenodd" clip-rule="evenodd" d="M130.755 362.991C116.089 349.658 85.0552 317.091 78.2552 293.491C69.7552 263.991 69.7552 228.991 79.2552 202.991C88.7552 176.991 127.755 143.991 156.755 133.491C185.755 122.991 215.755 115.491 233.255 110.991C247.255 107.391 274.755 96.1577 286.755 90.991C290.755 88.8244 298.755 86.591 298.755 94.991C298.755 105.491 299.255 115.991 305.755 128.991C312.255 141.991 321.255 154.991 324.255 173.491C327.255 191.991 321.255 184.491 304.755 191.491C288.255 198.491 270.755 205.491 256.755 228.491C242.755 251.491 238.755 274.991 242.255 294.991C245.755 314.991 257.755 335.491 264.755 343.491C271.755 351.491 271.755 347.491 271.755 354.491C271.755 361.491 214.255 372.491 209.755 372.491C205.255 372.491 192.255 373.991 171.255 371.491C150.255 368.991 132.755 364.835 130.755 362.991ZM96.2552 304.991C104.255 322.991 126.589 344.491 136.755 352.991L149.255 357.491C158.255 358.824 181.155 361.591 200.755 361.991C220.355 362.391 246.589 354.491 257.255 350.491C249.755 342.491 241.255 327.991 235.755 313.491C230.255 298.991 229.255 271.991 234.255 251.991C239.255 231.991 249.755 217.991 266.755 200.991C280.355 187.391 303.089 179.658 312.755 177.491C312.422 173.991 309.755 162.891 301.755 146.491C293.755 130.091 288.422 110.324 286.755 102.491L275.755 106.991C251.255 118.991 219.255 125.491 202.755 130.491C186.255 135.491 147.255 147.491 124.255 164.991C101.255 182.491 86.2552 204.991 83.7552 238.991C81.2552 272.991 86.2552 282.491 96.2552 304.991Z" fill="black"/>
<path d="M136.755 352.991C126.589 344.491 104.255 322.991 96.2552 304.991C86.2552 282.491 81.2552 272.991 83.7552 238.991C86.2552 204.991 101.255 182.491 124.255 164.991C147.255 147.491 186.255 135.491 202.755 130.491C219.255 125.491 251.255 118.991 275.755 106.991L286.755 102.491C288.422 110.324 293.755 130.091 301.755 146.491C309.755 162.891 312.422 173.991 312.755 177.491C303.089 179.658 280.355 187.391 266.755 200.991C249.755 217.991 239.255 231.991 234.255 251.991C229.255 271.991 230.255 298.991 235.755 313.491C241.255 327.991 249.755 342.491 257.255 350.491C246.589 354.491 220.355 362.391 200.755 361.991C181.155 361.591 158.255 358.824 149.255 357.491L136.755 352.991Z" fill="#00AA27"/>
<path fill-rule="evenodd" clip-rule="evenodd" d="M130.755 362.991C116.089 349.658 85.0552 317.091 78.2552 293.491C69.7552 263.991 69.7552 228.991 79.2552 202.991C88.7552 176.991 127.755 143.991 156.755 133.491C185.755 122.991 215.755 115.491 233.255 110.991C247.255 107.391 274.755 96.1577 286.755 90.991C290.755 88.8244 298.755 86.591 298.755 94.991C298.755 105.491 299.255 115.991 305.755 128.991C312.255 141.991 321.255 154.991 324.255 173.491C327.255 191.991 321.255 184.491 304.755 191.491C288.255 198.491 270.755 205.491 256.755 228.491C242.755 251.491 238.755 274.991 242.255 294.991C245.755 314.991 257.755 335.491 264.755 343.491C271.755 351.491 271.755 347.491 271.755 354.491C271.755 361.491 214.255 372.491 209.755 372.491C205.255 372.491 192.255 373.991 171.255 371.491C150.255 368.991 132.755 364.835 130.755 362.991ZM96.2552 304.991C104.255 322.991 126.589 344.491 136.755 352.991L149.255 357.491C158.255 358.824 181.155 361.591 200.755 361.991C220.355 362.391 246.589 354.491 257.255 350.491C249.755 342.491 241.255 327.991 235.755 313.491C230.255 298.991 229.255 271.991 234.255 251.991C239.255 231.991 249.755 217.991 266.755 200.991C280.355 187.391 303.089 179.658 312.755 177.491C312.422 173.991 309.755 162.891 301.755 146.491C293.755 130.091 288.422 110.324 286.755 102.491L275.755 106.991C251.255 118.991 219.255 125.491 202.755 130.491C186.255 135.491 147.255 147.491 124.255 164.991C101.255 182.491 86.2552 204.991 83.7552 238.991C81.2552 272.991 86.2552 282.491 96.2552 304.991Z" stroke="black"/>
<path d="M136.755 352.991C126.589 344.491 104.255 322.991 96.2552 304.991C86.2552 282.491 81.2552 272.991 83.7552 238.991C86.2552 204.991 101.255 182.491 124.255 164.991C147.255 147.491 186.255 135.491 202.755 130.491C219.255 125.491 251.255 118.991 275.755 106.991L286.755 102.491C288.422 110.324 293.755 130.091 301.755 146.491C309.755 162.891 312.422 173.991 312.755 177.491C303.089 179.658 280.355 187.391 266.755 200.991C249.755 217.991 239.255 231.991 234.255 251.991C229.255 271.991 230.255 298.991 235.755 313.491C241.255 327.991 249.755 342.491 257.255 350.491C246.589 354.491 220.355 362.391 200.755 361.991C181.155 361.591 158.255 358.824 149.255 357.491L136.755 352.991Z" stroke="black"/>
<circle cx="337.755" cy="280.491" r="85" fill="#A7E4FF" stroke="black" stroke-width="12"/>
<circle cx="97.2554" cy="427.991" r="5" fill="black" stroke="black"/>
<circle cx="110.255" cy="215.991" r="5" fill="black" stroke="black"/>
<line x1="257.396" y1="176.444" x2="96.3955" y2="429.444" stroke="black" stroke-width="11"/>
<line x1="109.671" y1="215.628" x2="182.671" y2="289.628" stroke="black" stroke-width="11"/>
<line x1="177.155" y1="170.191" x2="222.155" y2="230.191" stroke="black" stroke-width="11"/>
<line x1="239.836" y1="140.384" x2="256.836" y2="181.384" stroke="black" stroke-width="11"/>
<line x1="294.203" y1="166.797" x2="250.203" y2="178.797" stroke="black" stroke-width="11"/>
<line x1="246.755" y1="231.991" x2="217.755" y2="231.991" stroke="black" stroke-width="11"/>
<line x1="239.085" y1="297.95" x2="182.085" y2="290.95" stroke="black" stroke-width="11"/>
<circle cx="177.255" cy="169.991" r="5" fill="black" stroke="black"/>
<circle cx="240.255" cy="139.991" r="5" fill="black" stroke="black"/>
<circle cx="293.255" cy="166.991" r="5" fill="black" stroke="black"/>
<mask id="path-16-inside-1_27_2" fill="white">
<rect x="426.6" y="336.491" width="112.426" height="57.5133" rx="8" transform="rotate(45.25 426.6 336.491)"/>
</mask>
<rect x="426.6" y="336.491" width="112.426" height="57.5133" rx="8" transform="rotate(45.25 426.6 336.491)" fill="#FFD68D" stroke="black" stroke-width="24" mask="url(#path-16-inside-1_27_2)"/>
<path d="M398.798 342.54L412.965 356.831L406.407 363.332L392.24 349.041L398.798 342.54Z" fill="#FFD68D" stroke="black" stroke-width="12"/>
<path fill-rule="evenodd" clip-rule="evenodd" d="M337.755 350.991C348.589 345.324 367.055 328.091 354.255 304.491C352.589 300.991 348.755 293.491 346.755 291.491C349.589 287.491 355.155 275.591 354.755 259.991C354.255 240.491 351.255 237.991 340.255 220.991C340.755 220.324 342.655 218.891 346.255 218.491C350.755 217.991 355.255 214.491 352.255 210.991C349.255 207.491 346.255 207.991 341.755 208.491C338.155 208.891 335.589 210.658 334.755 211.491C332.255 208.491 326.555 202.991 323.755 204.991C320.255 207.491 319.755 209.491 321.255 212.991C322.455 215.791 324.089 216.824 324.755 216.991C318.922 220.491 307.255 230.891 307.255 244.491C307.255 258.091 317.589 273.491 322.755 279.491L332.755 291.491C330.922 294.324 325.055 300.991 316.255 304.991C305.255 309.991 299.755 310.491 299.755 314.491C299.755 318.491 304.255 320.991 306.255 320.491C308.255 320.091 309.755 319.324 310.255 318.991L331.755 341.991C327.755 342.991 319.655 345.691 319.255 348.491C318.755 351.991 320.255 354.491 323.255 354.991C325.655 355.391 333.922 352.491 337.755 350.991ZM336.255 338.991L317.255 316.991L323.255 313.491L343.255 332.991C342.055 335.391 338.089 337.991 336.255 338.991ZM332.755 306.991C331.955 308.591 329.089 309.658 327.755 309.991L346.255 327.491C347.455 326.291 347.755 322.991 347.755 321.491L332.755 306.991ZM345.255 311.491L336.755 303.491L339.755 300.491C341.355 302.091 344.089 308.491 345.255 311.491ZM341.255 276.491C341.655 278.891 340.422 280.824 339.755 281.491C337.355 279.891 333.422 274.824 331.755 272.491L341.255 276.491ZM342.755 265.491C343.955 268.691 342.922 270.824 342.255 271.491L324.255 261.491C322.255 259.891 320.755 256.158 320.255 254.491L342.755 265.491ZM343.755 254.491V258.491L319.755 247.991C318.155 246.791 318.755 243.158 319.255 241.491L343.755 254.491ZM342.255 247.991L321.255 235.991C320.855 234.791 322.422 233.491 323.255 232.991L339.755 242.491C341.755 244.491 342.255 246.991 342.255 247.991ZM335.755 233.491L327.755 228.991L330.755 226.491C333.155 227.691 335.089 231.658 335.755 233.491Z" fill="black" stroke="black"/>
<path d="M20.5873 709.49C20.5873 706.91 21.2773 704.63 22.6573 702.65C24.0373 700.61 25.9573 698.9 28.4173 697.52C30.9373 696.08 33.8773 695 37.2373 694.28C40.6573 693.56 44.4073 693.2 48.4873 693.2C52.2073 693.2 55.7473 693.56 59.1073 694.28C62.4673 695 65.4373 696.05 68.0173 697.43C70.5973 698.81 72.6373 700.52 74.1373 702.56C75.6373 704.54 76.3873 706.85 76.3873 709.49C76.3873 712.13 75.6373 714.47 74.1373 716.51C72.6373 718.61 70.5973 720.35 68.0173 721.73C65.4373 723.11 62.4673 724.16 59.1073 724.88C55.7473 725.6 52.2073 725.96 48.4873 725.96C44.4073 725.96 40.6573 725.6 37.2373 724.88C33.8773 724.16 30.9373 723.11 28.4173 721.73C25.9573 720.35 24.0373 718.61 22.6573 716.51C21.2773 714.47 20.5873 712.13 20.5873 709.49ZM27.2473 709.76C27.2473 711.56 27.7573 713.12 28.7773 714.44C29.8573 715.82 31.3273 716.96 33.1873 717.86C35.1073 718.76 37.3573 719.42 39.9373 719.84C42.5173 720.32 45.3373 720.56 48.3973 720.56C51.0973 720.56 53.7373 720.32 56.3173 719.84C58.8973 719.42 61.1773 718.76 63.1573 717.86C65.1373 716.96 66.7273 715.82 67.9273 714.44C69.1873 713.12 69.8173 711.56 69.8173 709.76C69.8173 707.9 69.1873 706.28 67.9273 704.9C66.7273 703.52 65.1373 702.38 63.1573 701.48C61.1773 700.52 58.8973 699.8 56.3173 699.32C53.7373 698.84 51.0973 698.6 48.3973 698.6C45.3373 698.6 42.5173 698.84 39.9373 699.32C37.3573 699.8 35.1073 700.52 33.1873 701.48C31.3273 702.38 29.8573 703.52 28.7773 704.9C27.7573 706.28 27.2473 707.9 27.2473 709.76ZM58.4773 688.07C58.4773 688.91 58.0573 689.33 57.2173 689.33H53.7973C52.9573 689.33 52.5373 688.91 52.5373 688.07V645.41C52.5373 644.57 52.9573 644.15 53.7973 644.15H57.2173C58.0573 644.15 58.4773 644.57 58.4773 645.41V665.3H69.9073V643.88C69.9073 643.04 70.3273 642.62 71.1673 642.62H74.5873C75.4273 642.62 75.8473 643.04 75.8473 643.88V690.86C75.8473 691.7 75.4273 692.12 74.5873 692.12H71.1673C70.3273 692.12 69.9073 691.7 69.9073 690.86V670.7H58.4773V688.07ZM30.3973 646.85C30.3373 651.41 29.7073 655.76 28.5073 659.9C29.2273 662 30.1873 664.07 31.3873 666.11C32.5873 668.15 33.9373 670.07 35.4373 671.87C36.9973 673.67 38.6773 675.32 40.4773 676.82C42.2773 678.26 44.1073 679.46 45.9673 680.42C46.6273 680.78 46.7173 681.32 46.2373 682.04L44.0773 685.1C43.8973 685.34 43.6873 685.49 43.4473 685.55C43.2673 685.55 42.9073 685.4 42.3673 685.1C39.0673 683.06 35.9473 680.45 33.0073 677.27C30.0673 674.09 27.6373 670.79 25.7173 667.37C23.9773 671.03 21.7873 674.51 19.1473 677.81C16.5673 681.05 13.4473 684.17 9.78734 687.17C9.30734 687.53 8.88734 687.71 8.52734 687.71C8.22734 687.71 8.01734 687.62 7.89734 687.44L5.37734 684.56C4.83734 683.9 4.98734 683.27 5.82734 682.67C8.88734 680.27 11.5273 677.75 13.7473 675.11C15.9673 672.47 17.8273 669.68 19.3273 666.74C20.8273 663.74 21.9673 660.59 22.7473 657.29C23.5273 653.99 23.9773 650.48 24.0973 646.76C24.0373 646.34 24.1273 646.01 24.3673 645.77C24.6073 645.47 24.8773 645.32 25.1773 645.32L29.4073 645.59C30.0673 645.59 30.3973 646.01 30.3973 646.85ZM149.866 691.76C149.866 692.6 149.446 693.02 148.606 693.02H144.916C144.076 693.02 143.656 692.6 143.656 691.76V677.45H125.836V680.33C125.836 682.85 125.356 684.56 124.396 685.46C123.436 686.3 121.636 686.72 118.996 686.72H94.246C92.806 686.72 91.636 686.63 90.736 686.45C89.896 686.27 89.206 685.94 88.666 685.46C88.186 684.92 87.856 684.26 87.676 683.48C87.496 682.64 87.406 681.59 87.406 680.33V652.88C87.406 650.36 87.886 648.68 88.846 647.84C89.806 646.94 91.606 646.49 94.246 646.49H118.996C120.436 646.49 121.576 646.58 122.416 646.76C123.316 646.94 124.006 647.27 124.486 647.75C125.026 648.23 125.386 648.89 125.566 649.73C125.746 650.57 125.836 651.62 125.836 652.88V656.21H143.656V643.88C143.656 643.04 144.076 642.62 144.916 642.62H148.606C149.446 642.62 149.866 643.04 149.866 643.88V691.76ZM150.586 709.49C150.586 712.07 149.896 714.38 148.516 716.42C147.136 718.46 145.246 720.17 142.846 721.55C140.506 722.99 137.746 724.07 134.566 724.79C131.446 725.57 128.086 725.96 124.486 725.96C120.586 725.96 117.046 725.57 113.866 724.79C110.686 724.07 107.956 722.99 105.676 721.55C103.396 720.17 101.626 718.46 100.366 716.42C99.106 714.38 98.476 712.07 98.476 709.49C98.476 706.97 99.106 704.72 100.366 702.74C101.626 700.7 103.396 698.99 105.676 697.61C107.956 696.17 110.686 695.09 113.866 694.37C117.046 693.59 120.586 693.2 124.486 693.2C128.086 693.2 131.446 693.59 134.566 694.37C137.746 695.09 140.506 696.14 142.846 697.52C145.246 698.9 147.136 700.61 148.516 702.65C149.896 704.63 150.586 706.91 150.586 709.49ZM95.776 651.89C94.936 651.89 94.366 652.07 94.066 652.43C93.766 652.73 93.616 653.33 93.616 654.23V678.98C93.616 679.88 93.766 680.51 94.066 680.87C94.366 681.17 94.936 681.32 95.776 681.32H117.466C118.306 681.32 118.876 681.17 119.176 680.87C119.476 680.51 119.626 679.88 119.626 678.98V654.23C119.626 653.33 119.476 652.73 119.176 652.43C118.876 652.07 118.306 651.89 117.466 651.89H95.776ZM144.196 709.76C144.196 707.96 143.656 706.37 142.576 704.99C141.496 703.61 140.026 702.47 138.166 701.57C136.366 700.61 134.266 699.89 131.866 699.41C129.466 698.87 126.976 698.6 124.396 698.6C121.516 698.6 118.876 698.87 116.476 699.41C114.076 699.89 112.006 700.61 110.266 701.57C108.586 702.47 107.266 703.61 106.306 704.99C105.346 706.37 104.866 707.96 104.866 709.76C104.866 711.5 105.346 713.03 106.306 714.35C107.266 715.73 108.586 716.87 110.266 717.77C112.006 718.67 114.076 719.36 116.476 719.84C118.876 720.32 121.516 720.56 124.396 720.56C126.976 720.56 129.466 720.32 131.866 719.84C134.266 719.36 136.366 718.67 138.166 717.77C140.026 716.87 141.496 715.73 142.576 714.35C143.656 713.03 144.196 711.5 144.196 709.76ZM125.836 672.14H143.656V661.52H125.836V672.14ZM223.705 724.34C223.705 725.18 223.285 725.6 222.445 725.6H218.755C217.915 725.6 217.495 725.18 217.495 724.34V643.88C217.495 643.04 217.915 642.62 218.755 642.62H222.445C223.285 642.62 223.705 643.04 223.705 643.88V679.07H236.125C236.485 679.07 236.785 679.19 237.025 679.43C237.325 679.61 237.475 679.88 237.475 680.24V683.3C237.475 683.6 237.325 683.87 237.025 684.11C236.785 684.35 236.485 684.47 236.125 684.47H223.705V724.34ZM211.915 699.32C212.875 699.14 213.385 699.35 213.445 699.95L213.985 703.1C214.105 703.82 213.715 704.24 212.815 704.36C208.795 705.02 204.385 705.62 199.585 706.16C194.785 706.7 189.955 707.12 185.095 707.42C183.355 707.54 181.315 707.63 178.975 707.69C176.635 707.75 174.235 707.81 171.775 707.87C169.375 707.87 167.005 707.87 164.665 707.87C162.385 707.87 160.405 707.84 158.725 707.78C158.365 707.78 158.035 707.66 157.735 707.42C157.495 707.18 157.375 706.91 157.375 706.61V703.55C157.375 703.19 157.495 702.92 157.735 702.74C158.035 702.5 158.365 702.38 158.725 702.38C159.865 702.38 161.185 702.41 162.685 702.47C164.185 702.47 165.745 702.47 167.365 702.47C169.045 702.47 170.755 702.47 172.495 702.47C174.295 702.41 176.035 702.38 177.715 702.38V677.54C177.715 677.18 177.805 676.88 177.985 676.64C178.225 676.34 178.525 676.19 178.885 676.19H182.755C183.055 676.19 183.325 676.34 183.565 676.64C183.805 676.88 183.925 677.18 183.925 677.54V702.2C184.045 702.2 184.195 702.2 184.375 702.2C184.555 702.14 184.735 702.11 184.915 702.11C187.015 701.99 189.265 701.87 191.665 701.75C194.065 701.57 196.465 701.39 198.865 701.21C201.265 700.97 203.575 700.7 205.795 700.4C208.075 700.1 210.115 699.74 211.915 699.32ZM162.955 650.99C162.955 650.63 163.105 650.36 163.405 650.18C163.705 650 164.005 649.91 164.305 649.91H198.055C199.495 649.91 200.635 650.06 201.475 650.36C202.375 650.66 203.065 651.11 203.545 651.71C204.025 652.25 204.355 652.97 204.535 653.87C204.715 654.77 204.835 655.85 204.895 657.11C204.955 659.57 204.925 662.09 204.805 664.67C204.745 667.25 204.595 669.86 204.355 672.5C204.175 675.08 203.905 677.63 203.545 680.15C203.185 682.67 202.765 685.04 202.285 687.26C202.165 687.62 201.985 687.95 201.745 688.25C201.565 688.55 201.295 688.67 200.935 688.61L197.335 688.34C196.315 688.28 195.955 687.74 196.255 686.72C196.795 684.5 197.245 682.1 197.605 679.52C198.025 676.94 198.325 674.36 198.505 671.78C198.745 669.14 198.895 666.59 198.955 664.13C199.015 661.61 198.955 659.3 198.775 657.2C198.655 656.36 198.475 655.85 198.235 655.67C198.055 655.43 197.545 655.31 196.705 655.31H164.305C163.885 655.31 163.555 655.22 163.315 655.04C163.075 654.8 162.955 654.53 162.955 654.23V650.99ZM281.073 679.52C281.073 681.68 280.563 683.66 279.543 685.46C278.583 687.2 277.233 688.73 275.493 690.05C273.813 691.37 271.773 692.39 269.373 693.11C267.033 693.83 264.483 694.19 261.723 694.19C258.903 694.19 256.323 693.83 253.983 693.11C251.643 692.39 249.603 691.37 247.863 690.05C246.123 688.73 244.773 687.17 243.813 685.37C242.853 683.57 242.373 681.62 242.373 679.52C242.373 677.36 242.853 675.38 243.813 673.58C244.773 671.78 246.123 670.25 247.863 668.99C249.603 667.73 251.643 666.74 253.983 666.02C256.323 665.3 258.903 664.94 261.723 664.94C264.483 664.94 267.033 665.3 269.373 666.02C271.773 666.74 273.813 667.76 275.493 669.08C277.233 670.34 278.583 671.87 279.543 673.67C280.563 675.47 281.073 677.42 281.073 679.52ZM275.043 679.52C275.043 678.08 274.713 676.79 274.053 675.65C273.393 674.45 272.463 673.46 271.263 672.68C270.063 671.84 268.653 671.21 267.033 670.79C265.413 670.31 263.643 670.07 261.723 670.07C259.803 670.07 258.033 670.31 256.413 670.79C254.793 671.21 253.383 671.84 252.183 672.68C250.983 673.46 250.023 674.45 249.303 675.65C248.643 676.79 248.313 678.08 248.313 679.52C248.313 680.96 248.643 682.28 249.303 683.48C250.023 684.62 250.983 685.61 252.183 686.45C253.383 687.29 254.793 687.95 256.413 688.43C258.033 688.85 259.803 689.06 261.723 689.06C263.643 689.06 265.413 688.85 267.033 688.43C268.653 687.95 270.063 687.29 271.263 686.45C272.463 685.61 273.393 684.62 274.053 683.48C274.713 682.28 275.043 680.96 275.043 679.52ZM248.223 701.12C248.223 700.76 248.373 700.49 248.673 700.31C248.973 700.13 249.273 700.04 249.573 700.04H293.853C296.673 700.04 298.503 700.58 299.343 701.66C300.243 702.68 300.693 704.42 300.693 706.88V724.7C300.693 725.54 300.273 725.96 299.433 725.96H295.743C294.903 725.96 294.483 725.54 294.483 724.7V707.33C294.483 706.49 294.333 705.98 294.033 705.8C293.793 705.56 293.253 705.44 292.413 705.44H249.573C249.273 705.44 248.973 705.35 248.673 705.17C248.373 704.93 248.223 704.66 248.223 704.36V701.12ZM300.693 694.37C300.693 695.21 300.273 695.63 299.433 695.63H295.743C294.903 695.63 294.483 695.21 294.483 694.37V643.88C294.483 643.04 294.903 642.62 295.743 642.62H299.433C300.273 642.62 300.693 643.04 300.693 643.88V668.36H313.113C313.473 668.36 313.773 668.48 314.013 668.72C314.313 668.9 314.463 669.17 314.463 669.53V672.41C314.463 672.71 314.313 672.98 314.013 673.22C313.773 673.46 313.473 673.58 313.113 673.58H300.693V694.37ZM288.003 659.72C288.003 660.5 287.553 660.89 286.653 660.89H236.973C236.673 660.89 236.373 660.77 236.073 660.53C235.833 660.29 235.713 659.99 235.713 659.63V656.75C235.713 656.39 235.833 656.09 236.073 655.85C236.373 655.61 236.673 655.49 236.973 655.49H286.653C287.553 655.49 288.003 655.88 288.003 656.66V659.72ZM274.863 648.65C274.863 649.49 274.413 649.91 273.513 649.91H248.853C248.553 649.91 248.253 649.82 247.953 649.64C247.713 649.4 247.593 649.1 247.593 648.74V645.68C247.593 645.32 247.713 645.02 247.953 644.78C248.193 644.54 248.463 644.42 248.763 644.42H273.513C274.413 644.42 274.863 644.84 274.863 645.68V648.65ZM400.297 724.79C400.297 725.09 400.147 725.33 399.847 725.51C399.607 725.75 399.367 725.87 399.127 725.87H353.857C351.037 725.87 349.177 725.33 348.277 724.25C347.437 723.23 347.017 721.46 347.017 718.94V712.19C347.017 709.67 347.527 707.99 348.547 707.15C349.627 706.25 351.517 705.8 354.217 705.8H390.217C391.057 705.8 391.597 705.68 391.837 705.44C392.077 705.2 392.197 704.63 392.197 703.73V698.6C392.197 697.7 392.077 697.13 391.837 696.89C391.657 696.65 391.147 696.53 390.307 696.53H348.097C347.797 696.53 347.497 696.44 347.197 696.26C346.957 696.08 346.837 695.84 346.837 695.54V692.3C346.837 692 346.957 691.76 347.197 691.58C347.497 691.4 347.797 691.31 348.097 691.31H391.297C392.737 691.31 393.907 691.43 394.807 691.67C395.707 691.85 396.427 692.18 396.967 692.66C397.507 693.14 397.867 693.83 398.047 694.73C398.287 695.57 398.407 696.62 398.407 697.88V704.63C398.407 707.15 397.867 708.86 396.787 709.76C395.767 710.6 393.907 711.02 391.207 711.02H355.117C354.277 711.02 353.737 711.14 353.497 711.38C353.317 711.62 353.227 712.19 353.227 713.09V718.58C353.227 719.42 353.347 719.96 353.587 720.2C353.827 720.5 354.367 720.65 355.207 720.65H399.037C399.337 720.65 399.607 720.74 399.847 720.92C400.147 721.1 400.297 721.34 400.297 721.64V724.79ZM359.077 645.41C359.017 649.61 358.477 653.51 357.457 657.11C358.237 659.09 359.317 661.07 360.697 663.05C362.077 665.03 363.637 666.89 365.377 668.63C367.177 670.37 369.097 671.96 371.137 673.4C373.237 674.78 375.367 675.92 377.527 676.82C377.887 676.94 378.067 677.18 378.067 677.54C378.067 677.84 378.007 678.11 377.887 678.35L376.177 681.41C375.997 681.77 375.727 681.98 375.367 682.04C375.067 682.04 374.737 681.98 374.377 681.86C372.457 681.02 370.537 679.97 368.617 678.71C366.697 677.39 364.837 675.95 363.037 674.39C361.297 672.77 359.677 671.12 358.177 669.44C356.737 667.7 355.537 665.99 354.577 664.31C352.657 667.91 350.137 671.3 347.017 674.48C343.957 677.6 340.177 680.6 335.677 683.48C335.257 683.78 334.897 683.96 334.597 684.02C334.357 684.02 334.087 683.84 333.787 683.48L331.537 680.69C331.057 680.03 331.207 679.43 331.987 678.89C335.707 676.55 338.887 674.15 341.527 671.69C344.167 669.17 346.297 666.56 347.917 663.86C349.597 661.1 350.827 658.19 351.607 655.13C352.387 652.07 352.777 648.8 352.777 645.32C352.777 644.84 352.897 644.48 353.137 644.24C353.377 644 353.617 643.88 353.857 643.88L358.087 644.15C358.747 644.15 359.077 644.57 359.077 645.41ZM398.407 684.83C398.407 685.67 397.987 686.09 397.147 686.09H393.457C392.617 686.09 392.197 685.67 392.197 684.83V643.88C392.197 643.04 392.617 642.62 393.457 642.62H397.147C397.987 642.62 398.407 643.04 398.407 643.88V684.83ZM424.005 705.98C424.005 703.46 424.485 701.78 425.445 700.94C426.405 700.04 428.205 699.59 430.845 699.59H468.555C469.995 699.59 471.135 699.68 471.975 699.86C472.875 700.04 473.565 700.37 474.045 700.85C474.585 701.33 474.945 701.99 475.125 702.83C475.305 703.67 475.395 704.72 475.395 705.98V718.49C475.395 721.01 474.915 722.69 473.955 723.53C472.995 724.43 471.195 724.88 468.555 724.88H430.845C429.405 724.88 428.235 724.79 427.335 724.61C426.495 724.43 425.805 724.07 425.265 723.53C424.785 723.05 424.455 722.39 424.275 721.55C424.095 720.77 424.005 719.75 424.005 718.49V705.98ZM453.165 679.07C453.165 681.23 452.685 683.21 451.725 685.01C450.765 686.75 449.415 688.28 447.675 689.6C445.995 690.92 443.985 691.94 441.645 692.66C439.365 693.38 436.875 693.74 434.175 693.74C431.415 693.74 428.865 693.38 426.525 692.66C424.245 691.94 422.265 690.92 420.585 689.6C418.905 688.28 417.585 686.72 416.625 684.92C415.665 683.12 415.185 681.17 415.185 679.07C415.185 676.91 415.665 674.93 416.625 673.13C417.585 671.33 418.905 669.8 420.585 668.54C422.265 667.28 424.245 666.29 426.525 665.57C428.865 664.85 431.415 664.49 434.175 664.49C436.875 664.49 439.365 664.85 441.645 665.57C443.985 666.29 445.995 667.31 447.675 668.63C449.415 669.89 450.765 671.42 451.725 673.22C452.685 675.02 453.165 676.97 453.165 679.07ZM432.375 704.99C431.535 704.99 430.965 705.17 430.665 705.53C430.365 705.83 430.215 706.43 430.215 707.33V717.14C430.215 718.04 430.365 718.64 430.665 718.94C430.965 719.3 431.535 719.48 432.375 719.48H467.025C467.865 719.48 468.435 719.3 468.735 718.94C469.035 718.64 469.185 718.04 469.185 717.14V707.33C469.185 706.43 469.035 705.83 468.735 705.53C468.435 705.17 467.865 704.99 467.025 704.99H432.375ZM447.225 679.07C447.225 677.63 446.895 676.34 446.235 675.2C445.575 674 444.645 673.01 443.445 672.23C442.305 671.39 440.925 670.76 439.305 670.34C437.745 669.86 436.035 669.62 434.175 669.62C432.315 669.62 430.575 669.86 428.955 670.34C427.335 670.76 425.925 671.39 424.725 672.23C423.585 673.01 422.685 674 422.025 675.2C421.365 676.34 421.035 677.63 421.035 679.07C421.035 680.51 421.365 681.83 422.025 683.03C422.685 684.17 423.585 685.16 424.725 686C425.925 686.84 427.335 687.5 428.955 687.98C430.575 688.4 432.315 688.61 434.175 688.61C436.035 688.61 437.745 688.4 439.305 687.98C440.925 687.5 442.305 686.84 443.445 686C444.645 685.16 445.575 684.17 446.235 683.03C446.895 681.83 447.225 680.51 447.225 679.07ZM469.185 668.54V643.88C469.185 643.04 469.605 642.62 470.445 642.62H474.135C474.975 642.62 475.395 643.04 475.395 643.88V693.11C475.395 693.95 474.975 694.37 474.135 694.37H470.445C469.605 694.37 469.185 693.95 469.185 693.11V673.94H456.585C455.805 673.94 455.415 673.58 455.415 672.86V669.62C455.415 668.9 455.805 668.54 456.585 668.54H469.185ZM459.915 659.27C459.915 660.05 459.465 660.44 458.565 660.44H410.685C410.385 660.44 410.085 660.32 409.785 660.08C409.545 659.84 409.425 659.54 409.425 659.18V656.3C409.425 655.94 409.545 655.64 409.785 655.4C410.085 655.16 410.385 655.04 410.685 655.04H458.565C459.465 655.04 459.915 655.43 459.915 656.21V659.27ZM447.225 648.2C447.225 649.04 446.775 649.46 445.875 649.46H422.115C421.815 649.46 421.515 649.37 421.215 649.19C420.975 648.95 420.855 648.65 420.855 648.29V645.23C420.855 644.87 420.975 644.57 421.215 644.33C421.455 644.09 421.725 643.97 422.025 643.97H445.875C446.775 643.97 447.225 644.39 447.225 645.23V648.2ZM554.274 724.79C554.274 725.09 554.124 725.33 553.824 725.51C553.584 725.75 553.344 725.87 553.104 725.87H507.834C505.014 725.87 503.154 725.33 502.254 724.25C501.414 723.23 500.994 721.46 500.994 718.94V712.19C500.994 709.67 501.504 707.99 502.524 707.15C503.604 706.25 505.494 705.8 508.194 705.8H544.194C545.034 705.8 545.574 705.68 545.814 705.44C546.054 705.2 546.174 704.63 546.174 703.73V698.6C546.174 697.7 546.054 697.13 545.814 696.89C545.634 696.65 545.124 696.53 544.284 696.53H502.074C501.774 696.53 501.474 696.44 501.174 696.26C500.934 696.08 500.814 695.84 500.814 695.54V692.3C500.814 692 500.934 691.76 501.174 691.58C501.474 691.4 501.774 691.31 502.074 691.31H545.274C546.714 691.31 547.884 691.43 548.784 691.67C549.684 691.85 550.404 692.18 550.944 692.66C551.484 693.14 551.844 693.83 552.024 694.73C552.264 695.57 552.384 696.62 552.384 697.88V704.63C552.384 707.15 551.844 708.86 550.764 709.76C549.744 710.6 547.884 711.02 545.184 711.02H509.094C508.254 711.02 507.714 711.14 507.474 711.38C507.294 711.62 507.204 712.19 507.204 713.09V718.58C507.204 719.42 507.324 719.96 507.564 720.2C507.804 720.5 508.344 720.65 509.184 720.65H553.014C553.314 720.65 553.584 720.74 553.824 720.92C554.124 721.1 554.274 721.34 554.274 721.64V724.79ZM513.054 645.41C512.994 649.61 512.454 653.51 511.434 657.11C512.214 659.09 513.294 661.07 514.674 663.05C516.054 665.03 517.614 666.89 519.354 668.63C521.154 670.37 523.074 671.96 525.114 673.4C527.214 674.78 529.344 675.92 531.504 676.82C531.864 676.94 532.044 677.18 532.044 677.54C532.044 677.84 531.984 678.11 531.864 678.35L530.154 681.41C529.974 681.77 529.704 681.98 529.344 682.04C529.044 682.04 528.714 681.98 528.354 681.86C526.434 681.02 524.514 679.97 522.594 678.71C520.674 677.39 518.814 675.95 517.014 674.39C515.274 672.77 513.654 671.12 512.154 669.44C510.714 667.7 509.514 665.99 508.554 664.31C506.634 667.91 504.114 671.3 500.994 674.48C497.934 677.6 494.154 680.6 489.654 683.48C489.234 683.78 488.874 683.96 488.574 684.02C488.334 684.02 488.064 683.84 487.764 683.48L485.514 680.69C485.034 680.03 485.184 679.43 485.964 678.89C489.684 676.55 492.864 674.15 495.504 671.69C498.144 669.17 500.274 666.56 501.894 663.86C503.574 661.1 504.804 658.19 505.584 655.13C506.364 652.07 506.754 648.8 506.754 645.32C506.754 644.84 506.874 644.48 507.114 644.24C507.354 644 507.594 643.88 507.834 643.88L512.064 644.15C512.724 644.15 513.054 644.57 513.054 645.41ZM552.384 684.83C552.384 685.67 551.964 686.09 551.124 686.09H547.434C546.594 686.09 546.174 685.67 546.174 684.83V643.88C546.174 643.04 546.594 642.62 547.434 642.62H551.124C551.964 642.62 552.384 643.04 552.384 643.88V684.83Z" fill="black"/>
</svg>
